<svg id="my-svg" width="100%" xmlns="http://www.w3.org/2000/svg" xmlns:xlink="http://www.w3.org/1999/xlink" class="classDiagram" style="max-width: 1012.48px; background-color: white;" viewBox="0 0 1012.484375 594" role="graphics-document document" aria-roledescription="class"><style>#my-svg{font-family:"trebuchet ms",verdana,arial,sans-serif;font-size:16px;fill:#333;}@keyframes edge-animation-frame{from{stroke-dashoffset:0;}}@keyframes dash{to{stroke-dashoffset:0;}}#my-svg .edge-animation-slow{stroke-dasharray:9,5!important;stroke-dashoffset:900;animation:dash 50s linear infinite;stroke-linecap:round;}#my-svg .edge-animation-fast{stroke-dasharray:9,5!important;stroke-dashoffset:900;animation:dash 20s linear infinite;stroke-linecap:round;}#my-svg .error-icon{fill:#552222;}#my-svg .error-text{fill:#552222;stroke:#552222;}#my-svg .edge-thickness-normal{stroke-width:1px;}#my-svg .edge-thickness-thick{stroke-width:3.5px;}#my-svg .edge-pattern-solid{stroke-dasharray:0;}#my-svg .edge-thickness-invisible{stroke-width:0;fill:none;}#my-svg .edge-pattern-dashed{stroke-dasharray:3;}#my-svg .edge-pattern-dotted{stroke-dasharray:2;}#my-svg .marker{fill:#333333;stroke:#333333;}#my-svg .marker.cross{stroke:#333333;}#my-svg svg{font-family:"trebuchet ms",verdana,arial,sans-serif;font-size:16px;}#my-svg p{margin:0;}#my-svg g.classGroup text{fill:#9370DB;stroke:none;font-family:"trebuchet ms",verdana,arial,sans-serif;font-size:10px;}#my-svg g.classGroup text .title{font-weight:bolder;}#my-svg .cluster-label text{fill:#333;}#my-svg .cluster-label span{color:#333;}#my-svg .cluster-label span p{background-color:transparent;}#my-svg .cluster rect{fill:#ffffde;stroke:#aaaa33;stroke-width:1px;}#my-svg .cluster text{fill:#333;}#my-svg .cluster span{color:#333;}#my-svg .nodeLabel,#my-svg .edgeLabel{color:#131300;}#my-svg .edgeLabel .label rect{fill:#ECECFF;}#my-svg .label text{fill:#131300;}#my-svg .labelBkg{background:#ECECFF;}#my-svg .edgeLabel .label span{background:#ECECFF;}#my-svg .classTitle{font-weight:bolder;}#my-svg .node rect,#my-svg .node circle,#my-svg .node ellipse,#my-svg .node polygon,#my-svg .node path{fill:#ECECFF;stroke:#9370DB;stroke-width:1px;}#my-svg .divider{stroke:#9370DB;stroke-width:1;}#my-svg g.clickable{cursor:pointer;}#my-svg g.classGroup rect{fill:#ECECFF;stroke:#9370DB;}#my-svg g.classGroup line{stroke:#9370DB;stroke-width:1;}#my-svg .classLabel .box{stroke:none;stroke-width:0;fill:#ECECFF;opacity:0.5;}#my-svg .classLabel .label{fill:#9370DB;font-size:10px;}#my-svg .relation{stroke:#333333;stroke-width:1;fill:none;}#my-svg .dashed-line{stroke-dasharray:3;}#my-svg .dotted-line{stroke-dasharray:1 2;}#my-svg #compositionStart,#my-svg .composition{fill:#333333!important;stroke:#333333!important;stroke-width:1;}#my-svg #compositionEnd,#my-svg .composition{fill:#333333!important;stroke:#333333!important;stroke-width:1;}#my-svg #dependencyStart,#my-svg .dependency{fill:#333333!important;stroke:#333333!important;stroke-width:1;}#my-svg #dependencyStart,#my-svg .dependency{fill:#333333!important;stroke:#333333!important;stroke-width:1;}#my-svg #extensionStart,#my-svg .extension{fill:transparent!important;stroke:#333333!important;stroke-width:1;}#my-svg #extensionEnd,#my-svg .extension{fill:transparent!important;stroke:#333333!important;stroke-width:1;}#my-svg #aggregationStart,#my-svg .aggregation{fill:transparent!important;stroke:#333333!important;stroke-width:1;}#my-svg #aggregationEnd,#my-svg .aggregation{fill:transparent!important;stroke:#333333!important;stroke-width:1;}#my-svg #lollipopStart,#my-svg .lollipop{fill:#ECECFF!important;stroke:#333333!important;stroke-width:1;}#my-svg #lollipopEnd,#my-svg .lollipop{fill:#ECECFF!important;stroke:#333333!important;stroke-width:1;}#my-svg .edgeTerminals{font-size:11px;line-height:initial;}#my-svg .classTitleText{text-anchor:middle;font-size:18px;fill:#333;}#my-svg .label-icon{display:inline-block;height:1em;overflow:visible;vertical-align:-0.125em;}#my-svg .node .label-icon path{fill:currentColor;stroke:revert;stroke-width:revert;}#my-svg :root{--mermaid-font-family:"trebuchet ms",verdana,arial,sans-serif;}</style><g><defs><marker id="my-svg_class-aggregationStart" class="marker aggregation class" refX="18" refY="7" markerWidth="190" markerHeight="240" orient="auto"><path d="M 18,7 L9,13 L1,7 L9,1 Z"/></marker></defs><defs><marker id="my-svg_class-aggregationEnd" class="marker aggregation class" refX="1" refY="7" markerWidth="20" markerHeight="28" orient="auto"><path d="M 18,7 L9,13 L1,7 L9,1 Z"/></marker></defs><defs><marker id="my-svg_class-extensionStart" class="marker extension class" refX="18" refY="7" markerWidth="190" markerHeight="240" orient="auto"><path d="M 1,7 L18,13 V 1 Z"/></marker></defs><defs><marker id="my-svg_class-extensionEnd" class="marker extension class" refX="1" refY="7" markerWidth="20" markerHeight="28" orient="auto"><path d="M 1,1 V 13 L18,7 Z"/></marker></defs><defs><marker id="my-svg_class-compositionStart" class="marker composition class" refX="18" refY="7" markerWidth="190" markerHeight="240" orient="auto"><path d="M 18,7 L9,13 L1,7 L9,1 Z"/></marker></defs><defs><marker id="my-svg_class-compositionEnd" class="marker composition class" refX="1" refY="7" markerWidth="20" markerHeight="28" orient="auto"><path d="M 18,7 L9,13 L1,7 L9,1 Z"/></marker></defs><defs><marker id="my-svg_class-dependencyStart" class="marker dependency class" refX="6" refY="7" markerWidth="190" markerHeight="240" orient="auto"><path d="M 5,7 L9,13 L1,7 L9,1 Z"/></marker></defs><defs><marker id="my-svg_class-dependencyEnd" class="marker dependency class" refX="13" refY="7" markerWidth="20" markerHeight="28" orient="auto"><path d="M 18,7 L9,13 L14,7 L9,1 Z"/></marker></defs><defs><marker id="my-svg_class-lollipopStart" class="marker lollipop class" refX="13" refY="7" markerWidth="190" markerHeight="240" orient="auto"><circle fill="transparent" cx="7" cy="7" r="6"/></marker></defs><defs><marker id="my-svg_class-lollipopEnd" class="marker lollipop class" refX="1" refY="7" markerWidth="190" markerHeight="240" orient="auto"><circle fill="transparent" cx="7" cy="7" r="6"/></marker></defs><g class="root"><g class="clusters"/><g class="edgePaths"><path d="M183.891,309L185.182,309C186.474,309,189.057,309,194.516,309C199.974,309,208.307,309,212.474,309L216.641,309" id="id_CredentialSubject_LegalEntityIdentifier_1" class="edge-thickness-normal edge-pattern-solid relation" style=";;;" data-edge="true" data-et="edge" data-id="id_CredentialSubject_LegalEntityIdentifier_1" data-points="W3sieCI6MTY2LjY0MDYyNSwieSI6MzA5fSx7IngiOjE5MS42NDA2MjUsInkiOjMwOX0seyJ4IjoyMTYuNjQwNjI1LCJ5IjozMDl9XQ==" marker-start="url(#my-svg_class-extensionStart)"/><path d="M540.96,203.556L554.094,194.963C567.229,186.371,593.497,169.185,619.437,160.593C645.378,152,670.99,152,683.796,152L696.602,152" id="id_LegalEntityIdentifier_LegalEntity_2" class="edge-thickness-normal edge-pattern-solid relation" style=";;;" data-edge="true" data-et="edge" data-id="id_LegalEntityIdentifier_LegalEntity_2" data-points="W3sieCI6NTI2LjUyNDgwNTkzMTUyODcsInkiOjIxM30seyJ4Ijo2MTkuNzY1NjI1LCJ5IjoxNTJ9LHsieCI6Njk2LjYwMTU2MjUsInkiOjE1Mn1d" marker-start="url(#my-svg_class-compositionStart)"/><path d="M540.96,414.444L554.094,423.037C567.229,431.629,593.497,448.815,621.153,457.407C648.81,466,677.854,466,692.376,466L706.898,466" id="id_LegalEntityIdentifier_LeiRegistration_3" class="edge-thickness-normal edge-pattern-solid relation" style=";;;" data-edge="true" data-et="edge" data-id="id_LegalEntityIdentifier_LeiRegistration_3" data-points="W3sieCI6NTI2LjUyNDgwNTkzMTUyODcsInkiOjQwNX0seyJ4Ijo2MTkuNzY1NjI1LCJ5Ijo0NjZ9LHsieCI6NzA2Ljg5ODQzNzUsInkiOjQ2Nn1d" marker-start="url(#my-svg_class-compositionStart)"/></g><g class="edgeLabels"><g class="edgeLabel"><g class="label" data-id="id_CredentialSubject_LegalEntityIdentifier_1" transform="translate(0, 0)"><foreignObject width="0" height="0"><div xmlns="http://www.w3.org/1999/xhtml" class="labelBkg" style="display: table-cell; white-space: nowrap; line-height: 1.5; max-width: 200px; text-align: center;"><span class="edgeLabel"></span></div></foreignObject></g></g><g class="edgeLabel" transform="translate(619.765625, 152)"><g class="label" data-id="id_LegalEntityIdentifier_LegalEntity_2" transform="translate(-38.53125, -12)"><foreignObject width="77.0625" height="24"><div xmlns="http://www.w3.org/1999/xhtml" class="labelBkg" style="display: table-cell; white-space: nowrap; line-height: 1.5; max-width: 200px; text-align: center;"><span class="edgeLabel"><p>legalEntity</p></span></div></foreignObject></g></g><g class="edgeLabel" transform="translate(619.765625, 466)"><g class="label" data-id="id_LegalEntityIdentifier_LeiRegistration_3" transform="translate(-51.8359375, -12)"><foreignObject width="103.671875" height="24"><div xmlns="http://www.w3.org/1999/xhtml" class="labelBkg" style="display: table-cell; white-space: nowrap; line-height: 1.5; max-width: 200px; text-align: center;"><span class="edgeLabel"><p>leiRegistration</p></span></div></foreignObject></g></g></g><g class="nodes"><g class="node default" id="classId-LegalEntityIdentifier-0" transform="translate(379.78515625, 309)"><g class="basic label-container"><path d="M-163.14453125 -96 L163.14453125 -96 L163.14453125 96 L-163.14453125 96" stroke="none" stroke-width="0" fill="#ECECFF" style=""/><path d="M-163.14453125 -96 C-37.89920219884098 -96, 87.34612685231804 -96, 163.14453125 -96 M-163.14453125 -96 C-41.60109568630769 -96, 79.94233987738463 -96, 163.14453125 -96 M163.14453125 -96 C163.14453125 -53.09756600090798, 163.14453125 -10.195132001815963, 163.14453125 96 M163.14453125 -96 C163.14453125 -37.974531264601396, 163.14453125 20.05093747079721, 163.14453125 96 M163.14453125 96 C85.31166746637133 96, 7.478803682742665 96, -163.14453125 96 M163.14453125 96 C64.69821093251723 96, -33.748109384965545 96, -163.14453125 96 M-163.14453125 96 C-163.14453125 32.42583423572322, -163.14453125 -31.148331528553555, -163.14453125 -96 M-163.14453125 96 C-163.14453125 50.93423154323864, -163.14453125 5.868463086477277, -163.14453125 -96" stroke="#9370DB" stroke-width="1.3" fill="none" stroke-dasharray="0 0" style=""/></g><g class="annotation-group text" transform="translate(-24.0234375, -72)"><g class="label" style="" transform="translate(0,-12)"><foreignObject width="48.046875" height="24"><div xmlns="http://www.w3.org/1999/xhtml" style="display: table-cell; white-space: nowrap; line-height: 1.5; max-width: 102px; text-align: center;"><span class="nodeLabel markdown-node-label" style=""><p>«EBW»</p></span></div></foreignObject></g></g><g class="label-group text" transform="translate(-77.0390625, -48)"><g class="label" style="font-weight: bolder" transform="translate(0,-12)"><foreignObject width="154.078125" height="24"><div xmlns="http://www.w3.org/1999/xhtml" style="display: table-cell; white-space: nowrap; line-height: 1.5; max-width: 185px; text-align: center;"><span class="nodeLabel markdown-node-label" style=""><p>LegalEntityIdentifier</p></span></div></foreignObject></g></g><g class="members-group text" transform="translate(-151.14453125, 0)"><g class="label" style="" transform="translate(0,-12)"><foreignObject width="77.46875" height="24"><div xmlns="http://www.w3.org/1999/xhtml" style="display: table-cell; white-space: nowrap; line-height: 1.5; max-width: 124px; text-align: center;"><span class="nodeLabel markdown-node-label" style=""><p>+lei: string</p></span></div></foreignObject></g><g class="label" style="" transform="translate(0,12)"><foreignObject width="176.578125" height="24"><div xmlns="http://www.w3.org/1999/xhtml" style="display: table-cell; white-space: nowrap; line-height: 1.5; max-width: 218px; text-align: center;"><span class="nodeLabel markdown-node-label" style=""><p>+legalEntity: LegalEntity</p></span></div></foreignObject></g><g class="label" style="" transform="translate(0,36)"><foreignObject width="225.25" height="24"><div xmlns="http://www.w3.org/1999/xhtml" style="display: table-cell; white-space: nowrap; line-height: 1.5; max-width: 261px; text-align: center;"><span class="nodeLabel markdown-node-label" style=""><p>+leiRegstration: LeiRegistration</p></span></div></foreignObject></g></g><g class="methods-group text" transform="translate(-151.14453125, 96)"/><g class="divider" style=""><path d="M-163.14453125 -24 C-68.2015661188273 -24, 26.741399012345397 -24, 163.14453125 -24 M-163.14453125 -24 C-60.82754998555417 -24, 41.48943127889166 -24, 163.14453125 -24" stroke="#9370DB" stroke-width="1.3" fill="none" stroke-dasharray="0 0" style=""/></g><g class="divider" style=""><path d="M-163.14453125 72 C-84.83636693167479 72, -6.528202613349578 72, 163.14453125 72 M-163.14453125 72 C-93.17320847305363 72, -23.20188569610727 72, 163.14453125 72" stroke="#9370DB" stroke-width="1.3" fill="none" stroke-dasharray="0 0" style=""/></g></g><g class="node default" id="classId-LegalEntity-1" transform="translate(850.54296875, 152)"><g class="basic label-container"><path d="M-153.94140625 -144 L153.94140625 -144 L153.94140625 144 L-153.94140625 144" stroke="none" stroke-width="0" fill="#ECECFF" style=""/><path d="M-153.94140625 -144 C-46.13658151691969 -144, 61.66824321616062 -144, 153.94140625 -144 M-153.94140625 -144 C-50.5710283902759 -144, 52.7993494694482 -144, 153.94140625 -144 M153.94140625 -144 C153.94140625 -44.10138609105971, 153.94140625 55.79722781788058, 153.94140625 144 M153.94140625 -144 C153.94140625 -79.24799290423819, 153.94140625 -14.495985808476377, 153.94140625 144 M153.94140625 144 C57.56805681988604 144, -38.80529261022792 144, -153.94140625 144 M153.94140625 144 C72.25899843291269 144, -9.423409384174619 144, -153.94140625 144 M-153.94140625 144 C-153.94140625 67.28734119705908, -153.94140625 -9.425317605881844, -153.94140625 -144 M-153.94140625 144 C-153.94140625 66.00997521586461, -153.94140625 -11.980049568270772, -153.94140625 -144" stroke="#9370DB" stroke-width="1.3" fill="none" stroke-dasharray="0 0" style=""/></g><g class="annotation-group text" transform="translate(-24.0234375, -120)"><g class="label" style="" transform="translate(0,-12)"><foreignObject width="48.046875" height="24"><div xmlns="http://www.w3.org/1999/xhtml" style="display: table-cell; white-space: nowrap; line-height: 1.5; max-width: 102px; text-align: center;"><span class="nodeLabel markdown-node-label" style=""><p>«EBW»</p></span></div></foreignObject></g></g><g class="label-group text" transform="translate(-41.9296875, -96)"><g class="label" style="font-weight: bolder" transform="translate(0,-12)"><foreignObject width="83.859375" height="24"><div xmlns="http://www.w3.org/1999/xhtml" style="display: table-cell; white-space: nowrap; line-height: 1.5; max-width: 126px; text-align: center;"><span class="nodeLabel markdown-node-label" style=""><p>LegalEntity</p></span></div></foreignObject></g></g><g class="members-group text" transform="translate(-141.94140625, -48)"><g class="label" style="" transform="translate(0,-12)"><foreignObject width="241.953125" height="24"><div xmlns="http://www.w3.org/1999/xhtml" style="display: table-cell; white-space: nowrap; line-height: 1.5; max-width: 276px; text-align: center;"><span class="nodeLabel markdown-node-label" style=""><p>+correspondenceAddress: Address</p></span></div></foreignObject></g><g class="label" style="" transform="translate(0,12)"><foreignObject width="186.234375" height="24"><div xmlns="http://www.w3.org/1999/xhtml" style="display: table-cell; white-space: nowrap; line-height: 1.5; max-width: 220px; text-align: center;"><span class="nodeLabel markdown-node-label" style=""><p>+dateOfRegistration: date</p></span></div></foreignObject></g><g class="label" style="" transform="translate(0,36)"><foreignObject width="192.484375" height="24"><div xmlns="http://www.w3.org/1999/xhtml" style="display: table-cell; white-space: nowrap; line-height: 1.5; max-width: 231px; text-align: center;"><span class="nodeLabel markdown-node-label" style=""><p>+jurisdiction: CountryCode</p></span></div></foreignObject></g><g class="label" style="" transform="translate(0,60)"><foreignObject width="130.546875" height="24"><div xmlns="http://www.w3.org/1999/xhtml" style="display: table-cell; white-space: nowrap; line-height: 1.5; max-width: 174px; text-align: center;"><span class="nodeLabel markdown-node-label" style=""><p>+legalForm: string</p></span></div></foreignObject></g><g class="label" style="" transform="translate(0,84)"><foreignObject width="134.6875" height="24"><div xmlns="http://www.w3.org/1999/xhtml" style="display: table-cell; white-space: nowrap; line-height: 1.5; max-width: 178px; text-align: center;"><span class="nodeLabel markdown-node-label" style=""><p>+legalName: string</p></span></div></foreignObject></g><g class="label" style="" transform="translate(0,108)"><foreignObject width="138.078125" height="24"><div xmlns="http://www.w3.org/1999/xhtml" style="display: table-cell; white-space: nowrap; line-height: 1.5; max-width: 179px; text-align: center;"><span class="nodeLabel markdown-node-label" style=""><p>+legalStatus: string</p></span></div></foreignObject></g><g class="label" style="" transform="translate(0,132)"><foreignObject width="201.484375" height="24"><div xmlns="http://www.w3.org/1999/xhtml" style="display: table-cell; white-space: nowrap; line-height: 1.5; max-width: 239px; text-align: center;"><span class="nodeLabel markdown-node-label" style=""><p>+registeredAddress: Address</p></span></div></foreignObject></g></g><g class="methods-group text" transform="translate(-141.94140625, 144)"/><g class="divider" style=""><path d="M-153.94140625 -72 C-66.54616076696145 -72, 20.8490847160771 -72, 153.94140625 -72 M-153.94140625 -72 C-84.68601126728656 -72, -15.43061628457312 -72, 153.94140625 -72" stroke="#9370DB" stroke-width="1.3" fill="none" stroke-dasharray="0 0" style=""/></g><g class="divider" style=""><path d="M-153.94140625 120 C-81.5697775109245 120, -9.198148771848992 120, 153.94140625 120 M-153.94140625 120 C-35.19630873299923 120, 83.54878878400154 120, 153.94140625 120" stroke="#9370DB" stroke-width="1.3" fill="none" stroke-dasharray="0 0" style=""/></g></g><g class="node default" id="classId-LeiRegistration-2" transform="translate(850.54296875, 466)"><g class="basic label-container"><path d="M-143.64453125 -120 L143.64453125 -120 L143.64453125 120 L-143.64453125 120" stroke="none" stroke-width="0" fill="#ECECFF" style=""/><path d="M-143.64453125 -120 C-44.075352150024244 -120, 55.49382694995151 -120, 143.64453125 -120 M-143.64453125 -120 C-83.75091917404082 -120, -23.857307098081634 -120, 143.64453125 -120 M143.64453125 -120 C143.64453125 -66.56135563922219, 143.64453125 -13.12271127844437, 143.64453125 120 M143.64453125 -120 C143.64453125 -66.35722838884685, 143.64453125 -12.714456777693698, 143.64453125 120 M143.64453125 120 C41.422625060534344 120, -60.79928112893131 120, -143.64453125 120 M143.64453125 120 C49.596777305915694 120, -44.45097663816861 120, -143.64453125 120 M-143.64453125 120 C-143.64453125 51.906094876557276, -143.64453125 -16.187810246885448, -143.64453125 -120 M-143.64453125 120 C-143.64453125 26.16608142467507, -143.64453125 -67.66783715064986, -143.64453125 -120" stroke="#9370DB" stroke-width="1.3" fill="none" stroke-dasharray="0 0" style=""/></g><g class="annotation-group text" transform="translate(-24.0234375, -96)"><g class="label" style="" transform="translate(0,-12)"><foreignObject width="48.046875" height="24"><div xmlns="http://www.w3.org/1999/xhtml" style="display: table-cell; white-space: nowrap; line-height: 1.5; max-width: 102px; text-align: center;"><span class="nodeLabel markdown-node-label" style=""><p>«EBW»</p></span></div></foreignObject></g></g><g class="label-group text" transform="translate(-56.1484375, -72)"><g class="label" style="font-weight: bolder" transform="translate(0,-12)"><foreignObject width="112.296875" height="24"><div xmlns="http://www.w3.org/1999/xhtml" style="display: table-cell; white-space: nowrap; line-height: 1.5; max-width: 150px; text-align: center;"><span class="nodeLabel markdown-node-label" style=""><p>LeiRegistration</p></span></div></foreignObject></g></g><g class="members-group text" transform="translate(-131.64453125, -24)"><g class="label" style="" transform="translate(0,-12)"><foreignObject width="150.5" height="24"><div xmlns="http://www.w3.org/1999/xhtml" style="display: table-cell; white-space: nowrap; line-height: 1.5; max-width: 188px; text-align: center;"><span class="nodeLabel markdown-node-label" style=""><p>+leiLastUpdate: date</p></span></div></foreignObject></g><g class="label" style="" transform="translate(0,12)"><foreignObject width="162.671875" height="24"><div xmlns="http://www.w3.org/1999/xhtml" style="display: table-cell; white-space: nowrap; line-height: 1.5; max-width: 202px; text-align: center;"><span class="nodeLabel markdown-node-label" style=""><p>+leiNextRenewal: date</p></span></div></foreignObject></g><g class="label" style="" transform="translate(0,36)"><foreignObject width="207.140625" height="24"><div xmlns="http://www.w3.org/1999/xhtml" style="display: table-cell; white-space: nowrap; line-height: 1.5; max-width: 242px; text-align: center;"><span class="nodeLabel markdown-node-label" style=""><p>+leiRegistrationStatus: string</p></span></div></foreignObject></g><g class="label" style="" transform="translate(0,60)"><foreignObject width="188.4375" height="24"><div xmlns="http://www.w3.org/1999/xhtml" style="display: table-cell; white-space: nowrap; line-height: 1.5; max-width: 223px; text-align: center;"><span class="nodeLabel markdown-node-label" style=""><p>+leiRegistrationDate: date</p></span></div></foreignObject></g><g class="label" style="" transform="translate(0,84)"><foreignObject width="190.15625" height="24"><div xmlns="http://www.w3.org/1999/xhtml" style="display: table-cell; white-space: nowrap; line-height: 1.5; max-width: 231px; text-align: center;"><span class="nodeLabel markdown-node-label" style=""><p>+managingLeiIssuer: string</p></span></div></foreignObject></g></g><g class="methods-group text" transform="translate(-131.64453125, 120)"/><g class="divider" style=""><path d="M-143.64453125 -48 C-50.92447472666407 -48, 41.795581796671854 -48, 143.64453125 -48 M-143.64453125 -48 C-36.06136679312597 -48, 71.52179766374806 -48, 143.64453125 -48" stroke="#9370DB" stroke-width="1.3" fill="none" stroke-dasharray="0 0" style=""/></g><g class="divider" style=""><path d="M-143.64453125 96 C-84.75852950046485 96, -25.872527750929677 96, 143.64453125 96 M-143.64453125 96 C-58.16628611620209 96, 27.311959017595825 96, 143.64453125 96" stroke="#9370DB" stroke-width="1.3" fill="none" stroke-dasharray="0 0" style=""/></g></g><g class="node default" id="classId-CredentialSubject-3" transform="translate(87.3203125, 309)"><g class="basic label-container"><path d="M-79.3203125 -54 L79.3203125 -54 L79.3203125 54 L-79.3203125 54" stroke="none" stroke-width="0" fill="#ECECFF" style=""/><path d="M-79.3203125 -54 C-27.630379212033453 -54, 24.059554075933093 -54, 79.3203125 -54 M-79.3203125 -54 C-24.118552936552987 -54, 31.083206626894025 -54, 79.3203125 -54 M79.3203125 -54 C79.3203125 -19.353854207681422, 79.3203125 15.292291584637155, 79.3203125 54 M79.3203125 -54 C79.3203125 -23.018874142556587, 79.3203125 7.9622517148868255, 79.3203125 54 M79.3203125 54 C24.817710303772706 54, -29.684891892454587 54, -79.3203125 54 M79.3203125 54 C19.198100095755912 54, -40.924112308488176 54, -79.3203125 54 M-79.3203125 54 C-79.3203125 18.18908535712545, -79.3203125 -17.6218292857491, -79.3203125 -54 M-79.3203125 54 C-79.3203125 23.571965000604347, -79.3203125 -6.856069998791305, -79.3203125 -54" stroke="#9370DB" stroke-width="1.3" fill="none" stroke-dasharray="0 0" style=""/></g><g class="annotation-group text" transform="translate(-38.34375, -30)"><g class="label" style="" transform="translate(0,-12)"><foreignObject width="76.6875" height="24"><div xmlns="http://www.w3.org/1999/xhtml" style="display: table-cell; white-space: nowrap; line-height: 1.5; max-width: 118px; text-align: center;"><span class="nodeLabel markdown-node-label" style=""><p>«external»</p></span></div></foreignObject></g></g><g class="label-group text" transform="translate(-67.3203125, -6)"><g class="label" style="font-weight: bolder" transform="translate(0,-12)"><foreignObject width="134.640625" height="24"><div xmlns="http://www.w3.org/1999/xhtml" style="display: table-cell; white-space: nowrap; line-height: 1.5; max-width: 165px; text-align: center;"><span class="nodeLabel markdown-node-label" style=""><p>CredentialSubject</p></span></div></foreignObject></g></g><g class="members-group text" transform="translate(-67.3203125, 42)"/><g class="methods-group text" transform="translate(-67.3203125, 72)"/><g class="divider" style=""><path d="M-79.3203125 18 C-36.446898507204814 18, 6.426515485590372 18, 79.3203125 18 M-79.3203125 18 C-34.61014381021013 18, 10.100024879579735 18, 79.3203125 18" stroke="#9370DB" stroke-width="1.3" fill="none" stroke-dasharray="0 0" style=""/></g><g class="divider" style=""><path d="M-79.3203125 36 C-24.70612109518906 36, 29.908070309621877 36, 79.3203125 36 M-79.3203125 36 C-42.2370658515423 36, -5.153819203084595 36, 79.3203125 36" stroke="#9370DB" stroke-width="1.3" fill="none" stroke-dasharray="0 0" style=""/></g></g></g></g></g></svg>