<svg aria-roledescription="class" role="graphics-document document" viewBox="0 0 987.3828125 319" style="max-width: 987.383px; background-color: white;" class="classDiagram" xmlns:xlink="http://www.w3.org/1999/xlink" xmlns="http://www.w3.org/2000/svg" width="100%" id="my-svg"><style>#my-svg{font-family:"trebuchet ms",verdana,arial,sans-serif;font-size:16px;fill:#333;}@keyframes edge-animation-frame{from{stroke-dashoffset:0;}}@keyframes dash{to{stroke-dashoffset:0;}}#my-svg .edge-animation-slow{stroke-dasharray:9,5!important;stroke-dashoffset:900;animation:dash 50s linear infinite;stroke-linecap:round;}#my-svg .edge-animation-fast{stroke-dasharray:9,5!important;stroke-dashoffset:900;animation:dash 20s linear infinite;stroke-linecap:round;}#my-svg .error-icon{fill:#552222;}#my-svg .error-text{fill:#552222;stroke:#552222;}#my-svg .edge-thickness-normal{stroke-width:1px;}#my-svg .edge-thickness-thick{stroke-width:3.5px;}#my-svg .edge-pattern-solid{stroke-dasharray:0;}#my-svg .edge-thickness-invisible{stroke-width:0;fill:none;}#my-svg .edge-pattern-dashed{stroke-dasharray:3;}#my-svg .edge-pattern-dotted{stroke-dasharray:2;}#my-svg .marker{fill:#333333;stroke:#333333;}#my-svg .marker.cross{stroke:#333333;}#my-svg svg{font-family:"trebuchet ms",verdana,arial,sans-serif;font-size:16px;}#my-svg p{margin:0;}#my-svg g.classGroup text{fill:#9370DB;stroke:none;font-family:"trebuchet ms",verdana,arial,sans-serif;font-size:10px;}#my-svg g.classGroup text .title{font-weight:bolder;}#my-svg .nodeLabel,#my-svg .edgeLabel{color:#131300;}#my-svg .edgeLabel .label rect{fill:#ECECFF;}#my-svg .label text{fill:#131300;}#my-svg .labelBkg{background:#ECECFF;}#my-svg .edgeLabel .label span{background:#ECECFF;}#my-svg .classTitle{font-weight:bolder;}#my-svg .node rect,#my-svg .node circle,#my-svg .node ellipse,#my-svg .node polygon,#my-svg .node path{fill:#ECECFF;stroke:#9370DB;stroke-width:1px;}#my-svg .divider{stroke:#9370DB;stroke-width:1;}#my-svg g.clickable{cursor:pointer;}#my-svg g.classGroup rect{fill:#ECECFF;stroke:#9370DB;}#my-svg g.classGroup line{stroke:#9370DB;stroke-width:1;}#my-svg .classLabel .box{stroke:none;stroke-width:0;fill:#ECECFF;opacity:0.5;}#my-svg .classLabel .label{fill:#9370DB;font-size:10px;}#my-svg .relation{stroke:#333333;stroke-width:1;fill:none;}#my-svg .dashed-line{stroke-dasharray:3;}#my-svg .dotted-line{stroke-dasharray:1 2;}#my-svg #compositionStart,#my-svg .composition{fill:#333333!important;stroke:#333333!important;stroke-width:1;}#my-svg #compositionEnd,#my-svg .composition{fill:#333333!important;stroke:#333333!important;stroke-width:1;}#my-svg #dependencyStart,#my-svg .dependency{fill:#333333!important;stroke:#333333!important;stroke-width:1;}#my-svg #dependencyStart,#my-svg .dependency{fill:#333333!important;stroke:#333333!important;stroke-width:1;}#my-svg #extensionStart,#my-svg .extension{fill:transparent!important;stroke:#333333!important;stroke-width:1;}#my-svg #extensionEnd,#my-svg .extension{fill:transparent!important;stroke:#333333!important;stroke-width:1;}#my-svg #aggregationStart,#my-svg .aggregation{fill:transparent!important;stroke:#333333!important;stroke-width:1;}#my-svg #aggregationEnd,#my-svg .aggregation{fill:transparent!important;stroke:#333333!important;stroke-width:1;}#my-svg #lollipopStart,#my-svg .lollipop{fill:#ECECFF!important;stroke:#333333!important;stroke-width:1;}#my-svg #lollipopEnd,#my-svg .lollipop{fill:#ECECFF!important;stroke:#333333!important;stroke-width:1;}#my-svg .edgeTerminals{font-size:11px;line-height:initial;}#my-svg .classTitleText{text-anchor:middle;font-size:18px;fill:#333;}#my-svg .label-icon{display:inline-block;height:1em;overflow:visible;vertical-align:-0.125em;}#my-svg .node .label-icon path{fill:currentColor;stroke:revert;stroke-width:revert;}#my-svg :root{--mermaid-font-family:"trebuchet ms",verdana,arial,sans-serif;}</style><g><defs><marker orient="auto" markerHeight="240" markerWidth="190" refY="7" refX="18" class="marker aggregation class" id="my-svg_class-aggregationStart"><path d="M 18,7 L9,13 L1,7 L9,1 Z"/></marker></defs><defs><marker orient="auto" markerHeight="28" markerWidth="20" refY="7" refX="1" class="marker aggregation class" id="my-svg_class-aggregationEnd"><path d="M 18,7 L9,13 L1,7 L9,1 Z"/></marker></defs><defs><marker orient="auto" markerHeight="240" markerWidth="190" refY="7" refX="18" class="marker extension class" id="my-svg_class-extensionStart"><path d="M 1,7 L18,13 V 1 Z"/></marker></defs><defs><marker orient="auto" markerHeight="28" markerWidth="20" refY="7" refX="1" class="marker extension class" id="my-svg_class-extensionEnd"><path d="M 1,1 V 13 L18,7 Z"/></marker></defs><defs><marker orient="auto" markerHeight="240" markerWidth="190" refY="7" refX="18" class="marker composition class" id="my-svg_class-compositionStart"><path d="M 18,7 L9,13 L1,7 L9,1 Z"/></marker></defs><defs><marker orient="auto" markerHeight="28" markerWidth="20" refY="7" refX="1" class="marker composition class" id="my-svg_class-compositionEnd"><path d="M 18,7 L9,13 L1,7 L9,1 Z"/></marker></defs><defs><marker orient="auto" markerHeight="240" markerWidth="190" refY="7" refX="6" class="marker dependency class" id="my-svg_class-dependencyStart"><path d="M 5,7 L9,13 L1,7 L9,1 Z"/></marker></defs><defs><marker orient="auto" markerHeight="28" markerWidth="20" refY="7" refX="13" class="marker dependency class" id="my-svg_class-dependencyEnd"><path d="M 18,7 L9,13 L14,7 L9,1 Z"/></marker></defs><defs><marker orient="auto" markerHeight="240" markerWidth="190" refY="7" refX="13" class="marker lollipop class" id="my-svg_class-lollipopStart"><circle r="6" cy="7" cx="7" fill="transparent" stroke="black"/></marker></defs><defs><marker orient="auto" markerHeight="240" markerWidth="190" refY="7" refX="1" class="marker lollipop class" id="my-svg_class-lollipopEnd"><circle r="6" cy="7" cx="7" fill="transparent" stroke="black"/></marker></defs><g class="root"><g class="clusters"/><g class="edgePaths"><path marker-start="url(#my-svg_class-extensionStart)" style="" class="edge-thickness-normal edge-pattern-solid relation" id="id_CredentialSubject_BankAccount_1" d="M184.641,171L185.807,171C186.974,171,189.307,171,194.641,171C199.974,171,208.307,171,212.474,171L216.641,171"/><path marker-end="url(#my-svg_class-dependencyEnd)" style="" class="edge-thickness-normal edge-pattern-solid relation" id="id_BankAccount_Company_2" d="M445.922,119.638L455.087,115.532C464.253,111.425,482.583,103.213,499.927,100.431C517.271,97.649,533.627,100.299,541.805,101.623L549.983,102.948"/><path marker-end="url(#my-svg_class-dependencyEnd)" style="" class="edge-thickness-normal edge-pattern-solid relation" id="id_BankAccount_Company_3" d="M445.922,171L455.087,171C464.253,171,482.583,171,499.985,167.726C517.386,164.451,533.859,157.902,542.095,154.628L550.331,151.353"/><path marker-end="url(#my-svg_class-dependencyEnd)" style="" class="edge-thickness-normal edge-pattern-solid relation" id="id_BankAccount_Iban_4" d="M445.922,237.23L455.087,242.525C464.253,247.82,482.583,258.41,508.742,263.705C534.9,269,568.885,269,585.878,269L602.871,269"/><path marker-end="url(#my-svg_class-dependencyEnd)" style="" class="edge-thickness-normal edge-pattern-solid relation" id="id_Company_Bic_5" d="M717.57,78.17L727.344,73.475C737.117,68.78,756.664,59.39,783.382,54.695C810.099,50,843.987,50,860.931,50L877.875,50"/><path marker-end="url(#my-svg_class-dependencyEnd)" style="" class="edge-thickness-normal edge-pattern-solid relation" id="id_Company_ClearingNumber_6" d="M717.57,155.83L727.344,160.525C737.117,165.22,756.664,174.61,775.211,179.305C793.758,184,811.305,184,820.078,184L828.852,184"/></g><g class="edgeLabels"><g class="edgeLabel"><g transform="translate(0, -12)" class="label"><foreignObject height="24" width="0"><div class="labelBkg" xmlns="http://www.w3.org/1999/xhtml" style="display: table-cell; white-space: nowrap; line-height: 1.5; max-width: 200px; text-align: center;"><span class="edgeLabel" style=";display: inline-block"></span></div></foreignObject></g></g><g transform="translate(500.9140625, 95)" class="edgeLabel"><g transform="translate(-22.09375, -12)" class="label"><foreignObject height="24" width="44.1875"><div class="labelBkg" xmlns="http://www.w3.org/1999/xhtml" style="display: table-cell; white-space: nowrap; line-height: 1.5; max-width: 200px; text-align: center;"><span class="edgeLabel" style=";display: inline-block"><p>owner</p></span></div></foreignObject></g></g><g transform="translate(500.9140625, 171)" class="edgeLabel"><g transform="translate(-29.9921875, -12)" class="label"><foreignObject height="24" width="59.984375"><div class="labelBkg" xmlns="http://www.w3.org/1999/xhtml" style="display: table-cell; white-space: nowrap; line-height: 1.5; max-width: 200px; text-align: center;"><span class="edgeLabel" style=";display: inline-block"><p>provider</p></span></div></foreignObject></g></g><g transform="translate(500.9140625, 269)" class="edgeLabel"><g transform="translate(-15.3125, -12)" class="label"><foreignObject height="24" width="30.625"><div class="labelBkg" xmlns="http://www.w3.org/1999/xhtml" style="display: table-cell; white-space: nowrap; line-height: 1.5; max-width: 200px; text-align: center;"><span class="edgeLabel" style=";display: inline-block"><p>iban</p></span></div></foreignObject></g></g><g transform="translate(776.2109375, 50)" class="edgeLabel"><g transform="translate(-33.640625, -12)" class="label"><foreignObject height="24" width="67.28125"><div class="labelBkg" xmlns="http://www.w3.org/1999/xhtml" style="display: table-cell; white-space: nowrap; line-height: 1.5; max-width: 200px; text-align: center;"><span class="edgeLabel" style=";display: inline-block"><p>identifier</p></span></div></foreignObject></g></g><g transform="translate(776.2109375, 184)" class="edgeLabel"><g transform="translate(-33.640625, -12)" class="label"><foreignObject height="24" width="67.28125"><div class="labelBkg" xmlns="http://www.w3.org/1999/xhtml" style="display: table-cell; white-space: nowrap; line-height: 1.5; max-width: 200px; text-align: center;"><span class="edgeLabel" style=";display: inline-block"><p>identifier</p></span></div></foreignObject></g></g></g><g class="nodes"><g transform="translate(87.3203125, 171)" id="classId-CredentialSubject-0" class="node default"><g class="basic label-container"><path style="" fill="#ECECFF" stroke-width="0" stroke="none" d="M-79.3203125 -54 L79.3203125 -54 L79.3203125 54 L-79.3203125 54"/><path style="" fill="none" stroke-width="1.3" stroke="#9370DB" d="M-79.3203125 -54 C-28.61860576639451 -54, 22.08310096721098 -54, 79.3203125 -54 M-79.3203125 -54 C-17.883811613718905 -54, 43.55268927256219 -54, 79.3203125 -54 M79.3203125 -54 C79.3203125 -19.373008496535775, 79.3203125 15.25398300692845, 79.3203125 54 M79.3203125 -54 C79.3203125 -18.598387631337054, 79.3203125 16.80322473732589, 79.3203125 54 M79.3203125 54 C23.57932279678461 54, -32.16166690643078 54, -79.3203125 54 M79.3203125 54 C41.348677608289414 54, 3.3770427165788277 54, -79.3203125 54 M-79.3203125 54 C-79.3203125 23.76889843817106, -79.3203125 -6.462203123657879, -79.3203125 -54 M-79.3203125 54 C-79.3203125 11.902849995418741, -79.3203125 -30.194300009162518, -79.3203125 -54"/></g><g transform="translate(-24.0234375, -30)" class="annotation-group text"><g transform="translate(0,-12)" style="" class="label"><foreignObject height="24" width="48.046875"><div style="display: table-cell; white-space: nowrap; line-height: 1.5; max-width: 102px; text-align: center;" xmlns="http://www.w3.org/1999/xhtml"><span style="" class="nodeLabel markdown-node-label"><p>«EBW»</p></span></div></foreignObject></g></g><g transform="translate(-67.3203125, -6)" class="label-group text"><g transform="translate(0,-12)" style="font-weight: bolder" class="label"><foreignObject height="24" width="134.640625"><div style="display: table-cell; white-space: nowrap; line-height: 1.5; max-width: 165px; text-align: center;" xmlns="http://www.w3.org/1999/xhtml"><span style="" class="nodeLabel markdown-node-label"><p>CredentialSubject</p></span></div></foreignObject></g></g><g transform="translate(-67.3203125, 42)" class="members-group text"/><g transform="translate(-67.3203125, 72)" class="methods-group text"/><g style="" class="divider"><path style="" fill="none" stroke-width="1.3" stroke="#9370DB" d="M-79.3203125 18 C-22.11949909437623 18, 35.08131431124754 18, 79.3203125 18 M-79.3203125 18 C-41.26344033675471 18, -3.2065681735094245 18, 79.3203125 18"/></g><g style="" class="divider"><path style="" fill="none" stroke-width="1.3" stroke="#9370DB" d="M-79.3203125 36 C-21.04415225714424 36, 37.23200798571152 36, 79.3203125 36 M-79.3203125 36 C-23.875785533346487 36, 31.568741433307025 36, 79.3203125 36"/></g></g><g transform="translate(331.28125, 171)" id="classId-BankAccount-1" class="node default"><g class="basic label-container"><path style="" fill="#ECECFF" stroke-width="0" stroke="none" d="M-114.640625 -120 L114.640625 -120 L114.640625 120 L-114.640625 120"/><path style="" fill="none" stroke-width="1.3" stroke="#9370DB" d="M-114.640625 -120 C-58.87258185448801 -120, -3.1045387089760226 -120, 114.640625 -120 M-114.640625 -120 C-62.18637105221002 -120, -9.732117104420041 -120, 114.640625 -120 M114.640625 -120 C114.640625 -32.265436185304196, 114.640625 55.46912762939161, 114.640625 120 M114.640625 -120 C114.640625 -45.56996409327732, 114.640625 28.86007181344536, 114.640625 120 M114.640625 120 C48.56544806909686 120, -17.50972886180628 120, -114.640625 120 M114.640625 120 C61.117364611705995 120, 7.594104223411989 120, -114.640625 120 M-114.640625 120 C-114.640625 26.289253384183255, -114.640625 -67.42149323163349, -114.640625 -120 M-114.640625 120 C-114.640625 30.61268916629018, -114.640625 -58.77462166741964, -114.640625 -120"/></g><g transform="translate(-24.0234375, -96)" class="annotation-group text"><g transform="translate(0,-12)" style="" class="label"><foreignObject height="24" width="48.046875"><div style="display: table-cell; white-space: nowrap; line-height: 1.5; max-width: 102px; text-align: center;" xmlns="http://www.w3.org/1999/xhtml"><span style="" class="nodeLabel markdown-node-label"><p>«EBW»</p></span></div></foreignObject></g></g><g transform="translate(-48.53125, -72)" class="label-group text"><g transform="translate(0,-12)" style="font-weight: bolder" class="label"><foreignObject height="24" width="97.0625"><div style="display: table-cell; white-space: nowrap; line-height: 1.5; max-width: 138px; text-align: center;" xmlns="http://www.w3.org/1999/xhtml"><span style="" class="nodeLabel markdown-node-label"><p>BankAccount</p></span></div></foreignObject></g></g><g transform="translate(-102.640625, -24)" class="members-group text"><g transform="translate(0,-12)" style="" class="label"><foreignObject height="24" width="156.75"><div style="display: table-cell; white-space: nowrap; line-height: 1.5; max-width: 196px; text-align: center;" xmlns="http://www.w3.org/1999/xhtml"><span style="" class="nodeLabel markdown-node-label"><p>+accountName: string</p></span></div></foreignObject></g><g transform="translate(0,12)" style="" class="label"><foreignObject height="24" width="149.109375"><div style="display: table-cell; white-space: nowrap; line-height: 1.5; max-width: 190px; text-align: center;" xmlns="http://www.w3.org/1999/xhtml"><span style="" class="nodeLabel markdown-node-label"><p>+accountType: string</p></span></div></foreignObject></g><g transform="translate(0,36)" style="" class="label"><foreignObject height="24" width="80.234375"><div style="display: table-cell; white-space: nowrap; line-height: 1.5; max-width: 128px; text-align: center;" xmlns="http://www.w3.org/1999/xhtml"><span style="" class="nodeLabel markdown-node-label"><p>+iban: Iban</p></span></div></foreignObject></g><g transform="translate(0,60)" style="" class="label"><foreignObject height="24" width="128.65625"><div style="display: table-cell; white-space: nowrap; line-height: 1.5; max-width: 174px; text-align: center;" xmlns="http://www.w3.org/1999/xhtml"><span style="" class="nodeLabel markdown-node-label"><p>+owner: Company</p></span></div></foreignObject></g><g transform="translate(0,84)" style="" class="label"><foreignObject height="24" width="144.453125"><div style="display: table-cell; white-space: nowrap; line-height: 1.5; max-width: 188px; text-align: center;" xmlns="http://www.w3.org/1999/xhtml"><span style="" class="nodeLabel markdown-node-label"><p>+provider: Company</p></span></div></foreignObject></g></g><g transform="translate(-102.640625, 120)" class="methods-group text"/><g style="" class="divider"><path style="" fill="none" stroke-width="1.3" stroke="#9370DB" d="M-114.640625 -48 C-35.864269837145144 -48, 42.91208532570971 -48, 114.640625 -48 M-114.640625 -48 C-30.667732034455753 -48, 53.305160931088494 -48, 114.640625 -48"/></g><g style="" class="divider"><path style="" fill="none" stroke-width="1.3" stroke="#9370DB" d="M-114.640625 96 C-29.787659438426388 96, 55.065306123147224 96, 114.640625 96 M-114.640625 96 C-46.15316804693934 96, 22.334288906121316 96, 114.640625 96"/></g></g><g transform="translate(636.73828125, 117)" id="classId-Company-2" class="node default"><g class="basic label-container"><path style="" fill="#ECECFF" stroke-width="0" stroke="none" d="M-80.83203125 -60 L80.83203125 -60 L80.83203125 60 L-80.83203125 60"/><path style="" fill="none" stroke-width="1.3" stroke="#9370DB" d="M-80.83203125 -60 C-42.03213419998586 -60, -3.2322371499717235 -60, 80.83203125 -60 M-80.83203125 -60 C-31.69556854600676 -60, 17.440894157986477 -60, 80.83203125 -60 M80.83203125 -60 C80.83203125 -12.466480256805156, 80.83203125 35.06703948638969, 80.83203125 60 M80.83203125 -60 C80.83203125 -25.20245989530597, 80.83203125 9.595080209388058, 80.83203125 60 M80.83203125 60 C34.89465678710587 60, -11.042717675788253 60, -80.83203125 60 M80.83203125 60 C39.558170041123184 60, -1.7156911677536328 60, -80.83203125 60 M-80.83203125 60 C-80.83203125 22.310757018477616, -80.83203125 -15.378485963044767, -80.83203125 -60 M-80.83203125 60 C-80.83203125 34.97220300845622, -80.83203125 9.944406016912438, -80.83203125 -60"/></g><g transform="translate(0, -36)" class="annotation-group text"/><g transform="translate(-34.2109375, -36)" class="label-group text"><g transform="translate(0,-12)" style="font-weight: bolder" class="label"><foreignObject height="24" width="68.421875"><div style="display: table-cell; white-space: nowrap; line-height: 1.5; max-width: 112px; text-align: center;" xmlns="http://www.w3.org/1999/xhtml"><span style="" class="nodeLabel markdown-node-label"><p>Company</p></span></div></foreignObject></g></g><g transform="translate(-68.83203125, 12)" class="members-group text"><g transform="translate(0,-12)" style="" class="label"><foreignObject height="24" width="103.453125"><div style="display: table-cell; white-space: nowrap; line-height: 1.5; max-width: 142px; text-align: center;" xmlns="http://www.w3.org/1999/xhtml"><span style="" class="nodeLabel markdown-node-label"><p>identifier: List</p></span></div></foreignObject></g></g><g transform="translate(-68.83203125, 60)" class="methods-group text"/><g style="" class="divider"><path style="" fill="none" stroke-width="1.3" stroke="#9370DB" d="M-80.83203125 -12 C-41.363400804731484 -12, -1.8947703594629672 -12, 80.83203125 -12 M-80.83203125 -12 C-26.773758477404115 -12, 27.28451429519177 -12, 80.83203125 -12"/></g><g style="" class="divider"><path style="" fill="none" stroke-width="1.3" stroke="#9370DB" d="M-80.83203125 36 C-28.713334703245962 36, 23.405361843508075 36, 80.83203125 36 M-80.83203125 36 C-27.160922149592757 36, 26.510186950814486 36, 80.83203125 36"/></g></g><g transform="translate(907.1171875, 50)" id="classId-Bic-3" class="node default"><g class="basic label-container"><path style="" fill="#ECECFF" stroke-width="0" stroke="none" d="M-23.2421875 -42 L23.2421875 -42 L23.2421875 42 L-23.2421875 42"/><path style="" fill="none" stroke-width="1.3" stroke="#9370DB" d="M-23.2421875 -42 C-11.863038754250626 -42, -0.48389000850125186 -42, 23.2421875 -42 M-23.2421875 -42 C-11.400737776899868 -42, 0.4407119462002633 -42, 23.2421875 -42 M23.2421875 -42 C23.2421875 -20.926213941928346, 23.2421875 0.14757211614330856, 23.2421875 42 M23.2421875 -42 C23.2421875 -18.718933956341658, 23.2421875 4.562132087316684, 23.2421875 42 M23.2421875 42 C13.039085701209492 42, 2.8359839024189846 42, -23.2421875 42 M23.2421875 42 C5.163761586460151 42, -12.914664327079699 42, -23.2421875 42 M-23.2421875 42 C-23.2421875 15.834243401941244, -23.2421875 -10.331513196117513, -23.2421875 -42 M-23.2421875 42 C-23.2421875 11.76523617014863, -23.2421875 -18.46952765970274, -23.2421875 -42"/></g><g transform="translate(0, -18)" class="annotation-group text"/><g transform="translate(-11.2421875, -18)" class="label-group text"><g transform="translate(0,-12)" style="font-weight: bolder" class="label"><foreignObject height="24" width="22.484375"><div style="display: table-cell; white-space: nowrap; line-height: 1.5; max-width: 72px; text-align: center;" xmlns="http://www.w3.org/1999/xhtml"><span style="" class="nodeLabel markdown-node-label"><p>Bic</p></span></div></foreignObject></g></g><g transform="translate(-11.2421875, 30)" class="members-group text"/><g transform="translate(-11.2421875, 60)" class="methods-group text"/><g style="" class="divider"><path style="" fill="none" stroke-width="1.3" stroke="#9370DB" d="M-23.2421875 6 C-13.762106195195441 6, -4.282024890390883 6, 23.2421875 6 M-23.2421875 6 C-9.47202845297953 6, 4.298130594040941 6, 23.2421875 6"/></g><g style="" class="divider"><path style="" fill="none" stroke-width="1.3" stroke="#9370DB" d="M-23.2421875 24 C-10.042734094809454 24, 3.156719310381092 24, 23.2421875 24 M-23.2421875 24 C-5.595669667344911 24, 12.050848165310178 24, 23.2421875 24"/></g></g><g transform="translate(636.73828125, 269)" id="classId-Iban-4" class="node default"><g class="basic label-container"><path style="" fill="#ECECFF" stroke-width="0" stroke="none" d="M-27.8671875 -42 L27.8671875 -42 L27.8671875 42 L-27.8671875 42"/><path style="" fill="none" stroke-width="1.3" stroke="#9370DB" d="M-27.8671875 -42 C-7.64126304377772 -42, 12.58466141244456 -42, 27.8671875 -42 M-27.8671875 -42 C-14.194102631620996 -42, -0.5210177632419928 -42, 27.8671875 -42 M27.8671875 -42 C27.8671875 -14.2374554399135, 27.8671875 13.525089120173, 27.8671875 42 M27.8671875 -42 C27.8671875 -12.926614353773772, 27.8671875 16.146771292452456, 27.8671875 42 M27.8671875 42 C10.858889040527973 42, -6.149409418944053 42, -27.8671875 42 M27.8671875 42 C8.494891129193107 42, -10.877405241613786 42, -27.8671875 42 M-27.8671875 42 C-27.8671875 11.577087250844848, -27.8671875 -18.845825498310305, -27.8671875 -42 M-27.8671875 42 C-27.8671875 18.54109181914667, -27.8671875 -4.917816361706663, -27.8671875 -42"/></g><g transform="translate(0, -18)" class="annotation-group text"/><g transform="translate(-15.8671875, -18)" class="label-group text"><g transform="translate(0,-12)" style="font-weight: bolder" class="label"><foreignObject height="24" width="31.734375"><div style="display: table-cell; white-space: nowrap; line-height: 1.5; max-width: 78px; text-align: center;" xmlns="http://www.w3.org/1999/xhtml"><span style="" class="nodeLabel markdown-node-label"><p>Iban</p></span></div></foreignObject></g></g><g transform="translate(-15.8671875, 30)" class="members-group text"/><g transform="translate(-15.8671875, 60)" class="methods-group text"/><g style="" class="divider"><path style="" fill="none" stroke-width="1.3" stroke="#9370DB" d="M-27.8671875 6 C-7.794870764265394 6, 12.277445971469213 6, 27.8671875 6 M-27.8671875 6 C-10.559101238207372 6, 6.748985023585256 6, 27.8671875 6"/></g><g style="" class="divider"><path style="" fill="none" stroke-width="1.3" stroke="#9370DB" d="M-27.8671875 24 C-9.975135612559423 24, 7.916916274881153 24, 27.8671875 24 M-27.8671875 24 C-13.230249487522256 24, 1.406688524955488 24, 27.8671875 24"/></g></g><g transform="translate(907.1171875, 184)" id="classId-ClearingNumber-5" class="node default"><g class="basic label-container"><path style="" fill="#ECECFF" stroke-width="0" stroke="none" d="M-72.265625 -42 L72.265625 -42 L72.265625 42 L-72.265625 42"/><path style="" fill="none" stroke-width="1.3" stroke="#9370DB" d="M-72.265625 -42 C-35.85132329588689 -42, 0.5629784082262148 -42, 72.265625 -42 M-72.265625 -42 C-19.793640179293753 -42, 32.678344641412494 -42, 72.265625 -42 M72.265625 -42 C72.265625 -12.767655202773327, 72.265625 16.464689594453347, 72.265625 42 M72.265625 -42 C72.265625 -11.757844166070186, 72.265625 18.48431166785963, 72.265625 42 M72.265625 42 C33.877651173638576 42, -4.510322652722849 42, -72.265625 42 M72.265625 42 C18.884337861413044 42, -34.49694927717391 42, -72.265625 42 M-72.265625 42 C-72.265625 19.331172026899942, -72.265625 -3.3376559462001154, -72.265625 -42 M-72.265625 42 C-72.265625 20.11122717517126, -72.265625 -1.7775456496574833, -72.265625 -42"/></g><g transform="translate(0, -18)" class="annotation-group text"/><g transform="translate(-60.265625, -18)" class="label-group text"><g transform="translate(0,-12)" style="font-weight: bolder" class="label"><foreignObject height="24" width="120.53125"><div style="display: table-cell; white-space: nowrap; line-height: 1.5; max-width: 158px; text-align: center;" xmlns="http://www.w3.org/1999/xhtml"><span style="" class="nodeLabel markdown-node-label"><p>ClearingNumber</p></span></div></foreignObject></g></g><g transform="translate(-60.265625, 30)" class="members-group text"/><g transform="translate(-60.265625, 60)" class="methods-group text"/><g style="" class="divider"><path style="" fill="none" stroke-width="1.3" stroke="#9370DB" d="M-72.265625 6 C-21.613237715378062 6, 29.039149569243875 6, 72.265625 6 M-72.265625 6 C-19.16267345835437 6, 33.94027808329126 6, 72.265625 6"/></g><g style="" class="divider"><path style="" fill="none" stroke-width="1.3" stroke="#9370DB" d="M-72.265625 24 C-32.20485520295929 24, 7.855914594081426 24, 72.265625 24 M-72.265625 24 C-24.286100981543683 24, 23.693423036912634 24, 72.265625 24"/></g></g></g></g></g></svg>