<svg id="my-svg" width="100%" xmlns="http://www.w3.org/2000/svg" xmlns:xlink="http://www.w3.org/1999/xlink" class="classDiagram" style="max-width: 1077.07px; background-color: white;" viewBox="0 0 1077.0703125 319" role="graphics-document document" aria-roledescription="class"><style>#my-svg{font-family:"trebuchet ms",verdana,arial,sans-serif;font-size:16px;fill:#333;}@keyframes edge-animation-frame{from{stroke-dashoffset:0;}}@keyframes dash{to{stroke-dashoffset:0;}}#my-svg .edge-animation-slow{stroke-dasharray:9,5!important;stroke-dashoffset:900;animation:dash 50s linear infinite;stroke-linecap:round;}#my-svg .edge-animation-fast{stroke-dasharray:9,5!important;stroke-dashoffset:900;animation:dash 20s linear infinite;stroke-linecap:round;}#my-svg .error-icon{fill:#552222;}#my-svg .error-text{fill:#552222;stroke:#552222;}#my-svg .edge-thickness-normal{stroke-width:1px;}#my-svg .edge-thickness-thick{stroke-width:3.5px;}#my-svg .edge-pattern-solid{stroke-dasharray:0;}#my-svg .edge-thickness-invisible{stroke-width:0;fill:none;}#my-svg .edge-pattern-dashed{stroke-dasharray:3;}#my-svg .edge-pattern-dotted{stroke-dasharray:2;}#my-svg .marker{fill:#333333;stroke:#333333;}#my-svg .marker.cross{stroke:#333333;}#my-svg svg{font-family:"trebuchet ms",verdana,arial,sans-serif;font-size:16px;}#my-svg p{margin:0;}#my-svg g.classGroup text{fill:#9370DB;stroke:none;font-family:"trebuchet ms",verdana,arial,sans-serif;font-size:10px;}#my-svg g.classGroup text .title{font-weight:bolder;}#my-svg .cluster-label text{fill:#333;}#my-svg .cluster-label span{color:#333;}#my-svg .cluster-label span p{background-color:transparent;}#my-svg .cluster rect{fill:#ffffde;stroke:#aaaa33;stroke-width:1px;}#my-svg .cluster text{fill:#333;}#my-svg .cluster span{color:#333;}#my-svg .nodeLabel,#my-svg .edgeLabel{color:#131300;}#my-svg .edgeLabel .label rect{fill:#ECECFF;}#my-svg .label text{fill:#131300;}#my-svg .labelBkg{background:#ECECFF;}#my-svg .edgeLabel .label span{background:#ECECFF;}#my-svg .classTitle{font-weight:bolder;}#my-svg .node rect,#my-svg .node circle,#my-svg .node ellipse,#my-svg .node polygon,#my-svg .node path{fill:#ECECFF;stroke:#9370DB;stroke-width:1px;}#my-svg .divider{stroke:#9370DB;stroke-width:1;}#my-svg g.clickable{cursor:pointer;}#my-svg g.classGroup rect{fill:#ECECFF;stroke:#9370DB;}#my-svg g.classGroup line{stroke:#9370DB;stroke-width:1;}#my-svg .classLabel .box{stroke:none;stroke-width:0;fill:#ECECFF;opacity:0.5;}#my-svg .classLabel .label{fill:#9370DB;font-size:10px;}#my-svg .relation{stroke:#333333;stroke-width:1;fill:none;}#my-svg .dashed-line{stroke-dasharray:3;}#my-svg .dotted-line{stroke-dasharray:1 2;}#my-svg #compositionStart,#my-svg .composition{fill:#333333!important;stroke:#333333!important;stroke-width:1;}#my-svg #compositionEnd,#my-svg .composition{fill:#333333!important;stroke:#333333!important;stroke-width:1;}#my-svg #dependencyStart,#my-svg .dependency{fill:#333333!important;stroke:#333333!important;stroke-width:1;}#my-svg #dependencyStart,#my-svg .dependency{fill:#333333!important;stroke:#333333!important;stroke-width:1;}#my-svg #extensionStart,#my-svg .extension{fill:transparent!important;stroke:#333333!important;stroke-width:1;}#my-svg #extensionEnd,#my-svg .extension{fill:transparent!important;stroke:#333333!important;stroke-width:1;}#my-svg #aggregationStart,#my-svg .aggregation{fill:transparent!important;stroke:#333333!important;stroke-width:1;}#my-svg #aggregationEnd,#my-svg .aggregation{fill:transparent!important;stroke:#333333!important;stroke-width:1;}#my-svg #lollipopStart,#my-svg .lollipop{fill:#ECECFF!important;stroke:#333333!important;stroke-width:1;}#my-svg #lollipopEnd,#my-svg .lollipop{fill:#ECECFF!important;stroke:#333333!important;stroke-width:1;}#my-svg .edgeTerminals{font-size:11px;line-height:initial;}#my-svg .classTitleText{text-anchor:middle;font-size:18px;fill:#333;}#my-svg .label-icon{display:inline-block;height:1em;overflow:visible;vertical-align:-0.125em;}#my-svg .node .label-icon path{fill:currentColor;stroke:revert;stroke-width:revert;}#my-svg :root{--mermaid-font-family:"trebuchet ms",verdana,arial,sans-serif;}</style><g><defs><marker id="my-svg_class-aggregationStart" class="marker aggregation class" refX="18" refY="7" markerWidth="190" markerHeight="240" orient="auto"><path d="M 18,7 L9,13 L1,7 L9,1 Z"/></marker></defs><defs><marker id="my-svg_class-aggregationEnd" class="marker aggregation class" refX="1" refY="7" markerWidth="20" markerHeight="28" orient="auto"><path d="M 18,7 L9,13 L1,7 L9,1 Z"/></marker></defs><defs><marker id="my-svg_class-extensionStart" class="marker extension class" refX="18" refY="7" markerWidth="190" markerHeight="240" orient="auto"><path d="M 1,7 L18,13 V 1 Z"/></marker></defs><defs><marker id="my-svg_class-extensionEnd" class="marker extension class" refX="1" refY="7" markerWidth="20" markerHeight="28" orient="auto"><path d="M 1,1 V 13 L18,7 Z"/></marker></defs><defs><marker id="my-svg_class-compositionStart" class="marker composition class" refX="18" refY="7" markerWidth="190" markerHeight="240" orient="auto"><path d="M 18,7 L9,13 L1,7 L9,1 Z"/></marker></defs><defs><marker id="my-svg_class-compositionEnd" class="marker composition class" refX="1" refY="7" markerWidth="20" markerHeight="28" orient="auto"><path d="M 18,7 L9,13 L1,7 L9,1 Z"/></marker></defs><defs><marker id="my-svg_class-dependencyStart" class="marker dependency class" refX="6" refY="7" markerWidth="190" markerHeight="240" orient="auto"><path d="M 5,7 L9,13 L1,7 L9,1 Z"/></marker></defs><defs><marker id="my-svg_class-dependencyEnd" class="marker dependency class" refX="13" refY="7" markerWidth="20" markerHeight="28" orient="auto"><path d="M 18,7 L9,13 L14,7 L9,1 Z"/></marker></defs><defs><marker id="my-svg_class-lollipopStart" class="marker lollipop class" refX="13" refY="7" markerWidth="190" markerHeight="240" orient="auto"><circle fill="transparent" cx="7" cy="7" r="6"/></marker></defs><defs><marker id="my-svg_class-lollipopEnd" class="marker lollipop class" refX="1" refY="7" markerWidth="190" markerHeight="240" orient="auto"><circle fill="transparent" cx="7" cy="7" r="6"/></marker></defs><g class="root"><g class="clusters"/><g class="edgePaths"><path d="M183.891,171L185.182,171C186.474,171,189.057,171,194.516,171C199.974,171,208.307,171,212.474,171L216.641,171" id="id_CredentialSubject_BankAccount_1" class="edge-thickness-normal edge-pattern-solid relation" style=";;;" data-edge="true" data-et="edge" data-id="id_CredentialSubject_BankAccount_1" data-points="W3sieCI6MTY2LjY0MDYyNSwieSI6MTcxfSx7IngiOjE5MS42NDA2MjUsInkiOjE3MX0seyJ4IjoyMTYuNjQwNjI1LCJ5IjoxNzF9XQ==" marker-start="url(#my-svg_class-extensionStart)"/><path d="M500.609,116.218L509.775,112.681C518.94,109.145,537.271,102.073,554.612,99.709C571.953,97.346,588.304,99.692,596.479,100.865L604.655,102.038" id="id_BankAccount_EconomicOperator_2" class="edge-thickness-normal edge-pattern-solid relation" style=";;;" data-edge="true" data-et="edge" data-id="id_BankAccount_EconomicOperator_2" data-points="W3sieCI6NTAwLjYwOTM3NSwieSI6MTE2LjIxNzc4NDQ3NjI2MjI0fSx7IngiOjU1NS42MDE1NjI1LCJ5Ijo5NX0seyJ4Ijo2MTAuNTkzNzUsInkiOjEwMi44OTA2NTI0Njc0NTMwN31d" marker-end="url(#my-svg_class-dependencyEnd)"/><path d="M500.609,171L509.775,171C518.94,171,537.271,171,554.658,168.104C572.046,165.208,588.49,159.417,596.712,156.521L604.934,153.625" id="id_BankAccount_EconomicOperator_3" class="edge-thickness-normal edge-pattern-solid relation" style=";;;" data-edge="true" data-et="edge" data-id="id_BankAccount_EconomicOperator_3" data-points="W3sieCI6NTAwLjYwOTM3NSwieSI6MTcxfSx7IngiOjU1NS42MDE1NjI1LCJ5IjoxNzF9LHsieCI6NjEwLjU5Mzc1LCJ5IjoxNTEuNjMyMDM0ODUyNjE1MjJ9XQ==" marker-end="url(#my-svg_class-dependencyEnd)"/><path d="M500.609,241.64L509.775,246.2C518.94,250.76,537.271,259.88,566.346,264.44C595.421,269,635.24,269,655.149,269L675.059,269" id="id_BankAccount_Iban_4" class="edge-thickness-normal edge-pattern-solid relation" style=";;;" data-edge="true" data-et="edge" data-id="id_BankAccount_Iban_4" data-points="W3sieCI6NTAwLjYwOTM3NSwieSI6MjQxLjY0MDIyNTI4MDYwOTIzfSx7IngiOjU1NS42MDE1NjI1LCJ5IjoyNjl9LHsieCI6NjgxLjA1ODU5Mzc1LCJ5IjoyNjl9XQ==" marker-end="url(#my-svg_class-dependencyEnd)"/><path d="M807.258,75.029L817.031,70.858C826.805,66.686,846.352,58.343,864.898,54.172C883.445,50,900.992,50,909.766,50L918.539,50" id="id_EconomicOperator_ClearingNumber_5" class="edge-thickness-normal edge-pattern-solid relation" style=";;;" data-edge="true" data-et="edge" data-id="id_EconomicOperator_ClearingNumber_5" data-points="W3sieCI6ODA3LjI1NzgxMjUsInkiOjc1LjAyOTMzOTMwNTcxMTA5fSx7IngiOjg2NS44OTg0Mzc1LCJ5Ijo1MH0seyJ4Ijo5MjQuNTM5MDYyNSwieSI6NTB9XQ==" marker-end="url(#my-svg_class-dependencyEnd)"/><path d="M807.258,158.971L817.031,163.142C826.805,167.314,846.352,175.657,873.069,179.828C899.786,184,933.674,184,950.618,184L967.563,184" id="id_EconomicOperator_Bic_6" class="edge-thickness-normal edge-pattern-solid relation" style=";;;" data-edge="true" data-et="edge" data-id="id_EconomicOperator_Bic_6" data-points="W3sieCI6ODA3LjI1NzgxMjUsInkiOjE1OC45NzA2NjA2OTQyODg5fSx7IngiOjg2NS44OTg0Mzc1LCJ5IjoxODR9LHsieCI6OTczLjU2MjUsInkiOjE4NH1d" marker-end="url(#my-svg_class-dependencyEnd)"/></g><g class="edgeLabels"><g class="edgeLabel"><g class="label" data-id="id_CredentialSubject_BankAccount_1" transform="translate(0, 0)"><foreignObject width="0" height="0"><div xmlns="http://www.w3.org/1999/xhtml" class="labelBkg" style="display: table-cell; white-space: nowrap; line-height: 1.5; max-width: 200px; text-align: center;"><span class="edgeLabel"></span></div></foreignObject></g></g><g class="edgeLabel" transform="translate(554.02108, 95.6098)"><g class="label" data-id="id_BankAccount_EconomicOperator_2" transform="translate(-22.09375, -12)"><foreignObject width="44.1875" height="24"><div xmlns="http://www.w3.org/1999/xhtml" class="labelBkg" style="display: table-cell; white-space: nowrap; line-height: 1.5; max-width: 200px; text-align: center;"><span class="edgeLabel"><p>owner</p></span></div></foreignObject></g></g><g class="edgeLabel" transform="translate(555.6015625, 171)"><g class="label" data-id="id_BankAccount_EconomicOperator_3" transform="translate(-29.9921875, -12)"><foreignObject width="59.984375" height="24"><div xmlns="http://www.w3.org/1999/xhtml" class="labelBkg" style="display: table-cell; white-space: nowrap; line-height: 1.5; max-width: 200px; text-align: center;"><span class="edgeLabel"><p>provider</p></span></div></foreignObject></g></g><g class="edgeLabel" transform="translate(555.6015625, 269)"><g class="label" data-id="id_BankAccount_Iban_4" transform="translate(-15.3125, -12)"><foreignObject width="30.625" height="24"><div xmlns="http://www.w3.org/1999/xhtml" class="labelBkg" style="display: table-cell; white-space: nowrap; line-height: 1.5; max-width: 200px; text-align: center;"><span class="edgeLabel"><p>iban</p></span></div></foreignObject></g></g><g class="edgeLabel" transform="translate(865.8984375, 50)"><g class="label" data-id="id_EconomicOperator_ClearingNumber_5" transform="translate(-33.640625, -12)"><foreignObject width="67.28125" height="24"><div xmlns="http://www.w3.org/1999/xhtml" class="labelBkg" style="display: table-cell; white-space: nowrap; line-height: 1.5; max-width: 200px; text-align: center;"><span class="edgeLabel"><p>identifier</p></span></div></foreignObject></g></g><g class="edgeLabel" transform="translate(865.8984375, 184)"><g class="label" data-id="id_EconomicOperator_Bic_6" transform="translate(-33.640625, -12)"><foreignObject width="67.28125" height="24"><div xmlns="http://www.w3.org/1999/xhtml" class="labelBkg" style="display: table-cell; white-space: nowrap; line-height: 1.5; max-width: 200px; text-align: center;"><span class="edgeLabel"><p>identifier</p></span></div></foreignObject></g></g></g><g class="nodes"><g class="node default" id="classId-BankAccount-0" transform="translate(358.625, 171)"><g class="basic label-container"><path d="M-141.984375 -120 L141.984375 -120 L141.984375 120 L-141.984375 120" stroke="none" stroke-width="0" fill="#ECECFF" style=""/><path d="M-141.984375 -120 C-33.40224655897951 -120, 75.17988188204097 -120, 141.984375 -120 M-141.984375 -120 C-51.99295515582129 -120, 37.998464688357416 -120, 141.984375 -120 M141.984375 -120 C141.984375 -48.90349953269562, 141.984375 22.19300093460876, 141.984375 120 M141.984375 -120 C141.984375 -33.608425091447785, 141.984375 52.78314981710443, 141.984375 120 M141.984375 120 C37.84413341735333 120, -66.29610816529333 120, -141.984375 120 M141.984375 120 C72.18127692506133 120, 2.3781788501226515 120, -141.984375 120 M-141.984375 120 C-141.984375 41.410771377297834, -141.984375 -37.17845724540433, -141.984375 -120 M-141.984375 120 C-141.984375 70.75677757170475, -141.984375 21.51355514340949, -141.984375 -120" stroke="#9370DB" stroke-width="1.3" fill="none" stroke-dasharray="0 0" style=""/></g><g class="annotation-group text" transform="translate(-24.0234375, -96)"><g class="label" style="" transform="translate(0,-12)"><foreignObject width="48.046875" height="24"><div xmlns="http://www.w3.org/1999/xhtml" style="display: table-cell; white-space: nowrap; line-height: 1.5; max-width: 102px; text-align: center;"><span class="nodeLabel markdown-node-label" style=""><p>«EBW»</p></span></div></foreignObject></g></g><g class="label-group text" transform="translate(-48.53125, -72)"><g class="label" style="font-weight: bolder" transform="translate(0,-12)"><foreignObject width="97.0625" height="24"><div xmlns="http://www.w3.org/1999/xhtml" style="display: table-cell; white-space: nowrap; line-height: 1.5; max-width: 138px; text-align: center;"><span class="nodeLabel markdown-node-label" style=""><p>BankAccount</p></span></div></foreignObject></g></g><g class="members-group text" transform="translate(-129.984375, -24)"><g class="label" style="" transform="translate(0,-12)"><foreignObject width="156.75" height="24"><div xmlns="http://www.w3.org/1999/xhtml" style="display: table-cell; white-space: nowrap; line-height: 1.5; max-width: 196px; text-align: center;"><span class="nodeLabel markdown-node-label" style=""><p>+accountName: string</p></span></div></foreignObject></g><g class="label" style="" transform="translate(0,12)"><foreignObject width="149.109375" height="24"><div xmlns="http://www.w3.org/1999/xhtml" style="display: table-cell; white-space: nowrap; line-height: 1.5; max-width: 190px; text-align: center;"><span class="nodeLabel markdown-node-label" style=""><p>+accountType: string</p></span></div></foreignObject></g><g class="label" style="" transform="translate(0,36)"><foreignObject width="80.234375" height="24"><div xmlns="http://www.w3.org/1999/xhtml" style="display: table-cell; white-space: nowrap; line-height: 1.5; max-width: 128px; text-align: center;"><span class="nodeLabel markdown-node-label" style=""><p>+iban: Iban</p></span></div></foreignObject></g><g class="label" style="" transform="translate(0,60)"><foreignObject width="195.640625" height="24"><div xmlns="http://www.w3.org/1999/xhtml" style="display: table-cell; white-space: nowrap; line-height: 1.5; max-width: 234px; text-align: center;"><span class="nodeLabel markdown-node-label" style=""><p>+owner: EconomicOperator</p></span></div></foreignObject></g><g class="label" style="" transform="translate(0,84)"><foreignObject width="211.4375" height="24"><div xmlns="http://www.w3.org/1999/xhtml" style="display: table-cell; white-space: nowrap; line-height: 1.5; max-width: 248px; text-align: center;"><span class="nodeLabel markdown-node-label" style=""><p>+provider: EconomicOperator</p></span></div></foreignObject></g></g><g class="methods-group text" transform="translate(-129.984375, 120)"/><g class="divider" style=""><path d="M-141.984375 -48 C-46.730615276826995 -48, 48.52314444634601 -48, 141.984375 -48 M-141.984375 -48 C-57.59485175099269 -48, 26.794671498014623 -48, 141.984375 -48" stroke="#9370DB" stroke-width="1.3" fill="none" stroke-dasharray="0 0" style=""/></g><g class="divider" style=""><path d="M-141.984375 96 C-77.32694584470175 96, -12.669516689403508 96, 141.984375 96 M-141.984375 96 C-39.84532171884304 96, 62.29373156231392 96, 141.984375 96" stroke="#9370DB" stroke-width="1.3" fill="none" stroke-dasharray="0 0" style=""/></g></g><g class="node default" id="classId-EconomicOperator-1" transform="translate(708.92578125, 117)"><g class="basic label-container"><path d="M-98.33203125 -60 L98.33203125 -60 L98.33203125 60 L-98.33203125 60" stroke="none" stroke-width="0" fill="#ECECFF" style=""/><path d="M-98.33203125 -60 C-49.53914635477926 -60, -0.7462614595585251 -60, 98.33203125 -60 M-98.33203125 -60 C-37.7520386729132 -60, 22.827953904173597 -60, 98.33203125 -60 M98.33203125 -60 C98.33203125 -14.655902311358254, 98.33203125 30.688195377283492, 98.33203125 60 M98.33203125 -60 C98.33203125 -29.62906374941907, 98.33203125 0.7418725011618577, 98.33203125 60 M98.33203125 60 C24.08008238324392 60, -50.17186648351216 60, -98.33203125 60 M98.33203125 60 C31.708010001920243 60, -34.91601124615951 60, -98.33203125 60 M-98.33203125 60 C-98.33203125 24.016852925874886, -98.33203125 -11.966294148250228, -98.33203125 -60 M-98.33203125 60 C-98.33203125 16.635119813769364, -98.33203125 -26.72976037246127, -98.33203125 -60" stroke="#9370DB" stroke-width="1.3" fill="none" stroke-dasharray="0 0" style=""/></g><g class="annotation-group text" transform="translate(0, -36)"/><g class="label-group text" transform="translate(-69.2109375, -36)"><g class="label" style="font-weight: bolder" transform="translate(0,-12)"><foreignObject width="138.421875" height="24"><div xmlns="http://www.w3.org/1999/xhtml" style="display: table-cell; white-space: nowrap; line-height: 1.5; max-width: 172px; text-align: center;"><span class="nodeLabel markdown-node-label" style=""><p>EconomicOperator</p></span></div></foreignObject></g></g><g class="members-group text" transform="translate(-86.33203125, 12)"><g class="label" style="" transform="translate(0,-12)"><foreignObject width="103.453125" height="24"><div xmlns="http://www.w3.org/1999/xhtml" style="display: table-cell; white-space: nowrap; line-height: 1.5; max-width: 142px; text-align: center;"><span class="nodeLabel markdown-node-label" style=""><p>identifier: List</p></span></div></foreignObject></g></g><g class="methods-group text" transform="translate(-86.33203125, 60)"/><g class="divider" style=""><path d="M-98.33203125 -12 C-22.91837898159517 -12, 52.49527328680966 -12, 98.33203125 -12 M-98.33203125 -12 C-53.56183703312243 -12, -8.79164281624486 -12, 98.33203125 -12" stroke="#9370DB" stroke-width="1.3" fill="none" stroke-dasharray="0 0" style=""/></g><g class="divider" style=""><path d="M-98.33203125 36 C-28.26227648881374 36, 41.80747827237252 36, 98.33203125 36 M-98.33203125 36 C-25.327480190631192 36, 47.677070868737616 36, 98.33203125 36" stroke="#9370DB" stroke-width="1.3" fill="none" stroke-dasharray="0 0" style=""/></g></g><g class="node default" id="classId-Bic-2" transform="translate(996.8046875, 184)"><g class="basic label-container"><path d="M-23.2421875 -42 L23.2421875 -42 L23.2421875 42 L-23.2421875 42" stroke="none" stroke-width="0" fill="#ECECFF" style=""/><path d="M-23.2421875 -42 C-9.35539275596446 -42, 4.531401988071082 -42, 23.2421875 -42 M-23.2421875 -42 C-10.645384669671555 -42, 1.951418160656889 -42, 23.2421875 -42 M23.2421875 -42 C23.2421875 -18.68613533992939, 23.2421875 4.627729320141221, 23.2421875 42 M23.2421875 -42 C23.2421875 -17.96651945548758, 23.2421875 6.0669610890248435, 23.2421875 42 M23.2421875 42 C11.661448184171778 42, 0.08070886834355662 42, -23.2421875 42 M23.2421875 42 C6.8400608873232756 42, -9.562065725353449 42, -23.2421875 42 M-23.2421875 42 C-23.2421875 20.50606085813779, -23.2421875 -0.9878782837244202, -23.2421875 -42 M-23.2421875 42 C-23.2421875 16.46591389429569, -23.2421875 -9.068172211408623, -23.2421875 -42" stroke="#9370DB" stroke-width="1.3" fill="none" stroke-dasharray="0 0" style=""/></g><g class="annotation-group text" transform="translate(0, -18)"/><g class="label-group text" transform="translate(-11.2421875, -18)"><g class="label" style="font-weight: bolder" transform="translate(0,-12)"><foreignObject width="22.484375" height="24"><div xmlns="http://www.w3.org/1999/xhtml" style="display: table-cell; white-space: nowrap; line-height: 1.5; max-width: 72px; text-align: center;"><span class="nodeLabel markdown-node-label" style=""><p>Bic</p></span></div></foreignObject></g></g><g class="members-group text" transform="translate(-11.2421875, 30)"/><g class="methods-group text" transform="translate(-11.2421875, 60)"/><g class="divider" style=""><path d="M-23.2421875 6 C-11.32850731179706 6, 0.5851728764058812 6, 23.2421875 6 M-23.2421875 6 C-10.061874561214584 6, 3.1184383775708326 6, 23.2421875 6" stroke="#9370DB" stroke-width="1.3" fill="none" stroke-dasharray="0 0" style=""/></g><g class="divider" style=""><path d="M-23.2421875 24 C-10.903226349009422 24, 1.4357348019811553 24, 23.2421875 24 M-23.2421875 24 C-10.109405568696355 24, 3.0233763626072907 24, 23.2421875 24" stroke="#9370DB" stroke-width="1.3" fill="none" stroke-dasharray="0 0" style=""/></g></g><g class="node default" id="classId-Iban-3" transform="translate(708.92578125, 269)"><g class="basic label-container"><path d="M-27.8671875 -42 L27.8671875 -42 L27.8671875 42 L-27.8671875 42" stroke="none" stroke-width="0" fill="#ECECFF" style=""/><path d="M-27.8671875 -42 C-7.950123523313465 -42, 11.96694045337307 -42, 27.8671875 -42 M-27.8671875 -42 C-16.184074410135388 -42, -4.500961320270772 -42, 27.8671875 -42 M27.8671875 -42 C27.8671875 -10.422377975187562, 27.8671875 21.155244049624876, 27.8671875 42 M27.8671875 -42 C27.8671875 -21.15657840808043, 27.8671875 -0.31315681616086266, 27.8671875 42 M27.8671875 42 C16.041626760083858 42, 4.21606602016772 42, -27.8671875 42 M27.8671875 42 C11.73735481461603 42, -4.392477870767941 42, -27.8671875 42 M-27.8671875 42 C-27.8671875 18.84869562004962, -27.8671875 -4.302608759900757, -27.8671875 -42 M-27.8671875 42 C-27.8671875 14.058330357713395, -27.8671875 -13.88333928457321, -27.8671875 -42" stroke="#9370DB" stroke-width="1.3" fill="none" stroke-dasharray="0 0" style=""/></g><g class="annotation-group text" transform="translate(0, -18)"/><g class="label-group text" transform="translate(-15.8671875, -18)"><g class="label" style="font-weight: bolder" transform="translate(0,-12)"><foreignObject width="31.734375" height="24"><div xmlns="http://www.w3.org/1999/xhtml" style="display: table-cell; white-space: nowrap; line-height: 1.5; max-width: 78px; text-align: center;"><span class="nodeLabel markdown-node-label" style=""><p>Iban</p></span></div></foreignObject></g></g><g class="members-group text" transform="translate(-15.8671875, 30)"/><g class="methods-group text" transform="translate(-15.8671875, 60)"/><g class="divider" style=""><path d="M-27.8671875 6 C-7.4126772882079415 6, 13.041832923584117 6, 27.8671875 6 M-27.8671875 6 C-16.46823151970882 6, -5.069275539417639 6, 27.8671875 6" stroke="#9370DB" stroke-width="1.3" fill="none" stroke-dasharray="0 0" style=""/></g><g class="divider" style=""><path d="M-27.8671875 24 C-11.433591054206822 24, 5.000005391586356 24, 27.8671875 24 M-27.8671875 24 C-8.991580074992342 24, 9.884027350015316 24, 27.8671875 24" stroke="#9370DB" stroke-width="1.3" fill="none" stroke-dasharray="0 0" style=""/></g></g><g class="node default" id="classId-ClearingNumber-4" transform="translate(996.8046875, 50)"><g class="basic label-container"><path d="M-72.265625 -42 L72.265625 -42 L72.265625 42 L-72.265625 42" stroke="none" stroke-width="0" fill="#ECECFF" style=""/><path d="M-72.265625 -42 C-31.30375320792971 -42, 9.658118584140581 -42, 72.265625 -42 M-72.265625 -42 C-32.90662246073177 -42, 6.452380078536464 -42, 72.265625 -42 M72.265625 -42 C72.265625 -19.39080148163993, 72.265625 3.218397036720141, 72.265625 42 M72.265625 -42 C72.265625 -14.950168943291107, 72.265625 12.099662113417786, 72.265625 42 M72.265625 42 C21.662259334002144 42, -28.941106331995712 42, -72.265625 42 M72.265625 42 C31.689788821171717 42, -8.886047357656565 42, -72.265625 42 M-72.265625 42 C-72.265625 10.82213766165912, -72.265625 -20.35572467668176, -72.265625 -42 M-72.265625 42 C-72.265625 20.687657374113364, -72.265625 -0.6246852517732719, -72.265625 -42" stroke="#9370DB" stroke-width="1.3" fill="none" stroke-dasharray="0 0" style=""/></g><g class="annotation-group text" transform="translate(0, -18)"/><g class="label-group text" transform="translate(-60.265625, -18)"><g class="label" style="font-weight: bolder" transform="translate(0,-12)"><foreignObject width="120.53125" height="24"><div xmlns="http://www.w3.org/1999/xhtml" style="display: table-cell; white-space: nowrap; line-height: 1.5; max-width: 158px; text-align: center;"><span class="nodeLabel markdown-node-label" style=""><p>ClearingNumber</p></span></div></foreignObject></g></g><g class="members-group text" transform="translate(-60.265625, 30)"/><g class="methods-group text" transform="translate(-60.265625, 60)"/><g class="divider" style=""><path d="M-72.265625 6 C-24.469883223500155 6, 23.32585855299969 6, 72.265625 6 M-72.265625 6 C-15.979345918505473 6, 40.306933162989054 6, 72.265625 6" stroke="#9370DB" stroke-width="1.3" fill="none" stroke-dasharray="0 0" style=""/></g><g class="divider" style=""><path d="M-72.265625 24 C-27.91340227044453 24, 16.438820459110943 24, 72.265625 24 M-72.265625 24 C-20.46430719290101 24, 31.33701061419798 24, 72.265625 24" stroke="#9370DB" stroke-width="1.3" fill="none" stroke-dasharray="0 0" style=""/></g></g><g class="node default" id="classId-CredentialSubject-5" transform="translate(87.3203125, 171)"><g class="basic label-container"><path d="M-79.3203125 -54 L79.3203125 -54 L79.3203125 54 L-79.3203125 54" stroke="none" stroke-width="0" fill="#ECECFF" style=""/><path d="M-79.3203125 -54 C-18.19873450248155 -54, 42.9228434950369 -54, 79.3203125 -54 M-79.3203125 -54 C-29.83244611024618 -54, 19.655420279507638 -54, 79.3203125 -54 M79.3203125 -54 C79.3203125 -13.624890144630832, 79.3203125 26.750219710738335, 79.3203125 54 M79.3203125 -54 C79.3203125 -24.658921146588636, 79.3203125 4.6821577068227285, 79.3203125 54 M79.3203125 54 C21.86814358081969 54, -35.58402533836062 54, -79.3203125 54 M79.3203125 54 C42.73286464210385 54, 6.145416784207697 54, -79.3203125 54 M-79.3203125 54 C-79.3203125 32.12702885709167, -79.3203125 10.254057714183354, -79.3203125 -54 M-79.3203125 54 C-79.3203125 31.95042595648984, -79.3203125 9.900851912979682, -79.3203125 -54" stroke="#9370DB" stroke-width="1.3" fill="none" stroke-dasharray="0 0" style=""/></g><g class="annotation-group text" transform="translate(-38.34375, -30)"><g class="label" style="" transform="translate(0,-12)"><foreignObject width="76.6875" height="24"><div xmlns="http://www.w3.org/1999/xhtml" style="display: table-cell; white-space: nowrap; line-height: 1.5; max-width: 118px; text-align: center;"><span class="nodeLabel markdown-node-label" style=""><p>«external»</p></span></div></foreignObject></g></g><g class="label-group text" transform="translate(-67.3203125, -6)"><g class="label" style="font-weight: bolder" transform="translate(0,-12)"><foreignObject width="134.640625" height="24"><div xmlns="http://www.w3.org/1999/xhtml" style="display: table-cell; white-space: nowrap; line-height: 1.5; max-width: 165px; text-align: center;"><span class="nodeLabel markdown-node-label" style=""><p>CredentialSubject</p></span></div></foreignObject></g></g><g class="members-group text" transform="translate(-67.3203125, 42)"/><g class="methods-group text" transform="translate(-67.3203125, 72)"/><g class="divider" style=""><path d="M-79.3203125 18 C-30.25185661602511 18, 18.816599267949783 18, 79.3203125 18 M-79.3203125 18 C-44.76796690639039 18, -10.215621312780783 18, 79.3203125 18" stroke="#9370DB" stroke-width="1.3" fill="none" stroke-dasharray="0 0" style=""/></g><g class="divider" style=""><path d="M-79.3203125 36 C-20.87034415140114 36, 37.57962419719772 36, 79.3203125 36 M-79.3203125 36 C-26.904514051970153 36, 25.511284396059693 36, 79.3203125 36" stroke="#9370DB" stroke-width="1.3" fill="none" stroke-dasharray="0 0" style=""/></g></g></g></g></g></svg>