<svg aria-roledescription="class" role="graphics-document document" viewBox="0 0 987.3828125 319" style="max-width: 987.383px; background-color: white;" class="classDiagram" xmlns:xlink="http://www.w3.org/1999/xlink" xmlns="http://www.w3.org/2000/svg" width="100%" id="my-svg"><style>#my-svg{font-family:"trebuchet ms",verdana,arial,sans-serif;font-size:16px;fill:#333;}@keyframes edge-animation-frame{from{stroke-dashoffset:0;}}@keyframes dash{to{stroke-dashoffset:0;}}#my-svg .edge-animation-slow{stroke-dasharray:9,5!important;stroke-dashoffset:900;animation:dash 50s linear infinite;stroke-linecap:round;}#my-svg .edge-animation-fast{stroke-dasharray:9,5!important;stroke-dashoffset:900;animation:dash 20s linear infinite;stroke-linecap:round;}#my-svg .error-icon{fill:#552222;}#my-svg .error-text{fill:#552222;stroke:#552222;}#my-svg .edge-thickness-normal{stroke-width:1px;}#my-svg .edge-thickness-thick{stroke-width:3.5px;}#my-svg .edge-pattern-solid{stroke-dasharray:0;}#my-svg .edge-thickness-invisible{stroke-width:0;fill:none;}#my-svg .edge-pattern-dashed{stroke-dasharray:3;}#my-svg .edge-pattern-dotted{stroke-dasharray:2;}#my-svg .marker{fill:#333333;stroke:#333333;}#my-svg .marker.cross{stroke:#333333;}#my-svg svg{font-family:"trebuchet ms",verdana,arial,sans-serif;font-size:16px;}#my-svg p{margin:0;}#my-svg g.classGroup text{fill:#9370DB;stroke:none;font-family:"trebuchet ms",verdana,arial,sans-serif;font-size:10px;}#my-svg g.classGroup text .title{font-weight:bolder;}#my-svg .nodeLabel,#my-svg .edgeLabel{color:#131300;}#my-svg .edgeLabel .label rect{fill:#ECECFF;}#my-svg .label text{fill:#131300;}#my-svg .labelBkg{background:#ECECFF;}#my-svg .edgeLabel .label span{background:#ECECFF;}#my-svg .classTitle{font-weight:bolder;}#my-svg .node rect,#my-svg .node circle,#my-svg .node ellipse,#my-svg .node polygon,#my-svg .node path{fill:#ECECFF;stroke:#9370DB;stroke-width:1px;}#my-svg .divider{stroke:#9370DB;stroke-width:1;}#my-svg g.clickable{cursor:pointer;}#my-svg g.classGroup rect{fill:#ECECFF;stroke:#9370DB;}#my-svg g.classGroup line{stroke:#9370DB;stroke-width:1;}#my-svg .classLabel .box{stroke:none;stroke-width:0;fill:#ECECFF;opacity:0.5;}#my-svg .classLabel .label{fill:#9370DB;font-size:10px;}#my-svg .relation{stroke:#333333;stroke-width:1;fill:none;}#my-svg .dashed-line{stroke-dasharray:3;}#my-svg .dotted-line{stroke-dasharray:1 2;}#my-svg #compositionStart,#my-svg .composition{fill:#333333!important;stroke:#333333!important;stroke-width:1;}#my-svg #compositionEnd,#my-svg .composition{fill:#333333!important;stroke:#333333!important;stroke-width:1;}#my-svg #dependencyStart,#my-svg .dependency{fill:#333333!important;stroke:#333333!important;stroke-width:1;}#my-svg #dependencyStart,#my-svg .dependency{fill:#333333!important;stroke:#333333!important;stroke-width:1;}#my-svg #extensionStart,#my-svg .extension{fill:transparent!important;stroke:#333333!important;stroke-width:1;}#my-svg #extensionEnd,#my-svg .extension{fill:transparent!important;stroke:#333333!important;stroke-width:1;}#my-svg #aggregationStart,#my-svg .aggregation{fill:transparent!important;stroke:#333333!important;stroke-width:1;}#my-svg #aggregationEnd,#my-svg .aggregation{fill:transparent!important;stroke:#333333!important;stroke-width:1;}#my-svg #lollipopStart,#my-svg .lollipop{fill:#ECECFF!important;stroke:#333333!important;stroke-width:1;}#my-svg #lollipopEnd,#my-svg .lollipop{fill:#ECECFF!important;stroke:#333333!important;stroke-width:1;}#my-svg .edgeTerminals{font-size:11px;line-height:initial;}#my-svg .classTitleText{text-anchor:middle;font-size:18px;fill:#333;}#my-svg .label-icon{display:inline-block;height:1em;overflow:visible;vertical-align:-0.125em;}#my-svg .node .label-icon path{fill:currentColor;stroke:revert;stroke-width:revert;}#my-svg :root{--mermaid-font-family:"trebuchet ms",verdana,arial,sans-serif;}</style><g><defs><marker orient="auto" markerHeight="240" markerWidth="190" refY="7" refX="18" class="marker aggregation class" id="my-svg_class-aggregationStart"><path d="M 18,7 L9,13 L1,7 L9,1 Z"/></marker></defs><defs><marker orient="auto" markerHeight="28" markerWidth="20" refY="7" refX="1" class="marker aggregation class" id="my-svg_class-aggregationEnd"><path d="M 18,7 L9,13 L1,7 L9,1 Z"/></marker></defs><defs><marker orient="auto" markerHeight="240" markerWidth="190" refY="7" refX="18" class="marker extension class" id="my-svg_class-extensionStart"><path d="M 1,7 L18,13 V 1 Z"/></marker></defs><defs><marker orient="auto" markerHeight="28" markerWidth="20" refY="7" refX="1" class="marker extension class" id="my-svg_class-extensionEnd"><path d="M 1,1 V 13 L18,7 Z"/></marker></defs><defs><marker orient="auto" markerHeight="240" markerWidth="190" refY="7" refX="18" class="marker composition class" id="my-svg_class-compositionStart"><path d="M 18,7 L9,13 L1,7 L9,1 Z"/></marker></defs><defs><marker orient="auto" markerHeight="28" markerWidth="20" refY="7" refX="1" class="marker composition class" id="my-svg_class-compositionEnd"><path d="M 18,7 L9,13 L1,7 L9,1 Z"/></marker></defs><defs><marker orient="auto" markerHeight="240" markerWidth="190" refY="7" refX="6" class="marker dependency class" id="my-svg_class-dependencyStart"><path d="M 5,7 L9,13 L1,7 L9,1 Z"/></marker></defs><defs><marker orient="auto" markerHeight="28" markerWidth="20" refY="7" refX="13" class="marker dependency class" id="my-svg_class-dependencyEnd"><path d="M 18,7 L9,13 L14,7 L9,1 Z"/></marker></defs><defs><marker orient="auto" markerHeight="240" markerWidth="190" refY="7" refX="13" class="marker lollipop class" id="my-svg_class-lollipopStart"><circle r="6" cy="7" cx="7" fill="transparent" stroke="black"/></marker></defs><defs><marker orient="auto" markerHeight="240" markerWidth="190" refY="7" refX="1" class="marker lollipop class" id="my-svg_class-lollipopEnd"><circle r="6" cy="7" cx="7" fill="transparent" stroke="black"/></marker></defs><g class="root"><g class="clusters"/><g class="edgePaths"><path marker-start="url(#my-svg_class-extensionStart)" style="" class="edge-thickness-normal edge-pattern-solid relation" id="id_CredentialSubject_BankAccount_1" d="M184.641,171L185.807,171C186.974,171,189.307,171,194.641,171C199.974,171,208.307,171,212.474,171L216.641,171"/><path marker-end="url(#my-svg_class-dependencyEnd)" style="" class="edge-thickness-normal edge-pattern-solid relation" id="id_BankAccount_Company_2" d="M445.922,119.638L455.087,115.532C464.253,111.425,482.583,103.213,499.927,100.431C517.271,97.649,533.627,100.299,541.805,101.623L549.983,102.948"/><path marker-end="url(#my-svg_class-dependencyEnd)" style="" class="edge-thickness-normal edge-pattern-solid relation" id="id_BankAccount_Company_3" d="M445.922,171L455.087,171C464.253,171,482.583,171,499.985,167.726C517.386,164.451,533.859,157.902,542.095,154.628L550.331,151.353"/><path marker-end="url(#my-svg_class-dependencyEnd)" style="" class="edge-thickness-normal edge-pattern-solid relation" id="id_BankAccount_Iban_4" d="M445.922,237.23L455.087,242.525C464.253,247.82,482.583,258.41,508.742,263.705C534.9,269,568.885,269,585.878,269L602.871,269"/><path marker-end="url(#my-svg_class-dependencyEnd)" style="" class="edge-thickness-normal edge-pattern-solid relation" id="id_Company_Bic_5" d="M717.57,78.17L727.344,73.475C737.117,68.78,756.664,59.39,783.382,54.695C810.099,50,843.987,50,860.931,50L877.875,50"/><path marker-end="url(#my-svg_class-dependencyEnd)" style="" class="edge-thickness-normal edge-pattern-solid relation" id="id_Company_ClearingNumber_6" d="M717.57,155.83L727.344,160.525C737.117,165.22,756.664,174.61,775.211,179.305C793.758,184,811.305,184,820.078,184L828.852,184"/></g><g class="edgeLabels"><g class="edgeLabel"><g transform="translate(0, -12)" class="label"><foreignObject height="24" width="0"><div class="labelBkg" xmlns="http://www.w3.org/1999/xhtml" style="display: table-cell; white-space: nowrap; line-height: 1.5; max-width: 200px; text-align: center;"><span class="edgeLabel" style=";display: inline-block"></span></div></foreignObject></g></g><g transform="translate(500.9140625, 95)" class="edgeLabel"><g transform="translate(-22.09375, -12)" class="label"><foreignObject height="24" width="44.1875"><div class="labelBkg" xmlns="http://www.w3.org/1999/xhtml" style="display: table-cell; white-space: nowrap; line-height: 1.5; max-width: 200px; text-align: center;"><span class="edgeLabel" style=";display: inline-block"><p>owner</p></span></div></foreignObject></g></g><g transform="translate(500.9140625, 171)" class="edgeLabel"><g transform="translate(-29.9921875, -12)" class="label"><foreignObject height="24" width="59.984375"><div class="labelBkg" xmlns="http://www.w3.org/1999/xhtml" style="display: table-cell; white-space: nowrap; line-height: 1.5; max-width: 200px; text-align: center;"><span class="edgeLabel" style=";display: inline-block"><p>provider</p></span></div></foreignObject></g></g><g transform="translate(500.9140625, 269)" class="edgeLabel"><g transform="translate(-15.3125, -12)" class="label"><foreignObject height="24" width="30.625"><div class="labelBkg" xmlns="http://www.w3.org/1999/xhtml" style="display: table-cell; white-space: nowrap; line-height: 1.5; max-width: 200px; text-align: center;"><span class="edgeLabel" style=";display: inline-block"><p>iban</p></span></div></foreignObject></g></g><g transform="translate(776.2109375, 50)" class="edgeLabel"><g transform="translate(-33.640625, -12)" class="label"><foreignObject height="24" width="67.28125"><div class="labelBkg" xmlns="http://www.w3.org/1999/xhtml" style="display: table-cell; white-space: nowrap; line-height: 1.5; max-width: 200px; text-align: center;"><span class="edgeLabel" style=";display: inline-block"><p>identifier</p></span></div></foreignObject></g></g><g transform="translate(776.2109375, 184)" class="edgeLabel"><g transform="translate(-33.640625, -12)" class="label"><foreignObject height="24" width="67.28125"><div class="labelBkg" xmlns="http://www.w3.org/1999/xhtml" style="display: table-cell; white-space: nowrap; line-height: 1.5; max-width: 200px; text-align: center;"><span class="edgeLabel" style=";display: inline-block"><p>identifier</p></span></div></foreignObject></g></g></g><g class="nodes"><g transform="translate(87.3203125, 171)" id="classId-CredentialSubject-0" class="node default"><g class="basic label-container"><path style="" fill="#ECECFF" stroke-width="0" stroke="none" d="M-79.3203125 -54 L79.3203125 -54 L79.3203125 54 L-79.3203125 54"/><path style="" fill="none" stroke-width="1.3" stroke="#9370DB" d="M-79.3203125 -54 C-17.90864166854434 -54, 43.50302916291132 -54, 79.3203125 -54 M-79.3203125 -54 C-38.64075295939322 -54, 2.0388065812135636 -54, 79.3203125 -54 M79.3203125 -54 C79.3203125 -31.667343222186744, 79.3203125 -9.334686444373489, 79.3203125 54 M79.3203125 -54 C79.3203125 -24.425732646011305, 79.3203125 5.14853470797739, 79.3203125 54 M79.3203125 54 C38.34692119217539 54, -2.6264701156492265 54, -79.3203125 54 M79.3203125 54 C37.319109708153555 54, -4.682093083692891 54, -79.3203125 54 M-79.3203125 54 C-79.3203125 31.722038688535882, -79.3203125 9.444077377071764, -79.3203125 -54 M-79.3203125 54 C-79.3203125 25.77170977905163, -79.3203125 -2.4565804418967403, -79.3203125 -54"/></g><g transform="translate(-24.0234375, -30)" class="annotation-group text"><g transform="translate(0,-12)" style="" class="label"><foreignObject height="24" width="48.046875"><div style="display: table-cell; white-space: nowrap; line-height: 1.5; max-width: 102px; text-align: center;" xmlns="http://www.w3.org/1999/xhtml"><span style="" class="nodeLabel markdown-node-label"><p>«EBW»</p></span></div></foreignObject></g></g><g transform="translate(-67.3203125, -6)" class="label-group text"><g transform="translate(0,-12)" style="font-weight: bolder" class="label"><foreignObject height="24" width="134.640625"><div style="display: table-cell; white-space: nowrap; line-height: 1.5; max-width: 165px; text-align: center;" xmlns="http://www.w3.org/1999/xhtml"><span style="" class="nodeLabel markdown-node-label"><p>CredentialSubject</p></span></div></foreignObject></g></g><g transform="translate(-67.3203125, 42)" class="members-group text"/><g transform="translate(-67.3203125, 72)" class="methods-group text"/><g style="" class="divider"><path style="" fill="none" stroke-width="1.3" stroke="#9370DB" d="M-79.3203125 18 C-27.482727010774227 18, 24.354858478451547 18, 79.3203125 18 M-79.3203125 18 C-23.749499131938002 18, 31.821314236123996 18, 79.3203125 18"/></g><g style="" class="divider"><path style="" fill="none" stroke-width="1.3" stroke="#9370DB" d="M-79.3203125 36 C-35.807736558946914 36, 7.704839382106172 36, 79.3203125 36 M-79.3203125 36 C-46.0061211397634 36, -12.691929779526802 36, 79.3203125 36"/></g></g><g transform="translate(331.28125, 171)" id="classId-BankAccount-1" class="node default"><g class="basic label-container"><path style="" fill="#ECECFF" stroke-width="0" stroke="none" d="M-114.640625 -120 L114.640625 -120 L114.640625 120 L-114.640625 120"/><path style="" fill="none" stroke-width="1.3" stroke="#9370DB" d="M-114.640625 -120 C-62.27104951884349 -120, -9.901474037686981 -120, 114.640625 -120 M-114.640625 -120 C-45.1399984063238 -120, 24.360628187352404 -120, 114.640625 -120 M114.640625 -120 C114.640625 -50.70590905049613, 114.640625 18.588181899007736, 114.640625 120 M114.640625 -120 C114.640625 -29.4178333289657, 114.640625 61.1643333420686, 114.640625 120 M114.640625 120 C29.74560921349685 120, -55.1494065730063 120, -114.640625 120 M114.640625 120 C40.35573284687743 120, -33.92915930624514 120, -114.640625 120 M-114.640625 120 C-114.640625 68.82433292792072, -114.640625 17.64866585584143, -114.640625 -120 M-114.640625 120 C-114.640625 57.66837898581119, -114.640625 -4.663242028377624, -114.640625 -120"/></g><g transform="translate(-24.0234375, -96)" class="annotation-group text"><g transform="translate(0,-12)" style="" class="label"><foreignObject height="24" width="48.046875"><div style="display: table-cell; white-space: nowrap; line-height: 1.5; max-width: 102px; text-align: center;" xmlns="http://www.w3.org/1999/xhtml"><span style="" class="nodeLabel markdown-node-label"><p>«EBW»</p></span></div></foreignObject></g></g><g transform="translate(-48.53125, -72)" class="label-group text"><g transform="translate(0,-12)" style="font-weight: bolder" class="label"><foreignObject height="24" width="97.0625"><div style="display: table-cell; white-space: nowrap; line-height: 1.5; max-width: 138px; text-align: center;" xmlns="http://www.w3.org/1999/xhtml"><span style="" class="nodeLabel markdown-node-label"><p>BankAccount</p></span></div></foreignObject></g></g><g transform="translate(-102.640625, -24)" class="members-group text"><g transform="translate(0,-12)" style="" class="label"><foreignObject height="24" width="156.75"><div style="display: table-cell; white-space: nowrap; line-height: 1.5; max-width: 196px; text-align: center;" xmlns="http://www.w3.org/1999/xhtml"><span style="" class="nodeLabel markdown-node-label"><p>+accountName: string</p></span></div></foreignObject></g><g transform="translate(0,12)" style="" class="label"><foreignObject height="24" width="149.109375"><div style="display: table-cell; white-space: nowrap; line-height: 1.5; max-width: 190px; text-align: center;" xmlns="http://www.w3.org/1999/xhtml"><span style="" class="nodeLabel markdown-node-label"><p>+accountType: string</p></span></div></foreignObject></g><g transform="translate(0,36)" style="" class="label"><foreignObject height="24" width="80.234375"><div style="display: table-cell; white-space: nowrap; line-height: 1.5; max-width: 128px; text-align: center;" xmlns="http://www.w3.org/1999/xhtml"><span style="" class="nodeLabel markdown-node-label"><p>+iban: Iban</p></span></div></foreignObject></g><g transform="translate(0,60)" style="" class="label"><foreignObject height="24" width="128.65625"><div style="display: table-cell; white-space: nowrap; line-height: 1.5; max-width: 174px; text-align: center;" xmlns="http://www.w3.org/1999/xhtml"><span style="" class="nodeLabel markdown-node-label"><p>+owner: Company</p></span></div></foreignObject></g><g transform="translate(0,84)" style="" class="label"><foreignObject height="24" width="144.453125"><div style="display: table-cell; white-space: nowrap; line-height: 1.5; max-width: 188px; text-align: center;" xmlns="http://www.w3.org/1999/xhtml"><span style="" class="nodeLabel markdown-node-label"><p>+provider: Company</p></span></div></foreignObject></g></g><g transform="translate(-102.640625, 120)" class="methods-group text"/><g style="" class="divider"><path style="" fill="none" stroke-width="1.3" stroke="#9370DB" d="M-114.640625 -48 C-60.69027549257954 -48, -6.739925985159076 -48, 114.640625 -48 M-114.640625 -48 C-45.92732928760641 -48, 22.785966424787176 -48, 114.640625 -48"/></g><g style="" class="divider"><path style="" fill="none" stroke-width="1.3" stroke="#9370DB" d="M-114.640625 96 C-25.117108651219695 96, 64.40640769756061 96, 114.640625 96 M-114.640625 96 C-35.14071569660314 96, 44.359193606793724 96, 114.640625 96"/></g></g><g transform="translate(636.73828125, 117)" id="classId-Company-2" class="node default"><g class="basic label-container"><path style="" fill="#ECECFF" stroke-width="0" stroke="none" d="M-80.83203125 -60 L80.83203125 -60 L80.83203125 60 L-80.83203125 60"/><path style="" fill="none" stroke-width="1.3" stroke="#9370DB" d="M-80.83203125 -60 C-32.26791432674129 -60, 16.296202596517418 -60, 80.83203125 -60 M-80.83203125 -60 C-42.33634695294212 -60, -3.8406626558842447 -60, 80.83203125 -60 M80.83203125 -60 C80.83203125 -14.114240179283073, 80.83203125 31.771519641433855, 80.83203125 60 M80.83203125 -60 C80.83203125 -22.16934118898108, 80.83203125 15.661317622037842, 80.83203125 60 M80.83203125 60 C30.425569295902314 60, -19.980892658195373 60, -80.83203125 60 M80.83203125 60 C42.67147728033055 60, 4.510923310661099 60, -80.83203125 60 M-80.83203125 60 C-80.83203125 28.21820274013617, -80.83203125 -3.5635945197276584, -80.83203125 -60 M-80.83203125 60 C-80.83203125 32.330518586821874, -80.83203125 4.661037173643749, -80.83203125 -60"/></g><g transform="translate(0, -36)" class="annotation-group text"/><g transform="translate(-34.2109375, -36)" class="label-group text"><g transform="translate(0,-12)" style="font-weight: bolder" class="label"><foreignObject height="24" width="68.421875"><div style="display: table-cell; white-space: nowrap; line-height: 1.5; max-width: 112px; text-align: center;" xmlns="http://www.w3.org/1999/xhtml"><span style="" class="nodeLabel markdown-node-label"><p>Company</p></span></div></foreignObject></g></g><g transform="translate(-68.83203125, 12)" class="members-group text"><g transform="translate(0,-12)" style="" class="label"><foreignObject height="24" width="103.453125"><div style="display: table-cell; white-space: nowrap; line-height: 1.5; max-width: 142px; text-align: center;" xmlns="http://www.w3.org/1999/xhtml"><span style="" class="nodeLabel markdown-node-label"><p>identifier: List</p></span></div></foreignObject></g></g><g transform="translate(-68.83203125, 60)" class="methods-group text"/><g style="" class="divider"><path style="" fill="none" stroke-width="1.3" stroke="#9370DB" d="M-80.83203125 -12 C-18.688563727123793 -12, 43.454903795752415 -12, 80.83203125 -12 M-80.83203125 -12 C-44.53089439254997 -12, -8.229757535099935 -12, 80.83203125 -12"/></g><g style="" class="divider"><path style="" fill="none" stroke-width="1.3" stroke="#9370DB" d="M-80.83203125 36 C-48.15930663075996 36, -15.486582011519914 36, 80.83203125 36 M-80.83203125 36 C-26.398907395919892 36, 28.034216458160216 36, 80.83203125 36"/></g></g><g transform="translate(907.1171875, 50)" id="classId-Bic-3" class="node default"><g class="basic label-container"><path style="" fill="#ECECFF" stroke-width="0" stroke="none" d="M-23.2421875 -42 L23.2421875 -42 L23.2421875 42 L-23.2421875 42"/><path style="" fill="none" stroke-width="1.3" stroke="#9370DB" d="M-23.2421875 -42 C-5.48701740418479 -42, 12.26815269163042 -42, 23.2421875 -42 M-23.2421875 -42 C-13.098137555295816 -42, -2.954087610591632 -42, 23.2421875 -42 M23.2421875 -42 C23.2421875 -17.39777694656734, 23.2421875 7.204446106865319, 23.2421875 42 M23.2421875 -42 C23.2421875 -19.91059711327496, 23.2421875 2.1788057734500796, 23.2421875 42 M23.2421875 42 C5.582522921961086 42, -12.077141656077828 42, -23.2421875 42 M23.2421875 42 C12.964518635938669 42, 2.6868497718773376 42, -23.2421875 42 M-23.2421875 42 C-23.2421875 8.777704525315372, -23.2421875 -24.444590949369257, -23.2421875 -42 M-23.2421875 42 C-23.2421875 13.719419157515599, -23.2421875 -14.561161684968802, -23.2421875 -42"/></g><g transform="translate(0, -18)" class="annotation-group text"/><g transform="translate(-11.2421875, -18)" class="label-group text"><g transform="translate(0,-12)" style="font-weight: bolder" class="label"><foreignObject height="24" width="22.484375"><div style="display: table-cell; white-space: nowrap; line-height: 1.5; max-width: 72px; text-align: center;" xmlns="http://www.w3.org/1999/xhtml"><span style="" class="nodeLabel markdown-node-label"><p>Bic</p></span></div></foreignObject></g></g><g transform="translate(-11.2421875, 30)" class="members-group text"/><g transform="translate(-11.2421875, 60)" class="methods-group text"/><g style="" class="divider"><path style="" fill="none" stroke-width="1.3" stroke="#9370DB" d="M-23.2421875 6 C-6.285140727271568 6, 10.671906045456865 6, 23.2421875 6 M-23.2421875 6 C-8.843774730313344 6, 5.554638039373312 6, 23.2421875 6"/></g><g style="" class="divider"><path style="" fill="none" stroke-width="1.3" stroke="#9370DB" d="M-23.2421875 24 C-13.462283355647417 24, -3.6823792112948333 24, 23.2421875 24 M-23.2421875 24 C-13.423370661880265 24, -3.6045538237605292 24, 23.2421875 24"/></g></g><g transform="translate(636.73828125, 269)" id="classId-Iban-4" class="node default"><g class="basic label-container"><path style="" fill="#ECECFF" stroke-width="0" stroke="none" d="M-27.8671875 -42 L27.8671875 -42 L27.8671875 42 L-27.8671875 42"/><path style="" fill="none" stroke-width="1.3" stroke="#9370DB" d="M-27.8671875 -42 C-12.218576251035742 -42, 3.430034997928516 -42, 27.8671875 -42 M-27.8671875 -42 C-12.13627579697483 -42, 3.594635906050339 -42, 27.8671875 -42 M27.8671875 -42 C27.8671875 -22.253460939682356, 27.8671875 -2.506921879364711, 27.8671875 42 M27.8671875 -42 C27.8671875 -10.915876642365888, 27.8671875 20.168246715268225, 27.8671875 42 M27.8671875 42 C13.99131867654066 42, 0.11544985308131928 42, -27.8671875 42 M27.8671875 42 C15.182950845609236 42, 2.498714191218472 42, -27.8671875 42 M-27.8671875 42 C-27.8671875 20.431734487541878, -27.8671875 -1.1365310249162448, -27.8671875 -42 M-27.8671875 42 C-27.8671875 18.6014336840912, -27.8671875 -4.797132631817597, -27.8671875 -42"/></g><g transform="translate(0, -18)" class="annotation-group text"/><g transform="translate(-15.8671875, -18)" class="label-group text"><g transform="translate(0,-12)" style="font-weight: bolder" class="label"><foreignObject height="24" width="31.734375"><div style="display: table-cell; white-space: nowrap; line-height: 1.5; max-width: 78px; text-align: center;" xmlns="http://www.w3.org/1999/xhtml"><span style="" class="nodeLabel markdown-node-label"><p>Iban</p></span></div></foreignObject></g></g><g transform="translate(-15.8671875, 30)" class="members-group text"/><g transform="translate(-15.8671875, 60)" class="methods-group text"/><g style="" class="divider"><path style="" fill="none" stroke-width="1.3" stroke="#9370DB" d="M-27.8671875 6 C-6.9238539588785954 6, 14.019479582242809 6, 27.8671875 6 M-27.8671875 6 C-6.149308411295316 6, 15.568570677409369 6, 27.8671875 6"/></g><g style="" class="divider"><path style="" fill="none" stroke-width="1.3" stroke="#9370DB" d="M-27.8671875 24 C-10.259684367156819 24, 7.3478187656863625 24, 27.8671875 24 M-27.8671875 24 C-9.429082854214226 24, 9.009021791571548 24, 27.8671875 24"/></g></g><g transform="translate(907.1171875, 184)" id="classId-ClearingNumber-5" class="node default"><g class="basic label-container"><path style="" fill="#ECECFF" stroke-width="0" stroke="none" d="M-72.265625 -42 L72.265625 -42 L72.265625 42 L-72.265625 42"/><path style="" fill="none" stroke-width="1.3" stroke="#9370DB" d="M-72.265625 -42 C-14.9700471715214 -42, 42.3255306569572 -42, 72.265625 -42 M-72.265625 -42 C-33.03861393350462 -42, 6.188397132990758 -42, 72.265625 -42 M72.265625 -42 C72.265625 -8.53327437481581, 72.265625 24.93345125036838, 72.265625 42 M72.265625 -42 C72.265625 -23.548720338983376, 72.265625 -5.097440677966752, 72.265625 42 M72.265625 42 C30.19564127997436 42, -11.87434244005128 42, -72.265625 42 M72.265625 42 C32.175255685422265 42, -7.915113629155471 42, -72.265625 42 M-72.265625 42 C-72.265625 12.419757817880402, -72.265625 -17.160484364239196, -72.265625 -42 M-72.265625 42 C-72.265625 22.35138048379697, -72.265625 2.702760967593939, -72.265625 -42"/></g><g transform="translate(0, -18)" class="annotation-group text"/><g transform="translate(-60.265625, -18)" class="label-group text"><g transform="translate(0,-12)" style="font-weight: bolder" class="label"><foreignObject height="24" width="120.53125"><div style="display: table-cell; white-space: nowrap; line-height: 1.5; max-width: 158px; text-align: center;" xmlns="http://www.w3.org/1999/xhtml"><span style="" class="nodeLabel markdown-node-label"><p>ClearingNumber</p></span></div></foreignObject></g></g><g transform="translate(-60.265625, 30)" class="members-group text"/><g transform="translate(-60.265625, 60)" class="methods-group text"/><g style="" class="divider"><path style="" fill="none" stroke-width="1.3" stroke="#9370DB" d="M-72.265625 6 C-28.946177895775115 6, 14.37326920844977 6, 72.265625 6 M-72.265625 6 C-18.757835494276556 6, 34.74995401144689 6, 72.265625 6"/></g><g style="" class="divider"><path style="" fill="none" stroke-width="1.3" stroke="#9370DB" d="M-72.265625 24 C-26.831155580812684 24, 18.603313838374632 24, 72.265625 24 M-72.265625 24 C-27.853952656552345 24, 16.55771968689531 24, 72.265625 24"/></g></g></g></g></g></svg>