<svg id="my-svg" width="100%" xmlns="http://www.w3.org/2000/svg" xmlns:xlink="http://www.w3.org/1999/xlink" class="classDiagram" style="max-width: 694.125px; background-color: white;" viewBox="0 0 694.125 280" role="graphics-document document" aria-roledescription="class"><style>#my-svg{font-family:"trebuchet ms",verdana,arial,sans-serif;font-size:16px;fill:#333;}@keyframes edge-animation-frame{from{stroke-dashoffset:0;}}@keyframes dash{to{stroke-dashoffset:0;}}#my-svg .edge-animation-slow{stroke-dasharray:9,5!important;stroke-dashoffset:900;animation:dash 50s linear infinite;stroke-linecap:round;}#my-svg .edge-animation-fast{stroke-dasharray:9,5!important;stroke-dashoffset:900;animation:dash 20s linear infinite;stroke-linecap:round;}#my-svg .error-icon{fill:#552222;}#my-svg .error-text{fill:#552222;stroke:#552222;}#my-svg .edge-thickness-normal{stroke-width:1px;}#my-svg .edge-thickness-thick{stroke-width:3.5px;}#my-svg .edge-pattern-solid{stroke-dasharray:0;}#my-svg .edge-thickness-invisible{stroke-width:0;fill:none;}#my-svg .edge-pattern-dashed{stroke-dasharray:3;}#my-svg .edge-pattern-dotted{stroke-dasharray:2;}#my-svg .marker{fill:#333333;stroke:#333333;}#my-svg .marker.cross{stroke:#333333;}#my-svg svg{font-family:"trebuchet ms",verdana,arial,sans-serif;font-size:16px;}#my-svg p{margin:0;}#my-svg g.classGroup text{fill:#9370DB;stroke:none;font-family:"trebuchet ms",verdana,arial,sans-serif;font-size:10px;}#my-svg g.classGroup text .title{font-weight:bolder;}#my-svg .cluster-label text{fill:#333;}#my-svg .cluster-label span{color:#333;}#my-svg .cluster-label span p{background-color:transparent;}#my-svg .cluster rect{fill:#ffffde;stroke:#aaaa33;stroke-width:1px;}#my-svg .cluster text{fill:#333;}#my-svg .cluster span{color:#333;}#my-svg .nodeLabel,#my-svg .edgeLabel{color:#131300;}#my-svg .edgeLabel .label rect{fill:#ECECFF;}#my-svg .label text{fill:#131300;}#my-svg .labelBkg{background:#ECECFF;}#my-svg .edgeLabel .label span{background:#ECECFF;}#my-svg .classTitle{font-weight:bolder;}#my-svg .node rect,#my-svg .node circle,#my-svg .node ellipse,#my-svg .node polygon,#my-svg .node path{fill:#ECECFF;stroke:#9370DB;stroke-width:1px;}#my-svg .divider{stroke:#9370DB;stroke-width:1;}#my-svg g.clickable{cursor:pointer;}#my-svg g.classGroup rect{fill:#ECECFF;stroke:#9370DB;}#my-svg g.classGroup line{stroke:#9370DB;stroke-width:1;}#my-svg .classLabel .box{stroke:none;stroke-width:0;fill:#ECECFF;opacity:0.5;}#my-svg .classLabel .label{fill:#9370DB;font-size:10px;}#my-svg .relation{stroke:#333333;stroke-width:1;fill:none;}#my-svg .dashed-line{stroke-dasharray:3;}#my-svg .dotted-line{stroke-dasharray:1 2;}#my-svg #compositionStart,#my-svg .composition{fill:#333333!important;stroke:#333333!important;stroke-width:1;}#my-svg #compositionEnd,#my-svg .composition{fill:#333333!important;stroke:#333333!important;stroke-width:1;}#my-svg #dependencyStart,#my-svg .dependency{fill:#333333!important;stroke:#333333!important;stroke-width:1;}#my-svg #dependencyStart,#my-svg .dependency{fill:#333333!important;stroke:#333333!important;stroke-width:1;}#my-svg #extensionStart,#my-svg .extension{fill:transparent!important;stroke:#333333!important;stroke-width:1;}#my-svg #extensionEnd,#my-svg .extension{fill:transparent!important;stroke:#333333!important;stroke-width:1;}#my-svg #aggregationStart,#my-svg .aggregation{fill:transparent!important;stroke:#333333!important;stroke-width:1;}#my-svg #aggregationEnd,#my-svg .aggregation{fill:transparent!important;stroke:#333333!important;stroke-width:1;}#my-svg #lollipopStart,#my-svg .lollipop{fill:#ECECFF!important;stroke:#333333!important;stroke-width:1;}#my-svg #lollipopEnd,#my-svg .lollipop{fill:#ECECFF!important;stroke:#333333!important;stroke-width:1;}#my-svg .edgeTerminals{font-size:11px;line-height:initial;}#my-svg .classTitleText{text-anchor:middle;font-size:18px;fill:#333;}#my-svg .label-icon{display:inline-block;height:1em;overflow:visible;vertical-align:-0.125em;}#my-svg .node .label-icon path{fill:currentColor;stroke:revert;stroke-width:revert;}#my-svg :root{--mermaid-font-family:"trebuchet ms",verdana,arial,sans-serif;}</style><g><defs><marker id="my-svg_class-aggregationStart" class="marker aggregation class" refX="18" refY="7" markerWidth="190" markerHeight="240" orient="auto"><path d="M 18,7 L9,13 L1,7 L9,1 Z"/></marker></defs><defs><marker id="my-svg_class-aggregationEnd" class="marker aggregation class" refX="1" refY="7" markerWidth="20" markerHeight="28" orient="auto"><path d="M 18,7 L9,13 L1,7 L9,1 Z"/></marker></defs><defs><marker id="my-svg_class-extensionStart" class="marker extension class" refX="18" refY="7" markerWidth="190" markerHeight="240" orient="auto"><path d="M 1,7 L18,13 V 1 Z"/></marker></defs><defs><marker id="my-svg_class-extensionEnd" class="marker extension class" refX="1" refY="7" markerWidth="20" markerHeight="28" orient="auto"><path d="M 1,1 V 13 L18,7 Z"/></marker></defs><defs><marker id="my-svg_class-compositionStart" class="marker composition class" refX="18" refY="7" markerWidth="190" markerHeight="240" orient="auto"><path d="M 18,7 L9,13 L1,7 L9,1 Z"/></marker></defs><defs><marker id="my-svg_class-compositionEnd" class="marker composition class" refX="1" refY="7" markerWidth="20" markerHeight="28" orient="auto"><path d="M 18,7 L9,13 L1,7 L9,1 Z"/></marker></defs><defs><marker id="my-svg_class-dependencyStart" class="marker dependency class" refX="6" refY="7" markerWidth="190" markerHeight="240" orient="auto"><path d="M 5,7 L9,13 L1,7 L9,1 Z"/></marker></defs><defs><marker id="my-svg_class-dependencyEnd" class="marker dependency class" refX="13" refY="7" markerWidth="20" markerHeight="28" orient="auto"><path d="M 18,7 L9,13 L14,7 L9,1 Z"/></marker></defs><defs><marker id="my-svg_class-lollipopStart" class="marker lollipop class" refX="13" refY="7" markerWidth="190" markerHeight="240" orient="auto"><circle fill="transparent" cx="7" cy="7" r="6"/></marker></defs><defs><marker id="my-svg_class-lollipopEnd" class="marker lollipop class" refX="1" refY="7" markerWidth="190" markerHeight="240" orient="auto"><circle fill="transparent" cx="7" cy="7" r="6"/></marker></defs><g class="root"><g class="clusters"/><g class="edgePaths"><path d="M183.891,140L185.182,140C186.474,140,189.057,140,194.516,140C199.974,140,208.307,140,212.474,140L216.641,140" id="id_CredentialSubject_PaymentTerms_1" class="edge-thickness-normal edge-pattern-solid relation" style=";;;" data-edge="true" data-et="edge" data-id="id_CredentialSubject_PaymentTerms_1" data-points="W3sieCI6MTY2LjY0MDYyNSwieSI6MTQwfSx7IngiOjE5MS42NDA2MjUsInkiOjE0MH0seyJ4IjoyMTYuNjQwNjI1LCJ5IjoxNDB9XQ==" marker-start="url(#my-svg_class-extensionStart)"/><path d="M494.391,140L501.978,140C509.565,140,524.74,140,538.914,140C553.089,140,566.263,140,572.85,140L579.438,140" id="id_PaymentTerms_IncoTerms_2" class="edge-thickness-normal edge-pattern-solid relation" style=";;;" data-edge="true" data-et="edge" data-id="id_PaymentTerms_IncoTerms_2" data-points="W3sieCI6NDk0LjM5MDYyNSwieSI6MTQwfSx7IngiOjUzOS45MTQwNjI1LCJ5IjoxNDB9LHsieCI6NTg1LjQzNzUsInkiOjE0MH1d" marker-end="url(#my-svg_class-dependencyEnd)"/></g><g class="edgeLabels"><g class="edgeLabel"><g class="label" data-id="id_CredentialSubject_PaymentTerms_1" transform="translate(0, 0)"><foreignObject width="0" height="0"><div xmlns="http://www.w3.org/1999/xhtml" class="labelBkg" style="display: table-cell; white-space: nowrap; line-height: 1.5; max-width: 200px; text-align: center;"><span class="edgeLabel"></span></div></foreignObject></g></g><g class="edgeLabel" transform="translate(539.9140625, 140)"><g class="label" data-id="id_PaymentTerms_IncoTerms_2" transform="translate(-20.5234375, -12)"><foreignObject width="41.046875" height="24"><div xmlns="http://www.w3.org/1999/xhtml" class="labelBkg" style="display: table-cell; white-space: nowrap; line-height: 1.5; max-width: 200px; text-align: center;"><span class="edgeLabel"><p>terms</p></span></div></foreignObject></g></g></g><g class="nodes"><g class="node default" id="classId-PaymentTerms-0" transform="translate(355.515625, 140)"><g class="basic label-container"><path d="M-138.875 -132 L138.875 -132 L138.875 132 L-138.875 132" stroke="none" stroke-width="0" fill="#ECECFF" style=""/><path d="M-138.875 -132 C-34.35494538645793 -132, 70.16510922708414 -132, 138.875 -132 M-138.875 -132 C-80.35877719811776 -132, -21.842554396235528 -132, 138.875 -132 M138.875 -132 C138.875 -32.194044467957156, 138.875 67.61191106408569, 138.875 132 M138.875 -132 C138.875 -29.840900827333797, 138.875 72.3181983453324, 138.875 132 M138.875 132 C76.82438926195111 132, 14.773778523902223 132, -138.875 132 M138.875 132 C49.79267697479851 132, -39.28964605040298 132, -138.875 132 M-138.875 132 C-138.875 59.49274056558308, -138.875 -13.014518868833846, -138.875 -132 M-138.875 132 C-138.875 33.85282063783268, -138.875 -64.29435872433464, -138.875 -132" stroke="#9370DB" stroke-width="1.3" fill="none" stroke-dasharray="0 0" style=""/></g><g class="annotation-group text" transform="translate(-24.0234375, -108)"><g class="label" style="" transform="translate(0,-12)"><foreignObject width="48.046875" height="24"><div xmlns="http://www.w3.org/1999/xhtml" style="display: table-cell; white-space: nowrap; line-height: 1.5; max-width: 102px; text-align: center;"><span class="nodeLabel markdown-node-label" style=""><p>«EBW»</p></span></div></foreignObject></g></g><g class="label-group text" transform="translate(-54.5625, -84)"><g class="label" style="font-weight: bolder" transform="translate(0,-12)"><foreignObject width="109.125" height="24"><div xmlns="http://www.w3.org/1999/xhtml" style="display: table-cell; white-space: nowrap; line-height: 1.5; max-width: 146px; text-align: center;"><span class="nodeLabel markdown-node-label" style=""><p>PaymentTerms</p></span></div></foreignObject></g></g><g class="members-group text" transform="translate(-126.875, -36)"><g class="label" style="" transform="translate(0,-12)"><foreignObject width="169.1875" height="24"><div xmlns="http://www.w3.org/1999/xhtml" style="display: table-cell; white-space: nowrap; line-height: 1.5; max-width: 207px; text-align: center;"><span class="nodeLabel markdown-node-label" style=""><p>+paymentDue: duration</p></span></div></foreignObject></g><g class="label" style="" transform="translate(0,12)"><foreignObject width="131.84375" height="24"><div xmlns="http://www.w3.org/1999/xhtml" style="display: table-cell; white-space: nowrap; line-height: 1.5; max-width: 176px; text-align: center;"><span class="nodeLabel markdown-node-label" style=""><p>+terms: IncoTerms</p></span></div></foreignObject></g><g class="label" style="" transform="translate(0,36)"><foreignObject width="145.5" height="24"><div xmlns="http://www.w3.org/1999/xhtml" style="display: table-cell; white-space: nowrap; line-height: 1.5; max-width: 187px; text-align: center;"><span class="nodeLabel markdown-node-label" style=""><p>+currency: Currency</p></span></div></foreignObject></g><g class="label" style="" transform="translate(0,60)"><foreignObject width="125.546875" height="24"><div xmlns="http://www.w3.org/1999/xhtml" style="display: table-cell; white-space: nowrap; line-height: 1.5; max-width: 174px; text-align: center;"><span class="nodeLabel markdown-node-label" style=""><p>+supplier: anyURI</p></span></div></foreignObject></g><g class="label" style="" transform="translate(0,84)"><foreignObject width="108.765625" height="24"><div xmlns="http://www.w3.org/1999/xhtml" style="display: table-cell; white-space: nowrap; line-height: 1.5; max-width: 159px; text-align: center;"><span class="nodeLabel markdown-node-label" style=""><p>+buyer: anyURI</p></span></div></foreignObject></g><g class="label" style="" transform="translate(0,108)"><foreignObject width="199.1875" height="24"><div xmlns="http://www.w3.org/1999/xhtml" style="display: table-cell; white-space: nowrap; line-height: 1.5; max-width: 238px; text-align: center;"><span class="nodeLabel markdown-node-label" style=""><p>+deliveryLocation: Location</p></span></div></foreignObject></g></g><g class="methods-group text" transform="translate(-126.875, 132)"/><g class="divider" style=""><path d="M-138.875 -60 C-58.3070928069003 -60, 22.2608143861994 -60, 138.875 -60 M-138.875 -60 C-47.63951981841946 -60, 43.59596036316108 -60, 138.875 -60" stroke="#9370DB" stroke-width="1.3" fill="none" stroke-dasharray="0 0" style=""/></g><g class="divider" style=""><path d="M-138.875 108 C-61.45671007799038 108, 15.96157984401924 108, 138.875 108 M-138.875 108 C-64.14266922226999 108, 10.589661555460026 108, 138.875 108" stroke="#9370DB" stroke-width="1.3" fill="none" stroke-dasharray="0 0" style=""/></g></g><g class="node default" id="classId-IncoTerms-1" transform="translate(635.78125, 140)"><g class="basic label-container"><path d="M-50.34375 -54 L50.34375 -54 L50.34375 54 L-50.34375 54" stroke="none" stroke-width="0" fill="#ECECFF" style=""/><path d="M-50.34375 -54 C-28.207487624069277 -54, -6.071225248138553 -54, 50.34375 -54 M-50.34375 -54 C-11.017488928609332 -54, 28.308772142781336 -54, 50.34375 -54 M50.34375 -54 C50.34375 -17.235319626144666, 50.34375 19.52936074771067, 50.34375 54 M50.34375 -54 C50.34375 -27.176020737835717, 50.34375 -0.3520414756714345, 50.34375 54 M50.34375 54 C16.430948123342652 54, -17.481853753314695 54, -50.34375 54 M50.34375 54 C19.03710926733089 54, -12.269531465338218 54, -50.34375 54 M-50.34375 54 C-50.34375 15.191198341178833, -50.34375 -23.617603317642335, -50.34375 -54 M-50.34375 54 C-50.34375 18.815046021005834, -50.34375 -16.36990795798833, -50.34375 -54" stroke="#9370DB" stroke-width="1.3" fill="none" stroke-dasharray="0 0" style=""/></g><g class="annotation-group text" transform="translate(-38.34375, -30)"><g class="label" style="" transform="translate(0,-12)"><foreignObject width="76.6875" height="24"><div xmlns="http://www.w3.org/1999/xhtml" style="display: table-cell; white-space: nowrap; line-height: 1.5; max-width: 118px; text-align: center;"><span class="nodeLabel markdown-node-label" style=""><p>«external»</p></span></div></foreignObject></g></g><g class="label-group text" transform="translate(-37.9140625, -6)"><g class="label" style="font-weight: bolder" transform="translate(0,-12)"><foreignObject width="75.828125" height="24"><div xmlns="http://www.w3.org/1999/xhtml" style="display: table-cell; white-space: nowrap; line-height: 1.5; max-width: 118px; text-align: center;"><span class="nodeLabel markdown-node-label" style=""><p>IncoTerms</p></span></div></foreignObject></g></g><g class="members-group text" transform="translate(-38.34375, 42)"/><g class="methods-group text" transform="translate(-38.34375, 72)"/><g class="divider" style=""><path d="M-50.34375 18 C-25.626185448488943 18, -0.9086208969778866 18, 50.34375 18 M-50.34375 18 C-18.189505545361257 18, 13.964738909277486 18, 50.34375 18" stroke="#9370DB" stroke-width="1.3" fill="none" stroke-dasharray="0 0" style=""/></g><g class="divider" style=""><path d="M-50.34375 36 C-26.763095454374735 36, -3.18244090874947 36, 50.34375 36 M-50.34375 36 C-27.970597623100126 36, -5.597445246200252 36, 50.34375 36" stroke="#9370DB" stroke-width="1.3" fill="none" stroke-dasharray="0 0" style=""/></g></g><g class="node default" id="classId-CredentialSubject-2" transform="translate(87.3203125, 140)"><g class="basic label-container"><path d="M-79.3203125 -42 L79.3203125 -42 L79.3203125 42 L-79.3203125 42" stroke="none" stroke-width="0" fill="#ECECFF" style=""/><path d="M-79.3203125 -42 C-30.204613417622944 -42, 18.91108566475411 -42, 79.3203125 -42 M-79.3203125 -42 C-39.15239987358515 -42, 1.015512752829693 -42, 79.3203125 -42 M79.3203125 -42 C79.3203125 -13.630205654892073, 79.3203125 14.739588690215854, 79.3203125 42 M79.3203125 -42 C79.3203125 -10.2769931962068, 79.3203125 21.4460136075864, 79.3203125 42 M79.3203125 42 C37.785424020268465 42, -3.74946445946307 42, -79.3203125 42 M79.3203125 42 C22.80355498051147 42, -33.71320253897706 42, -79.3203125 42 M-79.3203125 42 C-79.3203125 16.41274316766544, -79.3203125 -9.17451366466912, -79.3203125 -42 M-79.3203125 42 C-79.3203125 14.286525792879832, -79.3203125 -13.426948414240336, -79.3203125 -42" stroke="#9370DB" stroke-width="1.3" fill="none" stroke-dasharray="0 0" style=""/></g><g class="annotation-group text" transform="translate(0, -18)"/><g class="label-group text" transform="translate(-67.3203125, -18)"><g class="label" style="font-weight: bolder" transform="translate(0,-12)"><foreignObject width="134.640625" height="24"><div xmlns="http://www.w3.org/1999/xhtml" style="display: table-cell; white-space: nowrap; line-height: 1.5; max-width: 165px; text-align: center;"><span class="nodeLabel markdown-node-label" style=""><p>CredentialSubject</p></span></div></foreignObject></g></g><g class="members-group text" transform="translate(-67.3203125, 30)"/><g class="methods-group text" transform="translate(-67.3203125, 60)"/><g class="divider" style=""><path d="M-79.3203125 6 C-32.16827695560841 6, 14.983758588783175 6, 79.3203125 6 M-79.3203125 6 C-28.443072993303012 6, 22.434166513393976 6, 79.3203125 6" stroke="#9370DB" stroke-width="1.3" fill="none" stroke-dasharray="0 0" style=""/></g><g class="divider" style=""><path d="M-79.3203125 24 C-21.857786183943695 24, 35.60474013211261 24, 79.3203125 24 M-79.3203125 24 C-44.2961158130632 24, -9.271919126126406 24, 79.3203125 24" stroke="#9370DB" stroke-width="1.3" fill="none" stroke-dasharray="0 0" style=""/></g></g></g></g></g></svg>