<svg id="my-svg" width="100%" xmlns="http://www.w3.org/2000/svg" xmlns:xlink="http://www.w3.org/1999/xlink" class="classDiagram" style="max-width: 1012.48px; background-color: white;" viewBox="0 0 1012.484375 594" role="graphics-document document" aria-roledescription="class"><style>#my-svg{font-family:"trebuchet ms",verdana,arial,sans-serif;font-size:16px;fill:#333;}@keyframes edge-animation-frame{from{stroke-dashoffset:0;}}@keyframes dash{to{stroke-dashoffset:0;}}#my-svg .edge-animation-slow{stroke-dasharray:9,5!important;stroke-dashoffset:900;animation:dash 50s linear infinite;stroke-linecap:round;}#my-svg .edge-animation-fast{stroke-dasharray:9,5!important;stroke-dashoffset:900;animation:dash 20s linear infinite;stroke-linecap:round;}#my-svg .error-icon{fill:#552222;}#my-svg .error-text{fill:#552222;stroke:#552222;}#my-svg .edge-thickness-normal{stroke-width:1px;}#my-svg .edge-thickness-thick{stroke-width:3.5px;}#my-svg .edge-pattern-solid{stroke-dasharray:0;}#my-svg .edge-thickness-invisible{stroke-width:0;fill:none;}#my-svg .edge-pattern-dashed{stroke-dasharray:3;}#my-svg .edge-pattern-dotted{stroke-dasharray:2;}#my-svg .marker{fill:#333333;stroke:#333333;}#my-svg .marker.cross{stroke:#333333;}#my-svg svg{font-family:"trebuchet ms",verdana,arial,sans-serif;font-size:16px;}#my-svg p{margin:0;}#my-svg g.classGroup text{fill:#9370DB;stroke:none;font-family:"trebuchet ms",verdana,arial,sans-serif;font-size:10px;}#my-svg g.classGroup text .title{font-weight:bolder;}#my-svg .cluster-label text{fill:#333;}#my-svg .cluster-label span{color:#333;}#my-svg .cluster-label span p{background-color:transparent;}#my-svg .cluster rect{fill:#ffffde;stroke:#aaaa33;stroke-width:1px;}#my-svg .cluster text{fill:#333;}#my-svg .cluster span{color:#333;}#my-svg .nodeLabel,#my-svg .edgeLabel{color:#131300;}#my-svg .edgeLabel .label rect{fill:#ECECFF;}#my-svg .label text{fill:#131300;}#my-svg .labelBkg{background:#ECECFF;}#my-svg .edgeLabel .label span{background:#ECECFF;}#my-svg .classTitle{font-weight:bolder;}#my-svg .node rect,#my-svg .node circle,#my-svg .node ellipse,#my-svg .node polygon,#my-svg .node path{fill:#ECECFF;stroke:#9370DB;stroke-width:1px;}#my-svg .divider{stroke:#9370DB;stroke-width:1;}#my-svg g.clickable{cursor:pointer;}#my-svg g.classGroup rect{fill:#ECECFF;stroke:#9370DB;}#my-svg g.classGroup line{stroke:#9370DB;stroke-width:1;}#my-svg .classLabel .box{stroke:none;stroke-width:0;fill:#ECECFF;opacity:0.5;}#my-svg .classLabel .label{fill:#9370DB;font-size:10px;}#my-svg .relation{stroke:#333333;stroke-width:1;fill:none;}#my-svg .dashed-line{stroke-dasharray:3;}#my-svg .dotted-line{stroke-dasharray:1 2;}#my-svg #compositionStart,#my-svg .composition{fill:#333333!important;stroke:#333333!important;stroke-width:1;}#my-svg #compositionEnd,#my-svg .composition{fill:#333333!important;stroke:#333333!important;stroke-width:1;}#my-svg #dependencyStart,#my-svg .dependency{fill:#333333!important;stroke:#333333!important;stroke-width:1;}#my-svg #dependencyStart,#my-svg .dependency{fill:#333333!important;stroke:#333333!important;stroke-width:1;}#my-svg #extensionStart,#my-svg .extension{fill:transparent!important;stroke:#333333!important;stroke-width:1;}#my-svg #extensionEnd,#my-svg .extension{fill:transparent!important;stroke:#333333!important;stroke-width:1;}#my-svg #aggregationStart,#my-svg .aggregation{fill:transparent!important;stroke:#333333!important;stroke-width:1;}#my-svg #aggregationEnd,#my-svg .aggregation{fill:transparent!important;stroke:#333333!important;stroke-width:1;}#my-svg #lollipopStart,#my-svg .lollipop{fill:#ECECFF!important;stroke:#333333!important;stroke-width:1;}#my-svg #lollipopEnd,#my-svg .lollipop{fill:#ECECFF!important;stroke:#333333!important;stroke-width:1;}#my-svg .edgeTerminals{font-size:11px;line-height:initial;}#my-svg .classTitleText{text-anchor:middle;font-size:18px;fill:#333;}#my-svg .label-icon{display:inline-block;height:1em;overflow:visible;vertical-align:-0.125em;}#my-svg .node .label-icon path{fill:currentColor;stroke:revert;stroke-width:revert;}#my-svg :root{--mermaid-font-family:"trebuchet ms",verdana,arial,sans-serif;}</style><g><defs><marker id="my-svg_class-aggregationStart" class="marker aggregation class" refX="18" refY="7" markerWidth="190" markerHeight="240" orient="auto"><path d="M 18,7 L9,13 L1,7 L9,1 Z"/></marker></defs><defs><marker id="my-svg_class-aggregationEnd" class="marker aggregation class" refX="1" refY="7" markerWidth="20" markerHeight="28" orient="auto"><path d="M 18,7 L9,13 L1,7 L9,1 Z"/></marker></defs><defs><marker id="my-svg_class-extensionStart" class="marker extension class" refX="18" refY="7" markerWidth="190" markerHeight="240" orient="auto"><path d="M 1,7 L18,13 V 1 Z"/></marker></defs><defs><marker id="my-svg_class-extensionEnd" class="marker extension class" refX="1" refY="7" markerWidth="20" markerHeight="28" orient="auto"><path d="M 1,1 V 13 L18,7 Z"/></marker></defs><defs><marker id="my-svg_class-compositionStart" class="marker composition class" refX="18" refY="7" markerWidth="190" markerHeight="240" orient="auto"><path d="M 18,7 L9,13 L1,7 L9,1 Z"/></marker></defs><defs><marker id="my-svg_class-compositionEnd" class="marker composition class" refX="1" refY="7" markerWidth="20" markerHeight="28" orient="auto"><path d="M 18,7 L9,13 L1,7 L9,1 Z"/></marker></defs><defs><marker id="my-svg_class-dependencyStart" class="marker dependency class" refX="6" refY="7" markerWidth="190" markerHeight="240" orient="auto"><path d="M 5,7 L9,13 L1,7 L9,1 Z"/></marker></defs><defs><marker id="my-svg_class-dependencyEnd" class="marker dependency class" refX="13" refY="7" markerWidth="20" markerHeight="28" orient="auto"><path d="M 18,7 L9,13 L14,7 L9,1 Z"/></marker></defs><defs><marker id="my-svg_class-lollipopStart" class="marker lollipop class" refX="13" refY="7" markerWidth="190" markerHeight="240" orient="auto"><circle fill="transparent" cx="7" cy="7" r="6"/></marker></defs><defs><marker id="my-svg_class-lollipopEnd" class="marker lollipop class" refX="1" refY="7" markerWidth="190" markerHeight="240" orient="auto"><circle fill="transparent" cx="7" cy="7" r="6"/></marker></defs><g class="root"><g class="clusters"/><g class="edgePaths"><path d="M183.891,309L185.182,309C186.474,309,189.057,309,194.516,309C199.974,309,208.307,309,212.474,309L216.641,309" id="id_CredentialSubject_LegalEntityIdentifier_1" class="edge-thickness-normal edge-pattern-solid relation" style=";;;" data-edge="true" data-et="edge" data-id="id_CredentialSubject_LegalEntityIdentifier_1" data-points="W3sieCI6MTY2LjY0MDYyNSwieSI6MzA5fSx7IngiOjE5MS42NDA2MjUsInkiOjMwOX0seyJ4IjoyMTYuNjQwNjI1LCJ5IjozMDl9XQ==" marker-start="url(#my-svg_class-extensionStart)"/><path d="M540.96,203.556L554.094,194.963C567.229,186.371,593.497,169.185,619.437,160.593C645.378,152,670.99,152,683.796,152L696.602,152" id="id_LegalEntityIdentifier_LegalEntity_2" class="edge-thickness-normal edge-pattern-solid relation" style=";;;" data-edge="true" data-et="edge" data-id="id_LegalEntityIdentifier_LegalEntity_2" data-points="W3sieCI6NTI2LjUyNDgwNTkzMTUyODcsInkiOjIxM30seyJ4Ijo2MTkuNzY1NjI1LCJ5IjoxNTJ9LHsieCI6Njk2LjYwMTU2MjUsInkiOjE1Mn1d" marker-start="url(#my-svg_class-compositionStart)"/><path d="M540.96,414.444L554.094,423.037C567.229,431.629,593.497,448.815,621.153,457.407C648.81,466,677.854,466,692.376,466L706.898,466" id="id_LegalEntityIdentifier_LeiRegistration_3" class="edge-thickness-normal edge-pattern-solid relation" style=";;;" data-edge="true" data-et="edge" data-id="id_LegalEntityIdentifier_LeiRegistration_3" data-points="W3sieCI6NTI2LjUyNDgwNTkzMTUyODcsInkiOjQwNX0seyJ4Ijo2MTkuNzY1NjI1LCJ5Ijo0NjZ9LHsieCI6NzA2Ljg5ODQzNzUsInkiOjQ2Nn1d" marker-start="url(#my-svg_class-compositionStart)"/></g><g class="edgeLabels"><g class="edgeLabel"><g class="label" data-id="id_CredentialSubject_LegalEntityIdentifier_1" transform="translate(0, 0)"><foreignObject width="0" height="0"><div xmlns="http://www.w3.org/1999/xhtml" class="labelBkg" style="display: table-cell; white-space: nowrap; line-height: 1.5; max-width: 200px; text-align: center;"><span class="edgeLabel"></span></div></foreignObject></g></g><g class="edgeLabel" transform="translate(619.765625, 152)"><g class="label" data-id="id_LegalEntityIdentifier_LegalEntity_2" transform="translate(-38.53125, -12)"><foreignObject width="77.0625" height="24"><div xmlns="http://www.w3.org/1999/xhtml" class="labelBkg" style="display: table-cell; white-space: nowrap; line-height: 1.5; max-width: 200px; text-align: center;"><span class="edgeLabel"><p>legalEntity</p></span></div></foreignObject></g></g><g class="edgeLabel" transform="translate(619.765625, 466)"><g class="label" data-id="id_LegalEntityIdentifier_LeiRegistration_3" transform="translate(-51.8359375, -12)"><foreignObject width="103.671875" height="24"><div xmlns="http://www.w3.org/1999/xhtml" class="labelBkg" style="display: table-cell; white-space: nowrap; line-height: 1.5; max-width: 200px; text-align: center;"><span class="edgeLabel"><p>leiRegistration</p></span></div></foreignObject></g></g></g><g class="nodes"><g class="node default" id="classId-LegalEntityIdentifier-0" transform="translate(379.78515625, 309)"><g class="basic label-container"><path d="M-163.14453125 -96 L163.14453125 -96 L163.14453125 96 L-163.14453125 96" stroke="none" stroke-width="0" fill="#ECECFF" style=""/><path d="M-163.14453125 -96 C-34.368354070981155 -96, 94.40782310803769 -96, 163.14453125 -96 M-163.14453125 -96 C-96.07335507137931 -96, -29.00217889275862 -96, 163.14453125 -96 M163.14453125 -96 C163.14453125 -38.272402938142406, 163.14453125 19.455194123715188, 163.14453125 96 M163.14453125 -96 C163.14453125 -43.32390069477718, 163.14453125 9.35219861044564, 163.14453125 96 M163.14453125 96 C37.82693191906101 96, -87.49066741187798 96, -163.14453125 96 M163.14453125 96 C62.489796267526245 96, -38.16493871494751 96, -163.14453125 96 M-163.14453125 96 C-163.14453125 43.80253549704211, -163.14453125 -8.394929005915785, -163.14453125 -96 M-163.14453125 96 C-163.14453125 46.03590909187321, -163.14453125 -3.928181816253584, -163.14453125 -96" stroke="#9370DB" stroke-width="1.3" fill="none" stroke-dasharray="0 0" style=""/></g><g class="annotation-group text" transform="translate(-24.0234375, -72)"><g class="label" style="" transform="translate(0,-12)"><foreignObject width="48.046875" height="24"><div xmlns="http://www.w3.org/1999/xhtml" style="display: table-cell; white-space: nowrap; line-height: 1.5; max-width: 102px; text-align: center;"><span class="nodeLabel markdown-node-label" style=""><p>«EBW»</p></span></div></foreignObject></g></g><g class="label-group text" transform="translate(-77.0390625, -48)"><g class="label" style="font-weight: bolder" transform="translate(0,-12)"><foreignObject width="154.078125" height="24"><div xmlns="http://www.w3.org/1999/xhtml" style="display: table-cell; white-space: nowrap; line-height: 1.5; max-width: 185px; text-align: center;"><span class="nodeLabel markdown-node-label" style=""><p>LegalEntityIdentifier</p></span></div></foreignObject></g></g><g class="members-group text" transform="translate(-151.14453125, 0)"><g class="label" style="" transform="translate(0,-12)"><foreignObject width="58.484375" height="24"><div xmlns="http://www.w3.org/1999/xhtml" style="display: table-cell; white-space: nowrap; line-height: 1.5; max-width: 109px; text-align: center;"><span class="nodeLabel markdown-node-label" style=""><p>+lei: Lei</p></span></div></foreignObject></g><g class="label" style="" transform="translate(0,12)"><foreignObject width="176.578125" height="24"><div xmlns="http://www.w3.org/1999/xhtml" style="display: table-cell; white-space: nowrap; line-height: 1.5; max-width: 218px; text-align: center;"><span class="nodeLabel markdown-node-label" style=""><p>+legalEntity: LegalEntity</p></span></div></foreignObject></g><g class="label" style="" transform="translate(0,36)"><foreignObject width="225.25" height="24"><div xmlns="http://www.w3.org/1999/xhtml" style="display: table-cell; white-space: nowrap; line-height: 1.5; max-width: 261px; text-align: center;"><span class="nodeLabel markdown-node-label" style=""><p>+leiRegstration: LeiRegistration</p></span></div></foreignObject></g></g><g class="methods-group text" transform="translate(-151.14453125, 96)"/><g class="divider" style=""><path d="M-163.14453125 -24 C-82.94386569176822 -24, -2.7432001335364475 -24, 163.14453125 -24 M-163.14453125 -24 C-44.5605033950836 -24, 74.0235244598328 -24, 163.14453125 -24" stroke="#9370DB" stroke-width="1.3" fill="none" stroke-dasharray="0 0" style=""/></g><g class="divider" style=""><path d="M-163.14453125 72 C-85.03272077608003 72, -6.920910302160053 72, 163.14453125 72 M-163.14453125 72 C-58.00518170672409 72, 47.134167836551825 72, 163.14453125 72" stroke="#9370DB" stroke-width="1.3" fill="none" stroke-dasharray="0 0" style=""/></g></g><g class="node default" id="classId-LegalEntity-1" transform="translate(850.54296875, 152)"><g class="basic label-container"><path d="M-153.94140625 -144 L153.94140625 -144 L153.94140625 144 L-153.94140625 144" stroke="none" stroke-width="0" fill="#ECECFF" style=""/><path d="M-153.94140625 -144 C-87.15612182964873 -144, -20.37083740929745 -144, 153.94140625 -144 M-153.94140625 -144 C-40.66678848016076 -144, 72.60782928967848 -144, 153.94140625 -144 M153.94140625 -144 C153.94140625 -58.96270762038864, 153.94140625 26.074584759222716, 153.94140625 144 M153.94140625 -144 C153.94140625 -40.79714713843761, 153.94140625 62.40570572312478, 153.94140625 144 M153.94140625 144 C82.82158329412067 144, 11.701760338241343 144, -153.94140625 144 M153.94140625 144 C32.97294697807857 144, -87.99551229384286 144, -153.94140625 144 M-153.94140625 144 C-153.94140625 58.0109565498806, -153.94140625 -27.978086900238793, -153.94140625 -144 M-153.94140625 144 C-153.94140625 60.84227094472834, -153.94140625 -22.315458110543318, -153.94140625 -144" stroke="#9370DB" stroke-width="1.3" fill="none" stroke-dasharray="0 0" style=""/></g><g class="annotation-group text" transform="translate(-24.0234375, -120)"><g class="label" style="" transform="translate(0,-12)"><foreignObject width="48.046875" height="24"><div xmlns="http://www.w3.org/1999/xhtml" style="display: table-cell; white-space: nowrap; line-height: 1.5; max-width: 102px; text-align: center;"><span class="nodeLabel markdown-node-label" style=""><p>«EBW»</p></span></div></foreignObject></g></g><g class="label-group text" transform="translate(-41.9296875, -96)"><g class="label" style="font-weight: bolder" transform="translate(0,-12)"><foreignObject width="83.859375" height="24"><div xmlns="http://www.w3.org/1999/xhtml" style="display: table-cell; white-space: nowrap; line-height: 1.5; max-width: 126px; text-align: center;"><span class="nodeLabel markdown-node-label" style=""><p>LegalEntity</p></span></div></foreignObject></g></g><g class="members-group text" transform="translate(-141.94140625, -48)"><g class="label" style="" transform="translate(0,-12)"><foreignObject width="241.953125" height="24"><div xmlns="http://www.w3.org/1999/xhtml" style="display: table-cell; white-space: nowrap; line-height: 1.5; max-width: 276px; text-align: center;"><span class="nodeLabel markdown-node-label" style=""><p>+correspondenceAddress: Address</p></span></div></foreignObject></g><g class="label" style="" transform="translate(0,12)"><foreignObject width="186.234375" height="24"><div xmlns="http://www.w3.org/1999/xhtml" style="display: table-cell; white-space: nowrap; line-height: 1.5; max-width: 220px; text-align: center;"><span class="nodeLabel markdown-node-label" style=""><p>+dateOfRegistration: date</p></span></div></foreignObject></g><g class="label" style="" transform="translate(0,36)"><foreignObject width="192.484375" height="24"><div xmlns="http://www.w3.org/1999/xhtml" style="display: table-cell; white-space: nowrap; line-height: 1.5; max-width: 231px; text-align: center;"><span class="nodeLabel markdown-node-label" style=""><p>+jurisdiction: CountryCode</p></span></div></foreignObject></g><g class="label" style="" transform="translate(0,60)"><foreignObject width="130.546875" height="24"><div xmlns="http://www.w3.org/1999/xhtml" style="display: table-cell; white-space: nowrap; line-height: 1.5; max-width: 174px; text-align: center;"><span class="nodeLabel markdown-node-label" style=""><p>+legalForm: string</p></span></div></foreignObject></g><g class="label" style="" transform="translate(0,84)"><foreignObject width="134.6875" height="24"><div xmlns="http://www.w3.org/1999/xhtml" style="display: table-cell; white-space: nowrap; line-height: 1.5; max-width: 178px; text-align: center;"><span class="nodeLabel markdown-node-label" style=""><p>+legalName: string</p></span></div></foreignObject></g><g class="label" style="" transform="translate(0,108)"><foreignObject width="138.078125" height="24"><div xmlns="http://www.w3.org/1999/xhtml" style="display: table-cell; white-space: nowrap; line-height: 1.5; max-width: 179px; text-align: center;"><span class="nodeLabel markdown-node-label" style=""><p>+legalStatus: string</p></span></div></foreignObject></g><g class="label" style="" transform="translate(0,132)"><foreignObject width="201.484375" height="24"><div xmlns="http://www.w3.org/1999/xhtml" style="display: table-cell; white-space: nowrap; line-height: 1.5; max-width: 239px; text-align: center;"><span class="nodeLabel markdown-node-label" style=""><p>+registeredAddress: Address</p></span></div></foreignObject></g></g><g class="methods-group text" transform="translate(-141.94140625, 144)"/><g class="divider" style=""><path d="M-153.94140625 -72 C-35.878955186583724 -72, 82.18349587683255 -72, 153.94140625 -72 M-153.94140625 -72 C-89.34377648601144 -72, -24.74614672202287 -72, 153.94140625 -72" stroke="#9370DB" stroke-width="1.3" fill="none" stroke-dasharray="0 0" style=""/></g><g class="divider" style=""><path d="M-153.94140625 120 C-73.6399681040856 120, 6.661470041828807 120, 153.94140625 120 M-153.94140625 120 C-47.81458534770361 120, 58.312235554592775 120, 153.94140625 120" stroke="#9370DB" stroke-width="1.3" fill="none" stroke-dasharray="0 0" style=""/></g></g><g class="node default" id="classId-LeiRegistration-2" transform="translate(850.54296875, 466)"><g class="basic label-container"><path d="M-143.64453125 -120 L143.64453125 -120 L143.64453125 120 L-143.64453125 120" stroke="none" stroke-width="0" fill="#ECECFF" style=""/><path d="M-143.64453125 -120 C-63.64711875978614 -120, 16.350293730427722 -120, 143.64453125 -120 M-143.64453125 -120 C-45.07091964544745 -120, 53.50269195910511 -120, 143.64453125 -120 M143.64453125 -120 C143.64453125 -32.73983214478348, 143.64453125 54.520335710433045, 143.64453125 120 M143.64453125 -120 C143.64453125 -44.074817483070746, 143.64453125 31.85036503385851, 143.64453125 120 M143.64453125 120 C86.16112223678385 120, 28.677713223567693 120, -143.64453125 120 M143.64453125 120 C57.229639085305024 120, -29.185253079389952 120, -143.64453125 120 M-143.64453125 120 C-143.64453125 31.115814932938264, -143.64453125 -57.76837013412347, -143.64453125 -120 M-143.64453125 120 C-143.64453125 63.57399278664462, -143.64453125 7.147985573289233, -143.64453125 -120" stroke="#9370DB" stroke-width="1.3" fill="none" stroke-dasharray="0 0" style=""/></g><g class="annotation-group text" transform="translate(-24.0234375, -96)"><g class="label" style="" transform="translate(0,-12)"><foreignObject width="48.046875" height="24"><div xmlns="http://www.w3.org/1999/xhtml" style="display: table-cell; white-space: nowrap; line-height: 1.5; max-width: 102px; text-align: center;"><span class="nodeLabel markdown-node-label" style=""><p>«EBW»</p></span></div></foreignObject></g></g><g class="label-group text" transform="translate(-56.1484375, -72)"><g class="label" style="font-weight: bolder" transform="translate(0,-12)"><foreignObject width="112.296875" height="24"><div xmlns="http://www.w3.org/1999/xhtml" style="display: table-cell; white-space: nowrap; line-height: 1.5; max-width: 150px; text-align: center;"><span class="nodeLabel markdown-node-label" style=""><p>LeiRegistration</p></span></div></foreignObject></g></g><g class="members-group text" transform="translate(-131.64453125, -24)"><g class="label" style="" transform="translate(0,-12)"><foreignObject width="150.5" height="24"><div xmlns="http://www.w3.org/1999/xhtml" style="display: table-cell; white-space: nowrap; line-height: 1.5; max-width: 188px; text-align: center;"><span class="nodeLabel markdown-node-label" style=""><p>+leiLastUpdate: date</p></span></div></foreignObject></g><g class="label" style="" transform="translate(0,12)"><foreignObject width="162.671875" height="24"><div xmlns="http://www.w3.org/1999/xhtml" style="display: table-cell; white-space: nowrap; line-height: 1.5; max-width: 202px; text-align: center;"><span class="nodeLabel markdown-node-label" style=""><p>+leiNextRenewal: date</p></span></div></foreignObject></g><g class="label" style="" transform="translate(0,36)"><foreignObject width="207.140625" height="24"><div xmlns="http://www.w3.org/1999/xhtml" style="display: table-cell; white-space: nowrap; line-height: 1.5; max-width: 242px; text-align: center;"><span class="nodeLabel markdown-node-label" style=""><p>+leiRegistrationStatus: string</p></span></div></foreignObject></g><g class="label" style="" transform="translate(0,60)"><foreignObject width="188.4375" height="24"><div xmlns="http://www.w3.org/1999/xhtml" style="display: table-cell; white-space: nowrap; line-height: 1.5; max-width: 223px; text-align: center;"><span class="nodeLabel markdown-node-label" style=""><p>+leiRegistrationDate: date</p></span></div></foreignObject></g><g class="label" style="" transform="translate(0,84)"><foreignObject width="190.15625" height="24"><div xmlns="http://www.w3.org/1999/xhtml" style="display: table-cell; white-space: nowrap; line-height: 1.5; max-width: 231px; text-align: center;"><span class="nodeLabel markdown-node-label" style=""><p>+managingLeiIssuer: string</p></span></div></foreignObject></g></g><g class="methods-group text" transform="translate(-131.64453125, 120)"/><g class="divider" style=""><path d="M-143.64453125 -48 C-73.19848050309824 -48, -2.7524297561964772 -48, 143.64453125 -48 M-143.64453125 -48 C-73.10668319056306 -48, -2.5688351311261215 -48, 143.64453125 -48" stroke="#9370DB" stroke-width="1.3" fill="none" stroke-dasharray="0 0" style=""/></g><g class="divider" style=""><path d="M-143.64453125 96 C-35.17143601497784 96, 73.30165922004431 96, 143.64453125 96 M-143.64453125 96 C-67.29338445602276 96, 9.057762337954472 96, 143.64453125 96" stroke="#9370DB" stroke-width="1.3" fill="none" stroke-dasharray="0 0" style=""/></g></g><g class="node default" id="classId-CredentialSubject-3" transform="translate(87.3203125, 309)"><g class="basic label-container"><path d="M-79.3203125 -54 L79.3203125 -54 L79.3203125 54 L-79.3203125 54" stroke="none" stroke-width="0" fill="#ECECFF" style=""/><path d="M-79.3203125 -54 C-35.74079155196468 -54, 7.838729396070633 -54, 79.3203125 -54 M-79.3203125 -54 C-46.81166674227657 -54, -14.303020984553143 -54, 79.3203125 -54 M79.3203125 -54 C79.3203125 -27.735800903741605, 79.3203125 -1.4716018074832107, 79.3203125 54 M79.3203125 -54 C79.3203125 -20.779617090540654, 79.3203125 12.440765818918692, 79.3203125 54 M79.3203125 54 C38.585939073184385 54, -2.148434353631231 54, -79.3203125 54 M79.3203125 54 C16.10459578489813 54, -47.11112093020374 54, -79.3203125 54 M-79.3203125 54 C-79.3203125 28.941537875716293, -79.3203125 3.8830757514325853, -79.3203125 -54 M-79.3203125 54 C-79.3203125 13.60963262967416, -79.3203125 -26.78073474065168, -79.3203125 -54" stroke="#9370DB" stroke-width="1.3" fill="none" stroke-dasharray="0 0" style=""/></g><g class="annotation-group text" transform="translate(-38.34375, -30)"><g class="label" style="" transform="translate(0,-12)"><foreignObject width="76.6875" height="24"><div xmlns="http://www.w3.org/1999/xhtml" style="display: table-cell; white-space: nowrap; line-height: 1.5; max-width: 118px; text-align: center;"><span class="nodeLabel markdown-node-label" style=""><p>«external»</p></span></div></foreignObject></g></g><g class="label-group text" transform="translate(-67.3203125, -6)"><g class="label" style="font-weight: bolder" transform="translate(0,-12)"><foreignObject width="134.640625" height="24"><div xmlns="http://www.w3.org/1999/xhtml" style="display: table-cell; white-space: nowrap; line-height: 1.5; max-width: 165px; text-align: center;"><span class="nodeLabel markdown-node-label" style=""><p>CredentialSubject</p></span></div></foreignObject></g></g><g class="members-group text" transform="translate(-67.3203125, 42)"/><g class="methods-group text" transform="translate(-67.3203125, 72)"/><g class="divider" style=""><path d="M-79.3203125 18 C-24.58289555486872 18, 30.15452139026256 18, 79.3203125 18 M-79.3203125 18 C-44.97925410806734 18, -10.638195716134675 18, 79.3203125 18" stroke="#9370DB" stroke-width="1.3" fill="none" stroke-dasharray="0 0" style=""/></g><g class="divider" style=""><path d="M-79.3203125 36 C-21.97163568716102 36, 35.37704112567796 36, 79.3203125 36 M-79.3203125 36 C-25.571584215633543 36, 28.177144068732915 36, 79.3203125 36" stroke="#9370DB" stroke-width="1.3" fill="none" stroke-dasharray="0 0" style=""/></g></g></g></g></g></svg>