<svg id="my-svg" width="100%" xmlns="http://www.w3.org/2000/svg" xmlns:xlink="http://www.w3.org/1999/xlink" class="classDiagram" style="max-width: 1077.07px; background-color: white;" viewBox="0 0 1077.0703125 319" role="graphics-document document" aria-roledescription="class"><style>#my-svg{font-family:"trebuchet ms",verdana,arial,sans-serif;font-size:16px;fill:#333;}@keyframes edge-animation-frame{from{stroke-dashoffset:0;}}@keyframes dash{to{stroke-dashoffset:0;}}#my-svg .edge-animation-slow{stroke-dasharray:9,5!important;stroke-dashoffset:900;animation:dash 50s linear infinite;stroke-linecap:round;}#my-svg .edge-animation-fast{stroke-dasharray:9,5!important;stroke-dashoffset:900;animation:dash 20s linear infinite;stroke-linecap:round;}#my-svg .error-icon{fill:#552222;}#my-svg .error-text{fill:#552222;stroke:#552222;}#my-svg .edge-thickness-normal{stroke-width:1px;}#my-svg .edge-thickness-thick{stroke-width:3.5px;}#my-svg .edge-pattern-solid{stroke-dasharray:0;}#my-svg .edge-thickness-invisible{stroke-width:0;fill:none;}#my-svg .edge-pattern-dashed{stroke-dasharray:3;}#my-svg .edge-pattern-dotted{stroke-dasharray:2;}#my-svg .marker{fill:#333333;stroke:#333333;}#my-svg .marker.cross{stroke:#333333;}#my-svg svg{font-family:"trebuchet ms",verdana,arial,sans-serif;font-size:16px;}#my-svg p{margin:0;}#my-svg g.classGroup text{fill:#9370DB;stroke:none;font-family:"trebuchet ms",verdana,arial,sans-serif;font-size:10px;}#my-svg g.classGroup text .title{font-weight:bolder;}#my-svg .cluster-label text{fill:#333;}#my-svg .cluster-label span{color:#333;}#my-svg .cluster-label span p{background-color:transparent;}#my-svg .cluster rect{fill:#ffffde;stroke:#aaaa33;stroke-width:1px;}#my-svg .cluster text{fill:#333;}#my-svg .cluster span{color:#333;}#my-svg .nodeLabel,#my-svg .edgeLabel{color:#131300;}#my-svg .noteLabel .nodeLabel,#my-svg .noteLabel .edgeLabel{color:black;}#my-svg .edgeLabel .label rect{fill:#ECECFF;}#my-svg .label text{fill:#131300;}#my-svg .labelBkg{background:#ECECFF;}#my-svg .edgeLabel .label span{background:#ECECFF;}#my-svg .classTitle{font-weight:bolder;}#my-svg .node rect,#my-svg .node circle,#my-svg .node ellipse,#my-svg .node polygon,#my-svg .node path{fill:#ECECFF;stroke:#9370DB;stroke-width:1;}#my-svg .divider{stroke:#9370DB;stroke-width:1;}#my-svg g.clickable{cursor:pointer;}#my-svg g.classGroup rect{fill:#ECECFF;stroke:#9370DB;}#my-svg g.classGroup line{stroke:#9370DB;stroke-width:1;}#my-svg .classLabel .box{stroke:none;stroke-width:0;fill:#ECECFF;opacity:0.5;}#my-svg .classLabel .label{fill:#9370DB;font-size:10px;}#my-svg .relation{stroke:#333333;stroke-width:1;fill:none;}#my-svg .dashed-line{stroke-dasharray:3;}#my-svg .dotted-line{stroke-dasharray:1 2;}#my-svg [id$="-compositionStart"],#my-svg .composition{fill:#333333!important;stroke:#333333!important;stroke-width:1;}#my-svg [id$="-compositionEnd"],#my-svg .composition{fill:#333333!important;stroke:#333333!important;stroke-width:1;}#my-svg [id$="-dependencyStart"],#my-svg .dependency{fill:#333333!important;stroke:#333333!important;stroke-width:1;}#my-svg [id$="-dependencyEnd"],#my-svg .dependency{fill:#333333!important;stroke:#333333!important;stroke-width:1;}#my-svg [id$="-extensionStart"],#my-svg .extension{fill:transparent!important;stroke:#333333!important;stroke-width:1;}#my-svg [id$="-extensionEnd"],#my-svg .extension{fill:transparent!important;stroke:#333333!important;stroke-width:1;}#my-svg [id$="-aggregationStart"],#my-svg .aggregation{fill:transparent!important;stroke:#333333!important;stroke-width:1;}#my-svg [id$="-aggregationEnd"],#my-svg .aggregation{fill:transparent!important;stroke:#333333!important;stroke-width:1;}#my-svg [id$="-lollipopStart"],#my-svg .lollipop{fill:#ECECFF!important;stroke:#333333!important;stroke-width:1;}#my-svg [id$="-lollipopEnd"],#my-svg .lollipop{fill:#ECECFF!important;stroke:#333333!important;stroke-width:1;}#my-svg .edgeTerminals{font-size:11px;line-height:initial;}#my-svg .classTitleText{text-anchor:middle;font-size:18px;fill:#333;}#my-svg .edgeLabel[data-look="neo"]{background-color:rgba(232,232,232, 0.8);text-align:center;}#my-svg .edgeLabel[data-look="neo"] p{background-color:rgba(232,232,232, 0.8);}#my-svg .edgeLabel[data-look="neo"] rect{opacity:0.5;background-color:rgba(232,232,232, 0.8);fill:rgba(232,232,232, 0.8);}#my-svg .label-icon{display:inline-block;height:1em;overflow:visible;vertical-align:-0.125em;}#my-svg .node .label-icon path{fill:currentColor;stroke:revert;stroke-width:revert;}#my-svg .node .neo-node{stroke:#9370DB;}#my-svg [data-look="neo"].node rect,#my-svg [data-look="neo"].cluster rect,#my-svg [data-look="neo"].node polygon{stroke:#9370DB;filter:drop-shadow(1px 2px 2px rgba(185, 185, 185, 1));}#my-svg [data-look="neo"].node path{stroke:#9370DB;stroke-width:1px;}#my-svg [data-look="neo"].node .outer-path{filter:drop-shadow(1px 2px 2px rgba(185, 185, 185, 1));}#my-svg [data-look="neo"].node .neo-line path{stroke:#9370DB;filter:none;}#my-svg [data-look="neo"].node circle{stroke:#9370DB;filter:drop-shadow(1px 2px 2px rgba(185, 185, 185, 1));}#my-svg [data-look="neo"].node circle .state-start{fill:#000000;}#my-svg [data-look="neo"].icon-shape .icon{fill:#9370DB;filter:drop-shadow(1px 2px 2px rgba(185, 185, 185, 1));}#my-svg [data-look="neo"].icon-shape .icon-neo path{stroke:#9370DB;filter:drop-shadow(1px 2px 2px rgba(185, 185, 185, 1));}#my-svg :root{--mermaid-font-family:"trebuchet ms",verdana,arial,sans-serif;}</style><g><defs><marker id="my-svg_class-aggregationStart" class="marker aggregation class" refX="18" refY="7" markerWidth="190" markerHeight="240" orient="auto"><path d="M 18,7 L9,13 L1,7 L9,1 Z"/></marker></defs><defs><marker id="my-svg_class-aggregationEnd" class="marker aggregation class" refX="1" refY="7" markerWidth="20" markerHeight="28" orient="auto"><path d="M 18,7 L9,13 L1,7 L9,1 Z"/></marker></defs><defs><marker id="my-svg_class-aggregationStart-margin" class="marker aggregation class" refX="15" refY="7" markerWidth="190" markerHeight="240" orient="auto" markerUnits="userSpaceOnUse"><path d="M 18,7 L9,13 L1,7 L9,1 Z" style="stroke-width: 2;"/></marker></defs><defs><marker id="my-svg_class-aggregationEnd-margin" class="marker aggregation class" refX="1" refY="7" markerWidth="20" markerHeight="28" orient="auto" markerUnits="userSpaceOnUse"><path d="M 18,7 L9,13 L1,7 L9,1 Z" style="stroke-width: 2;"/></marker></defs><defs><marker id="my-svg_class-extensionStart" class="marker extension class" refX="18" refY="7" markerWidth="20" markerHeight="28" orient="auto" markerUnits="userSpaceOnUse"><path d="M 1,7 L18,13 V 1 Z"/></marker></defs><defs><marker id="my-svg_class-extensionEnd" class="marker extension class" refX="1" refY="7" markerWidth="20" markerHeight="28" orient="auto"><path d="M 1,1 V 13 L18,7 Z"/></marker></defs><marker id="my-svg_class-extensionStart-margin" class="marker extension class" refX="18" refY="7" markerWidth="20" markerHeight="28" orient="auto" markerUnits="userSpaceOnUse" viewBox="0 0 20 14"><polygon points="10,7 18,13 18,1" style="stroke-width: 2; stroke-dasharray: 0;"/></marker><defs><marker id="my-svg_class-extensionEnd-margin" class="marker extension class" refX="9" refY="7" markerWidth="20" markerHeight="28" orient="auto" markerUnits="userSpaceOnUse" viewBox="0 0 20 14"><polygon points="10,1 10,13 18,7" style="stroke-width: 2; stroke-dasharray: 0;"/></marker></defs><defs><marker id="my-svg_class-compositionStart" class="marker composition class" refX="18" refY="7" markerWidth="190" markerHeight="240" orient="auto"><path d="M 18,7 L9,13 L1,7 L9,1 Z"/></marker></defs><defs><marker id="my-svg_class-compositionEnd" class="marker composition class" refX="1" refY="7" markerWidth="20" markerHeight="28" orient="auto"><path d="M 18,7 L9,13 L1,7 L9,1 Z"/></marker></defs><defs><marker id="my-svg_class-compositionStart-margin" class="marker composition class" refX="15" refY="7" markerWidth="190" markerHeight="240" orient="auto" markerUnits="userSpaceOnUse"><path viewBox="0 0 15 15" d="M 18,7 L9,13 L1,7 L9,1 Z" style="stroke-width: 0;"/></marker></defs><defs><marker id="my-svg_class-compositionEnd-margin" class="marker composition class" refX="3.5" refY="7" markerWidth="20" markerHeight="28" orient="auto" markerUnits="userSpaceOnUse"><path d="M 18,7 L9,13 L1,7 L9,1 Z" style="stroke-width: 0;"/></marker></defs><defs><marker id="my-svg_class-dependencyStart" class="marker dependency class" refX="6" refY="7" markerWidth="190" markerHeight="240" orient="auto"><path d="M 5,7 L9,13 L1,7 L9,1 Z"/></marker></defs><defs><marker id="my-svg_class-dependencyEnd" class="marker dependency class" refX="13" refY="7" markerWidth="20" markerHeight="28" orient="auto"><path d="M 18,7 L9,13 L14,7 L9,1 Z"/></marker></defs><defs><marker id="my-svg_class-dependencyStart-margin" class="marker dependency class" refX="4" refY="7" markerWidth="190" markerHeight="240" orient="auto" markerUnits="userSpaceOnUse"><path d="M 5,7 L9,13 L1,7 L9,1 Z" style="stroke-width: 0;"/></marker></defs><defs><marker id="my-svg_class-dependencyEnd-margin" class="marker dependency class" refX="16" refY="7" markerWidth="20" markerHeight="28" orient="auto" markerUnits="userSpaceOnUse"><path d="M 18,7 L9,13 L14,7 L9,1 Z" style="stroke-width: 0;"/></marker></defs><defs><marker id="my-svg_class-lollipopStart" class="marker lollipop class" refX="13" refY="7" markerWidth="190" markerHeight="240" orient="auto"><circle fill="transparent" cx="7" cy="7" r="6"/></marker></defs><defs><marker id="my-svg_class-lollipopEnd" class="marker lollipop class" refX="1" refY="7" markerWidth="190" markerHeight="240" orient="auto"><circle fill="transparent" cx="7" cy="7" r="6"/></marker></defs><defs><marker id="my-svg_class-lollipopStart-margin" class="marker lollipop class" refX="13" refY="7" markerWidth="190" markerHeight="240" orient="auto" markerUnits="userSpaceOnUse"><circle fill="transparent" cx="7" cy="7" r="6" stroke-width="2"/></marker></defs><defs><marker id="my-svg_class-lollipopEnd-margin" class="marker lollipop class" refX="1" refY="7" markerWidth="190" markerHeight="240" orient="auto" markerUnits="userSpaceOnUse"><circle fill="transparent" cx="7" cy="7" r="6" stroke-width="2"/></marker></defs><g class="root"><g class="clusters"/><g class="edgePaths"><path d="M183.891,171L185.182,171C186.474,171,189.057,171,194.516,171C199.974,171,208.307,171,212.474,171L216.641,171" id="my-svg-id_CredentialSubject_BankAccount_1" class="edge-thickness-normal edge-pattern-solid relation" style=";;;" data-edge="true" data-et="edge" data-id="id_CredentialSubject_BankAccount_1" data-points="W3sieCI6MTY2LjY0MDYyNSwieSI6MTcxfSx7IngiOjE5MS42NDA2MjUsInkiOjE3MX0seyJ4IjoyMTYuNjQwNjI1LCJ5IjoxNzF9XQ==" data-look="classic" marker-start="url(#my-svg_class-extensionStart)"/><path d="M500.609,116.218L509.775,112.681C518.94,109.145,537.271,102.073,554.612,99.709C571.953,97.346,588.304,99.692,596.479,100.865L604.655,102.038" id="my-svg-id_BankAccount_EconomicOperator_2" class="edge-thickness-normal edge-pattern-solid relation" style=";;;" data-edge="true" data-et="edge" data-id="id_BankAccount_EconomicOperator_2" data-points="W3sieCI6NTAwLjYwOTM3NSwieSI6MTE2LjIxNzc4NDQ3NjI2MjI0fSx7IngiOjU1NS42MDE1NjI1LCJ5Ijo5NX0seyJ4Ijo2MTAuNTkzNzUsInkiOjEwMi44OTA2NTI0Njc0NTMwN31d" data-look="classic" marker-end="url(#my-svg_class-dependencyEnd)"/><path d="M500.609,171L509.775,171C518.94,171,537.271,171,554.658,168.104C572.046,165.208,588.49,159.417,596.712,156.521L604.934,153.625" id="my-svg-id_BankAccount_EconomicOperator_3" class="edge-thickness-normal edge-pattern-solid relation" style=";;;" data-edge="true" data-et="edge" data-id="id_BankAccount_EconomicOperator_3" data-points="W3sieCI6NTAwLjYwOTM3NSwieSI6MTcxfSx7IngiOjU1NS42MDE1NjI1LCJ5IjoxNzF9LHsieCI6NjEwLjU5Mzc1LCJ5IjoxNTEuNjMyMDM0ODUyNjE1MjJ9XQ==" data-look="classic" marker-end="url(#my-svg_class-dependencyEnd)"/><path d="M500.609,241.64L509.775,246.2C518.94,250.76,537.271,259.88,566.346,264.44C595.421,269,635.24,269,655.149,269L675.059,269" id="my-svg-id_BankAccount_Iban_4" class="edge-thickness-normal edge-pattern-solid relation" style=";;;" data-edge="true" data-et="edge" data-id="id_BankAccount_Iban_4" data-points="W3sieCI6NTAwLjYwOTM3NSwieSI6MjQxLjY0MDIyNTI4MDYwOTIzfSx7IngiOjU1NS42MDE1NjI1LCJ5IjoyNjl9LHsieCI6NjgxLjA1ODU5Mzc1LCJ5IjoyNjl9XQ==" data-look="classic" marker-end="url(#my-svg_class-dependencyEnd)"/><path d="M807.258,75.029L817.031,70.858C826.805,66.686,846.352,58.343,864.898,54.172C883.445,50,900.992,50,909.766,50L918.539,50" id="my-svg-id_EconomicOperator_ClearingNumber_5" class="edge-thickness-normal edge-pattern-solid relation" style=";;;" data-edge="true" data-et="edge" data-id="id_EconomicOperator_ClearingNumber_5" data-points="W3sieCI6ODA3LjI1NzgxMjUsInkiOjc1LjAyOTMzOTMwNTcxMTA5fSx7IngiOjg2NS44OTg0Mzc1LCJ5Ijo1MH0seyJ4Ijo5MjQuNTM5MDYyNSwieSI6NTB9XQ==" data-look="classic" marker-end="url(#my-svg_class-dependencyEnd)"/><path d="M807.258,158.971L817.031,163.142C826.805,167.314,846.352,175.657,873.069,179.828C899.786,184,933.674,184,950.618,184L967.563,184" id="my-svg-id_EconomicOperator_Bic_6" class="edge-thickness-normal edge-pattern-solid relation" style=";;;" data-edge="true" data-et="edge" data-id="id_EconomicOperator_Bic_6" data-points="W3sieCI6ODA3LjI1NzgxMjUsInkiOjE1OC45NzA2NjA2OTQyODg5fSx7IngiOjg2NS44OTg0Mzc1LCJ5IjoxODR9LHsieCI6OTczLjU2MjUsInkiOjE4NH1d" data-look="classic" marker-end="url(#my-svg_class-dependencyEnd)"/></g><g class="edgeLabels"><g class="edgeLabel"><g class="label" data-id="id_CredentialSubject_BankAccount_1" transform="translate(0, 0)"><foreignObject width="0" height="0"><div xmlns="http://www.w3.org/1999/xhtml" class="labelBkg" style="display: table-cell; white-space: nowrap; line-height: 1.5; max-width: 200px; text-align: center;"><span class="edgeLabel"></span></div></foreignObject></g></g><g class="edgeLabel" transform="translate(554.02108, 95.6098)"><g class="label" data-id="id_BankAccount_EconomicOperator_2" transform="translate(-22.09375, -12)"><foreignObject width="44.1875" height="24"><div xmlns="http://www.w3.org/1999/xhtml" class="labelBkg" style="display: table-cell; white-space: nowrap; line-height: 1.5; max-width: 200px; text-align: center;"><span class="edgeLabel"><p>owner</p></span></div></foreignObject></g></g><g class="edgeLabel" transform="translate(555.6015625, 171)"><g class="label" data-id="id_BankAccount_EconomicOperator_3" transform="translate(-29.9921875, -12)"><foreignObject width="59.984375" height="24"><div xmlns="http://www.w3.org/1999/xhtml" class="labelBkg" style="display: table-cell; white-space: nowrap; line-height: 1.5; max-width: 200px; text-align: center;"><span class="edgeLabel"><p>provider</p></span></div></foreignObject></g></g><g class="edgeLabel" transform="translate(555.6015625, 269)"><g class="label" data-id="id_BankAccount_Iban_4" transform="translate(-15.3125, -12)"><foreignObject width="30.625" height="24"><div xmlns="http://www.w3.org/1999/xhtml" class="labelBkg" style="display: table-cell; white-space: nowrap; line-height: 1.5; max-width: 200px; text-align: center;"><span class="edgeLabel"><p>iban</p></span></div></foreignObject></g></g><g class="edgeLabel" transform="translate(865.8984375, 50)"><g class="label" data-id="id_EconomicOperator_ClearingNumber_5" transform="translate(-33.640625, -12)"><foreignObject width="67.28125" height="24"><div xmlns="http://www.w3.org/1999/xhtml" class="labelBkg" style="display: table-cell; white-space: nowrap; line-height: 1.5; max-width: 200px; text-align: center;"><span class="edgeLabel"><p>identifier</p></span></div></foreignObject></g></g><g class="edgeLabel" transform="translate(865.8984375, 184)"><g class="label" data-id="id_EconomicOperator_Bic_6" transform="translate(-33.640625, -12)"><foreignObject width="67.28125" height="24"><div xmlns="http://www.w3.org/1999/xhtml" class="labelBkg" style="display: table-cell; white-space: nowrap; line-height: 1.5; max-width: 200px; text-align: center;"><span class="edgeLabel"><p>identifier</p></span></div></foreignObject></g></g></g><g class="nodes"><g class="node default" id="my-svg-classId-BankAccount-0" data-look="classic" transform="translate(358.625, 171)"><g class="basic label-container outer-path"><path d="M-141.984375 -120 L141.984375 -120 L141.984375 120 L-141.984375 120" stroke="none" stroke-width="0" fill="#ECECFF" style=""/><path d="M-141.984375 -120 C-68.35871653027331 -120, 5.266941939453375 -120, 141.984375 -120 M-141.984375 -120 C-72.56235896113787 -120, -3.1403429222757495 -120, 141.984375 -120 M141.984375 -120 C141.984375 -62.95374090511902, 141.984375 -5.907481810238039, 141.984375 120 M141.984375 -120 C141.984375 -62.22804674709883, 141.984375 -4.45609349419766, 141.984375 120 M141.984375 120 C72.35911526270237 120, 2.733855525404749 120, -141.984375 120 M141.984375 120 C38.875637953514314 120, -64.23309909297137 120, -141.984375 120 M-141.984375 120 C-141.984375 33.722059198429974, -141.984375 -52.55588160314005, -141.984375 -120 M-141.984375 120 C-141.984375 42.505906415198595, -141.984375 -34.98818716960281, -141.984375 -120" stroke="#9370DB" stroke-width="1.3" fill="none" stroke-dasharray="0 0" style=""/></g><g class="annotation-group text" transform="translate(-24.0234375, -96)"><g class="label" style="" transform="translate(0,-12)"><foreignObject width="48.046875" height="24"><div xmlns="http://www.w3.org/1999/xhtml" style="display: table-cell; white-space: nowrap; line-height: 1.5; max-width: 102px; text-align: center;"><span class="nodeLabel markdown-node-label" style=""><p>«EBW»</p></span></div></foreignObject></g></g><g class="label-group text" transform="translate(-48.53125, -72)"><g class="label" style="font-weight: bolder" transform="translate(0,-12)"><foreignObject width="97.0625" height="24"><div xmlns="http://www.w3.org/1999/xhtml" style="display: table-cell; white-space: nowrap; line-height: 1.5; max-width: 138px; text-align: center;"><span class="nodeLabel markdown-node-label" style=""><p>BankAccount</p></span></div></foreignObject></g></g><g class="members-group text" transform="translate(-129.984375, -24)"><g class="label" style="" transform="translate(0,-12)"><foreignObject width="156.75" height="24"><div xmlns="http://www.w3.org/1999/xhtml" style="display: table-cell; white-space: nowrap; line-height: 1.5; max-width: 197px; text-align: center;"><span class="nodeLabel markdown-node-label" style=""><p>+accountName: string</p></span></div></foreignObject></g><g class="label" style="" transform="translate(0,12)"><foreignObject width="149.109375" height="24"><div xmlns="http://www.w3.org/1999/xhtml" style="display: table-cell; white-space: nowrap; line-height: 1.5; max-width: 190px; text-align: center;"><span class="nodeLabel markdown-node-label" style=""><p>+accountType: string</p></span></div></foreignObject></g><g class="label" style="" transform="translate(0,36)"><foreignObject width="80.234375" height="24"><div xmlns="http://www.w3.org/1999/xhtml" style="display: table-cell; white-space: nowrap; line-height: 1.5; max-width: 128px; text-align: center;"><span class="nodeLabel markdown-node-label" style=""><p>+iban: Iban</p></span></div></foreignObject></g><g class="label" style="" transform="translate(0,60)"><foreignObject width="195.640625" height="24"><div xmlns="http://www.w3.org/1999/xhtml" style="display: table-cell; white-space: nowrap; line-height: 1.5; max-width: 234px; text-align: center;"><span class="nodeLabel markdown-node-label" style=""><p>+owner: EconomicOperator</p></span></div></foreignObject></g><g class="label" style="" transform="translate(0,84)"><foreignObject width="211.4375" height="24"><div xmlns="http://www.w3.org/1999/xhtml" style="display: table-cell; white-space: nowrap; line-height: 1.5; max-width: 248px; text-align: center;"><span class="nodeLabel markdown-node-label" style=""><p>+provider: EconomicOperator</p></span></div></foreignObject></g></g><g class="methods-group text" transform="translate(-129.984375, 120)"/><g class="divider" style=""><path d="M-141.984375 -48 C-40.12147675462273 -47.999641288352166, 61.74142149075453 -47.99928257670434, 141.984375 -47.999 M-141.984375 -48 C-34.127009785854355 -47.99962017875131, 73.73035542829129 -47.99924035750262, 141.984375 -47.999" stroke="#9370DB" stroke-width="1.3" fill="none" stroke-dasharray="0 0" style=""/></g><g class="divider" style=""><path d="M-141.984375 96 C-49.323670052934915 96.000326305993, 43.33703489413017 96.00065261198598, 141.984375 96.001 M-141.984375 96 C-56.36478184851366 96.00030151061746, 29.254811302972684 96.00060302123492, 141.984375 96.001" stroke="#9370DB" stroke-width="1.3" fill="none" stroke-dasharray="0 0" style=""/></g></g><g class="node default" id="my-svg-classId-EconomicOperator-1" data-look="classic" transform="translate(708.92578125, 117)"><g class="basic label-container outer-path"><path d="M-98.33203125 -60 L98.33203125 -60 L98.33203125 60 L-98.33203125 60" stroke="none" stroke-width="0" fill="#ECECFF" style=""/><path d="M-98.33203125 -60 C-27.964570892877433 -60, 42.402889464245135 -60, 98.33203125 -60 M-98.33203125 -60 C-33.16974149621572 -60, 31.992548257568558 -60, 98.33203125 -60 M98.33203125 -60 C98.33203125 -32.44306631103824, 98.33203125 -4.886132622076467, 98.33203125 60 M98.33203125 -60 C98.33203125 -18.340776090390953, 98.33203125 23.318447819218093, 98.33203125 60 M98.33203125 60 C54.89409168917894 60, 11.456152128357886 60, -98.33203125 60 M98.33203125 60 C28.01017991424321 60, -42.31167142151358 60, -98.33203125 60 M-98.33203125 60 C-98.33203125 19.269083860649225, -98.33203125 -21.46183227870155, -98.33203125 -60 M-98.33203125 60 C-98.33203125 22.152562226046534, -98.33203125 -15.694875547906932, -98.33203125 -60" stroke="#9370DB" stroke-width="1.3" fill="none" stroke-dasharray="0 0" style=""/></g><g class="annotation-group text" transform="translate(0, -36)"/><g class="label-group text" transform="translate(-69.2109375, -36)"><g class="label" style="font-weight: bolder" transform="translate(0,-12)"><foreignObject width="138.421875" height="24"><div xmlns="http://www.w3.org/1999/xhtml" style="display: table-cell; white-space: nowrap; line-height: 1.5; max-width: 172px; text-align: center;"><span class="nodeLabel markdown-node-label" style=""><p>EconomicOperator</p></span></div></foreignObject></g></g><g class="members-group text" transform="translate(-86.33203125, 12)"><g class="label" style="" transform="translate(0,-12)"><foreignObject width="103.453125" height="24"><div xmlns="http://www.w3.org/1999/xhtml" style="display: table-cell; white-space: nowrap; line-height: 1.5; max-width: 141px; text-align: center;"><span class="nodeLabel markdown-node-label" style=""><p>identifier: List</p></span></div></foreignObject></g></g><g class="methods-group text" transform="translate(-86.33203125, 60)"/><g class="divider" style=""><path d="M-98.33203125 -12 C-49.857611939413005 -11.999753516637995, -1.3831926288260092 -11.99950703327599, 98.33203125 -11.999 M-98.33203125 -12 C-30.32339652771668 -11.999654188803701, 37.68523819456664 -11.9993083776074, 98.33203125 -11.999" stroke="#9370DB" stroke-width="1.3" fill="none" stroke-dasharray="0 0" style=""/></g><g class="divider" style=""><path d="M-98.33203125 36 C-41.42601835961484 36.00028935643944, 15.479994530770327 36.00057871287888, 98.33203125 36.001 M-98.33203125 36 C-37.08793312941326 36.000311414792016, 24.156164991173483 36.00062282958403, 98.33203125 36.001" stroke="#9370DB" stroke-width="1.3" fill="none" stroke-dasharray="0 0" style=""/></g></g><g class="node default" id="my-svg-classId-Bic-2" data-look="classic" transform="translate(996.8046875, 184)"><g class="basic label-container outer-path"><path d="M-23.2421875 -42 L23.2421875 -42 L23.2421875 42 L-23.2421875 42" stroke="none" stroke-width="0" fill="#ECECFF" style=""/><path d="M-23.2421875 -42 C-5.433060234810959 -42, 12.376067030378081 -42, 23.2421875 -42 M-23.2421875 -42 C-10.057913545270395 -42, 3.1263604094592097 -42, 23.2421875 -42 M23.2421875 -42 C23.2421875 -13.191618596338106, 23.2421875 15.616762807323788, 23.2421875 42 M23.2421875 -42 C23.2421875 -8.630586556316267, 23.2421875 24.738826887367466, 23.2421875 42 M23.2421875 42 C7.610772580890368 42, -8.020642338219265 42, -23.2421875 42 M23.2421875 42 C8.573483722117528 42, -6.095220055764944 42, -23.2421875 42 M-23.2421875 42 C-23.2421875 20.069780077095515, -23.2421875 -1.860439845808969, -23.2421875 -42 M-23.2421875 42 C-23.2421875 9.096868987219999, -23.2421875 -23.806262025560002, -23.2421875 -42" stroke="#9370DB" stroke-width="1.3" fill="none" stroke-dasharray="0 0" style=""/></g><g class="annotation-group text" transform="translate(0, -18)"/><g class="label-group text" transform="translate(-11.2421875, -18)"><g class="label" style="font-weight: bolder" transform="translate(0,-12)"><foreignObject width="22.484375" height="24"><div xmlns="http://www.w3.org/1999/xhtml" style="display: table-cell; white-space: nowrap; line-height: 1.5; max-width: 72px; text-align: center;"><span class="nodeLabel markdown-node-label" style=""><p>Bic</p></span></div></foreignObject></g></g><g class="members-group text" transform="translate(-11.2421875, 30)"/><g class="methods-group text" transform="translate(-11.2421875, 60)"/><g class="divider" style=""><path d="M-23.2421875 6 C-12.61608326614134 6.000228595183518, -1.9899790322826796 6.000457190367037, 23.2421875 6.001 M-23.2421875 6 C-8.761811103964812 6.000311510618268, 5.718565292070377 6.000623021236535, 23.2421875 6.001" stroke="#9370DB" stroke-width="1.3" fill="none" stroke-dasharray="0 0" style=""/></g><g class="divider" style=""><path d="M-23.2421875 24 C-8.683409960354131 24.000313197231105, 5.875367579291737 24.00062639446221, 23.2421875 24.001 M-23.2421875 24 C-9.296349054068891 24.00030001131447, 4.649489391862218 24.000600022628934, 23.2421875 24.001" stroke="#9370DB" stroke-width="1.3" fill="none" stroke-dasharray="0 0" style=""/></g></g><g class="node default" id="my-svg-classId-Iban-3" data-look="classic" transform="translate(708.92578125, 269)"><g class="basic label-container outer-path"><path d="M-27.8671875 -42 L27.8671875 -42 L27.8671875 42 L-27.8671875 42" stroke="none" stroke-width="0" fill="#ECECFF" style=""/><path d="M-27.8671875 -42 C-16.637044415543876 -42, -5.406901331087752 -42, 27.8671875 -42 M-27.8671875 -42 C-9.874133977060076 -42, 8.118919545879848 -42, 27.8671875 -42 M27.8671875 -42 C27.8671875 -22.515904230466663, 27.8671875 -3.031808460933327, 27.8671875 42 M27.8671875 -42 C27.8671875 -16.264043769059555, 27.8671875 9.47191246188089, 27.8671875 42 M27.8671875 42 C7.568696028406503 42, -12.729795443186994 42, -27.8671875 42 M27.8671875 42 C8.410747405802493 42, -11.045692688395015 42, -27.8671875 42 M-27.8671875 42 C-27.8671875 10.396137458249093, -27.8671875 -21.207725083501813, -27.8671875 -42 M-27.8671875 42 C-27.8671875 20.242116815796077, -27.8671875 -1.5157663684078457, -27.8671875 -42" stroke="#9370DB" stroke-width="1.3" fill="none" stroke-dasharray="0 0" style=""/></g><g class="annotation-group text" transform="translate(0, -18)"/><g class="label-group text" transform="translate(-15.8671875, -18)"><g class="label" style="font-weight: bolder" transform="translate(0,-12)"><foreignObject width="31.734375" height="24"><div xmlns="http://www.w3.org/1999/xhtml" style="display: table-cell; white-space: nowrap; line-height: 1.5; max-width: 78px; text-align: center;"><span class="nodeLabel markdown-node-label" style=""><p>Iban</p></span></div></foreignObject></g></g><g class="members-group text" transform="translate(-15.8671875, 30)"/><g class="methods-group text" transform="translate(-15.8671875, 60)"/><g class="divider" style=""><path d="M-27.8671875 6 C-15.943119295812616 6.000213944593515, -4.019051091625233 6.00042788918703, 27.8671875 6.001 M-27.8671875 6 C-13.473788188216071 6.0002582499456, 0.9196111235678579 6.0005164998912, 27.8671875 6.001" stroke="#9370DB" stroke-width="1.3" fill="none" stroke-dasharray="0 0" style=""/></g><g class="divider" style=""><path d="M-27.8671875 24 C-8.211676496951288 24.00035266406061, 11.443834506097424 24.00070532812122, 27.8671875 24.001 M-27.8671875 24 C-12.784322783370456 24.000270620505148, 2.298541933259088 24.000541241010296, 27.8671875 24.001" stroke="#9370DB" stroke-width="1.3" fill="none" stroke-dasharray="0 0" style=""/></g></g><g class="node default" id="my-svg-classId-ClearingNumber-4" data-look="classic" transform="translate(996.8046875, 50)"><g class="basic label-container outer-path"><path d="M-72.265625 -42 L72.265625 -42 L72.265625 42 L-72.265625 42" stroke="none" stroke-width="0" fill="#ECECFF" style=""/><path d="M-72.265625 -42 C-35.811357129842136 -42, 0.6429107403157275 -42, 72.265625 -42 M-72.265625 -42 C-41.36013888059226 -42, -10.45465276118452 -42, 72.265625 -42 M72.265625 -42 C72.265625 -12.404794087123527, 72.265625 17.190411825752946, 72.265625 42 M72.265625 -42 C72.265625 -13.251919368378239, 72.265625 15.496161263243522, 72.265625 42 M72.265625 42 C17.55229100442812 42, -37.16104299114376 42, -72.265625 42 M72.265625 42 C27.092021351948937 42, -18.081582296102127 42, -72.265625 42 M-72.265625 42 C-72.265625 23.393006511320014, -72.265625 4.786013022640027, -72.265625 -42 M-72.265625 42 C-72.265625 17.846040189934214, -72.265625 -6.307919620131571, -72.265625 -42" stroke="#9370DB" stroke-width="1.3" fill="none" stroke-dasharray="0 0" style=""/></g><g class="annotation-group text" transform="translate(0, -18)"/><g class="label-group text" transform="translate(-60.265625, -18)"><g class="label" style="font-weight: bolder" transform="translate(0,-12)"><foreignObject width="120.53125" height="24"><div xmlns="http://www.w3.org/1999/xhtml" style="display: table-cell; white-space: nowrap; line-height: 1.5; max-width: 158px; text-align: center;"><span class="nodeLabel markdown-node-label" style=""><p>ClearingNumber</p></span></div></foreignObject></g></g><g class="members-group text" transform="translate(-60.265625, 30)"/><g class="methods-group text" transform="translate(-60.265625, 60)"/><g class="divider" style=""><path d="M-72.265625 6 C-41.8617183703398 6.000210362164789, -11.457811740679603 6.000420724329578, 72.265625 6.001 M-72.265625 6 C-39.468776904333055 6.00022691873277, -6.6719288086661095 6.00045383746554, 72.265625 6.001" stroke="#9370DB" stroke-width="1.3" fill="none" stroke-dasharray="0 0" style=""/></g><g class="divider" style=""><path d="M-72.265625 24 C-31.047485375402054 24.000285184966053, 10.170654249195891 24.000570369932102, 72.265625 24.001 M-72.265625 24 C-39.468377620168575 24.000226921495386, -6.671130240337149 24.00045384299077, 72.265625 24.001" stroke="#9370DB" stroke-width="1.3" fill="none" stroke-dasharray="0 0" style=""/></g></g><g class="node default" id="my-svg-classId-CredentialSubject-5" data-look="classic" transform="translate(87.3203125, 171)"><g class="basic label-container outer-path"><path d="M-79.3203125 -54 L79.3203125 -54 L79.3203125 54 L-79.3203125 54" stroke="none" stroke-width="0" fill="#ECECFF" style=""/><path d="M-79.3203125 -54 C-18.143720355628822 -54, 43.032871788742355 -54, 79.3203125 -54 M-79.3203125 -54 C-37.88934182208698 -54, 3.5416288558260334 -54, 79.3203125 -54 M79.3203125 -54 C79.3203125 -26.64017535381926, 79.3203125 0.7196492923614812, 79.3203125 54 M79.3203125 -54 C79.3203125 -18.270755195314365, 79.3203125 17.45848960937127, 79.3203125 54 M79.3203125 54 C17.502589760577813 54, -44.315132978844375 54, -79.3203125 54 M79.3203125 54 C41.8155950562755 54, 4.310877612550996 54, -79.3203125 54 M-79.3203125 54 C-79.3203125 27.436844444970873, -79.3203125 0.8736888899417465, -79.3203125 -54 M-79.3203125 54 C-79.3203125 24.230708363836502, -79.3203125 -5.538583272326996, -79.3203125 -54" stroke="#9370DB" stroke-width="1.3" fill="none" stroke-dasharray="0 0" style=""/></g><g class="annotation-group text" transform="translate(-38.34375, -30)"><g class="label" style="" transform="translate(0,-12)"><foreignObject width="76.6875" height="24"><div xmlns="http://www.w3.org/1999/xhtml" style="display: table-cell; white-space: nowrap; line-height: 1.5; max-width: 118px; text-align: center;"><span class="nodeLabel markdown-node-label" style=""><p>«external»</p></span></div></foreignObject></g></g><g class="label-group text" transform="translate(-67.3203125, -6)"><g class="label" style="font-weight: bolder" transform="translate(0,-12)"><foreignObject width="134.640625" height="24"><div xmlns="http://www.w3.org/1999/xhtml" style="display: table-cell; white-space: nowrap; line-height: 1.5; max-width: 165px; text-align: center;"><span class="nodeLabel markdown-node-label" style=""><p>CredentialSubject</p></span></div></foreignObject></g></g><g class="members-group text" transform="translate(-67.3203125, 42)"/><g class="methods-group text" transform="translate(-67.3203125, 72)"/><g class="divider" style=""><path d="M-79.3203125 18 C-37.14039656918087 18.000265883445245, 5.039519361638256 18.00053176689049, 79.3203125 18.001 M-79.3203125 18 C-40.251385453519006 18.000246273153845, -1.1824584070380126 18.000492546307687, 79.3203125 18.001" stroke="#9370DB" stroke-width="1.3" fill="none" stroke-dasharray="0 0" style=""/></g><g class="divider" style=""><path d="M-79.3203125 36 C-33.303362237946075 36.00029007040449, 12.71358802410785 36.00058014080898, 79.3203125 36.001 M-79.3203125 36 C-19.430127512250984 36.00037752111092, 40.46005747549803 36.00075504222185, 79.3203125 36.001" stroke="#9370DB" stroke-width="1.3" fill="none" stroke-dasharray="0 0" style=""/></g></g></g></g></g><defs><filter id="my-svg-drop-shadow" height="130%" width="130%"><feDropShadow dx="4" dy="4" stdDeviation="0" flood-opacity="0.06" flood-color="#000000"/></filter></defs><defs><filter id="my-svg-drop-shadow-small" height="150%" width="150%"><feDropShadow dx="2" dy="2" stdDeviation="0" flood-opacity="0.06" flood-color="#000000"/></filter></defs></svg>