<svg aria-roledescription="class" role="graphics-document document" viewBox="0 0 987.3828125 319" style="max-width: 987.383px; background-color: white;" class="classDiagram" xmlns:xlink="http://www.w3.org/1999/xlink" xmlns="http://www.w3.org/2000/svg" width="100%" id="my-svg"><style>#my-svg{font-family:"trebuchet ms",verdana,arial,sans-serif;font-size:16px;fill:#333;}@keyframes edge-animation-frame{from{stroke-dashoffset:0;}}@keyframes dash{to{stroke-dashoffset:0;}}#my-svg .edge-animation-slow{stroke-dasharray:9,5!important;stroke-dashoffset:900;animation:dash 50s linear infinite;stroke-linecap:round;}#my-svg .edge-animation-fast{stroke-dasharray:9,5!important;stroke-dashoffset:900;animation:dash 20s linear infinite;stroke-linecap:round;}#my-svg .error-icon{fill:#552222;}#my-svg .error-text{fill:#552222;stroke:#552222;}#my-svg .edge-thickness-normal{stroke-width:1px;}#my-svg .edge-thickness-thick{stroke-width:3.5px;}#my-svg .edge-pattern-solid{stroke-dasharray:0;}#my-svg .edge-thickness-invisible{stroke-width:0;fill:none;}#my-svg .edge-pattern-dashed{stroke-dasharray:3;}#my-svg .edge-pattern-dotted{stroke-dasharray:2;}#my-svg .marker{fill:#333333;stroke:#333333;}#my-svg .marker.cross{stroke:#333333;}#my-svg svg{font-family:"trebuchet ms",verdana,arial,sans-serif;font-size:16px;}#my-svg p{margin:0;}#my-svg g.classGroup text{fill:#9370DB;stroke:none;font-family:"trebuchet ms",verdana,arial,sans-serif;font-size:10px;}#my-svg g.classGroup text .title{font-weight:bolder;}#my-svg .nodeLabel,#my-svg .edgeLabel{color:#131300;}#my-svg .edgeLabel .label rect{fill:#ECECFF;}#my-svg .label text{fill:#131300;}#my-svg .labelBkg{background:#ECECFF;}#my-svg .edgeLabel .label span{background:#ECECFF;}#my-svg .classTitle{font-weight:bolder;}#my-svg .node rect,#my-svg .node circle,#my-svg .node ellipse,#my-svg .node polygon,#my-svg .node path{fill:#ECECFF;stroke:#9370DB;stroke-width:1px;}#my-svg .divider{stroke:#9370DB;stroke-width:1;}#my-svg g.clickable{cursor:pointer;}#my-svg g.classGroup rect{fill:#ECECFF;stroke:#9370DB;}#my-svg g.classGroup line{stroke:#9370DB;stroke-width:1;}#my-svg .classLabel .box{stroke:none;stroke-width:0;fill:#ECECFF;opacity:0.5;}#my-svg .classLabel .label{fill:#9370DB;font-size:10px;}#my-svg .relation{stroke:#333333;stroke-width:1;fill:none;}#my-svg .dashed-line{stroke-dasharray:3;}#my-svg .dotted-line{stroke-dasharray:1 2;}#my-svg #compositionStart,#my-svg .composition{fill:#333333!important;stroke:#333333!important;stroke-width:1;}#my-svg #compositionEnd,#my-svg .composition{fill:#333333!important;stroke:#333333!important;stroke-width:1;}#my-svg #dependencyStart,#my-svg .dependency{fill:#333333!important;stroke:#333333!important;stroke-width:1;}#my-svg #dependencyStart,#my-svg .dependency{fill:#333333!important;stroke:#333333!important;stroke-width:1;}#my-svg #extensionStart,#my-svg .extension{fill:transparent!important;stroke:#333333!important;stroke-width:1;}#my-svg #extensionEnd,#my-svg .extension{fill:transparent!important;stroke:#333333!important;stroke-width:1;}#my-svg #aggregationStart,#my-svg .aggregation{fill:transparent!important;stroke:#333333!important;stroke-width:1;}#my-svg #aggregationEnd,#my-svg .aggregation{fill:transparent!important;stroke:#333333!important;stroke-width:1;}#my-svg #lollipopStart,#my-svg .lollipop{fill:#ECECFF!important;stroke:#333333!important;stroke-width:1;}#my-svg #lollipopEnd,#my-svg .lollipop{fill:#ECECFF!important;stroke:#333333!important;stroke-width:1;}#my-svg .edgeTerminals{font-size:11px;line-height:initial;}#my-svg .classTitleText{text-anchor:middle;font-size:18px;fill:#333;}#my-svg .label-icon{display:inline-block;height:1em;overflow:visible;vertical-align:-0.125em;}#my-svg .node .label-icon path{fill:currentColor;stroke:revert;stroke-width:revert;}#my-svg :root{--mermaid-font-family:"trebuchet ms",verdana,arial,sans-serif;}</style><g><defs><marker orient="auto" markerHeight="240" markerWidth="190" refY="7" refX="18" class="marker aggregation class" id="my-svg_class-aggregationStart"><path d="M 18,7 L9,13 L1,7 L9,1 Z"/></marker></defs><defs><marker orient="auto" markerHeight="28" markerWidth="20" refY="7" refX="1" class="marker aggregation class" id="my-svg_class-aggregationEnd"><path d="M 18,7 L9,13 L1,7 L9,1 Z"/></marker></defs><defs><marker orient="auto" markerHeight="240" markerWidth="190" refY="7" refX="18" class="marker extension class" id="my-svg_class-extensionStart"><path d="M 1,7 L18,13 V 1 Z"/></marker></defs><defs><marker orient="auto" markerHeight="28" markerWidth="20" refY="7" refX="1" class="marker extension class" id="my-svg_class-extensionEnd"><path d="M 1,1 V 13 L18,7 Z"/></marker></defs><defs><marker orient="auto" markerHeight="240" markerWidth="190" refY="7" refX="18" class="marker composition class" id="my-svg_class-compositionStart"><path d="M 18,7 L9,13 L1,7 L9,1 Z"/></marker></defs><defs><marker orient="auto" markerHeight="28" markerWidth="20" refY="7" refX="1" class="marker composition class" id="my-svg_class-compositionEnd"><path d="M 18,7 L9,13 L1,7 L9,1 Z"/></marker></defs><defs><marker orient="auto" markerHeight="240" markerWidth="190" refY="7" refX="6" class="marker dependency class" id="my-svg_class-dependencyStart"><path d="M 5,7 L9,13 L1,7 L9,1 Z"/></marker></defs><defs><marker orient="auto" markerHeight="28" markerWidth="20" refY="7" refX="13" class="marker dependency class" id="my-svg_class-dependencyEnd"><path d="M 18,7 L9,13 L14,7 L9,1 Z"/></marker></defs><defs><marker orient="auto" markerHeight="240" markerWidth="190" refY="7" refX="13" class="marker lollipop class" id="my-svg_class-lollipopStart"><circle r="6" cy="7" cx="7" fill="transparent" stroke="black"/></marker></defs><defs><marker orient="auto" markerHeight="240" markerWidth="190" refY="7" refX="1" class="marker lollipop class" id="my-svg_class-lollipopEnd"><circle r="6" cy="7" cx="7" fill="transparent" stroke="black"/></marker></defs><g class="root"><g class="clusters"/><g class="edgePaths"><path marker-start="url(#my-svg_class-extensionStart)" style="" class="edge-thickness-normal edge-pattern-solid relation" id="id_CredentialSubject_BankAccount_1" d="M184.641,171L185.807,171C186.974,171,189.307,171,194.641,171C199.974,171,208.307,171,212.474,171L216.641,171"/><path marker-end="url(#my-svg_class-dependencyEnd)" style="" class="edge-thickness-normal edge-pattern-solid relation" id="id_BankAccount_Company_2" d="M445.922,119.638L455.087,115.532C464.253,111.425,482.583,103.213,499.927,100.431C517.271,97.649,533.627,100.299,541.805,101.623L549.983,102.948"/><path marker-end="url(#my-svg_class-dependencyEnd)" style="" class="edge-thickness-normal edge-pattern-solid relation" id="id_BankAccount_Company_3" d="M445.922,171L455.087,171C464.253,171,482.583,171,499.985,167.726C517.386,164.451,533.859,157.902,542.095,154.628L550.331,151.353"/><path marker-end="url(#my-svg_class-dependencyEnd)" style="" class="edge-thickness-normal edge-pattern-solid relation" id="id_BankAccount_Iban_4" d="M445.922,237.23L455.087,242.525C464.253,247.82,482.583,258.41,508.742,263.705C534.9,269,568.885,269,585.878,269L602.871,269"/><path marker-end="url(#my-svg_class-dependencyEnd)" style="" class="edge-thickness-normal edge-pattern-solid relation" id="id_Company_Bic_5" d="M717.57,78.17L727.344,73.475C737.117,68.78,756.664,59.39,783.382,54.695C810.099,50,843.987,50,860.931,50L877.875,50"/><path marker-end="url(#my-svg_class-dependencyEnd)" style="" class="edge-thickness-normal edge-pattern-solid relation" id="id_Company_ClearingNumber_6" d="M717.57,155.83L727.344,160.525C737.117,165.22,756.664,174.61,775.211,179.305C793.758,184,811.305,184,820.078,184L828.852,184"/></g><g class="edgeLabels"><g class="edgeLabel"><g transform="translate(0, -12)" class="label"><foreignObject height="24" width="0"><div class="labelBkg" xmlns="http://www.w3.org/1999/xhtml" style="display: table-cell; white-space: nowrap; line-height: 1.5; max-width: 200px; text-align: center;"><span class="edgeLabel" style=";display: inline-block"></span></div></foreignObject></g></g><g transform="translate(500.9140625, 95)" class="edgeLabel"><g transform="translate(-22.09375, -12)" class="label"><foreignObject height="24" width="44.1875"><div class="labelBkg" xmlns="http://www.w3.org/1999/xhtml" style="display: table-cell; white-space: nowrap; line-height: 1.5; max-width: 200px; text-align: center;"><span class="edgeLabel" style=";display: inline-block"><p>owner</p></span></div></foreignObject></g></g><g transform="translate(500.9140625, 171)" class="edgeLabel"><g transform="translate(-29.9921875, -12)" class="label"><foreignObject height="24" width="59.984375"><div class="labelBkg" xmlns="http://www.w3.org/1999/xhtml" style="display: table-cell; white-space: nowrap; line-height: 1.5; max-width: 200px; text-align: center;"><span class="edgeLabel" style=";display: inline-block"><p>provider</p></span></div></foreignObject></g></g><g transform="translate(500.9140625, 269)" class="edgeLabel"><g transform="translate(-15.3125, -12)" class="label"><foreignObject height="24" width="30.625"><div class="labelBkg" xmlns="http://www.w3.org/1999/xhtml" style="display: table-cell; white-space: nowrap; line-height: 1.5; max-width: 200px; text-align: center;"><span class="edgeLabel" style=";display: inline-block"><p>iban</p></span></div></foreignObject></g></g><g transform="translate(776.2109375, 50)" class="edgeLabel"><g transform="translate(-33.640625, -12)" class="label"><foreignObject height="24" width="67.28125"><div class="labelBkg" xmlns="http://www.w3.org/1999/xhtml" style="display: table-cell; white-space: nowrap; line-height: 1.5; max-width: 200px; text-align: center;"><span class="edgeLabel" style=";display: inline-block"><p>identifier</p></span></div></foreignObject></g></g><g transform="translate(776.2109375, 184)" class="edgeLabel"><g transform="translate(-33.640625, -12)" class="label"><foreignObject height="24" width="67.28125"><div class="labelBkg" xmlns="http://www.w3.org/1999/xhtml" style="display: table-cell; white-space: nowrap; line-height: 1.5; max-width: 200px; text-align: center;"><span class="edgeLabel" style=";display: inline-block"><p>identifier</p></span></div></foreignObject></g></g></g><g class="nodes"><g transform="translate(87.3203125, 171)" id="classId-CredentialSubject-0" class="node default"><g class="basic label-container"><path style="" fill="#ECECFF" stroke-width="0" stroke="none" d="M-79.3203125 -54 L79.3203125 -54 L79.3203125 54 L-79.3203125 54"/><path style="" fill="none" stroke-width="1.3" stroke="#9370DB" d="M-79.3203125 -54 C-27.540927646289717 -54, 24.238457207420566 -54, 79.3203125 -54 M-79.3203125 -54 C-18.9417380735933 -54, 41.4368363528134 -54, 79.3203125 -54 M79.3203125 -54 C79.3203125 -24.898815918336336, 79.3203125 4.202368163327328, 79.3203125 54 M79.3203125 -54 C79.3203125 -20.84027761863812, 79.3203125 12.319444762723762, 79.3203125 54 M79.3203125 54 C43.69068778836025 54, 8.061063076720501 54, -79.3203125 54 M79.3203125 54 C29.180575963979663 54, -20.959160572040673 54, -79.3203125 54 M-79.3203125 54 C-79.3203125 30.029318072379667, -79.3203125 6.058636144759333, -79.3203125 -54 M-79.3203125 54 C-79.3203125 25.578615027979247, -79.3203125 -2.842769944041507, -79.3203125 -54"/></g><g transform="translate(-24.0234375, -30)" class="annotation-group text"><g transform="translate(0,-12)" style="" class="label"><foreignObject height="24" width="48.046875"><div style="display: table-cell; white-space: nowrap; line-height: 1.5; max-width: 102px; text-align: center;" xmlns="http://www.w3.org/1999/xhtml"><span style="" class="nodeLabel markdown-node-label"><p>«EBW»</p></span></div></foreignObject></g></g><g transform="translate(-67.3203125, -6)" class="label-group text"><g transform="translate(0,-12)" style="font-weight: bolder" class="label"><foreignObject height="24" width="134.640625"><div style="display: table-cell; white-space: nowrap; line-height: 1.5; max-width: 165px; text-align: center;" xmlns="http://www.w3.org/1999/xhtml"><span style="" class="nodeLabel markdown-node-label"><p>CredentialSubject</p></span></div></foreignObject></g></g><g transform="translate(-67.3203125, 42)" class="members-group text"/><g transform="translate(-67.3203125, 72)" class="methods-group text"/><g style="" class="divider"><path style="" fill="none" stroke-width="1.3" stroke="#9370DB" d="M-79.3203125 18 C-18.056847121834082 18, 43.206618256331836 18, 79.3203125 18 M-79.3203125 18 C-16.950340835373318 18, 45.419630829253364 18, 79.3203125 18"/></g><g style="" class="divider"><path style="" fill="none" stroke-width="1.3" stroke="#9370DB" d="M-79.3203125 36 C-28.415979404618575 36, 22.48835369076285 36, 79.3203125 36 M-79.3203125 36 C-34.85368286014064 36, 9.612946779718726 36, 79.3203125 36"/></g></g><g transform="translate(331.28125, 171)" id="classId-BankAccount-1" class="node default"><g class="basic label-container"><path style="" fill="#ECECFF" stroke-width="0" stroke="none" d="M-114.640625 -120 L114.640625 -120 L114.640625 120 L-114.640625 120"/><path style="" fill="none" stroke-width="1.3" stroke="#9370DB" d="M-114.640625 -120 C-46.59539372723306 -120, 21.44983754553388 -120, 114.640625 -120 M-114.640625 -120 C-37.35325594228033 -120, 39.934113115439345 -120, 114.640625 -120 M114.640625 -120 C114.640625 -62.88426664417206, 114.640625 -5.768533288344116, 114.640625 120 M114.640625 -120 C114.640625 -55.91850087155211, 114.640625 8.162998256895776, 114.640625 120 M114.640625 120 C54.21101996256614 120, -6.218585074867718 120, -114.640625 120 M114.640625 120 C42.4292997596405 120, -29.782025480719 120, -114.640625 120 M-114.640625 120 C-114.640625 52.67884577523121, -114.640625 -14.64230844953758, -114.640625 -120 M-114.640625 120 C-114.640625 70.14590770386056, -114.640625 20.291815407721117, -114.640625 -120"/></g><g transform="translate(-24.0234375, -96)" class="annotation-group text"><g transform="translate(0,-12)" style="" class="label"><foreignObject height="24" width="48.046875"><div style="display: table-cell; white-space: nowrap; line-height: 1.5; max-width: 102px; text-align: center;" xmlns="http://www.w3.org/1999/xhtml"><span style="" class="nodeLabel markdown-node-label"><p>«EBW»</p></span></div></foreignObject></g></g><g transform="translate(-48.53125, -72)" class="label-group text"><g transform="translate(0,-12)" style="font-weight: bolder" class="label"><foreignObject height="24" width="97.0625"><div style="display: table-cell; white-space: nowrap; line-height: 1.5; max-width: 138px; text-align: center;" xmlns="http://www.w3.org/1999/xhtml"><span style="" class="nodeLabel markdown-node-label"><p>BankAccount</p></span></div></foreignObject></g></g><g transform="translate(-102.640625, -24)" class="members-group text"><g transform="translate(0,-12)" style="" class="label"><foreignObject height="24" width="156.75"><div style="display: table-cell; white-space: nowrap; line-height: 1.5; max-width: 196px; text-align: center;" xmlns="http://www.w3.org/1999/xhtml"><span style="" class="nodeLabel markdown-node-label"><p>+accountName: string</p></span></div></foreignObject></g><g transform="translate(0,12)" style="" class="label"><foreignObject height="24" width="149.109375"><div style="display: table-cell; white-space: nowrap; line-height: 1.5; max-width: 190px; text-align: center;" xmlns="http://www.w3.org/1999/xhtml"><span style="" class="nodeLabel markdown-node-label"><p>+accountType: string</p></span></div></foreignObject></g><g transform="translate(0,36)" style="" class="label"><foreignObject height="24" width="80.234375"><div style="display: table-cell; white-space: nowrap; line-height: 1.5; max-width: 128px; text-align: center;" xmlns="http://www.w3.org/1999/xhtml"><span style="" class="nodeLabel markdown-node-label"><p>+iban: Iban</p></span></div></foreignObject></g><g transform="translate(0,60)" style="" class="label"><foreignObject height="24" width="128.65625"><div style="display: table-cell; white-space: nowrap; line-height: 1.5; max-width: 174px; text-align: center;" xmlns="http://www.w3.org/1999/xhtml"><span style="" class="nodeLabel markdown-node-label"><p>+owner: Company</p></span></div></foreignObject></g><g transform="translate(0,84)" style="" class="label"><foreignObject height="24" width="144.453125"><div style="display: table-cell; white-space: nowrap; line-height: 1.5; max-width: 188px; text-align: center;" xmlns="http://www.w3.org/1999/xhtml"><span style="" class="nodeLabel markdown-node-label"><p>+provider: Company</p></span></div></foreignObject></g></g><g transform="translate(-102.640625, 120)" class="methods-group text"/><g style="" class="divider"><path style="" fill="none" stroke-width="1.3" stroke="#9370DB" d="M-114.640625 -48 C-54.90840396518326 -48, 4.823817069633478 -48, 114.640625 -48 M-114.640625 -48 C-50.42511841289152 -48, 13.790388174216957 -48, 114.640625 -48"/></g><g style="" class="divider"><path style="" fill="none" stroke-width="1.3" stroke="#9370DB" d="M-114.640625 96 C-27.985913640221128 96, 58.668797719557745 96, 114.640625 96 M-114.640625 96 C-45.83175119182158 96, 22.977122616356837 96, 114.640625 96"/></g></g><g transform="translate(636.73828125, 117)" id="classId-Company-2" class="node default"><g class="basic label-container"><path style="" fill="#ECECFF" stroke-width="0" stroke="none" d="M-80.83203125 -60 L80.83203125 -60 L80.83203125 60 L-80.83203125 60"/><path style="" fill="none" stroke-width="1.3" stroke="#9370DB" d="M-80.83203125 -60 C-44.776019934364875 -60, -8.72000861872975 -60, 80.83203125 -60 M-80.83203125 -60 C-33.88480353315186 -60, 13.06242418369628 -60, 80.83203125 -60 M80.83203125 -60 C80.83203125 -23.112220384605344, 80.83203125 13.775559230789312, 80.83203125 60 M80.83203125 -60 C80.83203125 -13.506275829114443, 80.83203125 32.98744834177111, 80.83203125 60 M80.83203125 60 C26.705440064940653 60, -27.421151120118694 60, -80.83203125 60 M80.83203125 60 C28.864914437782275 60, -23.10220237443545 60, -80.83203125 60 M-80.83203125 60 C-80.83203125 22.489386664222536, -80.83203125 -15.021226671554928, -80.83203125 -60 M-80.83203125 60 C-80.83203125 12.026828524145927, -80.83203125 -35.94634295170815, -80.83203125 -60"/></g><g transform="translate(0, -36)" class="annotation-group text"/><g transform="translate(-34.2109375, -36)" class="label-group text"><g transform="translate(0,-12)" style="font-weight: bolder" class="label"><foreignObject height="24" width="68.421875"><div style="display: table-cell; white-space: nowrap; line-height: 1.5; max-width: 112px; text-align: center;" xmlns="http://www.w3.org/1999/xhtml"><span style="" class="nodeLabel markdown-node-label"><p>Company</p></span></div></foreignObject></g></g><g transform="translate(-68.83203125, 12)" class="members-group text"><g transform="translate(0,-12)" style="" class="label"><foreignObject height="24" width="103.453125"><div style="display: table-cell; white-space: nowrap; line-height: 1.5; max-width: 142px; text-align: center;" xmlns="http://www.w3.org/1999/xhtml"><span style="" class="nodeLabel markdown-node-label"><p>identifier: List</p></span></div></foreignObject></g></g><g transform="translate(-68.83203125, 60)" class="methods-group text"/><g style="" class="divider"><path style="" fill="none" stroke-width="1.3" stroke="#9370DB" d="M-80.83203125 -12 C-31.675861481295087 -12, 17.480308287409827 -12, 80.83203125 -12 M-80.83203125 -12 C-45.37797526834354 -12, -9.923919286687081 -12, 80.83203125 -12"/></g><g style="" class="divider"><path style="" fill="none" stroke-width="1.3" stroke="#9370DB" d="M-80.83203125 36 C-28.895979628625774 36, 23.04007199274845 36, 80.83203125 36 M-80.83203125 36 C-22.982544054380924 36, 34.86694314123815 36, 80.83203125 36"/></g></g><g transform="translate(907.1171875, 50)" id="classId-Bic-3" class="node default"><g class="basic label-container"><path style="" fill="#ECECFF" stroke-width="0" stroke="none" d="M-23.2421875 -42 L23.2421875 -42 L23.2421875 42 L-23.2421875 42"/><path style="" fill="none" stroke-width="1.3" stroke="#9370DB" d="M-23.2421875 -42 C-9.692531997543146 -42, 3.8571235049137087 -42, 23.2421875 -42 M-23.2421875 -42 C-11.611320842113217 -42, 0.019545815773565067 -42, 23.2421875 -42 M23.2421875 -42 C23.2421875 -12.94043632911118, 23.2421875 16.11912734177764, 23.2421875 42 M23.2421875 -42 C23.2421875 -9.990528013139745, 23.2421875 22.01894397372051, 23.2421875 42 M23.2421875 42 C6.099891990777159 42, -11.042403518445681 42, -23.2421875 42 M23.2421875 42 C5.964407636264259 42, -11.313372227471483 42, -23.2421875 42 M-23.2421875 42 C-23.2421875 15.263339325273243, -23.2421875 -11.473321349453514, -23.2421875 -42 M-23.2421875 42 C-23.2421875 14.665453225716984, -23.2421875 -12.669093548566032, -23.2421875 -42"/></g><g transform="translate(0, -18)" class="annotation-group text"/><g transform="translate(-11.2421875, -18)" class="label-group text"><g transform="translate(0,-12)" style="font-weight: bolder" class="label"><foreignObject height="24" width="22.484375"><div style="display: table-cell; white-space: nowrap; line-height: 1.5; max-width: 72px; text-align: center;" xmlns="http://www.w3.org/1999/xhtml"><span style="" class="nodeLabel markdown-node-label"><p>Bic</p></span></div></foreignObject></g></g><g transform="translate(-11.2421875, 30)" class="members-group text"/><g transform="translate(-11.2421875, 60)" class="methods-group text"/><g style="" class="divider"><path style="" fill="none" stroke-width="1.3" stroke="#9370DB" d="M-23.2421875 6 C-10.382173513573505 6, 2.4778404728529893 6, 23.2421875 6 M-23.2421875 6 C-5.932501952624964 6, 11.377183594750072 6, 23.2421875 6"/></g><g style="" class="divider"><path style="" fill="none" stroke-width="1.3" stroke="#9370DB" d="M-23.2421875 24 C-5.590671613353617 24, 12.060844273292766 24, 23.2421875 24 M-23.2421875 24 C-7.978462689209794 24, 7.285262121580413 24, 23.2421875 24"/></g></g><g transform="translate(636.73828125, 269)" id="classId-Iban-4" class="node default"><g class="basic label-container"><path style="" fill="#ECECFF" stroke-width="0" stroke="none" d="M-27.8671875 -42 L27.8671875 -42 L27.8671875 42 L-27.8671875 42"/><path style="" fill="none" stroke-width="1.3" stroke="#9370DB" d="M-27.8671875 -42 C-6.474315439368496 -42, 14.918556621263008 -42, 27.8671875 -42 M-27.8671875 -42 C-11.487598220642312 -42, 4.8919910587153765 -42, 27.8671875 -42 M27.8671875 -42 C27.8671875 -24.29491101768693, 27.8671875 -6.589822035373857, 27.8671875 42 M27.8671875 -42 C27.8671875 -17.11081003031105, 27.8671875 7.778379939377899, 27.8671875 42 M27.8671875 42 C8.499645136513863 42, -10.867897226972275 42, -27.8671875 42 M27.8671875 42 C10.579653161856186 42, -6.7078811762876285 42, -27.8671875 42 M-27.8671875 42 C-27.8671875 16.85036612399093, -27.8671875 -8.299267752018139, -27.8671875 -42 M-27.8671875 42 C-27.8671875 12.460367577317154, -27.8671875 -17.079264845365692, -27.8671875 -42"/></g><g transform="translate(0, -18)" class="annotation-group text"/><g transform="translate(-15.8671875, -18)" class="label-group text"><g transform="translate(0,-12)" style="font-weight: bolder" class="label"><foreignObject height="24" width="31.734375"><div style="display: table-cell; white-space: nowrap; line-height: 1.5; max-width: 78px; text-align: center;" xmlns="http://www.w3.org/1999/xhtml"><span style="" class="nodeLabel markdown-node-label"><p>Iban</p></span></div></foreignObject></g></g><g transform="translate(-15.8671875, 30)" class="members-group text"/><g transform="translate(-15.8671875, 60)" class="methods-group text"/><g style="" class="divider"><path style="" fill="none" stroke-width="1.3" stroke="#9370DB" d="M-27.8671875 6 C-6.550561882105587 6, 14.766063735788826 6, 27.8671875 6 M-27.8671875 6 C-7.19640341250652 6, 13.47438067498696 6, 27.8671875 6"/></g><g style="" class="divider"><path style="" fill="none" stroke-width="1.3" stroke="#9370DB" d="M-27.8671875 24 C-11.358728804253722 24, 5.149729891492555 24, 27.8671875 24 M-27.8671875 24 C-9.66819672164706 24, 8.53079405670588 24, 27.8671875 24"/></g></g><g transform="translate(907.1171875, 184)" id="classId-ClearingNumber-5" class="node default"><g class="basic label-container"><path style="" fill="#ECECFF" stroke-width="0" stroke="none" d="M-72.265625 -42 L72.265625 -42 L72.265625 42 L-72.265625 42"/><path style="" fill="none" stroke-width="1.3" stroke="#9370DB" d="M-72.265625 -42 C-38.92294828191137 -42, -5.580271563822734 -42, 72.265625 -42 M-72.265625 -42 C-33.17677711133513 -42, 5.912070777329745 -42, 72.265625 -42 M72.265625 -42 C72.265625 -20.852954033025043, 72.265625 0.2940919339499146, 72.265625 42 M72.265625 -42 C72.265625 -12.574604722781991, 72.265625 16.850790554436017, 72.265625 42 M72.265625 42 C38.85369523880279 42, 5.4417654776055855 42, -72.265625 42 M72.265625 42 C42.091702088538526 42, 11.917779177077058 42, -72.265625 42 M-72.265625 42 C-72.265625 12.25557631454108, -72.265625 -17.48884737091784, -72.265625 -42 M-72.265625 42 C-72.265625 18.78648548207468, -72.265625 -4.427029035850637, -72.265625 -42"/></g><g transform="translate(0, -18)" class="annotation-group text"/><g transform="translate(-60.265625, -18)" class="label-group text"><g transform="translate(0,-12)" style="font-weight: bolder" class="label"><foreignObject height="24" width="120.53125"><div style="display: table-cell; white-space: nowrap; line-height: 1.5; max-width: 158px; text-align: center;" xmlns="http://www.w3.org/1999/xhtml"><span style="" class="nodeLabel markdown-node-label"><p>ClearingNumber</p></span></div></foreignObject></g></g><g transform="translate(-60.265625, 30)" class="members-group text"/><g transform="translate(-60.265625, 60)" class="methods-group text"/><g style="" class="divider"><path style="" fill="none" stroke-width="1.3" stroke="#9370DB" d="M-72.265625 6 C-31.02041904139213 6, 10.224786917215738 6, 72.265625 6 M-72.265625 6 C-33.12059413219743 6, 6.024436735605136 6, 72.265625 6"/></g><g style="" class="divider"><path style="" fill="none" stroke-width="1.3" stroke="#9370DB" d="M-72.265625 24 C-24.550183837737244 24, 23.165257324525513 24, 72.265625 24 M-72.265625 24 C-39.936385446379816 24, -7.6071458927596325 24, 72.265625 24"/></g></g></g></g></g></svg>