<svg id="my-svg" width="100%" xmlns="http://www.w3.org/2000/svg" xmlns:xlink="http://www.w3.org/1999/xlink" class="classDiagram" style="max-width: 1077.07px; background-color: white;" viewBox="0 0 1077.0703125 319" role="graphics-document document" aria-roledescription="class"><style>#my-svg{font-family:"trebuchet ms",verdana,arial,sans-serif;font-size:16px;fill:#333;}@keyframes edge-animation-frame{from{stroke-dashoffset:0;}}@keyframes dash{to{stroke-dashoffset:0;}}#my-svg .edge-animation-slow{stroke-dasharray:9,5!important;stroke-dashoffset:900;animation:dash 50s linear infinite;stroke-linecap:round;}#my-svg .edge-animation-fast{stroke-dasharray:9,5!important;stroke-dashoffset:900;animation:dash 20s linear infinite;stroke-linecap:round;}#my-svg .error-icon{fill:#552222;}#my-svg .error-text{fill:#552222;stroke:#552222;}#my-svg .edge-thickness-normal{stroke-width:1px;}#my-svg .edge-thickness-thick{stroke-width:3.5px;}#my-svg .edge-pattern-solid{stroke-dasharray:0;}#my-svg .edge-thickness-invisible{stroke-width:0;fill:none;}#my-svg .edge-pattern-dashed{stroke-dasharray:3;}#my-svg .edge-pattern-dotted{stroke-dasharray:2;}#my-svg .marker{fill:#333333;stroke:#333333;}#my-svg .marker.cross{stroke:#333333;}#my-svg svg{font-family:"trebuchet ms",verdana,arial,sans-serif;font-size:16px;}#my-svg p{margin:0;}#my-svg g.classGroup text{fill:#9370DB;stroke:none;font-family:"trebuchet ms",verdana,arial,sans-serif;font-size:10px;}#my-svg g.classGroup text .title{font-weight:bolder;}#my-svg .cluster-label text{fill:#333;}#my-svg .cluster-label span{color:#333;}#my-svg .cluster-label span p{background-color:transparent;}#my-svg .cluster rect{fill:#ffffde;stroke:#aaaa33;stroke-width:1px;}#my-svg .cluster text{fill:#333;}#my-svg .cluster span{color:#333;}#my-svg .nodeLabel,#my-svg .edgeLabel{color:#131300;}#my-svg .edgeLabel .label rect{fill:#ECECFF;}#my-svg .label text{fill:#131300;}#my-svg .labelBkg{background:#ECECFF;}#my-svg .edgeLabel .label span{background:#ECECFF;}#my-svg .classTitle{font-weight:bolder;}#my-svg .node rect,#my-svg .node circle,#my-svg .node ellipse,#my-svg .node polygon,#my-svg .node path{fill:#ECECFF;stroke:#9370DB;stroke-width:1px;}#my-svg .divider{stroke:#9370DB;stroke-width:1;}#my-svg g.clickable{cursor:pointer;}#my-svg g.classGroup rect{fill:#ECECFF;stroke:#9370DB;}#my-svg g.classGroup line{stroke:#9370DB;stroke-width:1;}#my-svg .classLabel .box{stroke:none;stroke-width:0;fill:#ECECFF;opacity:0.5;}#my-svg .classLabel .label{fill:#9370DB;font-size:10px;}#my-svg .relation{stroke:#333333;stroke-width:1;fill:none;}#my-svg .dashed-line{stroke-dasharray:3;}#my-svg .dotted-line{stroke-dasharray:1 2;}#my-svg #compositionStart,#my-svg .composition{fill:#333333!important;stroke:#333333!important;stroke-width:1;}#my-svg #compositionEnd,#my-svg .composition{fill:#333333!important;stroke:#333333!important;stroke-width:1;}#my-svg #dependencyStart,#my-svg .dependency{fill:#333333!important;stroke:#333333!important;stroke-width:1;}#my-svg #dependencyStart,#my-svg .dependency{fill:#333333!important;stroke:#333333!important;stroke-width:1;}#my-svg #extensionStart,#my-svg .extension{fill:transparent!important;stroke:#333333!important;stroke-width:1;}#my-svg #extensionEnd,#my-svg .extension{fill:transparent!important;stroke:#333333!important;stroke-width:1;}#my-svg #aggregationStart,#my-svg .aggregation{fill:transparent!important;stroke:#333333!important;stroke-width:1;}#my-svg #aggregationEnd,#my-svg .aggregation{fill:transparent!important;stroke:#333333!important;stroke-width:1;}#my-svg #lollipopStart,#my-svg .lollipop{fill:#ECECFF!important;stroke:#333333!important;stroke-width:1;}#my-svg #lollipopEnd,#my-svg .lollipop{fill:#ECECFF!important;stroke:#333333!important;stroke-width:1;}#my-svg .edgeTerminals{font-size:11px;line-height:initial;}#my-svg .classTitleText{text-anchor:middle;font-size:18px;fill:#333;}#my-svg .label-icon{display:inline-block;height:1em;overflow:visible;vertical-align:-0.125em;}#my-svg .node .label-icon path{fill:currentColor;stroke:revert;stroke-width:revert;}#my-svg :root{--mermaid-font-family:"trebuchet ms",verdana,arial,sans-serif;}</style><g><defs><marker id="my-svg_class-aggregationStart" class="marker aggregation class" refX="18" refY="7" markerWidth="190" markerHeight="240" orient="auto"><path d="M 18,7 L9,13 L1,7 L9,1 Z"/></marker></defs><defs><marker id="my-svg_class-aggregationEnd" class="marker aggregation class" refX="1" refY="7" markerWidth="20" markerHeight="28" orient="auto"><path d="M 18,7 L9,13 L1,7 L9,1 Z"/></marker></defs><defs><marker id="my-svg_class-extensionStart" class="marker extension class" refX="18" refY="7" markerWidth="190" markerHeight="240" orient="auto"><path d="M 1,7 L18,13 V 1 Z"/></marker></defs><defs><marker id="my-svg_class-extensionEnd" class="marker extension class" refX="1" refY="7" markerWidth="20" markerHeight="28" orient="auto"><path d="M 1,1 V 13 L18,7 Z"/></marker></defs><defs><marker id="my-svg_class-compositionStart" class="marker composition class" refX="18" refY="7" markerWidth="190" markerHeight="240" orient="auto"><path d="M 18,7 L9,13 L1,7 L9,1 Z"/></marker></defs><defs><marker id="my-svg_class-compositionEnd" class="marker composition class" refX="1" refY="7" markerWidth="20" markerHeight="28" orient="auto"><path d="M 18,7 L9,13 L1,7 L9,1 Z"/></marker></defs><defs><marker id="my-svg_class-dependencyStart" class="marker dependency class" refX="6" refY="7" markerWidth="190" markerHeight="240" orient="auto"><path d="M 5,7 L9,13 L1,7 L9,1 Z"/></marker></defs><defs><marker id="my-svg_class-dependencyEnd" class="marker dependency class" refX="13" refY="7" markerWidth="20" markerHeight="28" orient="auto"><path d="M 18,7 L9,13 L14,7 L9,1 Z"/></marker></defs><defs><marker id="my-svg_class-lollipopStart" class="marker lollipop class" refX="13" refY="7" markerWidth="190" markerHeight="240" orient="auto"><circle fill="transparent" cx="7" cy="7" r="6"/></marker></defs><defs><marker id="my-svg_class-lollipopEnd" class="marker lollipop class" refX="1" refY="7" markerWidth="190" markerHeight="240" orient="auto"><circle fill="transparent" cx="7" cy="7" r="6"/></marker></defs><g class="root"><g class="clusters"/><g class="edgePaths"><path d="M183.891,171L185.182,171C186.474,171,189.057,171,194.516,171C199.974,171,208.307,171,212.474,171L216.641,171" id="id_CredentialSubject_BankAccount_1" class="edge-thickness-normal edge-pattern-solid relation" style=";;;" data-edge="true" data-et="edge" data-id="id_CredentialSubject_BankAccount_1" data-points="W3sieCI6MTY2LjY0MDYyNSwieSI6MTcxfSx7IngiOjE5MS42NDA2MjUsInkiOjE3MX0seyJ4IjoyMTYuNjQwNjI1LCJ5IjoxNzF9XQ==" marker-start="url(#my-svg_class-extensionStart)"/><path d="M500.609,116.218L509.775,112.681C518.94,109.145,537.271,102.073,554.612,99.709C571.953,97.346,588.304,99.692,596.479,100.865L604.655,102.038" id="id_BankAccount_EconomicOperator_2" class="edge-thickness-normal edge-pattern-solid relation" style=";;;" data-edge="true" data-et="edge" data-id="id_BankAccount_EconomicOperator_2" data-points="W3sieCI6NTAwLjYwOTM3NSwieSI6MTE2LjIxNzc4NDQ3NjI2MjI0fSx7IngiOjU1NS42MDE1NjI1LCJ5Ijo5NX0seyJ4Ijo2MTAuNTkzNzUsInkiOjEwMi44OTA2NTI0Njc0NTMwN31d" marker-end="url(#my-svg_class-dependencyEnd)"/><path d="M500.609,171L509.775,171C518.94,171,537.271,171,554.658,168.104C572.046,165.208,588.49,159.417,596.712,156.521L604.934,153.625" id="id_BankAccount_EconomicOperator_3" class="edge-thickness-normal edge-pattern-solid relation" style=";;;" data-edge="true" data-et="edge" data-id="id_BankAccount_EconomicOperator_3" data-points="W3sieCI6NTAwLjYwOTM3NSwieSI6MTcxfSx7IngiOjU1NS42MDE1NjI1LCJ5IjoxNzF9LHsieCI6NjEwLjU5Mzc1LCJ5IjoxNTEuNjMyMDM0ODUyNjE1MjJ9XQ==" marker-end="url(#my-svg_class-dependencyEnd)"/><path d="M500.609,241.64L509.775,246.2C518.94,250.76,537.271,259.88,566.346,264.44C595.421,269,635.24,269,655.149,269L675.059,269" id="id_BankAccount_Iban_4" class="edge-thickness-normal edge-pattern-solid relation" style=";;;" data-edge="true" data-et="edge" data-id="id_BankAccount_Iban_4" data-points="W3sieCI6NTAwLjYwOTM3NSwieSI6MjQxLjY0MDIyNTI4MDYwOTIzfSx7IngiOjU1NS42MDE1NjI1LCJ5IjoyNjl9LHsieCI6NjgxLjA1ODU5Mzc1LCJ5IjoyNjl9XQ==" marker-end="url(#my-svg_class-dependencyEnd)"/><path d="M807.258,75.029L817.031,70.858C826.805,66.686,846.352,58.343,864.898,54.172C883.445,50,900.992,50,909.766,50L918.539,50" id="id_EconomicOperator_ClearingNumber_5" class="edge-thickness-normal edge-pattern-solid relation" style=";;;" data-edge="true" data-et="edge" data-id="id_EconomicOperator_ClearingNumber_5" data-points="W3sieCI6ODA3LjI1NzgxMjUsInkiOjc1LjAyOTMzOTMwNTcxMTA5fSx7IngiOjg2NS44OTg0Mzc1LCJ5Ijo1MH0seyJ4Ijo5MjQuNTM5MDYyNSwieSI6NTB9XQ==" marker-end="url(#my-svg_class-dependencyEnd)"/><path d="M807.258,158.971L817.031,163.142C826.805,167.314,846.352,175.657,873.069,179.828C899.786,184,933.674,184,950.618,184L967.563,184" id="id_EconomicOperator_Bic_6" class="edge-thickness-normal edge-pattern-solid relation" style=";;;" data-edge="true" data-et="edge" data-id="id_EconomicOperator_Bic_6" data-points="W3sieCI6ODA3LjI1NzgxMjUsInkiOjE1OC45NzA2NjA2OTQyODg5fSx7IngiOjg2NS44OTg0Mzc1LCJ5IjoxODR9LHsieCI6OTczLjU2MjUsInkiOjE4NH1d" marker-end="url(#my-svg_class-dependencyEnd)"/></g><g class="edgeLabels"><g class="edgeLabel"><g class="label" data-id="id_CredentialSubject_BankAccount_1" transform="translate(0, 0)"><foreignObject width="0" height="0"><div xmlns="http://www.w3.org/1999/xhtml" class="labelBkg" style="display: table-cell; white-space: nowrap; line-height: 1.5; max-width: 200px; text-align: center;"><span class="edgeLabel"></span></div></foreignObject></g></g><g class="edgeLabel" transform="translate(554.02108, 95.6098)"><g class="label" data-id="id_BankAccount_EconomicOperator_2" transform="translate(-22.09375, -12)"><foreignObject width="44.1875" height="24"><div xmlns="http://www.w3.org/1999/xhtml" class="labelBkg" style="display: table-cell; white-space: nowrap; line-height: 1.5; max-width: 200px; text-align: center;"><span class="edgeLabel"><p>owner</p></span></div></foreignObject></g></g><g class="edgeLabel" transform="translate(555.6015625, 171)"><g class="label" data-id="id_BankAccount_EconomicOperator_3" transform="translate(-29.9921875, -12)"><foreignObject width="59.984375" height="24"><div xmlns="http://www.w3.org/1999/xhtml" class="labelBkg" style="display: table-cell; white-space: nowrap; line-height: 1.5; max-width: 200px; text-align: center;"><span class="edgeLabel"><p>provider</p></span></div></foreignObject></g></g><g class="edgeLabel" transform="translate(555.6015625, 269)"><g class="label" data-id="id_BankAccount_Iban_4" transform="translate(-15.3125, -12)"><foreignObject width="30.625" height="24"><div xmlns="http://www.w3.org/1999/xhtml" class="labelBkg" style="display: table-cell; white-space: nowrap; line-height: 1.5; max-width: 200px; text-align: center;"><span class="edgeLabel"><p>iban</p></span></div></foreignObject></g></g><g class="edgeLabel" transform="translate(865.8984375, 50)"><g class="label" data-id="id_EconomicOperator_ClearingNumber_5" transform="translate(-33.640625, -12)"><foreignObject width="67.28125" height="24"><div xmlns="http://www.w3.org/1999/xhtml" class="labelBkg" style="display: table-cell; white-space: nowrap; line-height: 1.5; max-width: 200px; text-align: center;"><span class="edgeLabel"><p>identifier</p></span></div></foreignObject></g></g><g class="edgeLabel" transform="translate(865.8984375, 184)"><g class="label" data-id="id_EconomicOperator_Bic_6" transform="translate(-33.640625, -12)"><foreignObject width="67.28125" height="24"><div xmlns="http://www.w3.org/1999/xhtml" class="labelBkg" style="display: table-cell; white-space: nowrap; line-height: 1.5; max-width: 200px; text-align: center;"><span class="edgeLabel"><p>identifier</p></span></div></foreignObject></g></g></g><g class="nodes"><g class="node default" id="classId-BankAccount-0" transform="translate(358.625, 171)"><g class="basic label-container"><path d="M-141.984375 -120 L141.984375 -120 L141.984375 120 L-141.984375 120" stroke="none" stroke-width="0" fill="#ECECFF" style=""/><path d="M-141.984375 -120 C-51.19252712061075 -120, 39.599320758778504 -120, 141.984375 -120 M-141.984375 -120 C-55.35768398296585 -120, 31.269007034068295 -120, 141.984375 -120 M141.984375 -120 C141.984375 -35.965324786473516, 141.984375 48.06935042705297, 141.984375 120 M141.984375 -120 C141.984375 -69.26686350044196, 141.984375 -18.533727000883914, 141.984375 120 M141.984375 120 C71.68440169168848 120, 1.3844283833769566 120, -141.984375 120 M141.984375 120 C65.32364290132564 120, -11.337089197348718 120, -141.984375 120 M-141.984375 120 C-141.984375 25.775751107003572, -141.984375 -68.44849778599286, -141.984375 -120 M-141.984375 120 C-141.984375 55.56463275223069, -141.984375 -8.870734495538613, -141.984375 -120" stroke="#9370DB" stroke-width="1.3" fill="none" stroke-dasharray="0 0" style=""/></g><g class="annotation-group text" transform="translate(-24.0234375, -96)"><g class="label" style="" transform="translate(0,-12)"><foreignObject width="48.046875" height="24"><div xmlns="http://www.w3.org/1999/xhtml" style="display: table-cell; white-space: nowrap; line-height: 1.5; max-width: 102px; text-align: center;"><span class="nodeLabel markdown-node-label" style=""><p>«EBW»</p></span></div></foreignObject></g></g><g class="label-group text" transform="translate(-48.53125, -72)"><g class="label" style="font-weight: bolder" transform="translate(0,-12)"><foreignObject width="97.0625" height="24"><div xmlns="http://www.w3.org/1999/xhtml" style="display: table-cell; white-space: nowrap; line-height: 1.5; max-width: 138px; text-align: center;"><span class="nodeLabel markdown-node-label" style=""><p>BankAccount</p></span></div></foreignObject></g></g><g class="members-group text" transform="translate(-129.984375, -24)"><g class="label" style="" transform="translate(0,-12)"><foreignObject width="156.75" height="24"><div xmlns="http://www.w3.org/1999/xhtml" style="display: table-cell; white-space: nowrap; line-height: 1.5; max-width: 196px; text-align: center;"><span class="nodeLabel markdown-node-label" style=""><p>+accountName: string</p></span></div></foreignObject></g><g class="label" style="" transform="translate(0,12)"><foreignObject width="149.109375" height="24"><div xmlns="http://www.w3.org/1999/xhtml" style="display: table-cell; white-space: nowrap; line-height: 1.5; max-width: 190px; text-align: center;"><span class="nodeLabel markdown-node-label" style=""><p>+accountType: string</p></span></div></foreignObject></g><g class="label" style="" transform="translate(0,36)"><foreignObject width="80.234375" height="24"><div xmlns="http://www.w3.org/1999/xhtml" style="display: table-cell; white-space: nowrap; line-height: 1.5; max-width: 128px; text-align: center;"><span class="nodeLabel markdown-node-label" style=""><p>+iban: Iban</p></span></div></foreignObject></g><g class="label" style="" transform="translate(0,60)"><foreignObject width="195.640625" height="24"><div xmlns="http://www.w3.org/1999/xhtml" style="display: table-cell; white-space: nowrap; line-height: 1.5; max-width: 234px; text-align: center;"><span class="nodeLabel markdown-node-label" style=""><p>+owner: EconomicOperator</p></span></div></foreignObject></g><g class="label" style="" transform="translate(0,84)"><foreignObject width="211.4375" height="24"><div xmlns="http://www.w3.org/1999/xhtml" style="display: table-cell; white-space: nowrap; line-height: 1.5; max-width: 248px; text-align: center;"><span class="nodeLabel markdown-node-label" style=""><p>+provider: EconomicOperator</p></span></div></foreignObject></g></g><g class="methods-group text" transform="translate(-129.984375, 120)"/><g class="divider" style=""><path d="M-141.984375 -48 C-41.7474966499569 -48, 58.4893817000862 -48, 141.984375 -48 M-141.984375 -48 C-47.013568743816606 -48, 47.95723751236679 -48, 141.984375 -48" stroke="#9370DB" stroke-width="1.3" fill="none" stroke-dasharray="0 0" style=""/></g><g class="divider" style=""><path d="M-141.984375 96 C-30.063662381532495 96, 81.85705023693501 96, 141.984375 96 M-141.984375 96 C-47.789063284935665 96, 46.40624843012867 96, 141.984375 96" stroke="#9370DB" stroke-width="1.3" fill="none" stroke-dasharray="0 0" style=""/></g></g><g class="node default" id="classId-EconomicOperator-1" transform="translate(708.92578125, 117)"><g class="basic label-container"><path d="M-98.33203125 -60 L98.33203125 -60 L98.33203125 60 L-98.33203125 60" stroke="none" stroke-width="0" fill="#ECECFF" style=""/><path d="M-98.33203125 -60 C-35.79710053279486 -60, 26.737830184410285 -60, 98.33203125 -60 M-98.33203125 -60 C-46.29680605873643 -60, 5.738419132527142 -60, 98.33203125 -60 M98.33203125 -60 C98.33203125 -18.92277766337822, 98.33203125 22.15444467324356, 98.33203125 60 M98.33203125 -60 C98.33203125 -30.840543572314786, 98.33203125 -1.681087144629572, 98.33203125 60 M98.33203125 60 C49.48530596620483 60, 0.6385806824096534 60, -98.33203125 60 M98.33203125 60 C41.78474056497238 60, -14.762550120055238 60, -98.33203125 60 M-98.33203125 60 C-98.33203125 22.375331293589618, -98.33203125 -15.249337412820765, -98.33203125 -60 M-98.33203125 60 C-98.33203125 34.47644928569754, -98.33203125 8.952898571395082, -98.33203125 -60" stroke="#9370DB" stroke-width="1.3" fill="none" stroke-dasharray="0 0" style=""/></g><g class="annotation-group text" transform="translate(0, -36)"/><g class="label-group text" transform="translate(-69.2109375, -36)"><g class="label" style="font-weight: bolder" transform="translate(0,-12)"><foreignObject width="138.421875" height="24"><div xmlns="http://www.w3.org/1999/xhtml" style="display: table-cell; white-space: nowrap; line-height: 1.5; max-width: 172px; text-align: center;"><span class="nodeLabel markdown-node-label" style=""><p>EconomicOperator</p></span></div></foreignObject></g></g><g class="members-group text" transform="translate(-86.33203125, 12)"><g class="label" style="" transform="translate(0,-12)"><foreignObject width="103.453125" height="24"><div xmlns="http://www.w3.org/1999/xhtml" style="display: table-cell; white-space: nowrap; line-height: 1.5; max-width: 142px; text-align: center;"><span class="nodeLabel markdown-node-label" style=""><p>identifier: List</p></span></div></foreignObject></g></g><g class="methods-group text" transform="translate(-86.33203125, 60)"/><g class="divider" style=""><path d="M-98.33203125 -12 C-22.96534582936806 -12, 52.40133959126388 -12, 98.33203125 -12 M-98.33203125 -12 C-54.5250462733137 -12, -10.718061296627397 -12, 98.33203125 -12" stroke="#9370DB" stroke-width="1.3" fill="none" stroke-dasharray="0 0" style=""/></g><g class="divider" style=""><path d="M-98.33203125 36 C-53.625670811765175 36, -8.919310373530351 36, 98.33203125 36 M-98.33203125 36 C-39.33916216896066 36, 19.653706912078675 36, 98.33203125 36" stroke="#9370DB" stroke-width="1.3" fill="none" stroke-dasharray="0 0" style=""/></g></g><g class="node default" id="classId-Bic-2" transform="translate(996.8046875, 184)"><g class="basic label-container"><path d="M-23.2421875 -42 L23.2421875 -42 L23.2421875 42 L-23.2421875 42" stroke="none" stroke-width="0" fill="#ECECFF" style=""/><path d="M-23.2421875 -42 C-13.573536711722644 -42, -3.9048859234452884 -42, 23.2421875 -42 M-23.2421875 -42 C-12.173967394095941 -42, -1.105747288191882 -42, 23.2421875 -42 M23.2421875 -42 C23.2421875 -9.007019188650254, 23.2421875 23.98596162269949, 23.2421875 42 M23.2421875 -42 C23.2421875 -22.39164997874029, 23.2421875 -2.7832999574805797, 23.2421875 42 M23.2421875 42 C7.381097461246778 42, -8.479992577506444 42, -23.2421875 42 M23.2421875 42 C7.1200821058061905 42, -9.002023288387619 42, -23.2421875 42 M-23.2421875 42 C-23.2421875 11.132371218415582, -23.2421875 -19.735257563168837, -23.2421875 -42 M-23.2421875 42 C-23.2421875 17.908440735194368, -23.2421875 -6.183118529611264, -23.2421875 -42" stroke="#9370DB" stroke-width="1.3" fill="none" stroke-dasharray="0 0" style=""/></g><g class="annotation-group text" transform="translate(0, -18)"/><g class="label-group text" transform="translate(-11.2421875, -18)"><g class="label" style="font-weight: bolder" transform="translate(0,-12)"><foreignObject width="22.484375" height="24"><div xmlns="http://www.w3.org/1999/xhtml" style="display: table-cell; white-space: nowrap; line-height: 1.5; max-width: 72px; text-align: center;"><span class="nodeLabel markdown-node-label" style=""><p>Bic</p></span></div></foreignObject></g></g><g class="members-group text" transform="translate(-11.2421875, 30)"/><g class="methods-group text" transform="translate(-11.2421875, 60)"/><g class="divider" style=""><path d="M-23.2421875 6 C-12.152133451254933 6, -1.062079402509866 6, 23.2421875 6 M-23.2421875 6 C-6.108766339165971 6, 11.024654821668058 6, 23.2421875 6" stroke="#9370DB" stroke-width="1.3" fill="none" stroke-dasharray="0 0" style=""/></g><g class="divider" style=""><path d="M-23.2421875 24 C-9.466295855627889 24, 4.309595788744222 24, 23.2421875 24 M-23.2421875 24 C-8.914118858802349 24, 5.413949782395303 24, 23.2421875 24" stroke="#9370DB" stroke-width="1.3" fill="none" stroke-dasharray="0 0" style=""/></g></g><g class="node default" id="classId-Iban-3" transform="translate(708.92578125, 269)"><g class="basic label-container"><path d="M-27.8671875 -42 L27.8671875 -42 L27.8671875 42 L-27.8671875 42" stroke="none" stroke-width="0" fill="#ECECFF" style=""/><path d="M-27.8671875 -42 C-7.70625802859842 -42, 12.45467144280316 -42, 27.8671875 -42 M-27.8671875 -42 C-5.615037435841842 -42, 16.637112628316316 -42, 27.8671875 -42 M27.8671875 -42 C27.8671875 -21.64091049332118, 27.8671875 -1.2818209866423587, 27.8671875 42 M27.8671875 -42 C27.8671875 -17.899679640756013, 27.8671875 6.200640718487975, 27.8671875 42 M27.8671875 42 C15.480024534464896 42, 3.0928615689297914 42, -27.8671875 42 M27.8671875 42 C14.090392240795502 42, 0.31359698159100446 42, -27.8671875 42 M-27.8671875 42 C-27.8671875 15.047746032284756, -27.8671875 -11.904507935430487, -27.8671875 -42 M-27.8671875 42 C-27.8671875 17.176759365666737, -27.8671875 -7.646481268666527, -27.8671875 -42" stroke="#9370DB" stroke-width="1.3" fill="none" stroke-dasharray="0 0" style=""/></g><g class="annotation-group text" transform="translate(0, -18)"/><g class="label-group text" transform="translate(-15.8671875, -18)"><g class="label" style="font-weight: bolder" transform="translate(0,-12)"><foreignObject width="31.734375" height="24"><div xmlns="http://www.w3.org/1999/xhtml" style="display: table-cell; white-space: nowrap; line-height: 1.5; max-width: 78px; text-align: center;"><span class="nodeLabel markdown-node-label" style=""><p>Iban</p></span></div></foreignObject></g></g><g class="members-group text" transform="translate(-15.8671875, 30)"/><g class="methods-group text" transform="translate(-15.8671875, 60)"/><g class="divider" style=""><path d="M-27.8671875 6 C-11.70509521177092 6, 4.456997076458158 6, 27.8671875 6 M-27.8671875 6 C-6.536802276380861 6, 14.793582947238278 6, 27.8671875 6" stroke="#9370DB" stroke-width="1.3" fill="none" stroke-dasharray="0 0" style=""/></g><g class="divider" style=""><path d="M-27.8671875 24 C-9.60562790733459 24, 8.65593168533082 24, 27.8671875 24 M-27.8671875 24 C-7.869619744832018 24, 12.127948010335963 24, 27.8671875 24" stroke="#9370DB" stroke-width="1.3" fill="none" stroke-dasharray="0 0" style=""/></g></g><g class="node default" id="classId-ClearingNumber-4" transform="translate(996.8046875, 50)"><g class="basic label-container"><path d="M-72.265625 -42 L72.265625 -42 L72.265625 42 L-72.265625 42" stroke="none" stroke-width="0" fill="#ECECFF" style=""/><path d="M-72.265625 -42 C-31.685752771946262 -42, 8.894119456107475 -42, 72.265625 -42 M-72.265625 -42 C-36.80148498728838 -42, -1.3373449745767658 -42, 72.265625 -42 M72.265625 -42 C72.265625 -13.368999270447326, 72.265625 15.262001459105349, 72.265625 42 M72.265625 -42 C72.265625 -9.505633779945363, 72.265625 22.988732440109274, 72.265625 42 M72.265625 42 C17.099248230492606 42, -38.06712853901479 42, -72.265625 42 M72.265625 42 C16.366563704720214 42, -39.53249759055957 42, -72.265625 42 M-72.265625 42 C-72.265625 8.577440891801956, -72.265625 -24.845118216396088, -72.265625 -42 M-72.265625 42 C-72.265625 20.347156270151963, -72.265625 -1.305687459696074, -72.265625 -42" stroke="#9370DB" stroke-width="1.3" fill="none" stroke-dasharray="0 0" style=""/></g><g class="annotation-group text" transform="translate(0, -18)"/><g class="label-group text" transform="translate(-60.265625, -18)"><g class="label" style="font-weight: bolder" transform="translate(0,-12)"><foreignObject width="120.53125" height="24"><div xmlns="http://www.w3.org/1999/xhtml" style="display: table-cell; white-space: nowrap; line-height: 1.5; max-width: 158px; text-align: center;"><span class="nodeLabel markdown-node-label" style=""><p>ClearingNumber</p></span></div></foreignObject></g></g><g class="members-group text" transform="translate(-60.265625, 30)"/><g class="methods-group text" transform="translate(-60.265625, 60)"/><g class="divider" style=""><path d="M-72.265625 6 C-39.74495100100498 6, -7.224277002009956 6, 72.265625 6 M-72.265625 6 C-18.94104291833144 6, 34.38353916333712 6, 72.265625 6" stroke="#9370DB" stroke-width="1.3" fill="none" stroke-dasharray="0 0" style=""/></g><g class="divider" style=""><path d="M-72.265625 24 C-29.356382345501828 24, 13.552860308996344 24, 72.265625 24 M-72.265625 24 C-31.687528341470866 24, 8.890568317058268 24, 72.265625 24" stroke="#9370DB" stroke-width="1.3" fill="none" stroke-dasharray="0 0" style=""/></g></g><g class="node default" id="classId-CredentialSubject-5" transform="translate(87.3203125, 171)"><g class="basic label-container"><path d="M-79.3203125 -54 L79.3203125 -54 L79.3203125 54 L-79.3203125 54" stroke="none" stroke-width="0" fill="#ECECFF" style=""/><path d="M-79.3203125 -54 C-32.65963256401307 -54, 14.001047371973854 -54, 79.3203125 -54 M-79.3203125 -54 C-44.05031278578729 -54, -8.780313071574582 -54, 79.3203125 -54 M79.3203125 -54 C79.3203125 -32.002308272160946, 79.3203125 -10.004616544321884, 79.3203125 54 M79.3203125 -54 C79.3203125 -30.58912777627068, 79.3203125 -7.1782555525413585, 79.3203125 54 M79.3203125 54 C25.513815627647254 54, -28.29268124470549 54, -79.3203125 54 M79.3203125 54 C29.776737005653402 54, -19.766838488693196 54, -79.3203125 54 M-79.3203125 54 C-79.3203125 24.200185250060642, -79.3203125 -5.599629499878716, -79.3203125 -54 M-79.3203125 54 C-79.3203125 26.29421276682066, -79.3203125 -1.4115744663586796, -79.3203125 -54" stroke="#9370DB" stroke-width="1.3" fill="none" stroke-dasharray="0 0" style=""/></g><g class="annotation-group text" transform="translate(-38.34375, -30)"><g class="label" style="" transform="translate(0,-12)"><foreignObject width="76.6875" height="24"><div xmlns="http://www.w3.org/1999/xhtml" style="display: table-cell; white-space: nowrap; line-height: 1.5; max-width: 118px; text-align: center;"><span class="nodeLabel markdown-node-label" style=""><p>«external»</p></span></div></foreignObject></g></g><g class="label-group text" transform="translate(-67.3203125, -6)"><g class="label" style="font-weight: bolder" transform="translate(0,-12)"><foreignObject width="134.640625" height="24"><div xmlns="http://www.w3.org/1999/xhtml" style="display: table-cell; white-space: nowrap; line-height: 1.5; max-width: 165px; text-align: center;"><span class="nodeLabel markdown-node-label" style=""><p>CredentialSubject</p></span></div></foreignObject></g></g><g class="members-group text" transform="translate(-67.3203125, 42)"/><g class="methods-group text" transform="translate(-67.3203125, 72)"/><g class="divider" style=""><path d="M-79.3203125 18 C-16.161439120115126 18, 46.99743425976975 18, 79.3203125 18 M-79.3203125 18 C-24.187679790135725 18, 30.94495291972855 18, 79.3203125 18" stroke="#9370DB" stroke-width="1.3" fill="none" stroke-dasharray="0 0" style=""/></g><g class="divider" style=""><path d="M-79.3203125 36 C-17.566665826110246 36, 44.18698084777951 36, 79.3203125 36 M-79.3203125 36 C-36.63653061923784 36, 6.047251261524323 36, 79.3203125 36" stroke="#9370DB" stroke-width="1.3" fill="none" stroke-dasharray="0 0" style=""/></g></g></g></g></g></svg>