<svg id="my-svg" width="100%" xmlns="http://www.w3.org/2000/svg" xmlns:xlink="http://www.w3.org/1999/xlink" class="classDiagram" style="max-width: 771.727px; background-color: white;" viewBox="0 0 771.7265625 318" role="graphics-document document" aria-roledescription="class"><style>#my-svg{font-family:"trebuchet ms",verdana,arial,sans-serif;font-size:16px;fill:#333;}@keyframes edge-animation-frame{from{stroke-dashoffset:0;}}@keyframes dash{to{stroke-dashoffset:0;}}#my-svg .edge-animation-slow{stroke-dasharray:9,5!important;stroke-dashoffset:900;animation:dash 50s linear infinite;stroke-linecap:round;}#my-svg .edge-animation-fast{stroke-dasharray:9,5!important;stroke-dashoffset:900;animation:dash 20s linear infinite;stroke-linecap:round;}#my-svg .error-icon{fill:#552222;}#my-svg .error-text{fill:#552222;stroke:#552222;}#my-svg .edge-thickness-normal{stroke-width:1px;}#my-svg .edge-thickness-thick{stroke-width:3.5px;}#my-svg .edge-pattern-solid{stroke-dasharray:0;}#my-svg .edge-thickness-invisible{stroke-width:0;fill:none;}#my-svg .edge-pattern-dashed{stroke-dasharray:3;}#my-svg .edge-pattern-dotted{stroke-dasharray:2;}#my-svg .marker{fill:#333333;stroke:#333333;}#my-svg .marker.cross{stroke:#333333;}#my-svg svg{font-family:"trebuchet ms",verdana,arial,sans-serif;font-size:16px;}#my-svg p{margin:0;}#my-svg g.classGroup text{fill:#9370DB;stroke:none;font-family:"trebuchet ms",verdana,arial,sans-serif;font-size:10px;}#my-svg g.classGroup text .title{font-weight:bolder;}#my-svg .cluster-label text{fill:#333;}#my-svg .cluster-label span{color:#333;}#my-svg .cluster-label span p{background-color:transparent;}#my-svg .cluster rect{fill:#ffffde;stroke:#aaaa33;stroke-width:1px;}#my-svg .cluster text{fill:#333;}#my-svg .cluster span{color:#333;}#my-svg .nodeLabel,#my-svg .edgeLabel{color:#131300;}#my-svg .noteLabel .nodeLabel,#my-svg .noteLabel .edgeLabel{color:black;}#my-svg .edgeLabel .label rect{fill:#ECECFF;}#my-svg .label text{fill:#131300;}#my-svg .labelBkg{background:#ECECFF;}#my-svg .edgeLabel .label span{background:#ECECFF;}#my-svg .classTitle{font-weight:bolder;}#my-svg .node rect,#my-svg .node circle,#my-svg .node ellipse,#my-svg .node polygon,#my-svg .node path{fill:#ECECFF;stroke:#9370DB;stroke-width:1;}#my-svg .divider{stroke:#9370DB;stroke-width:1;}#my-svg g.clickable{cursor:pointer;}#my-svg g.classGroup rect{fill:#ECECFF;stroke:#9370DB;}#my-svg g.classGroup line{stroke:#9370DB;stroke-width:1;}#my-svg .classLabel .box{stroke:none;stroke-width:0;fill:#ECECFF;opacity:0.5;}#my-svg .classLabel .label{fill:#9370DB;font-size:10px;}#my-svg .relation{stroke:#333333;stroke-width:1;fill:none;}#my-svg .dashed-line{stroke-dasharray:3;}#my-svg .dotted-line{stroke-dasharray:1 2;}#my-svg [id$="-compositionStart"],#my-svg .composition{fill:#333333!important;stroke:#333333!important;stroke-width:1;}#my-svg [id$="-compositionEnd"],#my-svg .composition{fill:#333333!important;stroke:#333333!important;stroke-width:1;}#my-svg [id$="-dependencyStart"],#my-svg .dependency{fill:#333333!important;stroke:#333333!important;stroke-width:1;}#my-svg [id$="-dependencyEnd"],#my-svg .dependency{fill:#333333!important;stroke:#333333!important;stroke-width:1;}#my-svg [id$="-extensionStart"],#my-svg .extension{fill:transparent!important;stroke:#333333!important;stroke-width:1;}#my-svg [id$="-extensionEnd"],#my-svg .extension{fill:transparent!important;stroke:#333333!important;stroke-width:1;}#my-svg [id$="-aggregationStart"],#my-svg .aggregation{fill:transparent!important;stroke:#333333!important;stroke-width:1;}#my-svg [id$="-aggregationEnd"],#my-svg .aggregation{fill:transparent!important;stroke:#333333!important;stroke-width:1;}#my-svg [id$="-lollipopStart"],#my-svg .lollipop{fill:#ECECFF!important;stroke:#333333!important;stroke-width:1;}#my-svg [id$="-lollipopEnd"],#my-svg .lollipop{fill:#ECECFF!important;stroke:#333333!important;stroke-width:1;}#my-svg .edgeTerminals{font-size:11px;line-height:initial;}#my-svg .classTitleText{text-anchor:middle;font-size:18px;fill:#333;}#my-svg .edgeLabel[data-look="neo"]{background-color:rgba(232,232,232, 0.8);text-align:center;}#my-svg .edgeLabel[data-look="neo"] p{background-color:rgba(232,232,232, 0.8);}#my-svg .edgeLabel[data-look="neo"] rect{opacity:0.5;background-color:rgba(232,232,232, 0.8);fill:rgba(232,232,232, 0.8);}#my-svg .label-icon{display:inline-block;height:1em;overflow:visible;vertical-align:-0.125em;}#my-svg .node .label-icon path{fill:currentColor;stroke:revert;stroke-width:revert;}#my-svg .node .neo-node{stroke:#9370DB;}#my-svg [data-look="neo"].node rect,#my-svg [data-look="neo"].cluster rect,#my-svg [data-look="neo"].node polygon{stroke:#9370DB;filter:drop-shadow(1px 2px 2px rgba(185, 185, 185, 1));}#my-svg [data-look="neo"].node path{stroke:#9370DB;stroke-width:1px;}#my-svg [data-look="neo"].node .outer-path{filter:drop-shadow(1px 2px 2px rgba(185, 185, 185, 1));}#my-svg [data-look="neo"].node .neo-line path{stroke:#9370DB;filter:none;}#my-svg [data-look="neo"].node circle{stroke:#9370DB;filter:drop-shadow(1px 2px 2px rgba(185, 185, 185, 1));}#my-svg [data-look="neo"].node circle .state-start{fill:#000000;}#my-svg [data-look="neo"].icon-shape .icon{fill:#9370DB;filter:drop-shadow(1px 2px 2px rgba(185, 185, 185, 1));}#my-svg [data-look="neo"].icon-shape .icon-neo path{stroke:#9370DB;filter:drop-shadow(1px 2px 2px rgba(185, 185, 185, 1));}#my-svg :root{--mermaid-font-family:"trebuchet ms",verdana,arial,sans-serif;}</style><g><defs><marker id="my-svg_class-aggregationStart" class="marker aggregation class" refX="18" refY="7" markerWidth="190" markerHeight="240" orient="auto"><path d="M 18,7 L9,13 L1,7 L9,1 Z"/></marker></defs><defs><marker id="my-svg_class-aggregationEnd" class="marker aggregation class" refX="1" refY="7" markerWidth="20" markerHeight="28" orient="auto"><path d="M 18,7 L9,13 L1,7 L9,1 Z"/></marker></defs><defs><marker id="my-svg_class-aggregationStart-margin" class="marker aggregation class" refX="15" refY="7" markerWidth="190" markerHeight="240" orient="auto" markerUnits="userSpaceOnUse"><path d="M 18,7 L9,13 L1,7 L9,1 Z" style="stroke-width: 2;"/></marker></defs><defs><marker id="my-svg_class-aggregationEnd-margin" class="marker aggregation class" refX="1" refY="7" markerWidth="20" markerHeight="28" orient="auto" markerUnits="userSpaceOnUse"><path d="M 18,7 L9,13 L1,7 L9,1 Z" style="stroke-width: 2;"/></marker></defs><defs><marker id="my-svg_class-extensionStart" class="marker extension class" refX="18" refY="7" markerWidth="20" markerHeight="28" orient="auto" markerUnits="userSpaceOnUse"><path d="M 1,7 L18,13 V 1 Z"/></marker></defs><defs><marker id="my-svg_class-extensionEnd" class="marker extension class" refX="1" refY="7" markerWidth="20" markerHeight="28" orient="auto"><path d="M 1,1 V 13 L18,7 Z"/></marker></defs><marker id="my-svg_class-extensionStart-margin" class="marker extension class" refX="18" refY="7" markerWidth="20" markerHeight="28" orient="auto" markerUnits="userSpaceOnUse" viewBox="0 0 20 14"><polygon points="10,7 18,13 18,1" style="stroke-width: 2; stroke-dasharray: 0;"/></marker><defs><marker id="my-svg_class-extensionEnd-margin" class="marker extension class" refX="9" refY="7" markerWidth="20" markerHeight="28" orient="auto" markerUnits="userSpaceOnUse" viewBox="0 0 20 14"><polygon points="10,1 10,13 18,7" style="stroke-width: 2; stroke-dasharray: 0;"/></marker></defs><defs><marker id="my-svg_class-compositionStart" class="marker composition class" refX="18" refY="7" markerWidth="190" markerHeight="240" orient="auto"><path d="M 18,7 L9,13 L1,7 L9,1 Z"/></marker></defs><defs><marker id="my-svg_class-compositionEnd" class="marker composition class" refX="1" refY="7" markerWidth="20" markerHeight="28" orient="auto"><path d="M 18,7 L9,13 L1,7 L9,1 Z"/></marker></defs><defs><marker id="my-svg_class-compositionStart-margin" class="marker composition class" refX="15" refY="7" markerWidth="190" markerHeight="240" orient="auto" markerUnits="userSpaceOnUse"><path viewBox="0 0 15 15" d="M 18,7 L9,13 L1,7 L9,1 Z" style="stroke-width: 0;"/></marker></defs><defs><marker id="my-svg_class-compositionEnd-margin" class="marker composition class" refX="3.5" refY="7" markerWidth="20" markerHeight="28" orient="auto" markerUnits="userSpaceOnUse"><path d="M 18,7 L9,13 L1,7 L9,1 Z" style="stroke-width: 0;"/></marker></defs><defs><marker id="my-svg_class-dependencyStart" class="marker dependency class" refX="6" refY="7" markerWidth="190" markerHeight="240" orient="auto"><path d="M 5,7 L9,13 L1,7 L9,1 Z"/></marker></defs><defs><marker id="my-svg_class-dependencyEnd" class="marker dependency class" refX="13" refY="7" markerWidth="20" markerHeight="28" orient="auto"><path d="M 18,7 L9,13 L14,7 L9,1 Z"/></marker></defs><defs><marker id="my-svg_class-dependencyStart-margin" class="marker dependency class" refX="4" refY="7" markerWidth="190" markerHeight="240" orient="auto" markerUnits="userSpaceOnUse"><path d="M 5,7 L9,13 L1,7 L9,1 Z" style="stroke-width: 0;"/></marker></defs><defs><marker id="my-svg_class-dependencyEnd-margin" class="marker dependency class" refX="16" refY="7" markerWidth="20" markerHeight="28" orient="auto" markerUnits="userSpaceOnUse"><path d="M 18,7 L9,13 L14,7 L9,1 Z" style="stroke-width: 0;"/></marker></defs><defs><marker id="my-svg_class-lollipopStart" class="marker lollipop class" refX="13" refY="7" markerWidth="190" markerHeight="240" orient="auto"><circle fill="transparent" cx="7" cy="7" r="6"/></marker></defs><defs><marker id="my-svg_class-lollipopEnd" class="marker lollipop class" refX="1" refY="7" markerWidth="190" markerHeight="240" orient="auto"><circle fill="transparent" cx="7" cy="7" r="6"/></marker></defs><defs><marker id="my-svg_class-lollipopStart-margin" class="marker lollipop class" refX="13" refY="7" markerWidth="190" markerHeight="240" orient="auto" markerUnits="userSpaceOnUse"><circle fill="transparent" cx="7" cy="7" r="6" stroke-width="2"/></marker></defs><defs><marker id="my-svg_class-lollipopEnd-margin" class="marker lollipop class" refX="1" refY="7" markerWidth="190" markerHeight="240" orient="auto" markerUnits="userSpaceOnUse"><circle fill="transparent" cx="7" cy="7" r="6" stroke-width="2"/></marker></defs><g class="root"><g class="clusters"/><g class="edgePaths"><path d="M177.628,103.355L182.591,99.462C187.554,95.57,197.48,87.785,206.61,83.892C215.74,80,224.073,80,228.24,80L232.406,80" id="my-svg-id_VerifiableCredential_ElectronicAttestationOfAttributes_1" class="edge-thickness-normal edge-pattern-solid relation" style=";;;" data-edge="true" data-et="edge" data-id="id_VerifiableCredential_ElectronicAttestationOfAttributes_1" data-points="W3sieCI6MTY0LjA1NTA0MjYxMzYzNjM3LCJ5IjoxMTR9LHsieCI6MjA3LjQwNjI1LCJ5Ijo4MH0seyJ4IjoyMzIuNDA2MjUsInkiOjgwfV0=" data-look="classic" marker-start="url(#my-svg_class-extensionStart)"/><path d="M177.628,232.645L182.591,236.538C187.554,240.43,197.48,248.215,237.667,252.108C277.853,256,348.299,256,383.523,256L418.746,256" id="my-svg-id_VerifiableCredential_CredentialSubject_2" class="edge-thickness-normal edge-pattern-solid relation" style=";;;" data-edge="true" data-et="edge" data-id="id_VerifiableCredential_CredentialSubject_2" data-points="W3sieCI6MTY0LjA1NTA0MjYxMzYzNjM3LCJ5IjoyMjJ9LHsieCI6MjA3LjQwNjI1LCJ5IjoyNTZ9LHsieCI6NDE4Ljc0NjA5Mzc1LCJ5IjoyNTZ9XQ==" data-look="classic" marker-start="url(#my-svg_class-compositionStart)"/></g><g class="edgeLabels"><g class="edgeLabel"><g class="label" data-id="id_VerifiableCredential_ElectronicAttestationOfAttributes_1" transform="translate(0, 0)"><foreignObject width="0" height="0"><div xmlns="http://www.w3.org/1999/xhtml" class="labelBkg" style="display: table-cell; white-space: nowrap; line-height: 1.5; max-width: 200px; text-align: center;"><span class="edgeLabel"></span></div></foreignObject></g></g><g class="edgeLabel"><g class="label" data-id="id_VerifiableCredential_CredentialSubject_2" transform="translate(0, 0)"><foreignObject width="0" height="0"><div xmlns="http://www.w3.org/1999/xhtml" class="labelBkg" style="display: table-cell; white-space: nowrap; line-height: 1.5; max-width: 200px; text-align: center;"><span class="edgeLabel"></span></div></foreignObject></g></g></g><g class="nodes"><g class="node default" id="my-svg-classId-ElectronicAttestationOfAttributes-0" data-look="classic" transform="translate(498.06640625, 80)"><g class="basic label-container outer-path"><path d="M-265.66015625 -72 L265.66015625 -72 L265.66015625 72 L-265.66015625 72" stroke="none" stroke-width="0" fill="#ECECFF" style=""/><path d="M-265.66015625 -72 C-130.5454091766208 -72, 4.569337896758384 -72, 265.66015625 -72 M-265.66015625 -72 C-136.421742635171 -72, -7.183329020342001 -72, 265.66015625 -72 M265.66015625 -72 C265.66015625 -26.261837770366817, 265.66015625 19.476324459266365, 265.66015625 72 M265.66015625 -72 C265.66015625 -30.53463277296214, 265.66015625 10.930734454075719, 265.66015625 72 M265.66015625 72 C70.51393382373482 72, -124.63228860253037 72, -265.66015625 72 M265.66015625 72 C147.42299560460577 72, 29.18583495921152 72, -265.66015625 72 M-265.66015625 72 C-265.66015625 15.92640938541453, -265.66015625 -40.14718122917094, -265.66015625 -72 M-265.66015625 72 C-265.66015625 15.533315015137156, -265.66015625 -40.93336996972569, -265.66015625 -72" stroke="#9370DB" stroke-width="1.3" fill="none" stroke-dasharray="0 0" style=""/></g><g class="annotation-group text" transform="translate(-24.0234375, -48)"><g class="label" style="" transform="translate(0,-12)"><foreignObject width="48.046875" height="24"><div xmlns="http://www.w3.org/1999/xhtml" style="display: table-cell; white-space: nowrap; line-height: 1.5; max-width: 102px; text-align: center;"><span class="nodeLabel markdown-node-label" style=""><p>«EBW»</p></span></div></foreignObject></g></g><g class="label-group text" transform="translate(-126.0078125, -24)"><g class="label" style="font-weight: bolder" transform="translate(0,-12)"><foreignObject width="252.015625" height="24"><div xmlns="http://www.w3.org/1999/xhtml" style="display: table-cell; white-space: nowrap; line-height: 1.5; max-width: 267px; text-align: center;"><span class="nodeLabel markdown-node-label" style=""><p>ElectronicAttestationOfAttributes</p></span></div></foreignObject></g></g><g class="members-group text" transform="translate(-253.66015625, 24)"><g class="label" style="" transform="translate(0,-12)"><foreignObject width="381.3125" height="24"><div xmlns="http://www.w3.org/1999/xhtml" style="display: table-cell; white-space: nowrap; line-height: 1.5; max-width: 398px; text-align: center;"><span class="nodeLabel markdown-node-label" style=""><p>+attestationLegalCategory: AttestationLegalCategory</p></span></div></foreignObject></g></g><g class="methods-group text" transform="translate(-253.66015625, 72)"/><g class="divider" style=""><path d="M-265.66015625 0 C-62.94630096943456 0.0003815285252821299, 139.76755431113088 0.0007630570505642598, 265.66015625 0.001 M-265.66015625 0 C-123.55869664773877 0.0002674497026730203, 18.54276295452246 0.0005348994053460406, 265.66015625 0.001" stroke="#9370DB" stroke-width="1.3" fill="none" stroke-dasharray="0 0" style=""/></g><g class="divider" style=""><path d="M-265.66015625 48 C-64.19988488476523 48.00037916915018, 137.26038648046955 48.000758338300365, 265.66015625 48.001 M-265.66015625 48 C-82.97224311477856 48.00034383762269, 99.71567002044287 48.00068767524537, 265.66015625 48.001" stroke="#9370DB" stroke-width="1.3" fill="none" stroke-dasharray="0 0" style=""/></g></g><g class="node default" id="my-svg-classId-VerifiableCredential-1" data-look="classic" transform="translate(95.203125, 168)"><g class="basic label-container outer-path"><path d="M-87.203125 -54 L87.203125 -54 L87.203125 54 L-87.203125 54" stroke="none" stroke-width="0" fill="#ECECFF" style=""/><path d="M-87.203125 -54 C-44.95150880364821 -54, -2.6998926072964196 -54, 87.203125 -54 M-87.203125 -54 C-40.6622647576093 -54, 5.8785954847814 -54, 87.203125 -54 M87.203125 -54 C87.203125 -20.04941491106203, 87.203125 13.90117017787594, 87.203125 54 M87.203125 -54 C87.203125 -24.813614736442478, 87.203125 4.372770527115044, 87.203125 54 M87.203125 54 C37.82556672678374 54, -11.551991546432518 54, -87.203125 54 M87.203125 54 C30.823082804173687 54, -25.556959391652626 54, -87.203125 54 M-87.203125 54 C-87.203125 14.185610588338214, -87.203125 -25.62877882332357, -87.203125 -54 M-87.203125 54 C-87.203125 16.867719742260853, -87.203125 -20.264560515478294, -87.203125 -54" stroke="#9370DB" stroke-width="1.3" fill="none" stroke-dasharray="0 0" style=""/></g><g class="annotation-group text" transform="translate(-38.34375, -30)"><g class="label" style="" transform="translate(0,-12)"><foreignObject width="76.6875" height="24"><div xmlns="http://www.w3.org/1999/xhtml" style="display: table-cell; white-space: nowrap; line-height: 1.5; max-width: 118px; text-align: center;"><span class="nodeLabel markdown-node-label" style=""><p>«external»</p></span></div></foreignObject></g></g><g class="label-group text" transform="translate(-75.203125, -6)"><g class="label" style="font-weight: bolder" transform="translate(0,-12)"><foreignObject width="150.40625" height="24"><div xmlns="http://www.w3.org/1999/xhtml" style="display: table-cell; white-space: nowrap; line-height: 1.5; max-width: 179px; text-align: center;"><span class="nodeLabel markdown-node-label" style=""><p>VerifiableCredential</p></span></div></foreignObject></g></g><g class="members-group text" transform="translate(-75.203125, 42)"/><g class="methods-group text" transform="translate(-75.203125, 72)"/><g class="divider" style=""><path d="M-87.203125 18 C-27.3517379732016 18.000343172260322, 32.4996490535968 18.000686344520645, 87.203125 18.001 M-87.203125 18 C-38.73927291349414 18.000277879101734, 9.724579173011719 18.000555758203465, 87.203125 18.001" stroke="#9370DB" stroke-width="1.3" fill="none" stroke-dasharray="0 0" style=""/></g><g class="divider" style=""><path d="M-87.203125 36 C-46.37099503682518 36.00023412079535, -5.538865073650356 36.00046824159069, 87.203125 36.001 M-87.203125 36 C-43.68739644747663 36.000249507850505, -0.1716678949532593 36.00049901570101, 87.203125 36.001" stroke="#9370DB" stroke-width="1.3" fill="none" stroke-dasharray="0 0" style=""/></g></g><g class="node default" id="my-svg-classId-CredentialSubject-2" data-look="classic" transform="translate(498.06640625, 256)"><g class="basic label-container outer-path"><path d="M-79.3203125 -54 L79.3203125 -54 L79.3203125 54 L-79.3203125 54" stroke="none" stroke-width="0" fill="#ECECFF" style=""/><path d="M-79.3203125 -54 C-22.52981241416365 -54, 34.2606876716727 -54, 79.3203125 -54 M-79.3203125 -54 C-17.88614175301626 -54, 43.54802899396748 -54, 79.3203125 -54 M79.3203125 -54 C79.3203125 -20.627815963951498, 79.3203125 12.744368072097004, 79.3203125 54 M79.3203125 -54 C79.3203125 -13.452611875825525, 79.3203125 27.09477624834895, 79.3203125 54 M79.3203125 54 C35.003450592383885 54, -9.31341131523223 54, -79.3203125 54 M79.3203125 54 C34.01417953602689 54, -11.291953427946225 54, -79.3203125 54 M-79.3203125 54 C-79.3203125 21.216082271142376, -79.3203125 -11.567835457715248, -79.3203125 -54 M-79.3203125 54 C-79.3203125 32.31717573830224, -79.3203125 10.634351476604479, -79.3203125 -54" stroke="#9370DB" stroke-width="1.3" fill="none" stroke-dasharray="0 0" style=""/></g><g class="annotation-group text" transform="translate(-38.34375, -30)"><g class="label" style="" transform="translate(0,-12)"><foreignObject width="76.6875" height="24"><div xmlns="http://www.w3.org/1999/xhtml" style="display: table-cell; white-space: nowrap; line-height: 1.5; max-width: 118px; text-align: center;"><span class="nodeLabel markdown-node-label" style=""><p>«external»</p></span></div></foreignObject></g></g><g class="label-group text" transform="translate(-67.3203125, -6)"><g class="label" style="font-weight: bolder" transform="translate(0,-12)"><foreignObject width="134.640625" height="24"><div xmlns="http://www.w3.org/1999/xhtml" style="display: table-cell; white-space: nowrap; line-height: 1.5; max-width: 165px; text-align: center;"><span class="nodeLabel markdown-node-label" style=""><p>CredentialSubject</p></span></div></foreignObject></g></g><g class="members-group text" transform="translate(-67.3203125, 42)"/><g class="methods-group text" transform="translate(-67.3203125, 72)"/><g class="divider" style=""><path d="M-79.3203125 18 C-39.24245133316775 18.000252633026168, 0.8354098336644995 18.000505266052336, 79.3203125 18.001 M-79.3203125 18 C-22.28261023778974 18.00035954032747, 34.75509202442052 18.000719080654935, 79.3203125 18.001" stroke="#9370DB" stroke-width="1.3" fill="none" stroke-dasharray="0 0" style=""/></g><g class="divider" style=""><path d="M-79.3203125 36 C-44.86990772287845 36.000217160041935, -10.419502945756904 36.00043432008386, 79.3203125 36.001 M-79.3203125 36 C-27.566652200783565 36.00032623207517, 24.18700809843287 36.00065246415033, 79.3203125 36.001" stroke="#9370DB" stroke-width="1.3" fill="none" stroke-dasharray="0 0" style=""/></g></g></g></g></g><defs><filter id="my-svg-drop-shadow" height="130%" width="130%"><feDropShadow dx="4" dy="4" stdDeviation="0" flood-opacity="0.06" flood-color="#000000"/></filter></defs><defs><filter id="my-svg-drop-shadow-small" height="150%" width="150%"><feDropShadow dx="2" dy="2" stdDeviation="0" flood-opacity="0.06" flood-color="#000000"/></filter></defs></svg>