<svg id="my-svg" width="100%" xmlns="http://www.w3.org/2000/svg" xmlns:xlink="http://www.w3.org/1999/xlink" class="classDiagram" style="max-width: 694.125px; background-color: white;" viewBox="0 0 694.125 280" role="graphics-document document" aria-roledescription="class"><style>#my-svg{font-family:"trebuchet ms",verdana,arial,sans-serif;font-size:16px;fill:#333;}@keyframes edge-animation-frame{from{stroke-dashoffset:0;}}@keyframes dash{to{stroke-dashoffset:0;}}#my-svg .edge-animation-slow{stroke-dasharray:9,5!important;stroke-dashoffset:900;animation:dash 50s linear infinite;stroke-linecap:round;}#my-svg .edge-animation-fast{stroke-dasharray:9,5!important;stroke-dashoffset:900;animation:dash 20s linear infinite;stroke-linecap:round;}#my-svg .error-icon{fill:#552222;}#my-svg .error-text{fill:#552222;stroke:#552222;}#my-svg .edge-thickness-normal{stroke-width:1px;}#my-svg .edge-thickness-thick{stroke-width:3.5px;}#my-svg .edge-pattern-solid{stroke-dasharray:0;}#my-svg .edge-thickness-invisible{stroke-width:0;fill:none;}#my-svg .edge-pattern-dashed{stroke-dasharray:3;}#my-svg .edge-pattern-dotted{stroke-dasharray:2;}#my-svg .marker{fill:#333333;stroke:#333333;}#my-svg .marker.cross{stroke:#333333;}#my-svg svg{font-family:"trebuchet ms",verdana,arial,sans-serif;font-size:16px;}#my-svg p{margin:0;}#my-svg g.classGroup text{fill:#9370DB;stroke:none;font-family:"trebuchet ms",verdana,arial,sans-serif;font-size:10px;}#my-svg g.classGroup text .title{font-weight:bolder;}#my-svg .cluster-label text{fill:#333;}#my-svg .cluster-label span{color:#333;}#my-svg .cluster-label span p{background-color:transparent;}#my-svg .cluster rect{fill:#ffffde;stroke:#aaaa33;stroke-width:1px;}#my-svg .cluster text{fill:#333;}#my-svg .cluster span{color:#333;}#my-svg .nodeLabel,#my-svg .edgeLabel{color:#131300;}#my-svg .noteLabel .nodeLabel,#my-svg .noteLabel .edgeLabel{color:black;}#my-svg .edgeLabel .label rect{fill:#ECECFF;}#my-svg .label text{fill:#131300;}#my-svg .labelBkg{background:#ECECFF;}#my-svg .edgeLabel .label span{background:#ECECFF;}#my-svg .classTitle{font-weight:bolder;}#my-svg .node rect,#my-svg .node circle,#my-svg .node ellipse,#my-svg .node polygon,#my-svg .node path{fill:#ECECFF;stroke:#9370DB;stroke-width:1;}#my-svg .divider{stroke:#9370DB;stroke-width:1;}#my-svg g.clickable{cursor:pointer;}#my-svg g.classGroup rect{fill:#ECECFF;stroke:#9370DB;}#my-svg g.classGroup line{stroke:#9370DB;stroke-width:1;}#my-svg .classLabel .box{stroke:none;stroke-width:0;fill:#ECECFF;opacity:0.5;}#my-svg .classLabel .label{fill:#9370DB;font-size:10px;}#my-svg .relation{stroke:#333333;stroke-width:1;fill:none;}#my-svg .dashed-line{stroke-dasharray:3;}#my-svg .dotted-line{stroke-dasharray:1 2;}#my-svg [id$="-compositionStart"],#my-svg .composition{fill:#333333!important;stroke:#333333!important;stroke-width:1;}#my-svg [id$="-compositionEnd"],#my-svg .composition{fill:#333333!important;stroke:#333333!important;stroke-width:1;}#my-svg [id$="-dependencyStart"],#my-svg .dependency{fill:#333333!important;stroke:#333333!important;stroke-width:1;}#my-svg [id$="-dependencyEnd"],#my-svg .dependency{fill:#333333!important;stroke:#333333!important;stroke-width:1;}#my-svg [id$="-extensionStart"],#my-svg .extension{fill:transparent!important;stroke:#333333!important;stroke-width:1;}#my-svg [id$="-extensionEnd"],#my-svg .extension{fill:transparent!important;stroke:#333333!important;stroke-width:1;}#my-svg [id$="-aggregationStart"],#my-svg .aggregation{fill:transparent!important;stroke:#333333!important;stroke-width:1;}#my-svg [id$="-aggregationEnd"],#my-svg .aggregation{fill:transparent!important;stroke:#333333!important;stroke-width:1;}#my-svg [id$="-lollipopStart"],#my-svg .lollipop{fill:#ECECFF!important;stroke:#333333!important;stroke-width:1;}#my-svg [id$="-lollipopEnd"],#my-svg .lollipop{fill:#ECECFF!important;stroke:#333333!important;stroke-width:1;}#my-svg .edgeTerminals{font-size:11px;line-height:initial;}#my-svg .classTitleText{text-anchor:middle;font-size:18px;fill:#333;}#my-svg .edgeLabel[data-look="neo"]{background-color:rgba(232,232,232, 0.8);text-align:center;}#my-svg .edgeLabel[data-look="neo"] p{background-color:rgba(232,232,232, 0.8);}#my-svg .edgeLabel[data-look="neo"] rect{opacity:0.5;background-color:rgba(232,232,232, 0.8);fill:rgba(232,232,232, 0.8);}#my-svg .label-icon{display:inline-block;height:1em;overflow:visible;vertical-align:-0.125em;}#my-svg .node .label-icon path{fill:currentColor;stroke:revert;stroke-width:revert;}#my-svg .node .neo-node{stroke:#9370DB;}#my-svg [data-look="neo"].node rect,#my-svg [data-look="neo"].cluster rect,#my-svg [data-look="neo"].node polygon{stroke:#9370DB;filter:drop-shadow(1px 2px 2px rgba(185, 185, 185, 1));}#my-svg [data-look="neo"].node path{stroke:#9370DB;stroke-width:1px;}#my-svg [data-look="neo"].node .outer-path{filter:drop-shadow(1px 2px 2px rgba(185, 185, 185, 1));}#my-svg [data-look="neo"].node .neo-line path{stroke:#9370DB;filter:none;}#my-svg [data-look="neo"].node circle{stroke:#9370DB;filter:drop-shadow(1px 2px 2px rgba(185, 185, 185, 1));}#my-svg [data-look="neo"].node circle .state-start{fill:#000000;}#my-svg [data-look="neo"].icon-shape .icon{fill:#9370DB;filter:drop-shadow(1px 2px 2px rgba(185, 185, 185, 1));}#my-svg [data-look="neo"].icon-shape .icon-neo path{stroke:#9370DB;filter:drop-shadow(1px 2px 2px rgba(185, 185, 185, 1));}#my-svg :root{--mermaid-font-family:"trebuchet ms",verdana,arial,sans-serif;}</style><g><defs><marker id="my-svg_class-aggregationStart" class="marker aggregation class" refX="18" refY="7" markerWidth="190" markerHeight="240" orient="auto"><path d="M 18,7 L9,13 L1,7 L9,1 Z"/></marker></defs><defs><marker id="my-svg_class-aggregationEnd" class="marker aggregation class" refX="1" refY="7" markerWidth="20" markerHeight="28" orient="auto"><path d="M 18,7 L9,13 L1,7 L9,1 Z"/></marker></defs><defs><marker id="my-svg_class-aggregationStart-margin" class="marker aggregation class" refX="15" refY="7" markerWidth="190" markerHeight="240" orient="auto" markerUnits="userSpaceOnUse"><path d="M 18,7 L9,13 L1,7 L9,1 Z" style="stroke-width: 2;"/></marker></defs><defs><marker id="my-svg_class-aggregationEnd-margin" class="marker aggregation class" refX="1" refY="7" markerWidth="20" markerHeight="28" orient="auto" markerUnits="userSpaceOnUse"><path d="M 18,7 L9,13 L1,7 L9,1 Z" style="stroke-width: 2;"/></marker></defs><defs><marker id="my-svg_class-extensionStart" class="marker extension class" refX="18" refY="7" markerWidth="20" markerHeight="28" orient="auto" markerUnits="userSpaceOnUse"><path d="M 1,7 L18,13 V 1 Z"/></marker></defs><defs><marker id="my-svg_class-extensionEnd" class="marker extension class" refX="1" refY="7" markerWidth="20" markerHeight="28" orient="auto"><path d="M 1,1 V 13 L18,7 Z"/></marker></defs><marker id="my-svg_class-extensionStart-margin" class="marker extension class" refX="18" refY="7" markerWidth="20" markerHeight="28" orient="auto" markerUnits="userSpaceOnUse" viewBox="0 0 20 14"><polygon points="10,7 18,13 18,1" style="stroke-width: 2; stroke-dasharray: 0;"/></marker><defs><marker id="my-svg_class-extensionEnd-margin" class="marker extension class" refX="9" refY="7" markerWidth="20" markerHeight="28" orient="auto" markerUnits="userSpaceOnUse" viewBox="0 0 20 14"><polygon points="10,1 10,13 18,7" style="stroke-width: 2; stroke-dasharray: 0;"/></marker></defs><defs><marker id="my-svg_class-compositionStart" class="marker composition class" refX="18" refY="7" markerWidth="190" markerHeight="240" orient="auto"><path d="M 18,7 L9,13 L1,7 L9,1 Z"/></marker></defs><defs><marker id="my-svg_class-compositionEnd" class="marker composition class" refX="1" refY="7" markerWidth="20" markerHeight="28" orient="auto"><path d="M 18,7 L9,13 L1,7 L9,1 Z"/></marker></defs><defs><marker id="my-svg_class-compositionStart-margin" class="marker composition class" refX="15" refY="7" markerWidth="190" markerHeight="240" orient="auto" markerUnits="userSpaceOnUse"><path viewBox="0 0 15 15" d="M 18,7 L9,13 L1,7 L9,1 Z" style="stroke-width: 0;"/></marker></defs><defs><marker id="my-svg_class-compositionEnd-margin" class="marker composition class" refX="3.5" refY="7" markerWidth="20" markerHeight="28" orient="auto" markerUnits="userSpaceOnUse"><path d="M 18,7 L9,13 L1,7 L9,1 Z" style="stroke-width: 0;"/></marker></defs><defs><marker id="my-svg_class-dependencyStart" class="marker dependency class" refX="6" refY="7" markerWidth="190" markerHeight="240" orient="auto"><path d="M 5,7 L9,13 L1,7 L9,1 Z"/></marker></defs><defs><marker id="my-svg_class-dependencyEnd" class="marker dependency class" refX="13" refY="7" markerWidth="20" markerHeight="28" orient="auto"><path d="M 18,7 L9,13 L14,7 L9,1 Z"/></marker></defs><defs><marker id="my-svg_class-dependencyStart-margin" class="marker dependency class" refX="4" refY="7" markerWidth="190" markerHeight="240" orient="auto" markerUnits="userSpaceOnUse"><path d="M 5,7 L9,13 L1,7 L9,1 Z" style="stroke-width: 0;"/></marker></defs><defs><marker id="my-svg_class-dependencyEnd-margin" class="marker dependency class" refX="16" refY="7" markerWidth="20" markerHeight="28" orient="auto" markerUnits="userSpaceOnUse"><path d="M 18,7 L9,13 L14,7 L9,1 Z" style="stroke-width: 0;"/></marker></defs><defs><marker id="my-svg_class-lollipopStart" class="marker lollipop class" refX="13" refY="7" markerWidth="190" markerHeight="240" orient="auto"><circle fill="transparent" cx="7" cy="7" r="6"/></marker></defs><defs><marker id="my-svg_class-lollipopEnd" class="marker lollipop class" refX="1" refY="7" markerWidth="190" markerHeight="240" orient="auto"><circle fill="transparent" cx="7" cy="7" r="6"/></marker></defs><defs><marker id="my-svg_class-lollipopStart-margin" class="marker lollipop class" refX="13" refY="7" markerWidth="190" markerHeight="240" orient="auto" markerUnits="userSpaceOnUse"><circle fill="transparent" cx="7" cy="7" r="6" stroke-width="2"/></marker></defs><defs><marker id="my-svg_class-lollipopEnd-margin" class="marker lollipop class" refX="1" refY="7" markerWidth="190" markerHeight="240" orient="auto" markerUnits="userSpaceOnUse"><circle fill="transparent" cx="7" cy="7" r="6" stroke-width="2"/></marker></defs><g class="root"><g class="clusters"/><g class="edgePaths"><path d="M183.891,140L185.182,140C186.474,140,189.057,140,194.516,140C199.974,140,208.307,140,212.474,140L216.641,140" id="my-svg-id_CredentialSubject_PaymentTerms_1" class="edge-thickness-normal edge-pattern-solid relation" style=";;;" data-edge="true" data-et="edge" data-id="id_CredentialSubject_PaymentTerms_1" data-points="W3sieCI6MTY2LjY0MDYyNSwieSI6MTQwfSx7IngiOjE5MS42NDA2MjUsInkiOjE0MH0seyJ4IjoyMTYuNjQwNjI1LCJ5IjoxNDB9XQ==" data-look="classic" marker-start="url(#my-svg_class-extensionStart)"/><path d="M494.391,140L501.978,140C509.565,140,524.74,140,538.914,140C553.089,140,566.263,140,572.85,140L579.438,140" id="my-svg-id_PaymentTerms_IncoTerms_2" class="edge-thickness-normal edge-pattern-solid relation" style=";;;" data-edge="true" data-et="edge" data-id="id_PaymentTerms_IncoTerms_2" data-points="W3sieCI6NDk0LjM5MDYyNSwieSI6MTQwfSx7IngiOjUzOS45MTQwNjI1LCJ5IjoxNDB9LHsieCI6NTg1LjQzNzUsInkiOjE0MH1d" data-look="classic" marker-end="url(#my-svg_class-dependencyEnd)"/></g><g class="edgeLabels"><g class="edgeLabel"><g class="label" data-id="id_CredentialSubject_PaymentTerms_1" transform="translate(0, 0)"><foreignObject width="0" height="0"><div xmlns="http://www.w3.org/1999/xhtml" class="labelBkg" style="display: table-cell; white-space: nowrap; line-height: 1.5; max-width: 200px; text-align: center;"><span class="edgeLabel"></span></div></foreignObject></g></g><g class="edgeLabel" transform="translate(539.9140625, 140)"><g class="label" data-id="id_PaymentTerms_IncoTerms_2" transform="translate(-20.5234375, -12)"><foreignObject width="41.046875" height="24"><div xmlns="http://www.w3.org/1999/xhtml" class="labelBkg" style="display: table-cell; white-space: nowrap; line-height: 1.5; max-width: 200px; text-align: center;"><span class="edgeLabel"><p>terms</p></span></div></foreignObject></g></g></g><g class="nodes"><g class="node default" id="my-svg-classId-PaymentTerms-0" data-look="classic" transform="translate(355.515625, 140)"><g class="basic label-container outer-path"><path d="M-138.875 -132 L138.875 -132 L138.875 132 L-138.875 132" stroke="none" stroke-width="0" fill="#ECECFF" style=""/><path d="M-138.875 -132 C-73.74370029922723 -132, -8.612400598454457 -132, 138.875 -132 M-138.875 -132 C-51.75893912874906 -132, 35.357121742501874 -132, 138.875 -132 M138.875 -132 C138.875 -32.232481567621804, 138.875 67.53503686475639, 138.875 132 M138.875 -132 C138.875 -63.59655913291543, 138.875 4.8068817341691386, 138.875 132 M138.875 132 C48.573315194243946 132, -41.72836961151211 132, -138.875 132 M138.875 132 C66.79309493166542 132, -5.288810136669156 132, -138.875 132 M-138.875 132 C-138.875 48.034341199615895, -138.875 -35.93131760076821, -138.875 -132 M-138.875 132 C-138.875 27.522423867344017, -138.875 -76.95515226531197, -138.875 -132" stroke="#9370DB" stroke-width="1.3" fill="none" stroke-dasharray="0 0" style=""/></g><g class="annotation-group text" transform="translate(-24.0234375, -108)"><g class="label" style="" transform="translate(0,-12)"><foreignObject width="48.046875" height="24"><div xmlns="http://www.w3.org/1999/xhtml" style="display: table-cell; white-space: nowrap; line-height: 1.5; max-width: 102px; text-align: center;"><span class="nodeLabel markdown-node-label" style=""><p>«EBW»</p></span></div></foreignObject></g></g><g class="label-group text" transform="translate(-54.5625, -84)"><g class="label" style="font-weight: bolder" transform="translate(0,-12)"><foreignObject width="109.125" height="24"><div xmlns="http://www.w3.org/1999/xhtml" style="display: table-cell; white-space: nowrap; line-height: 1.5; max-width: 146px; text-align: center;"><span class="nodeLabel markdown-node-label" style=""><p>PaymentTerms</p></span></div></foreignObject></g></g><g class="members-group text" transform="translate(-126.875, -36)"><g class="label" style="" transform="translate(0,-12)"><foreignObject width="169.1875" height="24"><div xmlns="http://www.w3.org/1999/xhtml" style="display: table-cell; white-space: nowrap; line-height: 1.5; max-width: 207px; text-align: center;"><span class="nodeLabel markdown-node-label" style=""><p>+paymentDue: duration</p></span></div></foreignObject></g><g class="label" style="" transform="translate(0,12)"><foreignObject width="131.84375" height="24"><div xmlns="http://www.w3.org/1999/xhtml" style="display: table-cell; white-space: nowrap; line-height: 1.5; max-width: 176px; text-align: center;"><span class="nodeLabel markdown-node-label" style=""><p>+terms: IncoTerms</p></span></div></foreignObject></g><g class="label" style="" transform="translate(0,36)"><foreignObject width="145.5" height="24"><div xmlns="http://www.w3.org/1999/xhtml" style="display: table-cell; white-space: nowrap; line-height: 1.5; max-width: 188px; text-align: center;"><span class="nodeLabel markdown-node-label" style=""><p>+currency: Currency</p></span></div></foreignObject></g><g class="label" style="" transform="translate(0,60)"><foreignObject width="125.546875" height="24"><div xmlns="http://www.w3.org/1999/xhtml" style="display: table-cell; white-space: nowrap; line-height: 1.5; max-width: 175px; text-align: center;"><span class="nodeLabel markdown-node-label" style=""><p>+supplier: anyURI</p></span></div></foreignObject></g><g class="label" style="" transform="translate(0,84)"><foreignObject width="108.765625" height="24"><div xmlns="http://www.w3.org/1999/xhtml" style="display: table-cell; white-space: nowrap; line-height: 1.5; max-width: 160px; text-align: center;"><span class="nodeLabel markdown-node-label" style=""><p>+buyer: anyURI</p></span></div></foreignObject></g><g class="label" style="" transform="translate(0,108)"><foreignObject width="199.1875" height="24"><div xmlns="http://www.w3.org/1999/xhtml" style="display: table-cell; white-space: nowrap; line-height: 1.5; max-width: 239px; text-align: center;"><span class="nodeLabel markdown-node-label" style=""><p>+deliveryLocation: Location</p></span></div></foreignObject></g></g><g class="methods-group text" transform="translate(-126.875, 132)"/><g class="divider" style=""><path d="M-138.875 -60 C-29.544179495291402 -59.99960636968315, 79.7866410094172 -59.99921273936631, 138.875 -59.999 M-138.875 -60 C-72.06586278772535 -59.99975946305234, -5.256725575450702 -59.999518926104685, 138.875 -59.999" stroke="#9370DB" stroke-width="1.3" fill="none" stroke-dasharray="0 0" style=""/></g><g class="divider" style=""><path d="M-138.875 108 C-61.04492025421618 108.00028021630872, 16.78515949156764 108.00056043261743, 138.875 108.001 M-138.875 108 C-45.05701869365376 108.00033777851056, 48.76096261269248 108.00067555702111, 138.875 108.001" stroke="#9370DB" stroke-width="1.3" fill="none" stroke-dasharray="0 0" style=""/></g></g><g class="node default" id="my-svg-classId-IncoTerms-1" data-look="classic" transform="translate(635.78125, 140)"><g class="basic label-container outer-path"><path d="M-50.34375 -54 L50.34375 -54 L50.34375 54 L-50.34375 54" stroke="none" stroke-width="0" fill="#ECECFF" style=""/><path d="M-50.34375 -54 C-19.044040643482493 -54, 12.255668713035014 -54, 50.34375 -54 M-50.34375 -54 C-20.067672957449233 -54, 10.208404085101535 -54, 50.34375 -54 M50.34375 -54 C50.34375 -26.25662051827311, 50.34375 1.4867589634537808, 50.34375 54 M50.34375 -54 C50.34375 -28.433327512911955, 50.34375 -2.86665502582391, 50.34375 54 M50.34375 54 C19.0507925750316 54, -12.242164849936799 54, -50.34375 54 M50.34375 54 C13.346061574035303 54, -23.651626851929393 54, -50.34375 54 M-50.34375 54 C-50.34375 17.307900789784448, -50.34375 -19.384198420431105, -50.34375 -54 M-50.34375 54 C-50.34375 27.333480882480114, -50.34375 0.6669617649602273, -50.34375 -54" stroke="#9370DB" stroke-width="1.3" fill="none" stroke-dasharray="0 0" style=""/></g><g class="annotation-group text" transform="translate(-38.34375, -30)"><g class="label" style="" transform="translate(0,-12)"><foreignObject width="76.6875" height="24"><div xmlns="http://www.w3.org/1999/xhtml" style="display: table-cell; white-space: nowrap; line-height: 1.5; max-width: 118px; text-align: center;"><span class="nodeLabel markdown-node-label" style=""><p>«external»</p></span></div></foreignObject></g></g><g class="label-group text" transform="translate(-37.9140625, -6)"><g class="label" style="font-weight: bolder" transform="translate(0,-12)"><foreignObject width="75.828125" height="24"><div xmlns="http://www.w3.org/1999/xhtml" style="display: table-cell; white-space: nowrap; line-height: 1.5; max-width: 118px; text-align: center;"><span class="nodeLabel markdown-node-label" style=""><p>IncoTerms</p></span></div></foreignObject></g></g><g class="members-group text" transform="translate(-38.34375, 42)"/><g class="methods-group text" transform="translate(-38.34375, 72)"/><g class="divider" style=""><path d="M-50.34375 18 C-13.343943072305926 18.00036747170133, 23.655863855388148 18.000734943402662, 50.34375 18.001 M-50.34375 18 C-19.819281570623293 18.00030316045616, 10.705186858753414 18.000606320912315, 50.34375 18.001" stroke="#9370DB" stroke-width="1.3" fill="none" stroke-dasharray="0 0" style=""/></g><g class="divider" style=""><path d="M-50.34375 36 C-26.56348908585234 36.00023617887935, -2.7832281717046783 36.00047235775869, 50.34375 36.001 M-50.34375 36 C-30.1827991803917 36.00020023290696, -10.021848360783402 36.00040046581392, 50.34375 36.001" stroke="#9370DB" stroke-width="1.3" fill="none" stroke-dasharray="0 0" style=""/></g></g><g class="node default" id="my-svg-classId-CredentialSubject-2" data-look="classic" transform="translate(87.3203125, 140)"><g class="basic label-container outer-path"><path d="M-79.3203125 -42 L79.3203125 -42 L79.3203125 42 L-79.3203125 42" stroke="none" stroke-width="0" fill="#ECECFF" style=""/><path d="M-79.3203125 -42 C-34.92402876877823 -42, 9.472254962443543 -42, 79.3203125 -42 M-79.3203125 -42 C-16.62321093400407 -42, 46.07389063199186 -42, 79.3203125 -42 M79.3203125 -42 C79.3203125 -10.360199095007655, 79.3203125 21.27960180998469, 79.3203125 42 M79.3203125 -42 C79.3203125 -12.36252108585768, 79.3203125 17.27495782828464, 79.3203125 42 M79.3203125 42 C23.25260070659148 42, -32.81511108681704 42, -79.3203125 42 M79.3203125 42 C16.586324354627955 42, -46.14766379074409 42, -79.3203125 42 M-79.3203125 42 C-79.3203125 16.847255321999608, -79.3203125 -8.305489356000784, -79.3203125 -42 M-79.3203125 42 C-79.3203125 21.754555108354854, -79.3203125 1.5091102167097077, -79.3203125 -42" stroke="#9370DB" stroke-width="1.3" fill="none" stroke-dasharray="0 0" style=""/></g><g class="annotation-group text" transform="translate(0, -18)"/><g class="label-group text" transform="translate(-67.3203125, -18)"><g class="label" style="font-weight: bolder" transform="translate(0,-12)"><foreignObject width="134.640625" height="24"><div xmlns="http://www.w3.org/1999/xhtml" style="display: table-cell; white-space: nowrap; line-height: 1.5; max-width: 165px; text-align: center;"><span class="nodeLabel markdown-node-label" style=""><p>CredentialSubject</p></span></div></foreignObject></g></g><g class="members-group text" transform="translate(-67.3203125, 30)"/><g class="methods-group text" transform="translate(-67.3203125, 60)"/><g class="divider" style=""><path d="M-79.3203125 6 C-36.660268617865626 6.000268909958481, 5.999775264268749 6.000537819916962, 79.3203125 6.001 M-79.3203125 6 C-44.02773315237235 6.000222468736162, -8.735153804744698 6.000444937472324, 79.3203125 6.001" stroke="#9370DB" stroke-width="1.3" fill="none" stroke-dasharray="0 0" style=""/></g><g class="divider" style=""><path d="M-79.3203125 24 C-32.95243877175415 24.00029228247007, 13.415434956491694 24.000584564940137, 79.3203125 24.001 M-79.3203125 24 C-42.43773613830761 24.000232491370742, -5.555159776615227 24.000464982741484, 79.3203125 24.001" stroke="#9370DB" stroke-width="1.3" fill="none" stroke-dasharray="0 0" style=""/></g></g></g></g></g><defs><filter id="my-svg-drop-shadow" height="130%" width="130%"><feDropShadow dx="4" dy="4" stdDeviation="0" flood-opacity="0.06" flood-color="#000000"/></filter></defs><defs><filter id="my-svg-drop-shadow-small" height="150%" width="150%"><feDropShadow dx="2" dy="2" stdDeviation="0" flood-opacity="0.06" flood-color="#000000"/></filter></defs></svg>