<svg id="my-svg" width="100%" xmlns="http://www.w3.org/2000/svg" xmlns:xlink="http://www.w3.org/1999/xlink" class="classDiagram" style="max-width: 987.383px; background-color: white;" viewBox="0 0 987.3828125 319" role="graphics-document document" aria-roledescription="class"><style>#my-svg{font-family:"trebuchet ms",verdana,arial,sans-serif;font-size:16px;fill:#333;}@keyframes edge-animation-frame{from{stroke-dashoffset:0;}}@keyframes dash{to{stroke-dashoffset:0;}}#my-svg .edge-animation-slow{stroke-dasharray:9,5!important;stroke-dashoffset:900;animation:dash 50s linear infinite;stroke-linecap:round;}#my-svg .edge-animation-fast{stroke-dasharray:9,5!important;stroke-dashoffset:900;animation:dash 20s linear infinite;stroke-linecap:round;}#my-svg .error-icon{fill:#552222;}#my-svg .error-text{fill:#552222;stroke:#552222;}#my-svg .edge-thickness-normal{stroke-width:1px;}#my-svg .edge-thickness-thick{stroke-width:3.5px;}#my-svg .edge-pattern-solid{stroke-dasharray:0;}#my-svg .edge-thickness-invisible{stroke-width:0;fill:none;}#my-svg .edge-pattern-dashed{stroke-dasharray:3;}#my-svg .edge-pattern-dotted{stroke-dasharray:2;}#my-svg .marker{fill:#333333;stroke:#333333;}#my-svg .marker.cross{stroke:#333333;}#my-svg svg{font-family:"trebuchet ms",verdana,arial,sans-serif;font-size:16px;}#my-svg p{margin:0;}#my-svg g.classGroup text{fill:#9370DB;stroke:none;font-family:"trebuchet ms",verdana,arial,sans-serif;font-size:10px;}#my-svg g.classGroup text .title{font-weight:bolder;}#my-svg .cluster-label text{fill:#333;}#my-svg .cluster-label span{color:#333;}#my-svg .cluster-label span p{background-color:transparent;}#my-svg .cluster rect{fill:#ffffde;stroke:#aaaa33;stroke-width:1px;}#my-svg .cluster text{fill:#333;}#my-svg .cluster span{color:#333;}#my-svg .nodeLabel,#my-svg .edgeLabel{color:#131300;}#my-svg .edgeLabel .label rect{fill:#ECECFF;}#my-svg .label text{fill:#131300;}#my-svg .labelBkg{background:#ECECFF;}#my-svg .edgeLabel .label span{background:#ECECFF;}#my-svg .classTitle{font-weight:bolder;}#my-svg .node rect,#my-svg .node circle,#my-svg .node ellipse,#my-svg .node polygon,#my-svg .node path{fill:#ECECFF;stroke:#9370DB;stroke-width:1px;}#my-svg .divider{stroke:#9370DB;stroke-width:1;}#my-svg g.clickable{cursor:pointer;}#my-svg g.classGroup rect{fill:#ECECFF;stroke:#9370DB;}#my-svg g.classGroup line{stroke:#9370DB;stroke-width:1;}#my-svg .classLabel .box{stroke:none;stroke-width:0;fill:#ECECFF;opacity:0.5;}#my-svg .classLabel .label{fill:#9370DB;font-size:10px;}#my-svg .relation{stroke:#333333;stroke-width:1;fill:none;}#my-svg .dashed-line{stroke-dasharray:3;}#my-svg .dotted-line{stroke-dasharray:1 2;}#my-svg #compositionStart,#my-svg .composition{fill:#333333!important;stroke:#333333!important;stroke-width:1;}#my-svg #compositionEnd,#my-svg .composition{fill:#333333!important;stroke:#333333!important;stroke-width:1;}#my-svg #dependencyStart,#my-svg .dependency{fill:#333333!important;stroke:#333333!important;stroke-width:1;}#my-svg #dependencyStart,#my-svg .dependency{fill:#333333!important;stroke:#333333!important;stroke-width:1;}#my-svg #extensionStart,#my-svg .extension{fill:transparent!important;stroke:#333333!important;stroke-width:1;}#my-svg #extensionEnd,#my-svg .extension{fill:transparent!important;stroke:#333333!important;stroke-width:1;}#my-svg #aggregationStart,#my-svg .aggregation{fill:transparent!important;stroke:#333333!important;stroke-width:1;}#my-svg #aggregationEnd,#my-svg .aggregation{fill:transparent!important;stroke:#333333!important;stroke-width:1;}#my-svg #lollipopStart,#my-svg .lollipop{fill:#ECECFF!important;stroke:#333333!important;stroke-width:1;}#my-svg #lollipopEnd,#my-svg .lollipop{fill:#ECECFF!important;stroke:#333333!important;stroke-width:1;}#my-svg .edgeTerminals{font-size:11px;line-height:initial;}#my-svg .classTitleText{text-anchor:middle;font-size:18px;fill:#333;}#my-svg .label-icon{display:inline-block;height:1em;overflow:visible;vertical-align:-0.125em;}#my-svg .node .label-icon path{fill:currentColor;stroke:revert;stroke-width:revert;}#my-svg :root{--mermaid-font-family:"trebuchet ms",verdana,arial,sans-serif;}</style><g><defs><marker id="my-svg_class-aggregationStart" class="marker aggregation class" refX="18" refY="7" markerWidth="190" markerHeight="240" orient="auto"><path d="M 18,7 L9,13 L1,7 L9,1 Z"/></marker></defs><defs><marker id="my-svg_class-aggregationEnd" class="marker aggregation class" refX="1" refY="7" markerWidth="20" markerHeight="28" orient="auto"><path d="M 18,7 L9,13 L1,7 L9,1 Z"/></marker></defs><defs><marker id="my-svg_class-extensionStart" class="marker extension class" refX="18" refY="7" markerWidth="190" markerHeight="240" orient="auto"><path d="M 1,7 L18,13 V 1 Z"/></marker></defs><defs><marker id="my-svg_class-extensionEnd" class="marker extension class" refX="1" refY="7" markerWidth="20" markerHeight="28" orient="auto"><path d="M 1,1 V 13 L18,7 Z"/></marker></defs><defs><marker id="my-svg_class-compositionStart" class="marker composition class" refX="18" refY="7" markerWidth="190" markerHeight="240" orient="auto"><path d="M 18,7 L9,13 L1,7 L9,1 Z"/></marker></defs><defs><marker id="my-svg_class-compositionEnd" class="marker composition class" refX="1" refY="7" markerWidth="20" markerHeight="28" orient="auto"><path d="M 18,7 L9,13 L1,7 L9,1 Z"/></marker></defs><defs><marker id="my-svg_class-dependencyStart" class="marker dependency class" refX="6" refY="7" markerWidth="190" markerHeight="240" orient="auto"><path d="M 5,7 L9,13 L1,7 L9,1 Z"/></marker></defs><defs><marker id="my-svg_class-dependencyEnd" class="marker dependency class" refX="13" refY="7" markerWidth="20" markerHeight="28" orient="auto"><path d="M 18,7 L9,13 L14,7 L9,1 Z"/></marker></defs><defs><marker id="my-svg_class-lollipopStart" class="marker lollipop class" refX="13" refY="7" markerWidth="190" markerHeight="240" orient="auto"><circle fill="transparent" cx="7" cy="7" r="6"/></marker></defs><defs><marker id="my-svg_class-lollipopEnd" class="marker lollipop class" refX="1" refY="7" markerWidth="190" markerHeight="240" orient="auto"><circle fill="transparent" cx="7" cy="7" r="6"/></marker></defs><g class="root"><g class="clusters"/><g class="edgePaths"><path d="M183.891,171L185.182,171C186.474,171,189.057,171,194.516,171C199.974,171,208.307,171,212.474,171L216.641,171" id="id_CredentialSubject_BankAccount_1" class="edge-thickness-normal edge-pattern-solid relation" style=";;;" data-edge="true" data-et="edge" data-id="id_CredentialSubject_BankAccount_1" data-points="W3sieCI6MTY2LjY0MDYyNSwieSI6MTcxfSx7IngiOjE5MS42NDA2MjUsInkiOjE3MX0seyJ4IjoyMTYuNjQwNjI1LCJ5IjoxNzF9XQ==" marker-start="url(#my-svg_class-extensionStart)"/><path d="M445.922,119.638L455.087,115.532C464.253,111.425,482.583,103.213,499.927,100.431C517.271,97.649,533.627,100.299,541.805,101.623L549.983,102.948" id="id_BankAccount_Company_2" class="edge-thickness-normal edge-pattern-solid relation" style=";;;" data-edge="true" data-et="edge" data-id="id_BankAccount_Company_2" data-points="W3sieCI6NDQ1LjkyMTg3NSwieSI6MTE5LjYzNzk1ODgyNjUwOTQ2fSx7IngiOjUwMC45MTQwNjI1LCJ5Ijo5NX0seyJ4Ijo1NTUuOTA2MjUsInkiOjEwMy45MDczMDc4MTM5ODI5MX1d" marker-end="url(#my-svg_class-dependencyEnd)"/><path d="M445.922,171L455.087,171C464.253,171,482.583,171,499.985,167.726C517.386,164.451,533.859,157.902,542.095,154.628L550.331,151.353" id="id_BankAccount_Company_3" class="edge-thickness-normal edge-pattern-solid relation" style=";;;" data-edge="true" data-et="edge" data-id="id_BankAccount_Company_3" data-points="W3sieCI6NDQ1LjkyMTg3NSwieSI6MTcxfSx7IngiOjUwMC45MTQwNjI1LCJ5IjoxNzF9LHsieCI6NTU1LjkwNjI1LCJ5IjoxNDkuMTM2NjA4MDkyOTUxfV0=" marker-end="url(#my-svg_class-dependencyEnd)"/><path d="M445.922,237.23L455.087,242.525C464.253,247.82,482.583,258.41,508.742,263.705C534.9,269,568.885,269,585.878,269L602.871,269" id="id_BankAccount_Iban_4" class="edge-thickness-normal edge-pattern-solid relation" style=";;;" data-edge="true" data-et="edge" data-id="id_BankAccount_Iban_4" data-points="W3sieCI6NDQ1LjkyMTg3NSwieSI6MjM3LjIzMDAwMDQ2MDU1MzU4fSx7IngiOjUwMC45MTQwNjI1LCJ5IjoyNjl9LHsieCI6NjA4Ljg3MTA5Mzc1LCJ5IjoyNjl9XQ==" marker-end="url(#my-svg_class-dependencyEnd)"/><path d="M717.57,78.17L727.344,73.475C737.117,68.78,756.664,59.39,783.382,54.695C810.099,50,843.987,50,860.931,50L877.875,50" id="id_Company_Bic_5" class="edge-thickness-normal edge-pattern-solid relation" style=";;;" data-edge="true" data-et="edge" data-id="id_Company_Bic_5" data-points="W3sieCI6NzE3LjU3MDMxMjUsInkiOjc4LjE2OTgzNjE1NzQwMDkyfSx7IngiOjc3Ni4yMTA5Mzc1LCJ5Ijo1MH0seyJ4Ijo4ODMuODc1LCJ5Ijo1MH1d" marker-end="url(#my-svg_class-dependencyEnd)"/><path d="M717.57,155.83L727.344,160.525C737.117,165.22,756.664,174.61,775.211,179.305C793.758,184,811.305,184,820.078,184L828.852,184" id="id_Company_ClearingNumber_6" class="edge-thickness-normal edge-pattern-solid relation" style=";;;" data-edge="true" data-et="edge" data-id="id_Company_ClearingNumber_6" data-points="W3sieCI6NzE3LjU3MDMxMjUsInkiOjE1NS44MzAxNjM4NDI1OTkwNn0seyJ4Ijo3NzYuMjEwOTM3NSwieSI6MTg0fSx7IngiOjgzNC44NTE1NjI1LCJ5IjoxODR9XQ==" marker-end="url(#my-svg_class-dependencyEnd)"/></g><g class="edgeLabels"><g class="edgeLabel"><g class="label" data-id="id_CredentialSubject_BankAccount_1" transform="translate(0, 0)"><foreignObject width="0" height="0"><div xmlns="http://www.w3.org/1999/xhtml" class="labelBkg" style="display: table-cell; white-space: nowrap; line-height: 1.5; max-width: 200px; text-align: center;"><span class="edgeLabel"></span></div></foreignObject></g></g><g class="edgeLabel" transform="translate(498.83778, 95.93023)"><g class="label" data-id="id_BankAccount_Company_2" transform="translate(-22.09375, -12)"><foreignObject width="44.1875" height="24"><div xmlns="http://www.w3.org/1999/xhtml" class="labelBkg" style="display: table-cell; white-space: nowrap; line-height: 1.5; max-width: 200px; text-align: center;"><span class="edgeLabel"><p>owner</p></span></div></foreignObject></g></g><g class="edgeLabel" transform="translate(500.9140625, 171)"><g class="label" data-id="id_BankAccount_Company_3" transform="translate(-29.9921875, -12)"><foreignObject width="59.984375" height="24"><div xmlns="http://www.w3.org/1999/xhtml" class="labelBkg" style="display: table-cell; white-space: nowrap; line-height: 1.5; max-width: 200px; text-align: center;"><span class="edgeLabel"><p>provider</p></span></div></foreignObject></g></g><g class="edgeLabel" transform="translate(500.9140625, 269)"><g class="label" data-id="id_BankAccount_Iban_4" transform="translate(-15.3125, -12)"><foreignObject width="30.625" height="24"><div xmlns="http://www.w3.org/1999/xhtml" class="labelBkg" style="display: table-cell; white-space: nowrap; line-height: 1.5; max-width: 200px; text-align: center;"><span class="edgeLabel"><p>iban</p></span></div></foreignObject></g></g><g class="edgeLabel" transform="translate(776.2109375, 50)"><g class="label" data-id="id_Company_Bic_5" transform="translate(-33.640625, -12)"><foreignObject width="67.28125" height="24"><div xmlns="http://www.w3.org/1999/xhtml" class="labelBkg" style="display: table-cell; white-space: nowrap; line-height: 1.5; max-width: 200px; text-align: center;"><span class="edgeLabel"><p>identifier</p></span></div></foreignObject></g></g><g class="edgeLabel" transform="translate(776.2109375, 184)"><g class="label" data-id="id_Company_ClearingNumber_6" transform="translate(-33.640625, -12)"><foreignObject width="67.28125" height="24"><div xmlns="http://www.w3.org/1999/xhtml" class="labelBkg" style="display: table-cell; white-space: nowrap; line-height: 1.5; max-width: 200px; text-align: center;"><span class="edgeLabel"><p>identifier</p></span></div></foreignObject></g></g></g><g class="nodes"><g class="node default" id="classId-CredentialSubject-0" transform="translate(87.3203125, 171)"><g class="basic label-container"><path d="M-79.3203125 -54 L79.3203125 -54 L79.3203125 54 L-79.3203125 54" stroke="none" stroke-width="0" fill="#ECECFF" style=""/><path d="M-79.3203125 -54 C-24.234293497521016 -54, 30.85172550495797 -54, 79.3203125 -54 M-79.3203125 -54 C-16.73103054477759 -54, 45.85825141044482 -54, 79.3203125 -54 M79.3203125 -54 C79.3203125 -31.253190455893943, 79.3203125 -8.506380911787886, 79.3203125 54 M79.3203125 -54 C79.3203125 -31.77864820751348, 79.3203125 -9.557296415026961, 79.3203125 54 M79.3203125 54 C39.626795495651066 54, -0.0667215086978672 54, -79.3203125 54 M79.3203125 54 C29.057648210616527 54, -21.205016078766945 54, -79.3203125 54 M-79.3203125 54 C-79.3203125 21.947711754353442, -79.3203125 -10.104576491293116, -79.3203125 -54 M-79.3203125 54 C-79.3203125 14.215964920790213, -79.3203125 -25.568070158419573, -79.3203125 -54" stroke="#9370DB" stroke-width="1.3" fill="none" stroke-dasharray="0 0" style=""/></g><g class="annotation-group text" transform="translate(-24.0234375, -30)"><g class="label" style="" transform="translate(0,-12)"><foreignObject width="48.046875" height="24"><div xmlns="http://www.w3.org/1999/xhtml" style="display: table-cell; white-space: nowrap; line-height: 1.5; max-width: 102px; text-align: center;"><span class="nodeLabel markdown-node-label" style=""><p>«EBW»</p></span></div></foreignObject></g></g><g class="label-group text" transform="translate(-67.3203125, -6)"><g class="label" style="font-weight: bolder" transform="translate(0,-12)"><foreignObject width="134.640625" height="24"><div xmlns="http://www.w3.org/1999/xhtml" style="display: table-cell; white-space: nowrap; line-height: 1.5; max-width: 165px; text-align: center;"><span class="nodeLabel markdown-node-label" style=""><p>CredentialSubject</p></span></div></foreignObject></g></g><g class="members-group text" transform="translate(-67.3203125, 42)"/><g class="methods-group text" transform="translate(-67.3203125, 72)"/><g class="divider" style=""><path d="M-79.3203125 18 C-22.06419767169298 18, 35.19191715661404 18, 79.3203125 18 M-79.3203125 18 C-24.837268633968996 18, 29.645775232062007 18, 79.3203125 18" stroke="#9370DB" stroke-width="1.3" fill="none" stroke-dasharray="0 0" style=""/></g><g class="divider" style=""><path d="M-79.3203125 36 C-21.055800832067497 36, 37.208710835865006 36, 79.3203125 36 M-79.3203125 36 C-29.759697478201872 36, 19.800917543596256 36, 79.3203125 36" stroke="#9370DB" stroke-width="1.3" fill="none" stroke-dasharray="0 0" style=""/></g></g><g class="node default" id="classId-BankAccount-1" transform="translate(331.28125, 171)"><g class="basic label-container"><path d="M-114.640625 -120 L114.640625 -120 L114.640625 120 L-114.640625 120" stroke="none" stroke-width="0" fill="#ECECFF" style=""/><path d="M-114.640625 -120 C-61.429588587540344 -120, -8.218552175080688 -120, 114.640625 -120 M-114.640625 -120 C-46.087783574536004 -120, 22.46505785092799 -120, 114.640625 -120 M114.640625 -120 C114.640625 -61.23299867889046, 114.640625 -2.465997357780921, 114.640625 120 M114.640625 -120 C114.640625 -26.50682040622803, 114.640625 66.98635918754394, 114.640625 120 M114.640625 120 C40.96012533836074 120, -32.72037432327852 120, -114.640625 120 M114.640625 120 C25.49008431469136 120, -63.66045637061728 120, -114.640625 120 M-114.640625 120 C-114.640625 57.663785863216496, -114.640625 -4.672428273567007, -114.640625 -120 M-114.640625 120 C-114.640625 29.999487870740893, -114.640625 -60.001024258518214, -114.640625 -120" stroke="#9370DB" stroke-width="1.3" fill="none" stroke-dasharray="0 0" style=""/></g><g class="annotation-group text" transform="translate(-24.0234375, -96)"><g class="label" style="" transform="translate(0,-12)"><foreignObject width="48.046875" height="24"><div xmlns="http://www.w3.org/1999/xhtml" style="display: table-cell; white-space: nowrap; line-height: 1.5; max-width: 102px; text-align: center;"><span class="nodeLabel markdown-node-label" style=""><p>«EBW»</p></span></div></foreignObject></g></g><g class="label-group text" transform="translate(-48.53125, -72)"><g class="label" style="font-weight: bolder" transform="translate(0,-12)"><foreignObject width="97.0625" height="24"><div xmlns="http://www.w3.org/1999/xhtml" style="display: table-cell; white-space: nowrap; line-height: 1.5; max-width: 138px; text-align: center;"><span class="nodeLabel markdown-node-label" style=""><p>BankAccount</p></span></div></foreignObject></g></g><g class="members-group text" transform="translate(-102.640625, -24)"><g class="label" style="" transform="translate(0,-12)"><foreignObject width="156.75" height="24"><div xmlns="http://www.w3.org/1999/xhtml" style="display: table-cell; white-space: nowrap; line-height: 1.5; max-width: 196px; text-align: center;"><span class="nodeLabel markdown-node-label" style=""><p>+accountName: string</p></span></div></foreignObject></g><g class="label" style="" transform="translate(0,12)"><foreignObject width="149.109375" height="24"><div xmlns="http://www.w3.org/1999/xhtml" style="display: table-cell; white-space: nowrap; line-height: 1.5; max-width: 190px; text-align: center;"><span class="nodeLabel markdown-node-label" style=""><p>+accountType: string</p></span></div></foreignObject></g><g class="label" style="" transform="translate(0,36)"><foreignObject width="80.234375" height="24"><div xmlns="http://www.w3.org/1999/xhtml" style="display: table-cell; white-space: nowrap; line-height: 1.5; max-width: 128px; text-align: center;"><span class="nodeLabel markdown-node-label" style=""><p>+iban: Iban</p></span></div></foreignObject></g><g class="label" style="" transform="translate(0,60)"><foreignObject width="128.65625" height="24"><div xmlns="http://www.w3.org/1999/xhtml" style="display: table-cell; white-space: nowrap; line-height: 1.5; max-width: 174px; text-align: center;"><span class="nodeLabel markdown-node-label" style=""><p>+owner: Company</p></span></div></foreignObject></g><g class="label" style="" transform="translate(0,84)"><foreignObject width="144.453125" height="24"><div xmlns="http://www.w3.org/1999/xhtml" style="display: table-cell; white-space: nowrap; line-height: 1.5; max-width: 188px; text-align: center;"><span class="nodeLabel markdown-node-label" style=""><p>+provider: Company</p></span></div></foreignObject></g></g><g class="methods-group text" transform="translate(-102.640625, 120)"/><g class="divider" style=""><path d="M-114.640625 -48 C-44.30740860023623 -48, 26.02580779952754 -48, 114.640625 -48 M-114.640625 -48 C-33.0941660245427 -48, 48.4522929509146 -48, 114.640625 -48" stroke="#9370DB" stroke-width="1.3" fill="none" stroke-dasharray="0 0" style=""/></g><g class="divider" style=""><path d="M-114.640625 96 C-49.01754289282597 96, 16.605539214348056 96, 114.640625 96 M-114.640625 96 C-41.479805952837 96, 31.681013094326005 96, 114.640625 96" stroke="#9370DB" stroke-width="1.3" fill="none" stroke-dasharray="0 0" style=""/></g></g><g class="node default" id="classId-Company-2" transform="translate(636.73828125, 117)"><g class="basic label-container"><path d="M-80.83203125 -60 L80.83203125 -60 L80.83203125 60 L-80.83203125 60" stroke="none" stroke-width="0" fill="#ECECFF" style=""/><path d="M-80.83203125 -60 C-35.27357161869876 -60, 10.28488801260248 -60, 80.83203125 -60 M-80.83203125 -60 C-23.447795612323333 -60, 33.936440025353335 -60, 80.83203125 -60 M80.83203125 -60 C80.83203125 -17.674666769109606, 80.83203125 24.650666461780787, 80.83203125 60 M80.83203125 -60 C80.83203125 -14.427885446391493, 80.83203125 31.144229107217015, 80.83203125 60 M80.83203125 60 C29.614603745138083 60, -21.602823759723833 60, -80.83203125 60 M80.83203125 60 C37.65639254709601 60, -5.519246155807977 60, -80.83203125 60 M-80.83203125 60 C-80.83203125 28.43530982050238, -80.83203125 -3.129380358995242, -80.83203125 -60 M-80.83203125 60 C-80.83203125 35.710293620416486, -80.83203125 11.420587240832972, -80.83203125 -60" stroke="#9370DB" stroke-width="1.3" fill="none" stroke-dasharray="0 0" style=""/></g><g class="annotation-group text" transform="translate(0, -36)"/><g class="label-group text" transform="translate(-34.2109375, -36)"><g class="label" style="font-weight: bolder" transform="translate(0,-12)"><foreignObject width="68.421875" height="24"><div xmlns="http://www.w3.org/1999/xhtml" style="display: table-cell; white-space: nowrap; line-height: 1.5; max-width: 112px; text-align: center;"><span class="nodeLabel markdown-node-label" style=""><p>Company</p></span></div></foreignObject></g></g><g class="members-group text" transform="translate(-68.83203125, 12)"><g class="label" style="" transform="translate(0,-12)"><foreignObject width="103.453125" height="24"><div xmlns="http://www.w3.org/1999/xhtml" style="display: table-cell; white-space: nowrap; line-height: 1.5; max-width: 142px; text-align: center;"><span class="nodeLabel markdown-node-label" style=""><p>identifier: List</p></span></div></foreignObject></g></g><g class="methods-group text" transform="translate(-68.83203125, 60)"/><g class="divider" style=""><path d="M-80.83203125 -12 C-28.90008917988869 -12, 23.031852890222623 -12, 80.83203125 -12 M-80.83203125 -12 C-43.40385543294327 -12, -5.975679615886534 -12, 80.83203125 -12" stroke="#9370DB" stroke-width="1.3" fill="none" stroke-dasharray="0 0" style=""/></g><g class="divider" style=""><path d="M-80.83203125 36 C-41.80264479604054 36, -2.7732583420810784 36, 80.83203125 36 M-80.83203125 36 C-33.44612499555339 36, 13.93978125889322 36, 80.83203125 36" stroke="#9370DB" stroke-width="1.3" fill="none" stroke-dasharray="0 0" style=""/></g></g><g class="node default" id="classId-Bic-3" transform="translate(907.1171875, 50)"><g class="basic label-container"><path d="M-23.2421875 -42 L23.2421875 -42 L23.2421875 42 L-23.2421875 42" stroke="none" stroke-width="0" fill="#ECECFF" style=""/><path d="M-23.2421875 -42 C-6.41520936129605 -42, 10.4117687774079 -42, 23.2421875 -42 M-23.2421875 -42 C-5.991489983275095 -42, 11.25920753344981 -42, 23.2421875 -42 M23.2421875 -42 C23.2421875 -20.106746252902337, 23.2421875 1.7865074941953267, 23.2421875 42 M23.2421875 -42 C23.2421875 -24.426107014351565, 23.2421875 -6.852214028703131, 23.2421875 42 M23.2421875 42 C12.054238326908123 42, 0.8662891538162469 42, -23.2421875 42 M23.2421875 42 C9.59850883009794 42, -4.045169839804121 42, -23.2421875 42 M-23.2421875 42 C-23.2421875 24.83704563653967, -23.2421875 7.674091273079341, -23.2421875 -42 M-23.2421875 42 C-23.2421875 14.632495118800986, -23.2421875 -12.735009762398029, -23.2421875 -42" stroke="#9370DB" stroke-width="1.3" fill="none" stroke-dasharray="0 0" style=""/></g><g class="annotation-group text" transform="translate(0, -18)"/><g class="label-group text" transform="translate(-11.2421875, -18)"><g class="label" style="font-weight: bolder" transform="translate(0,-12)"><foreignObject width="22.484375" height="24"><div xmlns="http://www.w3.org/1999/xhtml" style="display: table-cell; white-space: nowrap; line-height: 1.5; max-width: 72px; text-align: center;"><span class="nodeLabel markdown-node-label" style=""><p>Bic</p></span></div></foreignObject></g></g><g class="members-group text" transform="translate(-11.2421875, 30)"/><g class="methods-group text" transform="translate(-11.2421875, 60)"/><g class="divider" style=""><path d="M-23.2421875 6 C-13.342904279124635 6, -3.4436210582492706 6, 23.2421875 6 M-23.2421875 6 C-6.070892782316925 6, 11.10040193536615 6, 23.2421875 6" stroke="#9370DB" stroke-width="1.3" fill="none" stroke-dasharray="0 0" style=""/></g><g class="divider" style=""><path d="M-23.2421875 24 C-7.061363323658959 24, 9.119460852682082 24, 23.2421875 24 M-23.2421875 24 C-5.590875741090912 24, 12.060436017818176 24, 23.2421875 24" stroke="#9370DB" stroke-width="1.3" fill="none" stroke-dasharray="0 0" style=""/></g></g><g class="node default" id="classId-Iban-4" transform="translate(636.73828125, 269)"><g class="basic label-container"><path d="M-27.8671875 -42 L27.8671875 -42 L27.8671875 42 L-27.8671875 42" stroke="none" stroke-width="0" fill="#ECECFF" style=""/><path d="M-27.8671875 -42 C-13.288055593508284 -42, 1.2910763129834315 -42, 27.8671875 -42 M-27.8671875 -42 C-15.16419757543303 -42, -2.4612076508660614 -42, 27.8671875 -42 M27.8671875 -42 C27.8671875 -18.397561496842275, 27.8671875 5.204877006315449, 27.8671875 42 M27.8671875 -42 C27.8671875 -14.699053115325619, 27.8671875 12.601893769348763, 27.8671875 42 M27.8671875 42 C11.987135535302501 42, -3.8929164293949974 42, -27.8671875 42 M27.8671875 42 C16.567794110715518 42, 5.2684007214310355 42, -27.8671875 42 M-27.8671875 42 C-27.8671875 22.831627924354212, -27.8671875 3.663255848708424, -27.8671875 -42 M-27.8671875 42 C-27.8671875 11.900830050303735, -27.8671875 -18.19833989939253, -27.8671875 -42" stroke="#9370DB" stroke-width="1.3" fill="none" stroke-dasharray="0 0" style=""/></g><g class="annotation-group text" transform="translate(0, -18)"/><g class="label-group text" transform="translate(-15.8671875, -18)"><g class="label" style="font-weight: bolder" transform="translate(0,-12)"><foreignObject width="31.734375" height="24"><div xmlns="http://www.w3.org/1999/xhtml" style="display: table-cell; white-space: nowrap; line-height: 1.5; max-width: 78px; text-align: center;"><span class="nodeLabel markdown-node-label" style=""><p>Iban</p></span></div></foreignObject></g></g><g class="members-group text" transform="translate(-15.8671875, 30)"/><g class="methods-group text" transform="translate(-15.8671875, 60)"/><g class="divider" style=""><path d="M-27.8671875 6 C-11.241253869713635 6, 5.38467976057273 6, 27.8671875 6 M-27.8671875 6 C-14.281585734848143 6, -0.695983969696286 6, 27.8671875 6" stroke="#9370DB" stroke-width="1.3" fill="none" stroke-dasharray="0 0" style=""/></g><g class="divider" style=""><path d="M-27.8671875 24 C-8.22531519386823 24, 11.41655711226354 24, 27.8671875 24 M-27.8671875 24 C-5.619043735230644 24, 16.629100029538712 24, 27.8671875 24" stroke="#9370DB" stroke-width="1.3" fill="none" stroke-dasharray="0 0" style=""/></g></g><g class="node default" id="classId-ClearingNumber-5" transform="translate(907.1171875, 184)"><g class="basic label-container"><path d="M-72.265625 -42 L72.265625 -42 L72.265625 42 L-72.265625 42" stroke="none" stroke-width="0" fill="#ECECFF" style=""/><path d="M-72.265625 -42 C-38.4881317541088 -42, -4.710638508217599 -42, 72.265625 -42 M-72.265625 -42 C-17.7660104601157 -42, 36.7336040797686 -42, 72.265625 -42 M72.265625 -42 C72.265625 -20.734903751747563, 72.265625 0.5301924965048741, 72.265625 42 M72.265625 -42 C72.265625 -20.583634269176013, 72.265625 0.832731461647974, 72.265625 42 M72.265625 42 C24.395125724419472 42, -23.475373551161056 42, -72.265625 42 M72.265625 42 C23.25137235723068 42, -25.762880285538643 42, -72.265625 42 M-72.265625 42 C-72.265625 11.308845734027997, -72.265625 -19.382308531944005, -72.265625 -42 M-72.265625 42 C-72.265625 12.126771821561366, -72.265625 -17.746456356877268, -72.265625 -42" stroke="#9370DB" stroke-width="1.3" fill="none" stroke-dasharray="0 0" style=""/></g><g class="annotation-group text" transform="translate(0, -18)"/><g class="label-group text" transform="translate(-60.265625, -18)"><g class="label" style="font-weight: bolder" transform="translate(0,-12)"><foreignObject width="120.53125" height="24"><div xmlns="http://www.w3.org/1999/xhtml" style="display: table-cell; white-space: nowrap; line-height: 1.5; max-width: 158px; text-align: center;"><span class="nodeLabel markdown-node-label" style=""><p>ClearingNumber</p></span></div></foreignObject></g></g><g class="members-group text" transform="translate(-60.265625, 30)"/><g class="methods-group text" transform="translate(-60.265625, 60)"/><g class="divider" style=""><path d="M-72.265625 6 C-33.484849009213846 6, 5.295926981572308 6, 72.265625 6 M-72.265625 6 C-42.16145750989128 6, -12.057290019782556 6, 72.265625 6" stroke="#9370DB" stroke-width="1.3" fill="none" stroke-dasharray="0 0" style=""/></g><g class="divider" style=""><path d="M-72.265625 24 C-29.071875843340855 24, 14.12187331331829 24, 72.265625 24 M-72.265625 24 C-25.74609829236485 24, 20.773428415270303 24, 72.265625 24" stroke="#9370DB" stroke-width="1.3" fill="none" stroke-dasharray="0 0" style=""/></g></g></g></g></g></svg>