<svg aria-roledescription="class" role="graphics-document document" viewBox="0 0 617.734375 184" style="max-width: 617.734px; background-color: white;" class="classDiagram" xmlns:xlink="http://www.w3.org/1999/xlink" xmlns="http://www.w3.org/2000/svg" width="100%" id="my-svg"><style>#my-svg{font-family:"trebuchet ms",verdana,arial,sans-serif;font-size:16px;fill:#333;}@keyframes edge-animation-frame{from{stroke-dashoffset:0;}}@keyframes dash{to{stroke-dashoffset:0;}}#my-svg .edge-animation-slow{stroke-dasharray:9,5!important;stroke-dashoffset:900;animation:dash 50s linear infinite;stroke-linecap:round;}#my-svg .edge-animation-fast{stroke-dasharray:9,5!important;stroke-dashoffset:900;animation:dash 20s linear infinite;stroke-linecap:round;}#my-svg .error-icon{fill:#552222;}#my-svg .error-text{fill:#552222;stroke:#552222;}#my-svg .edge-thickness-normal{stroke-width:1px;}#my-svg .edge-thickness-thick{stroke-width:3.5px;}#my-svg .edge-pattern-solid{stroke-dasharray:0;}#my-svg .edge-thickness-invisible{stroke-width:0;fill:none;}#my-svg .edge-pattern-dashed{stroke-dasharray:3;}#my-svg .edge-pattern-dotted{stroke-dasharray:2;}#my-svg .marker{fill:#333333;stroke:#333333;}#my-svg .marker.cross{stroke:#333333;}#my-svg svg{font-family:"trebuchet ms",verdana,arial,sans-serif;font-size:16px;}#my-svg p{margin:0;}#my-svg g.classGroup text{fill:#9370DB;stroke:none;font-family:"trebuchet ms",verdana,arial,sans-serif;font-size:10px;}#my-svg g.classGroup text .title{font-weight:bolder;}#my-svg .nodeLabel,#my-svg .edgeLabel{color:#131300;}#my-svg .edgeLabel .label rect{fill:#ECECFF;}#my-svg .label text{fill:#131300;}#my-svg .labelBkg{background:#ECECFF;}#my-svg .edgeLabel .label span{background:#ECECFF;}#my-svg .classTitle{font-weight:bolder;}#my-svg .node rect,#my-svg .node circle,#my-svg .node ellipse,#my-svg .node polygon,#my-svg .node path{fill:#ECECFF;stroke:#9370DB;stroke-width:1px;}#my-svg .divider{stroke:#9370DB;stroke-width:1;}#my-svg g.clickable{cursor:pointer;}#my-svg g.classGroup rect{fill:#ECECFF;stroke:#9370DB;}#my-svg g.classGroup line{stroke:#9370DB;stroke-width:1;}#my-svg .classLabel .box{stroke:none;stroke-width:0;fill:#ECECFF;opacity:0.5;}#my-svg .classLabel .label{fill:#9370DB;font-size:10px;}#my-svg .relation{stroke:#333333;stroke-width:1;fill:none;}#my-svg .dashed-line{stroke-dasharray:3;}#my-svg .dotted-line{stroke-dasharray:1 2;}#my-svg #compositionStart,#my-svg .composition{fill:#333333!important;stroke:#333333!important;stroke-width:1;}#my-svg #compositionEnd,#my-svg .composition{fill:#333333!important;stroke:#333333!important;stroke-width:1;}#my-svg #dependencyStart,#my-svg .dependency{fill:#333333!important;stroke:#333333!important;stroke-width:1;}#my-svg #dependencyStart,#my-svg .dependency{fill:#333333!important;stroke:#333333!important;stroke-width:1;}#my-svg #extensionStart,#my-svg .extension{fill:transparent!important;stroke:#333333!important;stroke-width:1;}#my-svg #extensionEnd,#my-svg .extension{fill:transparent!important;stroke:#333333!important;stroke-width:1;}#my-svg #aggregationStart,#my-svg .aggregation{fill:transparent!important;stroke:#333333!important;stroke-width:1;}#my-svg #aggregationEnd,#my-svg .aggregation{fill:transparent!important;stroke:#333333!important;stroke-width:1;}#my-svg #lollipopStart,#my-svg .lollipop{fill:#ECECFF!important;stroke:#333333!important;stroke-width:1;}#my-svg #lollipopEnd,#my-svg .lollipop{fill:#ECECFF!important;stroke:#333333!important;stroke-width:1;}#my-svg .edgeTerminals{font-size:11px;line-height:initial;}#my-svg .classTitleText{text-anchor:middle;font-size:18px;fill:#333;}#my-svg .label-icon{display:inline-block;height:1em;overflow:visible;vertical-align:-0.125em;}#my-svg .node .label-icon path{fill:currentColor;stroke:revert;stroke-width:revert;}#my-svg :root{--mermaid-font-family:"trebuchet ms",verdana,arial,sans-serif;}</style><g><defs><marker orient="auto" markerHeight="240" markerWidth="190" refY="7" refX="18" class="marker aggregation class" id="my-svg_class-aggregationStart"><path d="M 18,7 L9,13 L1,7 L9,1 Z"/></marker></defs><defs><marker orient="auto" markerHeight="28" markerWidth="20" refY="7" refX="1" class="marker aggregation class" id="my-svg_class-aggregationEnd"><path d="M 18,7 L9,13 L1,7 L9,1 Z"/></marker></defs><defs><marker orient="auto" markerHeight="240" markerWidth="190" refY="7" refX="18" class="marker extension class" id="my-svg_class-extensionStart"><path d="M 1,7 L18,13 V 1 Z"/></marker></defs><defs><marker orient="auto" markerHeight="28" markerWidth="20" refY="7" refX="1" class="marker extension class" id="my-svg_class-extensionEnd"><path d="M 1,1 V 13 L18,7 Z"/></marker></defs><defs><marker orient="auto" markerHeight="240" markerWidth="190" refY="7" refX="18" class="marker composition class" id="my-svg_class-compositionStart"><path d="M 18,7 L9,13 L1,7 L9,1 Z"/></marker></defs><defs><marker orient="auto" markerHeight="28" markerWidth="20" refY="7" refX="1" class="marker composition class" id="my-svg_class-compositionEnd"><path d="M 18,7 L9,13 L1,7 L9,1 Z"/></marker></defs><defs><marker orient="auto" markerHeight="240" markerWidth="190" refY="7" refX="6" class="marker dependency class" id="my-svg_class-dependencyStart"><path d="M 5,7 L9,13 L1,7 L9,1 Z"/></marker></defs><defs><marker orient="auto" markerHeight="28" markerWidth="20" refY="7" refX="13" class="marker dependency class" id="my-svg_class-dependencyEnd"><path d="M 18,7 L9,13 L14,7 L9,1 Z"/></marker></defs><defs><marker orient="auto" markerHeight="240" markerWidth="190" refY="7" refX="13" class="marker lollipop class" id="my-svg_class-lollipopStart"><circle r="6" cy="7" cx="7" fill="transparent" stroke="black"/></marker></defs><defs><marker orient="auto" markerHeight="240" markerWidth="190" refY="7" refX="1" class="marker lollipop class" id="my-svg_class-lollipopEnd"><circle r="6" cy="7" cx="7" fill="transparent" stroke="black"/></marker></defs><g class="root"><g class="clusters"/><g class="edgePaths"><path marker-start="url(#my-svg_class-extensionStart)" style="" class="edge-thickness-normal edge-pattern-solid relation" id="id_CredentialSubject_EuropeanBusinessWalletOwner_1" d="M184.641,92L185.807,92C186.974,92,189.307,92,194.641,92C199.974,92,208.307,92,212.474,92L216.641,92"/></g><g class="edgeLabels"><g class="edgeLabel"><g transform="translate(0, -12)" class="label"><foreignObject height="24" width="0"><div class="labelBkg" xmlns="http://www.w3.org/1999/xhtml" style="display: table-cell; white-space: nowrap; line-height: 1.5; max-width: 200px; text-align: center;"><span class="edgeLabel" style=";display: inline-block"></span></div></foreignObject></g></g></g><g class="nodes"><g transform="translate(87.3203125, 92)" id="classId-CredentialSubject-0" class="node default"><g class="basic label-container"><path style="" fill="#ECECFF" stroke-width="0" stroke="none" d="M-79.3203125 -54 L79.3203125 -54 L79.3203125 54 L-79.3203125 54"/><path style="" fill="none" stroke-width="1.3" stroke="#9370DB" d="M-79.3203125 -54 C-44.1480367624502 -54, -8.975761024900393 -54, 79.3203125 -54 M-79.3203125 -54 C-44.57143710172344 -54, -9.82256170344688 -54, 79.3203125 -54 M79.3203125 -54 C79.3203125 -29.128651983782166, 79.3203125 -4.257303967564333, 79.3203125 54 M79.3203125 -54 C79.3203125 -12.840539241566304, 79.3203125 28.31892151686739, 79.3203125 54 M79.3203125 54 C19.058569631047376 54, -41.20317323790525 54, -79.3203125 54 M79.3203125 54 C36.45955974656313 54, -6.40119300687374 54, -79.3203125 54 M-79.3203125 54 C-79.3203125 20.629677957776323, -79.3203125 -12.740644084447354, -79.3203125 -54 M-79.3203125 54 C-79.3203125 12.349129686368563, -79.3203125 -29.301740627262873, -79.3203125 -54"/></g><g transform="translate(-24.0234375, -30)" class="annotation-group text"><g transform="translate(0,-12)" style="" class="label"><foreignObject height="24" width="48.046875"><div style="display: table-cell; white-space: nowrap; line-height: 1.5; max-width: 102px; text-align: center;" xmlns="http://www.w3.org/1999/xhtml"><span style="" class="nodeLabel markdown-node-label"><p>«EBW»</p></span></div></foreignObject></g></g><g transform="translate(-67.3203125, -6)" class="label-group text"><g transform="translate(0,-12)" style="font-weight: bolder" class="label"><foreignObject height="24" width="134.640625"><div style="display: table-cell; white-space: nowrap; line-height: 1.5; max-width: 165px; text-align: center;" xmlns="http://www.w3.org/1999/xhtml"><span style="" class="nodeLabel markdown-node-label"><p>CredentialSubject</p></span></div></foreignObject></g></g><g transform="translate(-67.3203125, 42)" class="members-group text"/><g transform="translate(-67.3203125, 72)" class="methods-group text"/><g style="" class="divider"><path style="" fill="none" stroke-width="1.3" stroke="#9370DB" d="M-79.3203125 18 C-26.906673050771722 18, 25.506966398456555 18, 79.3203125 18 M-79.3203125 18 C-45.44810107887347 18, -11.575889657746941 18, 79.3203125 18"/></g><g style="" class="divider"><path style="" fill="none" stroke-width="1.3" stroke="#9370DB" d="M-79.3203125 36 C-17.427742616737333 36, 44.46482726652533 36, 79.3203125 36 M-79.3203125 36 C-41.07783685219161 36, -2.8353612043832186 36, 79.3203125 36"/></g></g><g transform="translate(413.1875, 92)" id="classId-EuropeanBusinessWalletOwner-1" class="node default"><g class="basic label-container"><path style="" fill="#ECECFF" stroke-width="0" stroke="none" d="M-196.546875 -84 L196.546875 -84 L196.546875 84 L-196.546875 84"/><path style="" fill="none" stroke-width="1.3" stroke="#9370DB" d="M-196.546875 -84 C-61.39120983446699 -84, 73.76445533106602 -84, 196.546875 -84 M-196.546875 -84 C-79.75366576851638 -84, 37.03954346296723 -84, 196.546875 -84 M196.546875 -84 C196.546875 -31.43219909815273, 196.546875 21.13560180369454, 196.546875 84 M196.546875 -84 C196.546875 -25.6687386781483, 196.546875 32.6625226437034, 196.546875 84 M196.546875 84 C72.8768576860086 84, -50.79315962798279 84, -196.546875 84 M196.546875 84 C41.83163946455497 84, -112.88359607089006 84, -196.546875 84 M-196.546875 84 C-196.546875 20.26779692225687, -196.546875 -43.46440615548626, -196.546875 -84 M-196.546875 84 C-196.546875 45.84144098487881, -196.546875 7.6828819697576165, -196.546875 -84"/></g><g transform="translate(-24.0234375, -60)" class="annotation-group text"><g transform="translate(0,-12)" style="" class="label"><foreignObject height="24" width="48.046875"><div style="display: table-cell; white-space: nowrap; line-height: 1.5; max-width: 102px; text-align: center;" xmlns="http://www.w3.org/1999/xhtml"><span style="" class="nodeLabel markdown-node-label"><p>«EBW»</p></span></div></foreignObject></g></g><g transform="translate(-115.15625, -36)" class="label-group text"><g transform="translate(0,-12)" style="font-weight: bolder" class="label"><foreignObject height="24" width="230.3125"><div style="display: table-cell; white-space: nowrap; line-height: 1.5; max-width: 253px; text-align: center;" xmlns="http://www.w3.org/1999/xhtml"><span style="" class="nodeLabel markdown-node-label"><p>EuropeanBusinessWalletOwner</p></span></div></foreignObject></g></g><g transform="translate(-184.546875, 12)" class="members-group text"><g transform="translate(0,-12)" style="" class="label"><foreignObject height="24" width="134.6875"><div style="display: table-cell; white-space: nowrap; line-height: 1.5; max-width: 178px; text-align: center;" xmlns="http://www.w3.org/1999/xhtml"><span style="" class="nodeLabel markdown-node-label"><p>+legalName: string</p></span></div></foreignObject></g><g transform="translate(0,12)" style="" class="label"><foreignObject height="24" width="253.9375"><div style="display: table-cell; white-space: nowrap; line-height: 1.5; max-width: 290px; text-align: center;" xmlns="http://www.w3.org/1999/xhtml"><span style="" class="nodeLabel markdown-node-label"><p>+legalIdentifier: Euid, PublicBodyId</p></span></div></foreignObject></g></g><g transform="translate(-184.546875, 84)" class="methods-group text"/><g style="" class="divider"><path style="" fill="none" stroke-width="1.3" stroke="#9370DB" d="M-196.546875 -12 C-44.24403403341336 -12, 108.05880693317329 -12, 196.546875 -12 M-196.546875 -12 C-76.9125889936573 -12, 42.72169701268541 -12, 196.546875 -12"/></g><g style="" class="divider"><path style="" fill="none" stroke-width="1.3" stroke="#9370DB" d="M-196.546875 60 C-67.61567897932431 60, 61.31551704135137 60, 196.546875 60 M-196.546875 60 C-62.241787651774246 60, 72.06329969645151 60, 196.546875 60"/></g></g></g></g></g></svg>