<svg id="my-svg" width="100%" xmlns="http://www.w3.org/2000/svg" xmlns:xlink="http://www.w3.org/1999/xlink" class="classDiagram" style="max-width: 1077.07px; background-color: white;" viewBox="0 0 1077.0703125 319" role="graphics-document document" aria-roledescription="class"><style>#my-svg{font-family:"trebuchet ms",verdana,arial,sans-serif;font-size:16px;fill:#333;}@keyframes edge-animation-frame{from{stroke-dashoffset:0;}}@keyframes dash{to{stroke-dashoffset:0;}}#my-svg .edge-animation-slow{stroke-dasharray:9,5!important;stroke-dashoffset:900;animation:dash 50s linear infinite;stroke-linecap:round;}#my-svg .edge-animation-fast{stroke-dasharray:9,5!important;stroke-dashoffset:900;animation:dash 20s linear infinite;stroke-linecap:round;}#my-svg .error-icon{fill:#552222;}#my-svg .error-text{fill:#552222;stroke:#552222;}#my-svg .edge-thickness-normal{stroke-width:1px;}#my-svg .edge-thickness-thick{stroke-width:3.5px;}#my-svg .edge-pattern-solid{stroke-dasharray:0;}#my-svg .edge-thickness-invisible{stroke-width:0;fill:none;}#my-svg .edge-pattern-dashed{stroke-dasharray:3;}#my-svg .edge-pattern-dotted{stroke-dasharray:2;}#my-svg .marker{fill:#333333;stroke:#333333;}#my-svg .marker.cross{stroke:#333333;}#my-svg svg{font-family:"trebuchet ms",verdana,arial,sans-serif;font-size:16px;}#my-svg p{margin:0;}#my-svg g.classGroup text{fill:#9370DB;stroke:none;font-family:"trebuchet ms",verdana,arial,sans-serif;font-size:10px;}#my-svg g.classGroup text .title{font-weight:bolder;}#my-svg .cluster-label text{fill:#333;}#my-svg .cluster-label span{color:#333;}#my-svg .cluster-label span p{background-color:transparent;}#my-svg .cluster rect{fill:#ffffde;stroke:#aaaa33;stroke-width:1px;}#my-svg .cluster text{fill:#333;}#my-svg .cluster span{color:#333;}#my-svg .nodeLabel,#my-svg .edgeLabel{color:#131300;}#my-svg .edgeLabel .label rect{fill:#ECECFF;}#my-svg .label text{fill:#131300;}#my-svg .labelBkg{background:#ECECFF;}#my-svg .edgeLabel .label span{background:#ECECFF;}#my-svg .classTitle{font-weight:bolder;}#my-svg .node rect,#my-svg .node circle,#my-svg .node ellipse,#my-svg .node polygon,#my-svg .node path{fill:#ECECFF;stroke:#9370DB;stroke-width:1px;}#my-svg .divider{stroke:#9370DB;stroke-width:1;}#my-svg g.clickable{cursor:pointer;}#my-svg g.classGroup rect{fill:#ECECFF;stroke:#9370DB;}#my-svg g.classGroup line{stroke:#9370DB;stroke-width:1;}#my-svg .classLabel .box{stroke:none;stroke-width:0;fill:#ECECFF;opacity:0.5;}#my-svg .classLabel .label{fill:#9370DB;font-size:10px;}#my-svg .relation{stroke:#333333;stroke-width:1;fill:none;}#my-svg .dashed-line{stroke-dasharray:3;}#my-svg .dotted-line{stroke-dasharray:1 2;}#my-svg #compositionStart,#my-svg .composition{fill:#333333!important;stroke:#333333!important;stroke-width:1;}#my-svg #compositionEnd,#my-svg .composition{fill:#333333!important;stroke:#333333!important;stroke-width:1;}#my-svg #dependencyStart,#my-svg .dependency{fill:#333333!important;stroke:#333333!important;stroke-width:1;}#my-svg #dependencyStart,#my-svg .dependency{fill:#333333!important;stroke:#333333!important;stroke-width:1;}#my-svg #extensionStart,#my-svg .extension{fill:transparent!important;stroke:#333333!important;stroke-width:1;}#my-svg #extensionEnd,#my-svg .extension{fill:transparent!important;stroke:#333333!important;stroke-width:1;}#my-svg #aggregationStart,#my-svg .aggregation{fill:transparent!important;stroke:#333333!important;stroke-width:1;}#my-svg #aggregationEnd,#my-svg .aggregation{fill:transparent!important;stroke:#333333!important;stroke-width:1;}#my-svg #lollipopStart,#my-svg .lollipop{fill:#ECECFF!important;stroke:#333333!important;stroke-width:1;}#my-svg #lollipopEnd,#my-svg .lollipop{fill:#ECECFF!important;stroke:#333333!important;stroke-width:1;}#my-svg .edgeTerminals{font-size:11px;line-height:initial;}#my-svg .classTitleText{text-anchor:middle;font-size:18px;fill:#333;}#my-svg .label-icon{display:inline-block;height:1em;overflow:visible;vertical-align:-0.125em;}#my-svg .node .label-icon path{fill:currentColor;stroke:revert;stroke-width:revert;}#my-svg :root{--mermaid-font-family:"trebuchet ms",verdana,arial,sans-serif;}</style><g><defs><marker id="my-svg_class-aggregationStart" class="marker aggregation class" refX="18" refY="7" markerWidth="190" markerHeight="240" orient="auto"><path d="M 18,7 L9,13 L1,7 L9,1 Z"/></marker></defs><defs><marker id="my-svg_class-aggregationEnd" class="marker aggregation class" refX="1" refY="7" markerWidth="20" markerHeight="28" orient="auto"><path d="M 18,7 L9,13 L1,7 L9,1 Z"/></marker></defs><defs><marker id="my-svg_class-extensionStart" class="marker extension class" refX="18" refY="7" markerWidth="190" markerHeight="240" orient="auto"><path d="M 1,7 L18,13 V 1 Z"/></marker></defs><defs><marker id="my-svg_class-extensionEnd" class="marker extension class" refX="1" refY="7" markerWidth="20" markerHeight="28" orient="auto"><path d="M 1,1 V 13 L18,7 Z"/></marker></defs><defs><marker id="my-svg_class-compositionStart" class="marker composition class" refX="18" refY="7" markerWidth="190" markerHeight="240" orient="auto"><path d="M 18,7 L9,13 L1,7 L9,1 Z"/></marker></defs><defs><marker id="my-svg_class-compositionEnd" class="marker composition class" refX="1" refY="7" markerWidth="20" markerHeight="28" orient="auto"><path d="M 18,7 L9,13 L1,7 L9,1 Z"/></marker></defs><defs><marker id="my-svg_class-dependencyStart" class="marker dependency class" refX="6" refY="7" markerWidth="190" markerHeight="240" orient="auto"><path d="M 5,7 L9,13 L1,7 L9,1 Z"/></marker></defs><defs><marker id="my-svg_class-dependencyEnd" class="marker dependency class" refX="13" refY="7" markerWidth="20" markerHeight="28" orient="auto"><path d="M 18,7 L9,13 L14,7 L9,1 Z"/></marker></defs><defs><marker id="my-svg_class-lollipopStart" class="marker lollipop class" refX="13" refY="7" markerWidth="190" markerHeight="240" orient="auto"><circle fill="transparent" cx="7" cy="7" r="6"/></marker></defs><defs><marker id="my-svg_class-lollipopEnd" class="marker lollipop class" refX="1" refY="7" markerWidth="190" markerHeight="240" orient="auto"><circle fill="transparent" cx="7" cy="7" r="6"/></marker></defs><g class="root"><g class="clusters"/><g class="edgePaths"><path d="M183.891,171L185.182,171C186.474,171,189.057,171,194.516,171C199.974,171,208.307,171,212.474,171L216.641,171" id="id_CredentialSubject_BankAccount_1" class="edge-thickness-normal edge-pattern-solid relation" style=";;;" data-edge="true" data-et="edge" data-id="id_CredentialSubject_BankAccount_1" data-points="W3sieCI6MTY2LjY0MDYyNSwieSI6MTcxfSx7IngiOjE5MS42NDA2MjUsInkiOjE3MX0seyJ4IjoyMTYuNjQwNjI1LCJ5IjoxNzF9XQ==" marker-start="url(#my-svg_class-extensionStart)"/><path d="M500.609,116.218L509.775,112.681C518.94,109.145,537.271,102.073,554.612,99.709C571.953,97.346,588.304,99.692,596.479,100.865L604.655,102.038" id="id_BankAccount_EconomicOperator_2" class="edge-thickness-normal edge-pattern-solid relation" style=";;;" data-edge="true" data-et="edge" data-id="id_BankAccount_EconomicOperator_2" data-points="W3sieCI6NTAwLjYwOTM3NSwieSI6MTE2LjIxNzc4NDQ3NjI2MjI0fSx7IngiOjU1NS42MDE1NjI1LCJ5Ijo5NX0seyJ4Ijo2MTAuNTkzNzUsInkiOjEwMi44OTA2NTI0Njc0NTMwN31d" marker-end="url(#my-svg_class-dependencyEnd)"/><path d="M500.609,171L509.775,171C518.94,171,537.271,171,554.658,168.104C572.046,165.208,588.49,159.417,596.712,156.521L604.934,153.625" id="id_BankAccount_EconomicOperator_3" class="edge-thickness-normal edge-pattern-solid relation" style=";;;" data-edge="true" data-et="edge" data-id="id_BankAccount_EconomicOperator_3" data-points="W3sieCI6NTAwLjYwOTM3NSwieSI6MTcxfSx7IngiOjU1NS42MDE1NjI1LCJ5IjoxNzF9LHsieCI6NjEwLjU5Mzc1LCJ5IjoxNTEuNjMyMDM0ODUyNjE1MjJ9XQ==" marker-end="url(#my-svg_class-dependencyEnd)"/><path d="M500.609,241.64L509.775,246.2C518.94,250.76,537.271,259.88,566.346,264.44C595.421,269,635.24,269,655.149,269L675.059,269" id="id_BankAccount_Iban_4" class="edge-thickness-normal edge-pattern-solid relation" style=";;;" data-edge="true" data-et="edge" data-id="id_BankAccount_Iban_4" data-points="W3sieCI6NTAwLjYwOTM3NSwieSI6MjQxLjY0MDIyNTI4MDYwOTIzfSx7IngiOjU1NS42MDE1NjI1LCJ5IjoyNjl9LHsieCI6NjgxLjA1ODU5Mzc1LCJ5IjoyNjl9XQ==" marker-end="url(#my-svg_class-dependencyEnd)"/><path d="M807.258,75.029L817.031,70.858C826.805,66.686,846.352,58.343,864.898,54.172C883.445,50,900.992,50,909.766,50L918.539,50" id="id_EconomicOperator_ClearingNumber_5" class="edge-thickness-normal edge-pattern-solid relation" style=";;;" data-edge="true" data-et="edge" data-id="id_EconomicOperator_ClearingNumber_5" data-points="W3sieCI6ODA3LjI1NzgxMjUsInkiOjc1LjAyOTMzOTMwNTcxMTA5fSx7IngiOjg2NS44OTg0Mzc1LCJ5Ijo1MH0seyJ4Ijo5MjQuNTM5MDYyNSwieSI6NTB9XQ==" marker-end="url(#my-svg_class-dependencyEnd)"/><path d="M807.258,158.971L817.031,163.142C826.805,167.314,846.352,175.657,873.069,179.828C899.786,184,933.674,184,950.618,184L967.563,184" id="id_EconomicOperator_Bic_6" class="edge-thickness-normal edge-pattern-solid relation" style=";;;" data-edge="true" data-et="edge" data-id="id_EconomicOperator_Bic_6" data-points="W3sieCI6ODA3LjI1NzgxMjUsInkiOjE1OC45NzA2NjA2OTQyODg5fSx7IngiOjg2NS44OTg0Mzc1LCJ5IjoxODR9LHsieCI6OTczLjU2MjUsInkiOjE4NH1d" marker-end="url(#my-svg_class-dependencyEnd)"/></g><g class="edgeLabels"><g class="edgeLabel"><g class="label" data-id="id_CredentialSubject_BankAccount_1" transform="translate(0, 0)"><foreignObject width="0" height="0"><div xmlns="http://www.w3.org/1999/xhtml" class="labelBkg" style="display: table-cell; white-space: nowrap; line-height: 1.5; max-width: 200px; text-align: center;"><span class="edgeLabel"></span></div></foreignObject></g></g><g class="edgeLabel" transform="translate(554.02108, 95.6098)"><g class="label" data-id="id_BankAccount_EconomicOperator_2" transform="translate(-22.09375, -12)"><foreignObject width="44.1875" height="24"><div xmlns="http://www.w3.org/1999/xhtml" class="labelBkg" style="display: table-cell; white-space: nowrap; line-height: 1.5; max-width: 200px; text-align: center;"><span class="edgeLabel"><p>owner</p></span></div></foreignObject></g></g><g class="edgeLabel" transform="translate(555.6015625, 171)"><g class="label" data-id="id_BankAccount_EconomicOperator_3" transform="translate(-29.9921875, -12)"><foreignObject width="59.984375" height="24"><div xmlns="http://www.w3.org/1999/xhtml" class="labelBkg" style="display: table-cell; white-space: nowrap; line-height: 1.5; max-width: 200px; text-align: center;"><span class="edgeLabel"><p>provider</p></span></div></foreignObject></g></g><g class="edgeLabel" transform="translate(555.6015625, 269)"><g class="label" data-id="id_BankAccount_Iban_4" transform="translate(-15.3125, -12)"><foreignObject width="30.625" height="24"><div xmlns="http://www.w3.org/1999/xhtml" class="labelBkg" style="display: table-cell; white-space: nowrap; line-height: 1.5; max-width: 200px; text-align: center;"><span class="edgeLabel"><p>iban</p></span></div></foreignObject></g></g><g class="edgeLabel" transform="translate(865.8984375, 50)"><g class="label" data-id="id_EconomicOperator_ClearingNumber_5" transform="translate(-33.640625, -12)"><foreignObject width="67.28125" height="24"><div xmlns="http://www.w3.org/1999/xhtml" class="labelBkg" style="display: table-cell; white-space: nowrap; line-height: 1.5; max-width: 200px; text-align: center;"><span class="edgeLabel"><p>identifier</p></span></div></foreignObject></g></g><g class="edgeLabel" transform="translate(865.8984375, 184)"><g class="label" data-id="id_EconomicOperator_Bic_6" transform="translate(-33.640625, -12)"><foreignObject width="67.28125" height="24"><div xmlns="http://www.w3.org/1999/xhtml" class="labelBkg" style="display: table-cell; white-space: nowrap; line-height: 1.5; max-width: 200px; text-align: center;"><span class="edgeLabel"><p>identifier</p></span></div></foreignObject></g></g></g><g class="nodes"><g class="node default" id="classId-BankAccount-0" transform="translate(358.625, 171)"><g class="basic label-container"><path d="M-141.984375 -120 L141.984375 -120 L141.984375 120 L-141.984375 120" stroke="none" stroke-width="0" fill="#ECECFF" style=""/><path d="M-141.984375 -120 C-39.80852608592261 -120, 62.367322828154784 -120, 141.984375 -120 M-141.984375 -120 C-53.45611337426587 -120, 35.07214825146826 -120, 141.984375 -120 M141.984375 -120 C141.984375 -71.64235721543497, 141.984375 -23.28471443086994, 141.984375 120 M141.984375 -120 C141.984375 -26.099761857061978, 141.984375 67.80047628587604, 141.984375 120 M141.984375 120 C54.551796617324925 120, -32.88078176535015 120, -141.984375 120 M141.984375 120 C28.688918766896577 120, -84.60653746620685 120, -141.984375 120 M-141.984375 120 C-141.984375 70.74833309524996, -141.984375 21.496666190499923, -141.984375 -120 M-141.984375 120 C-141.984375 61.811617897134695, -141.984375 3.623235794269391, -141.984375 -120" stroke="#9370DB" stroke-width="1.3" fill="none" stroke-dasharray="0 0" style=""/></g><g class="annotation-group text" transform="translate(-24.0234375, -96)"><g class="label" style="" transform="translate(0,-12)"><foreignObject width="48.046875" height="24"><div xmlns="http://www.w3.org/1999/xhtml" style="display: table-cell; white-space: nowrap; line-height: 1.5; max-width: 102px; text-align: center;"><span class="nodeLabel markdown-node-label" style=""><p>«EBW»</p></span></div></foreignObject></g></g><g class="label-group text" transform="translate(-48.53125, -72)"><g class="label" style="font-weight: bolder" transform="translate(0,-12)"><foreignObject width="97.0625" height="24"><div xmlns="http://www.w3.org/1999/xhtml" style="display: table-cell; white-space: nowrap; line-height: 1.5; max-width: 138px; text-align: center;"><span class="nodeLabel markdown-node-label" style=""><p>BankAccount</p></span></div></foreignObject></g></g><g class="members-group text" transform="translate(-129.984375, -24)"><g class="label" style="" transform="translate(0,-12)"><foreignObject width="156.75" height="24"><div xmlns="http://www.w3.org/1999/xhtml" style="display: table-cell; white-space: nowrap; line-height: 1.5; max-width: 196px; text-align: center;"><span class="nodeLabel markdown-node-label" style=""><p>+accountName: string</p></span></div></foreignObject></g><g class="label" style="" transform="translate(0,12)"><foreignObject width="149.109375" height="24"><div xmlns="http://www.w3.org/1999/xhtml" style="display: table-cell; white-space: nowrap; line-height: 1.5; max-width: 190px; text-align: center;"><span class="nodeLabel markdown-node-label" style=""><p>+accountType: string</p></span></div></foreignObject></g><g class="label" style="" transform="translate(0,36)"><foreignObject width="80.234375" height="24"><div xmlns="http://www.w3.org/1999/xhtml" style="display: table-cell; white-space: nowrap; line-height: 1.5; max-width: 128px; text-align: center;"><span class="nodeLabel markdown-node-label" style=""><p>+iban: Iban</p></span></div></foreignObject></g><g class="label" style="" transform="translate(0,60)"><foreignObject width="195.640625" height="24"><div xmlns="http://www.w3.org/1999/xhtml" style="display: table-cell; white-space: nowrap; line-height: 1.5; max-width: 234px; text-align: center;"><span class="nodeLabel markdown-node-label" style=""><p>+owner: EconomicOperator</p></span></div></foreignObject></g><g class="label" style="" transform="translate(0,84)"><foreignObject width="211.4375" height="24"><div xmlns="http://www.w3.org/1999/xhtml" style="display: table-cell; white-space: nowrap; line-height: 1.5; max-width: 248px; text-align: center;"><span class="nodeLabel markdown-node-label" style=""><p>+provider: EconomicOperator</p></span></div></foreignObject></g></g><g class="methods-group text" transform="translate(-129.984375, 120)"/><g class="divider" style=""><path d="M-141.984375 -48 C-34.50965506167324 -48, 72.96506487665351 -48, 141.984375 -48 M-141.984375 -48 C-81.14265123535446 -48, -20.300927470708928 -48, 141.984375 -48" stroke="#9370DB" stroke-width="1.3" fill="none" stroke-dasharray="0 0" style=""/></g><g class="divider" style=""><path d="M-141.984375 96 C-59.12037254241059 96, 23.743629915178815 96, 141.984375 96 M-141.984375 96 C-76.27701426202687 96, -10.569653524053734 96, 141.984375 96" stroke="#9370DB" stroke-width="1.3" fill="none" stroke-dasharray="0 0" style=""/></g></g><g class="node default" id="classId-EconomicOperator-1" transform="translate(708.92578125, 117)"><g class="basic label-container"><path d="M-98.33203125 -60 L98.33203125 -60 L98.33203125 60 L-98.33203125 60" stroke="none" stroke-width="0" fill="#ECECFF" style=""/><path d="M-98.33203125 -60 C-53.40274167201826 -60, -8.473452094036517 -60, 98.33203125 -60 M-98.33203125 -60 C-51.85629436164957 -60, -5.380557473299135 -60, 98.33203125 -60 M98.33203125 -60 C98.33203125 -20.254487533132497, 98.33203125 19.491024933735005, 98.33203125 60 M98.33203125 -60 C98.33203125 -30.352894361816027, 98.33203125 -0.7057887236320539, 98.33203125 60 M98.33203125 60 C28.66462469572464 60, -41.00278185855072 60, -98.33203125 60 M98.33203125 60 C56.816169126807296 60, 15.300307003614591 60, -98.33203125 60 M-98.33203125 60 C-98.33203125 12.54439003251482, -98.33203125 -34.91121993497036, -98.33203125 -60 M-98.33203125 60 C-98.33203125 32.49979635162992, -98.33203125 4.999592703259836, -98.33203125 -60" stroke="#9370DB" stroke-width="1.3" fill="none" stroke-dasharray="0 0" style=""/></g><g class="annotation-group text" transform="translate(0, -36)"/><g class="label-group text" transform="translate(-69.2109375, -36)"><g class="label" style="font-weight: bolder" transform="translate(0,-12)"><foreignObject width="138.421875" height="24"><div xmlns="http://www.w3.org/1999/xhtml" style="display: table-cell; white-space: nowrap; line-height: 1.5; max-width: 172px; text-align: center;"><span class="nodeLabel markdown-node-label" style=""><p>EconomicOperator</p></span></div></foreignObject></g></g><g class="members-group text" transform="translate(-86.33203125, 12)"><g class="label" style="" transform="translate(0,-12)"><foreignObject width="103.453125" height="24"><div xmlns="http://www.w3.org/1999/xhtml" style="display: table-cell; white-space: nowrap; line-height: 1.5; max-width: 142px; text-align: center;"><span class="nodeLabel markdown-node-label" style=""><p>identifier: List</p></span></div></foreignObject></g></g><g class="methods-group text" transform="translate(-86.33203125, 60)"/><g class="divider" style=""><path d="M-98.33203125 -12 C-30.478883462198127 -12, 37.37426432560375 -12, 98.33203125 -12 M-98.33203125 -12 C-46.24270976406977 -12, 5.846611721860455 -12, 98.33203125 -12" stroke="#9370DB" stroke-width="1.3" fill="none" stroke-dasharray="0 0" style=""/></g><g class="divider" style=""><path d="M-98.33203125 36 C-52.318666449869326 36, -6.305301649738652 36, 98.33203125 36 M-98.33203125 36 C-24.335687225562012 36, 49.660656798875976 36, 98.33203125 36" stroke="#9370DB" stroke-width="1.3" fill="none" stroke-dasharray="0 0" style=""/></g></g><g class="node default" id="classId-Bic-2" transform="translate(996.8046875, 184)"><g class="basic label-container"><path d="M-23.2421875 -42 L23.2421875 -42 L23.2421875 42 L-23.2421875 42" stroke="none" stroke-width="0" fill="#ECECFF" style=""/><path d="M-23.2421875 -42 C-5.088003146948228 -42, 13.066181206103543 -42, 23.2421875 -42 M-23.2421875 -42 C-7.59475519637517 -42, 8.05267710724966 -42, 23.2421875 -42 M23.2421875 -42 C23.2421875 -14.593604492488478, 23.2421875 12.812791015023045, 23.2421875 42 M23.2421875 -42 C23.2421875 -8.524994115001945, 23.2421875 24.95001176999611, 23.2421875 42 M23.2421875 42 C8.945774836828745 42, -5.35063782634251 42, -23.2421875 42 M23.2421875 42 C5.929720184660923 42, -11.382747130678155 42, -23.2421875 42 M-23.2421875 42 C-23.2421875 13.88943293035845, -23.2421875 -14.221134139283102, -23.2421875 -42 M-23.2421875 42 C-23.2421875 15.22091763627271, -23.2421875 -11.558164727454582, -23.2421875 -42" stroke="#9370DB" stroke-width="1.3" fill="none" stroke-dasharray="0 0" style=""/></g><g class="annotation-group text" transform="translate(0, -18)"/><g class="label-group text" transform="translate(-11.2421875, -18)"><g class="label" style="font-weight: bolder" transform="translate(0,-12)"><foreignObject width="22.484375" height="24"><div xmlns="http://www.w3.org/1999/xhtml" style="display: table-cell; white-space: nowrap; line-height: 1.5; max-width: 72px; text-align: center;"><span class="nodeLabel markdown-node-label" style=""><p>Bic</p></span></div></foreignObject></g></g><g class="members-group text" transform="translate(-11.2421875, 30)"/><g class="methods-group text" transform="translate(-11.2421875, 60)"/><g class="divider" style=""><path d="M-23.2421875 6 C-13.465072107647263 6, -3.6879567152945256 6, 23.2421875 6 M-23.2421875 6 C-5.972558691535465 6, 11.29707011692907 6, 23.2421875 6" stroke="#9370DB" stroke-width="1.3" fill="none" stroke-dasharray="0 0" style=""/></g><g class="divider" style=""><path d="M-23.2421875 24 C-7.568386496390891 24, 8.105414507218217 24, 23.2421875 24 M-23.2421875 24 C-10.429744707861754 24, 2.382698084276491 24, 23.2421875 24" stroke="#9370DB" stroke-width="1.3" fill="none" stroke-dasharray="0 0" style=""/></g></g><g class="node default" id="classId-Iban-3" transform="translate(708.92578125, 269)"><g class="basic label-container"><path d="M-27.8671875 -42 L27.8671875 -42 L27.8671875 42 L-27.8671875 42" stroke="none" stroke-width="0" fill="#ECECFF" style=""/><path d="M-27.8671875 -42 C-12.987205672923166 -42, 1.892776154153669 -42, 27.8671875 -42 M-27.8671875 -42 C-13.813193908651172 -42, 0.24079968269765573 -42, 27.8671875 -42 M27.8671875 -42 C27.8671875 -10.392148954919204, 27.8671875 21.215702090161592, 27.8671875 42 M27.8671875 -42 C27.8671875 -12.310677393234371, 27.8671875 17.378645213531257, 27.8671875 42 M27.8671875 42 C14.132010435826336 42, 0.3968333716526722 42, -27.8671875 42 M27.8671875 42 C14.894151114965085 42, 1.9211147299301707 42, -27.8671875 42 M-27.8671875 42 C-27.8671875 14.052664663309919, -27.8671875 -13.894670673380162, -27.8671875 -42 M-27.8671875 42 C-27.8671875 24.104196238675563, -27.8671875 6.208392477351126, -27.8671875 -42" stroke="#9370DB" stroke-width="1.3" fill="none" stroke-dasharray="0 0" style=""/></g><g class="annotation-group text" transform="translate(0, -18)"/><g class="label-group text" transform="translate(-15.8671875, -18)"><g class="label" style="font-weight: bolder" transform="translate(0,-12)"><foreignObject width="31.734375" height="24"><div xmlns="http://www.w3.org/1999/xhtml" style="display: table-cell; white-space: nowrap; line-height: 1.5; max-width: 78px; text-align: center;"><span class="nodeLabel markdown-node-label" style=""><p>Iban</p></span></div></foreignObject></g></g><g class="members-group text" transform="translate(-15.8671875, 30)"/><g class="methods-group text" transform="translate(-15.8671875, 60)"/><g class="divider" style=""><path d="M-27.8671875 6 C-10.557028462863002 6, 6.753130574273996 6, 27.8671875 6 M-27.8671875 6 C-7.250857267087188 6, 13.365472965825624 6, 27.8671875 6" stroke="#9370DB" stroke-width="1.3" fill="none" stroke-dasharray="0 0" style=""/></g><g class="divider" style=""><path d="M-27.8671875 24 C-16.350423193663637 24, -4.833658887327271 24, 27.8671875 24 M-27.8671875 24 C-11.657073950010929 24, 4.553039599978142 24, 27.8671875 24" stroke="#9370DB" stroke-width="1.3" fill="none" stroke-dasharray="0 0" style=""/></g></g><g class="node default" id="classId-ClearingNumber-4" transform="translate(996.8046875, 50)"><g class="basic label-container"><path d="M-72.265625 -42 L72.265625 -42 L72.265625 42 L-72.265625 42" stroke="none" stroke-width="0" fill="#ECECFF" style=""/><path d="M-72.265625 -42 C-40.290947368442204 -42, -8.3162697368844 -42, 72.265625 -42 M-72.265625 -42 C-32.59996804962199 -42, 7.065688900756015 -42, 72.265625 -42 M72.265625 -42 C72.265625 -8.797120112636378, 72.265625 24.405759774727244, 72.265625 42 M72.265625 -42 C72.265625 -24.68393444157853, 72.265625 -7.367868883157058, 72.265625 42 M72.265625 42 C16.471140440740896 42, -39.32334411851821 42, -72.265625 42 M72.265625 42 C41.900208420354446 42, 11.534791840708884 42, -72.265625 42 M-72.265625 42 C-72.265625 21.567894600254988, -72.265625 1.1357892005099757, -72.265625 -42 M-72.265625 42 C-72.265625 24.135256760972982, -72.265625 6.270513521945965, -72.265625 -42" stroke="#9370DB" stroke-width="1.3" fill="none" stroke-dasharray="0 0" style=""/></g><g class="annotation-group text" transform="translate(0, -18)"/><g class="label-group text" transform="translate(-60.265625, -18)"><g class="label" style="font-weight: bolder" transform="translate(0,-12)"><foreignObject width="120.53125" height="24"><div xmlns="http://www.w3.org/1999/xhtml" style="display: table-cell; white-space: nowrap; line-height: 1.5; max-width: 158px; text-align: center;"><span class="nodeLabel markdown-node-label" style=""><p>ClearingNumber</p></span></div></foreignObject></g></g><g class="members-group text" transform="translate(-60.265625, 30)"/><g class="methods-group text" transform="translate(-60.265625, 60)"/><g class="divider" style=""><path d="M-72.265625 6 C-31.58385816905998 6, 9.09790866188004 6, 72.265625 6 M-72.265625 6 C-16.154373602436266 6, 39.95687779512747 6, 72.265625 6" stroke="#9370DB" stroke-width="1.3" fill="none" stroke-dasharray="0 0" style=""/></g><g class="divider" style=""><path d="M-72.265625 24 C-40.904610111698396 24, -9.543595223396792 24, 72.265625 24 M-72.265625 24 C-32.26884364788104 24, 7.727937704237917 24, 72.265625 24" stroke="#9370DB" stroke-width="1.3" fill="none" stroke-dasharray="0 0" style=""/></g></g><g class="node default" id="classId-CredentialSubject-5" transform="translate(87.3203125, 171)"><g class="basic label-container"><path d="M-79.3203125 -54 L79.3203125 -54 L79.3203125 54 L-79.3203125 54" stroke="none" stroke-width="0" fill="#ECECFF" style=""/><path d="M-79.3203125 -54 C-41.72878383082696 -54, -4.1372551616539255 -54, 79.3203125 -54 M-79.3203125 -54 C-46.15024938183051 -54, -12.980186263661025 -54, 79.3203125 -54 M79.3203125 -54 C79.3203125 -12.228524774650936, 79.3203125 29.54295045069813, 79.3203125 54 M79.3203125 -54 C79.3203125 -24.190450278004764, 79.3203125 5.619099443990471, 79.3203125 54 M79.3203125 54 C21.463325052671827 54, -36.393662394656346 54, -79.3203125 54 M79.3203125 54 C41.91091135054694 54, 4.501510201093879 54, -79.3203125 54 M-79.3203125 54 C-79.3203125 21.529270765983625, -79.3203125 -10.94145846803275, -79.3203125 -54 M-79.3203125 54 C-79.3203125 27.803850783703112, -79.3203125 1.6077015674062238, -79.3203125 -54" stroke="#9370DB" stroke-width="1.3" fill="none" stroke-dasharray="0 0" style=""/></g><g class="annotation-group text" transform="translate(-38.34375, -30)"><g class="label" style="" transform="translate(0,-12)"><foreignObject width="76.6875" height="24"><div xmlns="http://www.w3.org/1999/xhtml" style="display: table-cell; white-space: nowrap; line-height: 1.5; max-width: 118px; text-align: center;"><span class="nodeLabel markdown-node-label" style=""><p>«external»</p></span></div></foreignObject></g></g><g class="label-group text" transform="translate(-67.3203125, -6)"><g class="label" style="font-weight: bolder" transform="translate(0,-12)"><foreignObject width="134.640625" height="24"><div xmlns="http://www.w3.org/1999/xhtml" style="display: table-cell; white-space: nowrap; line-height: 1.5; max-width: 165px; text-align: center;"><span class="nodeLabel markdown-node-label" style=""><p>CredentialSubject</p></span></div></foreignObject></g></g><g class="members-group text" transform="translate(-67.3203125, 42)"/><g class="methods-group text" transform="translate(-67.3203125, 72)"/><g class="divider" style=""><path d="M-79.3203125 18 C-25.37860524715323 18, 28.563102005693537 18, 79.3203125 18 M-79.3203125 18 C-39.55627483500373 18, 0.20776282999254647 18, 79.3203125 18" stroke="#9370DB" stroke-width="1.3" fill="none" stroke-dasharray="0 0" style=""/></g><g class="divider" style=""><path d="M-79.3203125 36 C-18.994359363861953 36, 41.33159377227609 36, 79.3203125 36 M-79.3203125 36 C-32.65767079354394 36, 14.004970912912114 36, 79.3203125 36" stroke="#9370DB" stroke-width="1.3" fill="none" stroke-dasharray="0 0" style=""/></g></g></g></g></g></svg>