<svg id="my-svg" width="100%" xmlns="http://www.w3.org/2000/svg" xmlns:xlink="http://www.w3.org/1999/xlink" class="classDiagram" style="max-width: 771.727px; background-color: white;" viewBox="0 0 771.7265625 318" role="graphics-document document" aria-roledescription="class"><style>#my-svg{font-family:"trebuchet ms",verdana,arial,sans-serif;font-size:16px;fill:#333;}@keyframes edge-animation-frame{from{stroke-dashoffset:0;}}@keyframes dash{to{stroke-dashoffset:0;}}#my-svg .edge-animation-slow{stroke-dasharray:9,5!important;stroke-dashoffset:900;animation:dash 50s linear infinite;stroke-linecap:round;}#my-svg .edge-animation-fast{stroke-dasharray:9,5!important;stroke-dashoffset:900;animation:dash 20s linear infinite;stroke-linecap:round;}#my-svg .error-icon{fill:#552222;}#my-svg .error-text{fill:#552222;stroke:#552222;}#my-svg .edge-thickness-normal{stroke-width:1px;}#my-svg .edge-thickness-thick{stroke-width:3.5px;}#my-svg .edge-pattern-solid{stroke-dasharray:0;}#my-svg .edge-thickness-invisible{stroke-width:0;fill:none;}#my-svg .edge-pattern-dashed{stroke-dasharray:3;}#my-svg .edge-pattern-dotted{stroke-dasharray:2;}#my-svg .marker{fill:#333333;stroke:#333333;}#my-svg .marker.cross{stroke:#333333;}#my-svg svg{font-family:"trebuchet ms",verdana,arial,sans-serif;font-size:16px;}#my-svg p{margin:0;}#my-svg g.classGroup text{fill:#9370DB;stroke:none;font-family:"trebuchet ms",verdana,arial,sans-serif;font-size:10px;}#my-svg g.classGroup text .title{font-weight:bolder;}#my-svg .cluster-label text{fill:#333;}#my-svg .cluster-label span{color:#333;}#my-svg .cluster-label span p{background-color:transparent;}#my-svg .cluster rect{fill:#ffffde;stroke:#aaaa33;stroke-width:1px;}#my-svg .cluster text{fill:#333;}#my-svg .cluster span{color:#333;}#my-svg .nodeLabel,#my-svg .edgeLabel{color:#131300;}#my-svg .edgeLabel .label rect{fill:#ECECFF;}#my-svg .label text{fill:#131300;}#my-svg .labelBkg{background:#ECECFF;}#my-svg .edgeLabel .label span{background:#ECECFF;}#my-svg .classTitle{font-weight:bolder;}#my-svg .node rect,#my-svg .node circle,#my-svg .node ellipse,#my-svg .node polygon,#my-svg .node path{fill:#ECECFF;stroke:#9370DB;stroke-width:1px;}#my-svg .divider{stroke:#9370DB;stroke-width:1;}#my-svg g.clickable{cursor:pointer;}#my-svg g.classGroup rect{fill:#ECECFF;stroke:#9370DB;}#my-svg g.classGroup line{stroke:#9370DB;stroke-width:1;}#my-svg .classLabel .box{stroke:none;stroke-width:0;fill:#ECECFF;opacity:0.5;}#my-svg .classLabel .label{fill:#9370DB;font-size:10px;}#my-svg .relation{stroke:#333333;stroke-width:1;fill:none;}#my-svg .dashed-line{stroke-dasharray:3;}#my-svg .dotted-line{stroke-dasharray:1 2;}#my-svg #compositionStart,#my-svg .composition{fill:#333333!important;stroke:#333333!important;stroke-width:1;}#my-svg #compositionEnd,#my-svg .composition{fill:#333333!important;stroke:#333333!important;stroke-width:1;}#my-svg #dependencyStart,#my-svg .dependency{fill:#333333!important;stroke:#333333!important;stroke-width:1;}#my-svg #dependencyStart,#my-svg .dependency{fill:#333333!important;stroke:#333333!important;stroke-width:1;}#my-svg #extensionStart,#my-svg .extension{fill:transparent!important;stroke:#333333!important;stroke-width:1;}#my-svg #extensionEnd,#my-svg .extension{fill:transparent!important;stroke:#333333!important;stroke-width:1;}#my-svg #aggregationStart,#my-svg .aggregation{fill:transparent!important;stroke:#333333!important;stroke-width:1;}#my-svg #aggregationEnd,#my-svg .aggregation{fill:transparent!important;stroke:#333333!important;stroke-width:1;}#my-svg #lollipopStart,#my-svg .lollipop{fill:#ECECFF!important;stroke:#333333!important;stroke-width:1;}#my-svg #lollipopEnd,#my-svg .lollipop{fill:#ECECFF!important;stroke:#333333!important;stroke-width:1;}#my-svg .edgeTerminals{font-size:11px;line-height:initial;}#my-svg .classTitleText{text-anchor:middle;font-size:18px;fill:#333;}#my-svg .label-icon{display:inline-block;height:1em;overflow:visible;vertical-align:-0.125em;}#my-svg .node .label-icon path{fill:currentColor;stroke:revert;stroke-width:revert;}#my-svg :root{--mermaid-font-family:"trebuchet ms",verdana,arial,sans-serif;}</style><g><defs><marker id="my-svg_class-aggregationStart" class="marker aggregation class" refX="18" refY="7" markerWidth="190" markerHeight="240" orient="auto"><path d="M 18,7 L9,13 L1,7 L9,1 Z"/></marker></defs><defs><marker id="my-svg_class-aggregationEnd" class="marker aggregation class" refX="1" refY="7" markerWidth="20" markerHeight="28" orient="auto"><path d="M 18,7 L9,13 L1,7 L9,1 Z"/></marker></defs><defs><marker id="my-svg_class-extensionStart" class="marker extension class" refX="18" refY="7" markerWidth="190" markerHeight="240" orient="auto"><path d="M 1,7 L18,13 V 1 Z"/></marker></defs><defs><marker id="my-svg_class-extensionEnd" class="marker extension class" refX="1" refY="7" markerWidth="20" markerHeight="28" orient="auto"><path d="M 1,1 V 13 L18,7 Z"/></marker></defs><defs><marker id="my-svg_class-compositionStart" class="marker composition class" refX="18" refY="7" markerWidth="190" markerHeight="240" orient="auto"><path d="M 18,7 L9,13 L1,7 L9,1 Z"/></marker></defs><defs><marker id="my-svg_class-compositionEnd" class="marker composition class" refX="1" refY="7" markerWidth="20" markerHeight="28" orient="auto"><path d="M 18,7 L9,13 L1,7 L9,1 Z"/></marker></defs><defs><marker id="my-svg_class-dependencyStart" class="marker dependency class" refX="6" refY="7" markerWidth="190" markerHeight="240" orient="auto"><path d="M 5,7 L9,13 L1,7 L9,1 Z"/></marker></defs><defs><marker id="my-svg_class-dependencyEnd" class="marker dependency class" refX="13" refY="7" markerWidth="20" markerHeight="28" orient="auto"><path d="M 18,7 L9,13 L14,7 L9,1 Z"/></marker></defs><defs><marker id="my-svg_class-lollipopStart" class="marker lollipop class" refX="13" refY="7" markerWidth="190" markerHeight="240" orient="auto"><circle fill="transparent" cx="7" cy="7" r="6"/></marker></defs><defs><marker id="my-svg_class-lollipopEnd" class="marker lollipop class" refX="1" refY="7" markerWidth="190" markerHeight="240" orient="auto"><circle fill="transparent" cx="7" cy="7" r="6"/></marker></defs><g class="root"><g class="clusters"/><g class="edgePaths"><path d="M177.628,103.355L182.591,99.462C187.554,95.57,197.48,87.785,206.61,83.892C215.74,80,224.073,80,228.24,80L232.406,80" id="id_VerifiableCredential_ElectronicAttestationOfAttributes_1" class="edge-thickness-normal edge-pattern-solid relation" style=";;;" data-edge="true" data-et="edge" data-id="id_VerifiableCredential_ElectronicAttestationOfAttributes_1" data-points="W3sieCI6MTY0LjA1NTA0MjYxMzYzNjM3LCJ5IjoxMTR9LHsieCI6MjA3LjQwNjI1LCJ5Ijo4MH0seyJ4IjoyMzIuNDA2MjUsInkiOjgwfV0=" marker-start="url(#my-svg_class-extensionStart)"/><path d="M177.628,232.645L182.591,236.538C187.554,240.43,197.48,248.215,237.667,252.108C277.853,256,348.299,256,383.523,256L418.746,256" id="id_VerifiableCredential_CredentialSubject_2" class="edge-thickness-normal edge-pattern-solid relation" style=";;;" data-edge="true" data-et="edge" data-id="id_VerifiableCredential_CredentialSubject_2" data-points="W3sieCI6MTY0LjA1NTA0MjYxMzYzNjM3LCJ5IjoyMjJ9LHsieCI6MjA3LjQwNjI1LCJ5IjoyNTZ9LHsieCI6NDE4Ljc0NjA5Mzc1LCJ5IjoyNTZ9XQ==" marker-start="url(#my-svg_class-compositionStart)"/></g><g class="edgeLabels"><g class="edgeLabel"><g class="label" data-id="id_VerifiableCredential_ElectronicAttestationOfAttributes_1" transform="translate(0, 0)"><foreignObject width="0" height="0"><div xmlns="http://www.w3.org/1999/xhtml" class="labelBkg" style="display: table-cell; white-space: nowrap; line-height: 1.5; max-width: 200px; text-align: center;"><span class="edgeLabel"></span></div></foreignObject></g></g><g class="edgeLabel"><g class="label" data-id="id_VerifiableCredential_CredentialSubject_2" transform="translate(0, 0)"><foreignObject width="0" height="0"><div xmlns="http://www.w3.org/1999/xhtml" class="labelBkg" style="display: table-cell; white-space: nowrap; line-height: 1.5; max-width: 200px; text-align: center;"><span class="edgeLabel"></span></div></foreignObject></g></g></g><g class="nodes"><g class="node default" id="classId-ElectronicAttestationOfAttributes-0" transform="translate(498.06640625, 80)"><g class="basic label-container"><path d="M-265.66015625 -72 L265.66015625 -72 L265.66015625 72 L-265.66015625 72" stroke="none" stroke-width="0" fill="#ECECFF" style=""/><path d="M-265.66015625 -72 C-152.06530116359545 -72, -38.47044607719093 -72, 265.66015625 -72 M-265.66015625 -72 C-90.68202385254037 -72, 84.29610854491926 -72, 265.66015625 -72 M265.66015625 -72 C265.66015625 -26.21507848775689, 265.66015625 19.569843024486218, 265.66015625 72 M265.66015625 -72 C265.66015625 -29.764129765456936, 265.66015625 12.471740469086129, 265.66015625 72 M265.66015625 72 C57.58132796893801 72, -150.49750031212398 72, -265.66015625 72 M265.66015625 72 C90.3307949001175 72, -84.99856644976501 72, -265.66015625 72 M-265.66015625 72 C-265.66015625 42.14782252011843, -265.66015625 12.295645040236863, -265.66015625 -72 M-265.66015625 72 C-265.66015625 33.0054145472961, -265.66015625 -5.9891709054078035, -265.66015625 -72" stroke="#9370DB" stroke-width="1.3" fill="none" stroke-dasharray="0 0" style=""/></g><g class="annotation-group text" transform="translate(-24.0234375, -48)"><g class="label" style="" transform="translate(0,-12)"><foreignObject width="48.046875" height="24"><div xmlns="http://www.w3.org/1999/xhtml" style="display: table-cell; white-space: nowrap; line-height: 1.5; max-width: 102px; text-align: center;"><span class="nodeLabel markdown-node-label" style=""><p>«EBW»</p></span></div></foreignObject></g></g><g class="label-group text" transform="translate(-126.0078125, -24)"><g class="label" style="font-weight: bolder" transform="translate(0,-12)"><foreignObject width="252.015625" height="24"><div xmlns="http://www.w3.org/1999/xhtml" style="display: table-cell; white-space: nowrap; line-height: 1.5; max-width: 267px; text-align: center;"><span class="nodeLabel markdown-node-label" style=""><p>ElectronicAttestationOfAttributes</p></span></div></foreignObject></g></g><g class="members-group text" transform="translate(-253.66015625, 24)"><g class="label" style="" transform="translate(0,-12)"><foreignObject width="381.3125" height="24"><div xmlns="http://www.w3.org/1999/xhtml" style="display: table-cell; white-space: nowrap; line-height: 1.5; max-width: 397px; text-align: center;"><span class="nodeLabel markdown-node-label" style=""><p>+attestationLegalCategory: AttestationLegalCategory</p></span></div></foreignObject></g></g><g class="methods-group text" transform="translate(-253.66015625, 72)"/><g class="divider" style=""><path d="M-265.66015625 0 C-58.66299435183922 0, 148.33416754632157 0, 265.66015625 0 M-265.66015625 0 C-125.678330591021 0, 14.30349506795801 0, 265.66015625 0" stroke="#9370DB" stroke-width="1.3" fill="none" stroke-dasharray="0 0" style=""/></g><g class="divider" style=""><path d="M-265.66015625 48 C-59.96751239862692 48, 145.72513145274615 48, 265.66015625 48 M-265.66015625 48 C-86.94709346420447 48, 91.76596932159106 48, 265.66015625 48" stroke="#9370DB" stroke-width="1.3" fill="none" stroke-dasharray="0 0" style=""/></g></g><g class="node default" id="classId-VerifiableCredential-1" transform="translate(95.203125, 168)"><g class="basic label-container"><path d="M-87.203125 -54 L87.203125 -54 L87.203125 54 L-87.203125 54" stroke="none" stroke-width="0" fill="#ECECFF" style=""/><path d="M-87.203125 -54 C-30.066701653773798 -54, 27.069721692452404 -54, 87.203125 -54 M-87.203125 -54 C-49.71185032527877 -54, -12.220575650557535 -54, 87.203125 -54 M87.203125 -54 C87.203125 -23.973140894097032, 87.203125 6.053718211805936, 87.203125 54 M87.203125 -54 C87.203125 -25.344644810104803, 87.203125 3.310710379790393, 87.203125 54 M87.203125 54 C28.8521835587406 54, -29.498757882518802 54, -87.203125 54 M87.203125 54 C17.511963380144266 54, -52.17919823971147 54, -87.203125 54 M-87.203125 54 C-87.203125 22.515851487566454, -87.203125 -8.968297024867091, -87.203125 -54 M-87.203125 54 C-87.203125 19.433715334063386, -87.203125 -15.132569331873228, -87.203125 -54" stroke="#9370DB" stroke-width="1.3" fill="none" stroke-dasharray="0 0" style=""/></g><g class="annotation-group text" transform="translate(-38.34375, -30)"><g class="label" style="" transform="translate(0,-12)"><foreignObject width="76.6875" height="24"><div xmlns="http://www.w3.org/1999/xhtml" style="display: table-cell; white-space: nowrap; line-height: 1.5; max-width: 118px; text-align: center;"><span class="nodeLabel markdown-node-label" style=""><p>«external»</p></span></div></foreignObject></g></g><g class="label-group text" transform="translate(-75.203125, -6)"><g class="label" style="font-weight: bolder" transform="translate(0,-12)"><foreignObject width="150.40625" height="24"><div xmlns="http://www.w3.org/1999/xhtml" style="display: table-cell; white-space: nowrap; line-height: 1.5; max-width: 180px; text-align: center;"><span class="nodeLabel markdown-node-label" style=""><p>VerifiableCredential</p></span></div></foreignObject></g></g><g class="members-group text" transform="translate(-75.203125, 42)"/><g class="methods-group text" transform="translate(-75.203125, 72)"/><g class="divider" style=""><path d="M-87.203125 18 C-28.498348671711582 18, 30.206427656576835 18, 87.203125 18 M-87.203125 18 C-38.26660107188289 18, 10.669922856234223 18, 87.203125 18" stroke="#9370DB" stroke-width="1.3" fill="none" stroke-dasharray="0 0" style=""/></g><g class="divider" style=""><path d="M-87.203125 36 C-36.503492759387136 36, 14.196139481225728 36, 87.203125 36 M-87.203125 36 C-26.559967888660346 36, 34.08318922267931 36, 87.203125 36" stroke="#9370DB" stroke-width="1.3" fill="none" stroke-dasharray="0 0" style=""/></g></g><g class="node default" id="classId-CredentialSubject-2" transform="translate(498.06640625, 256)"><g class="basic label-container"><path d="M-79.3203125 -54 L79.3203125 -54 L79.3203125 54 L-79.3203125 54" stroke="none" stroke-width="0" fill="#ECECFF" style=""/><path d="M-79.3203125 -54 C-39.36839698043873 -54, 0.5835185391225366 -54, 79.3203125 -54 M-79.3203125 -54 C-31.32469508088174 -54, 16.670922338236522 -54, 79.3203125 -54 M79.3203125 -54 C79.3203125 -19.145765480468462, 79.3203125 15.708469039063075, 79.3203125 54 M79.3203125 -54 C79.3203125 -15.474452248640354, 79.3203125 23.051095502719292, 79.3203125 54 M79.3203125 54 C33.29773128872095 54, -12.724849922558107 54, -79.3203125 54 M79.3203125 54 C37.83478049799062 54, -3.650751504018757 54, -79.3203125 54 M-79.3203125 54 C-79.3203125 23.000495100053357, -79.3203125 -7.999009799893287, -79.3203125 -54 M-79.3203125 54 C-79.3203125 30.694670641083334, -79.3203125 7.389341282166669, -79.3203125 -54" stroke="#9370DB" stroke-width="1.3" fill="none" stroke-dasharray="0 0" style=""/></g><g class="annotation-group text" transform="translate(-38.34375, -30)"><g class="label" style="" transform="translate(0,-12)"><foreignObject width="76.6875" height="24"><div xmlns="http://www.w3.org/1999/xhtml" style="display: table-cell; white-space: nowrap; line-height: 1.5; max-width: 118px; text-align: center;"><span class="nodeLabel markdown-node-label" style=""><p>«external»</p></span></div></foreignObject></g></g><g class="label-group text" transform="translate(-67.3203125, -6)"><g class="label" style="font-weight: bolder" transform="translate(0,-12)"><foreignObject width="134.640625" height="24"><div xmlns="http://www.w3.org/1999/xhtml" style="display: table-cell; white-space: nowrap; line-height: 1.5; max-width: 165px; text-align: center;"><span class="nodeLabel markdown-node-label" style=""><p>CredentialSubject</p></span></div></foreignObject></g></g><g class="members-group text" transform="translate(-67.3203125, 42)"/><g class="methods-group text" transform="translate(-67.3203125, 72)"/><g class="divider" style=""><path d="M-79.3203125 18 C-37.99779410399988 18, 3.3247242920002407 18, 79.3203125 18 M-79.3203125 18 C-34.005870202722036 18, 11.308572094555927 18, 79.3203125 18" stroke="#9370DB" stroke-width="1.3" fill="none" stroke-dasharray="0 0" style=""/></g><g class="divider" style=""><path d="M-79.3203125 36 C-23.241814634818148 36, 32.836683230363704 36, 79.3203125 36 M-79.3203125 36 C-28.98885348626237 36, 21.342605527475257 36, 79.3203125 36" stroke="#9370DB" stroke-width="1.3" fill="none" stroke-dasharray="0 0" style=""/></g></g></g></g></g></svg>