<svg id="my-svg" width="100%" xmlns="http://www.w3.org/2000/svg" xmlns:xlink="http://www.w3.org/1999/xlink" class="classDiagram" style="max-width: 987.383px; background-color: white;" viewBox="0 0 987.3828125 319" role="graphics-document document" aria-roledescription="class"><style>#my-svg{font-family:"trebuchet ms",verdana,arial,sans-serif;font-size:16px;fill:#333;}@keyframes edge-animation-frame{from{stroke-dashoffset:0;}}@keyframes dash{to{stroke-dashoffset:0;}}#my-svg .edge-animation-slow{stroke-dasharray:9,5!important;stroke-dashoffset:900;animation:dash 50s linear infinite;stroke-linecap:round;}#my-svg .edge-animation-fast{stroke-dasharray:9,5!important;stroke-dashoffset:900;animation:dash 20s linear infinite;stroke-linecap:round;}#my-svg .error-icon{fill:#552222;}#my-svg .error-text{fill:#552222;stroke:#552222;}#my-svg .edge-thickness-normal{stroke-width:1px;}#my-svg .edge-thickness-thick{stroke-width:3.5px;}#my-svg .edge-pattern-solid{stroke-dasharray:0;}#my-svg .edge-thickness-invisible{stroke-width:0;fill:none;}#my-svg .edge-pattern-dashed{stroke-dasharray:3;}#my-svg .edge-pattern-dotted{stroke-dasharray:2;}#my-svg .marker{fill:#333333;stroke:#333333;}#my-svg .marker.cross{stroke:#333333;}#my-svg svg{font-family:"trebuchet ms",verdana,arial,sans-serif;font-size:16px;}#my-svg p{margin:0;}#my-svg g.classGroup text{fill:#9370DB;stroke:none;font-family:"trebuchet ms",verdana,arial,sans-serif;font-size:10px;}#my-svg g.classGroup text .title{font-weight:bolder;}#my-svg .cluster-label text{fill:#333;}#my-svg .cluster-label span{color:#333;}#my-svg .cluster-label span p{background-color:transparent;}#my-svg .cluster rect{fill:#ffffde;stroke:#aaaa33;stroke-width:1px;}#my-svg .cluster text{fill:#333;}#my-svg .cluster span{color:#333;}#my-svg .nodeLabel,#my-svg .edgeLabel{color:#131300;}#my-svg .edgeLabel .label rect{fill:#ECECFF;}#my-svg .label text{fill:#131300;}#my-svg .labelBkg{background:#ECECFF;}#my-svg .edgeLabel .label span{background:#ECECFF;}#my-svg .classTitle{font-weight:bolder;}#my-svg .node rect,#my-svg .node circle,#my-svg .node ellipse,#my-svg .node polygon,#my-svg .node path{fill:#ECECFF;stroke:#9370DB;stroke-width:1px;}#my-svg .divider{stroke:#9370DB;stroke-width:1;}#my-svg g.clickable{cursor:pointer;}#my-svg g.classGroup rect{fill:#ECECFF;stroke:#9370DB;}#my-svg g.classGroup line{stroke:#9370DB;stroke-width:1;}#my-svg .classLabel .box{stroke:none;stroke-width:0;fill:#ECECFF;opacity:0.5;}#my-svg .classLabel .label{fill:#9370DB;font-size:10px;}#my-svg .relation{stroke:#333333;stroke-width:1;fill:none;}#my-svg .dashed-line{stroke-dasharray:3;}#my-svg .dotted-line{stroke-dasharray:1 2;}#my-svg #compositionStart,#my-svg .composition{fill:#333333!important;stroke:#333333!important;stroke-width:1;}#my-svg #compositionEnd,#my-svg .composition{fill:#333333!important;stroke:#333333!important;stroke-width:1;}#my-svg #dependencyStart,#my-svg .dependency{fill:#333333!important;stroke:#333333!important;stroke-width:1;}#my-svg #dependencyStart,#my-svg .dependency{fill:#333333!important;stroke:#333333!important;stroke-width:1;}#my-svg #extensionStart,#my-svg .extension{fill:transparent!important;stroke:#333333!important;stroke-width:1;}#my-svg #extensionEnd,#my-svg .extension{fill:transparent!important;stroke:#333333!important;stroke-width:1;}#my-svg #aggregationStart,#my-svg .aggregation{fill:transparent!important;stroke:#333333!important;stroke-width:1;}#my-svg #aggregationEnd,#my-svg .aggregation{fill:transparent!important;stroke:#333333!important;stroke-width:1;}#my-svg #lollipopStart,#my-svg .lollipop{fill:#ECECFF!important;stroke:#333333!important;stroke-width:1;}#my-svg #lollipopEnd,#my-svg .lollipop{fill:#ECECFF!important;stroke:#333333!important;stroke-width:1;}#my-svg .edgeTerminals{font-size:11px;line-height:initial;}#my-svg .classTitleText{text-anchor:middle;font-size:18px;fill:#333;}#my-svg .label-icon{display:inline-block;height:1em;overflow:visible;vertical-align:-0.125em;}#my-svg .node .label-icon path{fill:currentColor;stroke:revert;stroke-width:revert;}#my-svg :root{--mermaid-font-family:"trebuchet ms",verdana,arial,sans-serif;}</style><g><defs><marker id="my-svg_class-aggregationStart" class="marker aggregation class" refX="18" refY="7" markerWidth="190" markerHeight="240" orient="auto"><path d="M 18,7 L9,13 L1,7 L9,1 Z"/></marker></defs><defs><marker id="my-svg_class-aggregationEnd" class="marker aggregation class" refX="1" refY="7" markerWidth="20" markerHeight="28" orient="auto"><path d="M 18,7 L9,13 L1,7 L9,1 Z"/></marker></defs><defs><marker id="my-svg_class-extensionStart" class="marker extension class" refX="18" refY="7" markerWidth="190" markerHeight="240" orient="auto"><path d="M 1,7 L18,13 V 1 Z"/></marker></defs><defs><marker id="my-svg_class-extensionEnd" class="marker extension class" refX="1" refY="7" markerWidth="20" markerHeight="28" orient="auto"><path d="M 1,1 V 13 L18,7 Z"/></marker></defs><defs><marker id="my-svg_class-compositionStart" class="marker composition class" refX="18" refY="7" markerWidth="190" markerHeight="240" orient="auto"><path d="M 18,7 L9,13 L1,7 L9,1 Z"/></marker></defs><defs><marker id="my-svg_class-compositionEnd" class="marker composition class" refX="1" refY="7" markerWidth="20" markerHeight="28" orient="auto"><path d="M 18,7 L9,13 L1,7 L9,1 Z"/></marker></defs><defs><marker id="my-svg_class-dependencyStart" class="marker dependency class" refX="6" refY="7" markerWidth="190" markerHeight="240" orient="auto"><path d="M 5,7 L9,13 L1,7 L9,1 Z"/></marker></defs><defs><marker id="my-svg_class-dependencyEnd" class="marker dependency class" refX="13" refY="7" markerWidth="20" markerHeight="28" orient="auto"><path d="M 18,7 L9,13 L14,7 L9,1 Z"/></marker></defs><defs><marker id="my-svg_class-lollipopStart" class="marker lollipop class" refX="13" refY="7" markerWidth="190" markerHeight="240" orient="auto"><circle fill="transparent" cx="7" cy="7" r="6"/></marker></defs><defs><marker id="my-svg_class-lollipopEnd" class="marker lollipop class" refX="1" refY="7" markerWidth="190" markerHeight="240" orient="auto"><circle fill="transparent" cx="7" cy="7" r="6"/></marker></defs><g class="root"><g class="clusters"/><g class="edgePaths"><path d="M183.891,171L185.182,171C186.474,171,189.057,171,194.516,171C199.974,171,208.307,171,212.474,171L216.641,171" id="id_CredentialSubject_BankAccount_1" class="edge-thickness-normal edge-pattern-solid relation" style=";;;" data-edge="true" data-et="edge" data-id="id_CredentialSubject_BankAccount_1" data-points="W3sieCI6MTY2LjY0MDYyNSwieSI6MTcxfSx7IngiOjE5MS42NDA2MjUsInkiOjE3MX0seyJ4IjoyMTYuNjQwNjI1LCJ5IjoxNzF9XQ==" marker-start="url(#my-svg_class-extensionStart)"/><path d="M445.922,119.638L455.087,115.532C464.253,111.425,482.583,103.213,499.927,100.431C517.271,97.649,533.627,100.299,541.805,101.623L549.983,102.948" id="id_BankAccount_Company_2" class="edge-thickness-normal edge-pattern-solid relation" style=";;;" data-edge="true" data-et="edge" data-id="id_BankAccount_Company_2" data-points="W3sieCI6NDQ1LjkyMTg3NSwieSI6MTE5LjYzNzk1ODgyNjUwOTQ2fSx7IngiOjUwMC45MTQwNjI1LCJ5Ijo5NX0seyJ4Ijo1NTUuOTA2MjUsInkiOjEwMy45MDczMDc4MTM5ODI5MX1d" marker-end="url(#my-svg_class-dependencyEnd)"/><path d="M445.922,171L455.087,171C464.253,171,482.583,171,499.985,167.726C517.386,164.451,533.859,157.902,542.095,154.628L550.331,151.353" id="id_BankAccount_Company_3" class="edge-thickness-normal edge-pattern-solid relation" style=";;;" data-edge="true" data-et="edge" data-id="id_BankAccount_Company_3" data-points="W3sieCI6NDQ1LjkyMTg3NSwieSI6MTcxfSx7IngiOjUwMC45MTQwNjI1LCJ5IjoxNzF9LHsieCI6NTU1LjkwNjI1LCJ5IjoxNDkuMTM2NjA4MDkyOTUxfV0=" marker-end="url(#my-svg_class-dependencyEnd)"/><path d="M445.922,237.23L455.087,242.525C464.253,247.82,482.583,258.41,508.742,263.705C534.9,269,568.885,269,585.878,269L602.871,269" id="id_BankAccount_Iban_4" class="edge-thickness-normal edge-pattern-solid relation" style=";;;" data-edge="true" data-et="edge" data-id="id_BankAccount_Iban_4" data-points="W3sieCI6NDQ1LjkyMTg3NSwieSI6MjM3LjIzMDAwMDQ2MDU1MzU4fSx7IngiOjUwMC45MTQwNjI1LCJ5IjoyNjl9LHsieCI6NjA4Ljg3MTA5Mzc1LCJ5IjoyNjl9XQ==" marker-end="url(#my-svg_class-dependencyEnd)"/><path d="M717.57,78.17L727.344,73.475C737.117,68.78,756.664,59.39,783.382,54.695C810.099,50,843.987,50,860.931,50L877.875,50" id="id_Company_Bic_5" class="edge-thickness-normal edge-pattern-solid relation" style=";;;" data-edge="true" data-et="edge" data-id="id_Company_Bic_5" data-points="W3sieCI6NzE3LjU3MDMxMjUsInkiOjc4LjE2OTgzNjE1NzQwMDkyfSx7IngiOjc3Ni4yMTA5Mzc1LCJ5Ijo1MH0seyJ4Ijo4ODMuODc1LCJ5Ijo1MH1d" marker-end="url(#my-svg_class-dependencyEnd)"/><path d="M717.57,155.83L727.344,160.525C737.117,165.22,756.664,174.61,775.211,179.305C793.758,184,811.305,184,820.078,184L828.852,184" id="id_Company_ClearingNumber_6" class="edge-thickness-normal edge-pattern-solid relation" style=";;;" data-edge="true" data-et="edge" data-id="id_Company_ClearingNumber_6" data-points="W3sieCI6NzE3LjU3MDMxMjUsInkiOjE1NS44MzAxNjM4NDI1OTkwNn0seyJ4Ijo3NzYuMjEwOTM3NSwieSI6MTg0fSx7IngiOjgzNC44NTE1NjI1LCJ5IjoxODR9XQ==" marker-end="url(#my-svg_class-dependencyEnd)"/></g><g class="edgeLabels"><g class="edgeLabel"><g class="label" data-id="id_CredentialSubject_BankAccount_1" transform="translate(0, 0)"><foreignObject width="0" height="0"><div xmlns="http://www.w3.org/1999/xhtml" class="labelBkg" style="display: table-cell; white-space: nowrap; line-height: 1.5; max-width: 200px; text-align: center;"><span class="edgeLabel"></span></div></foreignObject></g></g><g class="edgeLabel" transform="translate(498.83778, 95.93023)"><g class="label" data-id="id_BankAccount_Company_2" transform="translate(-22.09375, -12)"><foreignObject width="44.1875" height="24"><div xmlns="http://www.w3.org/1999/xhtml" class="labelBkg" style="display: table-cell; white-space: nowrap; line-height: 1.5; max-width: 200px; text-align: center;"><span class="edgeLabel"><p>owner</p></span></div></foreignObject></g></g><g class="edgeLabel" transform="translate(500.9140625, 171)"><g class="label" data-id="id_BankAccount_Company_3" transform="translate(-29.9921875, -12)"><foreignObject width="59.984375" height="24"><div xmlns="http://www.w3.org/1999/xhtml" class="labelBkg" style="display: table-cell; white-space: nowrap; line-height: 1.5; max-width: 200px; text-align: center;"><span class="edgeLabel"><p>provider</p></span></div></foreignObject></g></g><g class="edgeLabel" transform="translate(500.9140625, 269)"><g class="label" data-id="id_BankAccount_Iban_4" transform="translate(-15.3125, -12)"><foreignObject width="30.625" height="24"><div xmlns="http://www.w3.org/1999/xhtml" class="labelBkg" style="display: table-cell; white-space: nowrap; line-height: 1.5; max-width: 200px; text-align: center;"><span class="edgeLabel"><p>iban</p></span></div></foreignObject></g></g><g class="edgeLabel" transform="translate(776.2109375, 50)"><g class="label" data-id="id_Company_Bic_5" transform="translate(-33.640625, -12)"><foreignObject width="67.28125" height="24"><div xmlns="http://www.w3.org/1999/xhtml" class="labelBkg" style="display: table-cell; white-space: nowrap; line-height: 1.5; max-width: 200px; text-align: center;"><span class="edgeLabel"><p>identifier</p></span></div></foreignObject></g></g><g class="edgeLabel" transform="translate(776.2109375, 184)"><g class="label" data-id="id_Company_ClearingNumber_6" transform="translate(-33.640625, -12)"><foreignObject width="67.28125" height="24"><div xmlns="http://www.w3.org/1999/xhtml" class="labelBkg" style="display: table-cell; white-space: nowrap; line-height: 1.5; max-width: 200px; text-align: center;"><span class="edgeLabel"><p>identifier</p></span></div></foreignObject></g></g></g><g class="nodes"><g class="node default" id="classId-BankAccount-0" transform="translate(331.28125, 171)"><g class="basic label-container"><path d="M-114.640625 -120 L114.640625 -120 L114.640625 120 L-114.640625 120" stroke="none" stroke-width="0" fill="#ECECFF" style=""/><path d="M-114.640625 -120 C-61.742980745450375 -120, -8.845336490900749 -120, 114.640625 -120 M-114.640625 -120 C-26.036283698000005 -120, 62.56805760399999 -120, 114.640625 -120 M114.640625 -120 C114.640625 -24.154524989775183, 114.640625 71.69095002044963, 114.640625 120 M114.640625 -120 C114.640625 -56.87517862389179, 114.640625 6.249642752216417, 114.640625 120 M114.640625 120 C58.10633424398322 120, 1.5720434879664396 120, -114.640625 120 M114.640625 120 C45.43534196770099 120, -23.769941064598015 120, -114.640625 120 M-114.640625 120 C-114.640625 61.42094867937887, -114.640625 2.841897358757734, -114.640625 -120 M-114.640625 120 C-114.640625 66.61120015912715, -114.640625 13.222400318254316, -114.640625 -120" stroke="#9370DB" stroke-width="1.3" fill="none" stroke-dasharray="0 0" style=""/></g><g class="annotation-group text" transform="translate(-24.0234375, -96)"><g class="label" style="" transform="translate(0,-12)"><foreignObject width="48.046875" height="24"><div xmlns="http://www.w3.org/1999/xhtml" style="display: table-cell; white-space: nowrap; line-height: 1.5; max-width: 102px; text-align: center;"><span class="nodeLabel markdown-node-label" style=""><p>«EBW»</p></span></div></foreignObject></g></g><g class="label-group text" transform="translate(-48.53125, -72)"><g class="label" style="font-weight: bolder" transform="translate(0,-12)"><foreignObject width="97.0625" height="24"><div xmlns="http://www.w3.org/1999/xhtml" style="display: table-cell; white-space: nowrap; line-height: 1.5; max-width: 138px; text-align: center;"><span class="nodeLabel markdown-node-label" style=""><p>BankAccount</p></span></div></foreignObject></g></g><g class="members-group text" transform="translate(-102.640625, -24)"><g class="label" style="" transform="translate(0,-12)"><foreignObject width="156.75" height="24"><div xmlns="http://www.w3.org/1999/xhtml" style="display: table-cell; white-space: nowrap; line-height: 1.5; max-width: 196px; text-align: center;"><span class="nodeLabel markdown-node-label" style=""><p>+accountName: string</p></span></div></foreignObject></g><g class="label" style="" transform="translate(0,12)"><foreignObject width="149.109375" height="24"><div xmlns="http://www.w3.org/1999/xhtml" style="display: table-cell; white-space: nowrap; line-height: 1.5; max-width: 190px; text-align: center;"><span class="nodeLabel markdown-node-label" style=""><p>+accountType: string</p></span></div></foreignObject></g><g class="label" style="" transform="translate(0,36)"><foreignObject width="80.234375" height="24"><div xmlns="http://www.w3.org/1999/xhtml" style="display: table-cell; white-space: nowrap; line-height: 1.5; max-width: 128px; text-align: center;"><span class="nodeLabel markdown-node-label" style=""><p>+iban: Iban</p></span></div></foreignObject></g><g class="label" style="" transform="translate(0,60)"><foreignObject width="128.65625" height="24"><div xmlns="http://www.w3.org/1999/xhtml" style="display: table-cell; white-space: nowrap; line-height: 1.5; max-width: 174px; text-align: center;"><span class="nodeLabel markdown-node-label" style=""><p>+owner: Company</p></span></div></foreignObject></g><g class="label" style="" transform="translate(0,84)"><foreignObject width="144.453125" height="24"><div xmlns="http://www.w3.org/1999/xhtml" style="display: table-cell; white-space: nowrap; line-height: 1.5; max-width: 188px; text-align: center;"><span class="nodeLabel markdown-node-label" style=""><p>+provider: Company</p></span></div></foreignObject></g></g><g class="methods-group text" transform="translate(-102.640625, 120)"/><g class="divider" style=""><path d="M-114.640625 -48 C-60.310098881627724 -48, -5.979572763255447 -48, 114.640625 -48 M-114.640625 -48 C-42.52581051744551 -48, 29.589003965108986 -48, 114.640625 -48" stroke="#9370DB" stroke-width="1.3" fill="none" stroke-dasharray="0 0" style=""/></g><g class="divider" style=""><path d="M-114.640625 96 C-32.03275175867739 96, 50.575121482645216 96, 114.640625 96 M-114.640625 96 C-53.22037095594819 96, 8.199883088103618 96, 114.640625 96" stroke="#9370DB" stroke-width="1.3" fill="none" stroke-dasharray="0 0" style=""/></g></g><g class="node default" id="classId-Company-1" transform="translate(636.73828125, 117)"><g class="basic label-container"><path d="M-80.83203125 -60 L80.83203125 -60 L80.83203125 60 L-80.83203125 60" stroke="none" stroke-width="0" fill="#ECECFF" style=""/><path d="M-80.83203125 -60 C-17.722550314021397 -60, 45.386930621957205 -60, 80.83203125 -60 M-80.83203125 -60 C-34.66479315959025 -60, 11.502444930819493 -60, 80.83203125 -60 M80.83203125 -60 C80.83203125 -21.18693955238694, 80.83203125 17.626120895226123, 80.83203125 60 M80.83203125 -60 C80.83203125 -13.335551073673393, 80.83203125 33.32889785265321, 80.83203125 60 M80.83203125 60 C28.843663302818605 60, -23.14470464436279 60, -80.83203125 60 M80.83203125 60 C43.26046140978311 60, 5.688891569566223 60, -80.83203125 60 M-80.83203125 60 C-80.83203125 29.446133184971124, -80.83203125 -1.1077336300577514, -80.83203125 -60 M-80.83203125 60 C-80.83203125 12.92016375471811, -80.83203125 -34.15967249056378, -80.83203125 -60" stroke="#9370DB" stroke-width="1.3" fill="none" stroke-dasharray="0 0" style=""/></g><g class="annotation-group text" transform="translate(0, -36)"/><g class="label-group text" transform="translate(-34.2109375, -36)"><g class="label" style="font-weight: bolder" transform="translate(0,-12)"><foreignObject width="68.421875" height="24"><div xmlns="http://www.w3.org/1999/xhtml" style="display: table-cell; white-space: nowrap; line-height: 1.5; max-width: 112px; text-align: center;"><span class="nodeLabel markdown-node-label" style=""><p>Company</p></span></div></foreignObject></g></g><g class="members-group text" transform="translate(-68.83203125, 12)"><g class="label" style="" transform="translate(0,-12)"><foreignObject width="103.453125" height="24"><div xmlns="http://www.w3.org/1999/xhtml" style="display: table-cell; white-space: nowrap; line-height: 1.5; max-width: 142px; text-align: center;"><span class="nodeLabel markdown-node-label" style=""><p>identifier: List</p></span></div></foreignObject></g></g><g class="methods-group text" transform="translate(-68.83203125, 60)"/><g class="divider" style=""><path d="M-80.83203125 -12 C-35.68085991660774 -12, 9.470311416784526 -12, 80.83203125 -12 M-80.83203125 -12 C-24.306140910128846 -12, 32.21974942974231 -12, 80.83203125 -12" stroke="#9370DB" stroke-width="1.3" fill="none" stroke-dasharray="0 0" style=""/></g><g class="divider" style=""><path d="M-80.83203125 36 C-18.889102376000643 36, 43.05382649799871 36, 80.83203125 36 M-80.83203125 36 C-42.391554929702934 36, -3.9510786094058687 36, 80.83203125 36" stroke="#9370DB" stroke-width="1.3" fill="none" stroke-dasharray="0 0" style=""/></g></g><g class="node default" id="classId-Bic-2" transform="translate(907.1171875, 50)"><g class="basic label-container"><path d="M-23.2421875 -42 L23.2421875 -42 L23.2421875 42 L-23.2421875 42" stroke="none" stroke-width="0" fill="#ECECFF" style=""/><path d="M-23.2421875 -42 C-13.275538939083283 -42, -3.3088903781665664 -42, 23.2421875 -42 M-23.2421875 -42 C-5.612717662578689 -42, 12.016752174842622 -42, 23.2421875 -42 M23.2421875 -42 C23.2421875 -8.796236388176965, 23.2421875 24.40752722364607, 23.2421875 42 M23.2421875 -42 C23.2421875 -12.198953171973294, 23.2421875 17.602093656053412, 23.2421875 42 M23.2421875 42 C12.530051048086907 42, 1.8179145961738143 42, -23.2421875 42 M23.2421875 42 C12.02524209707443 42, 0.8082966941488614 42, -23.2421875 42 M-23.2421875 42 C-23.2421875 24.771275727988264, -23.2421875 7.542551455976529, -23.2421875 -42 M-23.2421875 42 C-23.2421875 18.899923892620244, -23.2421875 -4.2001522147595125, -23.2421875 -42" stroke="#9370DB" stroke-width="1.3" fill="none" stroke-dasharray="0 0" style=""/></g><g class="annotation-group text" transform="translate(0, -18)"/><g class="label-group text" transform="translate(-11.2421875, -18)"><g class="label" style="font-weight: bolder" transform="translate(0,-12)"><foreignObject width="22.484375" height="24"><div xmlns="http://www.w3.org/1999/xhtml" style="display: table-cell; white-space: nowrap; line-height: 1.5; max-width: 72px; text-align: center;"><span class="nodeLabel markdown-node-label" style=""><p>Bic</p></span></div></foreignObject></g></g><g class="members-group text" transform="translate(-11.2421875, 30)"/><g class="methods-group text" transform="translate(-11.2421875, 60)"/><g class="divider" style=""><path d="M-23.2421875 6 C-5.636210213978444 6, 11.969767072043112 6, 23.2421875 6 M-23.2421875 6 C-11.081374246658063 6, 1.0794390066838737 6, 23.2421875 6" stroke="#9370DB" stroke-width="1.3" fill="none" stroke-dasharray="0 0" style=""/></g><g class="divider" style=""><path d="M-23.2421875 24 C-13.449928711014355 24, -3.6576699220287097 24, 23.2421875 24 M-23.2421875 24 C-12.076659548248994 24, -0.911131596497988 24, 23.2421875 24" stroke="#9370DB" stroke-width="1.3" fill="none" stroke-dasharray="0 0" style=""/></g></g><g class="node default" id="classId-Iban-3" transform="translate(636.73828125, 269)"><g class="basic label-container"><path d="M-27.8671875 -42 L27.8671875 -42 L27.8671875 42 L-27.8671875 42" stroke="none" stroke-width="0" fill="#ECECFF" style=""/><path d="M-27.8671875 -42 C-12.446597785954147 -42, 2.9739919280917064 -42, 27.8671875 -42 M-27.8671875 -42 C-13.940744361990106 -42, -0.01430122398021183 -42, 27.8671875 -42 M27.8671875 -42 C27.8671875 -15.893411010541435, 27.8671875 10.21317797891713, 27.8671875 42 M27.8671875 -42 C27.8671875 -8.712800627518426, 27.8671875 24.574398744963148, 27.8671875 42 M27.8671875 42 C12.360776049782034 42, -3.145635400435932 42, -27.8671875 42 M27.8671875 42 C7.76528842787474 42, -12.33661064425052 42, -27.8671875 42 M-27.8671875 42 C-27.8671875 24.700237921679193, -27.8671875 7.400475843358386, -27.8671875 -42 M-27.8671875 42 C-27.8671875 22.753116381888645, -27.8671875 3.506232763777291, -27.8671875 -42" stroke="#9370DB" stroke-width="1.3" fill="none" stroke-dasharray="0 0" style=""/></g><g class="annotation-group text" transform="translate(0, -18)"/><g class="label-group text" transform="translate(-15.8671875, -18)"><g class="label" style="font-weight: bolder" transform="translate(0,-12)"><foreignObject width="31.734375" height="24"><div xmlns="http://www.w3.org/1999/xhtml" style="display: table-cell; white-space: nowrap; line-height: 1.5; max-width: 78px; text-align: center;"><span class="nodeLabel markdown-node-label" style=""><p>Iban</p></span></div></foreignObject></g></g><g class="members-group text" transform="translate(-15.8671875, 30)"/><g class="methods-group text" transform="translate(-15.8671875, 60)"/><g class="divider" style=""><path d="M-27.8671875 6 C-6.987378918528485 6, 13.89242966294303 6, 27.8671875 6 M-27.8671875 6 C-13.346116027544538 6, 1.1749554449109247 6, 27.8671875 6" stroke="#9370DB" stroke-width="1.3" fill="none" stroke-dasharray="0 0" style=""/></g><g class="divider" style=""><path d="M-27.8671875 24 C-12.399018147185604 24, 3.069151205628792 24, 27.8671875 24 M-27.8671875 24 C-7.010545897229456 24, 13.846095705541089 24, 27.8671875 24" stroke="#9370DB" stroke-width="1.3" fill="none" stroke-dasharray="0 0" style=""/></g></g><g class="node default" id="classId-ClearingNumber-4" transform="translate(907.1171875, 184)"><g class="basic label-container"><path d="M-72.265625 -42 L72.265625 -42 L72.265625 42 L-72.265625 42" stroke="none" stroke-width="0" fill="#ECECFF" style=""/><path d="M-72.265625 -42 C-26.856599646999726 -42, 18.552425706000548 -42, 72.265625 -42 M-72.265625 -42 C-39.2802922087117 -42, -6.294959417423399 -42, 72.265625 -42 M72.265625 -42 C72.265625 -18.869434425302472, 72.265625 4.261131149395055, 72.265625 42 M72.265625 -42 C72.265625 -13.192321512326679, 72.265625 15.615356975346643, 72.265625 42 M72.265625 42 C38.561750759775656 42, 4.857876519551311 42, -72.265625 42 M72.265625 42 C38.29905962428728 42, 4.332494248574562 42, -72.265625 42 M-72.265625 42 C-72.265625 11.55212906878575, -72.265625 -18.8957418624285, -72.265625 -42 M-72.265625 42 C-72.265625 20.10126310152181, -72.265625 -1.7974737969563819, -72.265625 -42" stroke="#9370DB" stroke-width="1.3" fill="none" stroke-dasharray="0 0" style=""/></g><g class="annotation-group text" transform="translate(0, -18)"/><g class="label-group text" transform="translate(-60.265625, -18)"><g class="label" style="font-weight: bolder" transform="translate(0,-12)"><foreignObject width="120.53125" height="24"><div xmlns="http://www.w3.org/1999/xhtml" style="display: table-cell; white-space: nowrap; line-height: 1.5; max-width: 158px; text-align: center;"><span class="nodeLabel markdown-node-label" style=""><p>ClearingNumber</p></span></div></foreignObject></g></g><g class="members-group text" transform="translate(-60.265625, 30)"/><g class="methods-group text" transform="translate(-60.265625, 60)"/><g class="divider" style=""><path d="M-72.265625 6 C-15.540847338971737 6, 41.183930322056526 6, 72.265625 6 M-72.265625 6 C-42.58057224067632 6, -12.895519481352636 6, 72.265625 6" stroke="#9370DB" stroke-width="1.3" fill="none" stroke-dasharray="0 0" style=""/></g><g class="divider" style=""><path d="M-72.265625 24 C-29.12111498217896 24, 14.023395035642082 24, 72.265625 24 M-72.265625 24 C-23.110788923647547 24, 26.044047152704906 24, 72.265625 24" stroke="#9370DB" stroke-width="1.3" fill="none" stroke-dasharray="0 0" style=""/></g></g><g class="node default" id="classId-CredentialSubject-5" transform="translate(87.3203125, 171)"><g class="basic label-container"><path d="M-79.3203125 -54 L79.3203125 -54 L79.3203125 54 L-79.3203125 54" stroke="none" stroke-width="0" fill="#ECECFF" style=""/><path d="M-79.3203125 -54 C-29.098043454236084 -54, 21.124225591527832 -54, 79.3203125 -54 M-79.3203125 -54 C-24.984414115292815 -54, 29.35148426941437 -54, 79.3203125 -54 M79.3203125 -54 C79.3203125 -28.25448766522904, 79.3203125 -2.508975330458078, 79.3203125 54 M79.3203125 -54 C79.3203125 -32.05732588473643, 79.3203125 -10.114651769472857, 79.3203125 54 M79.3203125 54 C29.2857266553386 54, -20.7488591893228 54, -79.3203125 54 M79.3203125 54 C25.726318213969932 54, -27.867676072060135 54, -79.3203125 54 M-79.3203125 54 C-79.3203125 13.468308407966653, -79.3203125 -27.063383184066694, -79.3203125 -54 M-79.3203125 54 C-79.3203125 24.2660743208984, -79.3203125 -5.467851358203198, -79.3203125 -54" stroke="#9370DB" stroke-width="1.3" fill="none" stroke-dasharray="0 0" style=""/></g><g class="annotation-group text" transform="translate(-38.34375, -30)"><g class="label" style="" transform="translate(0,-12)"><foreignObject width="76.6875" height="24"><div xmlns="http://www.w3.org/1999/xhtml" style="display: table-cell; white-space: nowrap; line-height: 1.5; max-width: 118px; text-align: center;"><span class="nodeLabel markdown-node-label" style=""><p>«external»</p></span></div></foreignObject></g></g><g class="label-group text" transform="translate(-67.3203125, -6)"><g class="label" style="font-weight: bolder" transform="translate(0,-12)"><foreignObject width="134.640625" height="24"><div xmlns="http://www.w3.org/1999/xhtml" style="display: table-cell; white-space: nowrap; line-height: 1.5; max-width: 165px; text-align: center;"><span class="nodeLabel markdown-node-label" style=""><p>CredentialSubject</p></span></div></foreignObject></g></g><g class="members-group text" transform="translate(-67.3203125, 42)"/><g class="methods-group text" transform="translate(-67.3203125, 72)"/><g class="divider" style=""><path d="M-79.3203125 18 C-19.63148456207385 18, 40.0573433758523 18, 79.3203125 18 M-79.3203125 18 C-18.550043667605664 18, 42.22022516478867 18, 79.3203125 18" stroke="#9370DB" stroke-width="1.3" fill="none" stroke-dasharray="0 0" style=""/></g><g class="divider" style=""><path d="M-79.3203125 36 C-28.88606168213113 36, 21.548189135737744 36, 79.3203125 36 M-79.3203125 36 C-46.198898639702975 36, -13.07748477940595 36, 79.3203125 36" stroke="#9370DB" stroke-width="1.3" fill="none" stroke-dasharray="0 0" style=""/></g></g></g></g></g></svg>