<svg id="my-svg" width="100%" xmlns="http://www.w3.org/2000/svg" xmlns:xlink="http://www.w3.org/1999/xlink" class="classDiagram" style="max-width: 771.727px; background-color: white;" viewBox="0 0 771.7265625 318" role="graphics-document document" aria-roledescription="class"><style>#my-svg{font-family:"trebuchet ms",verdana,arial,sans-serif;font-size:16px;fill:#333;}@keyframes edge-animation-frame{from{stroke-dashoffset:0;}}@keyframes dash{to{stroke-dashoffset:0;}}#my-svg .edge-animation-slow{stroke-dasharray:9,5!important;stroke-dashoffset:900;animation:dash 50s linear infinite;stroke-linecap:round;}#my-svg .edge-animation-fast{stroke-dasharray:9,5!important;stroke-dashoffset:900;animation:dash 20s linear infinite;stroke-linecap:round;}#my-svg .error-icon{fill:#552222;}#my-svg .error-text{fill:#552222;stroke:#552222;}#my-svg .edge-thickness-normal{stroke-width:1px;}#my-svg .edge-thickness-thick{stroke-width:3.5px;}#my-svg .edge-pattern-solid{stroke-dasharray:0;}#my-svg .edge-thickness-invisible{stroke-width:0;fill:none;}#my-svg .edge-pattern-dashed{stroke-dasharray:3;}#my-svg .edge-pattern-dotted{stroke-dasharray:2;}#my-svg .marker{fill:#333333;stroke:#333333;}#my-svg .marker.cross{stroke:#333333;}#my-svg svg{font-family:"trebuchet ms",verdana,arial,sans-serif;font-size:16px;}#my-svg p{margin:0;}#my-svg g.classGroup text{fill:#9370DB;stroke:none;font-family:"trebuchet ms",verdana,arial,sans-serif;font-size:10px;}#my-svg g.classGroup text .title{font-weight:bolder;}#my-svg .cluster-label text{fill:#333;}#my-svg .cluster-label span{color:#333;}#my-svg .cluster-label span p{background-color:transparent;}#my-svg .cluster rect{fill:#ffffde;stroke:#aaaa33;stroke-width:1px;}#my-svg .cluster text{fill:#333;}#my-svg .cluster span{color:#333;}#my-svg .nodeLabel,#my-svg .edgeLabel{color:#131300;}#my-svg .noteLabel .nodeLabel,#my-svg .noteLabel .edgeLabel{color:black;}#my-svg .edgeLabel .label rect{fill:#ECECFF;}#my-svg .label text{fill:#131300;}#my-svg .labelBkg{background:#ECECFF;}#my-svg .edgeLabel .label span{background:#ECECFF;}#my-svg .classTitle{font-weight:bolder;}#my-svg .node rect,#my-svg .node circle,#my-svg .node ellipse,#my-svg .node polygon,#my-svg .node path{fill:#ECECFF;stroke:#9370DB;stroke-width:1;}#my-svg .divider{stroke:#9370DB;stroke-width:1;}#my-svg g.clickable{cursor:pointer;}#my-svg g.classGroup rect{fill:#ECECFF;stroke:#9370DB;}#my-svg g.classGroup line{stroke:#9370DB;stroke-width:1;}#my-svg .classLabel .box{stroke:none;stroke-width:0;fill:#ECECFF;opacity:0.5;}#my-svg .classLabel .label{fill:#9370DB;font-size:10px;}#my-svg .relation{stroke:#333333;stroke-width:1;fill:none;}#my-svg .dashed-line{stroke-dasharray:3;}#my-svg .dotted-line{stroke-dasharray:1 2;}#my-svg [id$="-compositionStart"],#my-svg .composition{fill:#333333!important;stroke:#333333!important;stroke-width:1;}#my-svg [id$="-compositionEnd"],#my-svg .composition{fill:#333333!important;stroke:#333333!important;stroke-width:1;}#my-svg [id$="-dependencyStart"],#my-svg .dependency{fill:#333333!important;stroke:#333333!important;stroke-width:1;}#my-svg [id$="-dependencyEnd"],#my-svg .dependency{fill:#333333!important;stroke:#333333!important;stroke-width:1;}#my-svg [id$="-extensionStart"],#my-svg .extension{fill:transparent!important;stroke:#333333!important;stroke-width:1;}#my-svg [id$="-extensionEnd"],#my-svg .extension{fill:transparent!important;stroke:#333333!important;stroke-width:1;}#my-svg [id$="-aggregationStart"],#my-svg .aggregation{fill:transparent!important;stroke:#333333!important;stroke-width:1;}#my-svg [id$="-aggregationEnd"],#my-svg .aggregation{fill:transparent!important;stroke:#333333!important;stroke-width:1;}#my-svg [id$="-lollipopStart"],#my-svg .lollipop{fill:#ECECFF!important;stroke:#333333!important;stroke-width:1;}#my-svg [id$="-lollipopEnd"],#my-svg .lollipop{fill:#ECECFF!important;stroke:#333333!important;stroke-width:1;}#my-svg .edgeTerminals{font-size:11px;line-height:initial;}#my-svg .classTitleText{text-anchor:middle;font-size:18px;fill:#333;}#my-svg .edgeLabel[data-look="neo"]{background-color:rgba(232,232,232, 0.8);text-align:center;}#my-svg .edgeLabel[data-look="neo"] p{background-color:rgba(232,232,232, 0.8);}#my-svg .edgeLabel[data-look="neo"] rect{opacity:0.5;background-color:rgba(232,232,232, 0.8);fill:rgba(232,232,232, 0.8);}#my-svg .label-icon{display:inline-block;height:1em;overflow:visible;vertical-align:-0.125em;}#my-svg .node .label-icon path{fill:currentColor;stroke:revert;stroke-width:revert;}#my-svg .node .neo-node{stroke:#9370DB;}#my-svg [data-look="neo"].node rect,#my-svg [data-look="neo"].cluster rect,#my-svg [data-look="neo"].node polygon{stroke:#9370DB;filter:drop-shadow(1px 2px 2px rgba(185, 185, 185, 1));}#my-svg [data-look="neo"].node path{stroke:#9370DB;stroke-width:1px;}#my-svg [data-look="neo"].node .outer-path{filter:drop-shadow(1px 2px 2px rgba(185, 185, 185, 1));}#my-svg [data-look="neo"].node .neo-line path{stroke:#9370DB;filter:none;}#my-svg [data-look="neo"].node circle{stroke:#9370DB;filter:drop-shadow(1px 2px 2px rgba(185, 185, 185, 1));}#my-svg [data-look="neo"].node circle .state-start{fill:#000000;}#my-svg [data-look="neo"].icon-shape .icon{fill:#9370DB;filter:drop-shadow(1px 2px 2px rgba(185, 185, 185, 1));}#my-svg [data-look="neo"].icon-shape .icon-neo path{stroke:#9370DB;filter:drop-shadow(1px 2px 2px rgba(185, 185, 185, 1));}#my-svg :root{--mermaid-font-family:"trebuchet ms",verdana,arial,sans-serif;}</style><g><defs><marker id="my-svg_class-aggregationStart" class="marker aggregation class" refX="18" refY="7" markerWidth="190" markerHeight="240" orient="auto"><path d="M 18,7 L9,13 L1,7 L9,1 Z"/></marker></defs><defs><marker id="my-svg_class-aggregationEnd" class="marker aggregation class" refX="1" refY="7" markerWidth="20" markerHeight="28" orient="auto"><path d="M 18,7 L9,13 L1,7 L9,1 Z"/></marker></defs><defs><marker id="my-svg_class-aggregationStart-margin" class="marker aggregation class" refX="15" refY="7" markerWidth="190" markerHeight="240" orient="auto" markerUnits="userSpaceOnUse"><path d="M 18,7 L9,13 L1,7 L9,1 Z" style="stroke-width: 2;"/></marker></defs><defs><marker id="my-svg_class-aggregationEnd-margin" class="marker aggregation class" refX="1" refY="7" markerWidth="20" markerHeight="28" orient="auto" markerUnits="userSpaceOnUse"><path d="M 18,7 L9,13 L1,7 L9,1 Z" style="stroke-width: 2;"/></marker></defs><defs><marker id="my-svg_class-extensionStart" class="marker extension class" refX="18" refY="7" markerWidth="20" markerHeight="28" orient="auto" markerUnits="userSpaceOnUse"><path d="M 1,7 L18,13 V 1 Z"/></marker></defs><defs><marker id="my-svg_class-extensionEnd" class="marker extension class" refX="1" refY="7" markerWidth="20" markerHeight="28" orient="auto"><path d="M 1,1 V 13 L18,7 Z"/></marker></defs><marker id="my-svg_class-extensionStart-margin" class="marker extension class" refX="18" refY="7" markerWidth="20" markerHeight="28" orient="auto" markerUnits="userSpaceOnUse" viewBox="0 0 20 14"><polygon points="10,7 18,13 18,1" style="stroke-width: 2; stroke-dasharray: 0;"/></marker><defs><marker id="my-svg_class-extensionEnd-margin" class="marker extension class" refX="9" refY="7" markerWidth="20" markerHeight="28" orient="auto" markerUnits="userSpaceOnUse" viewBox="0 0 20 14"><polygon points="10,1 10,13 18,7" style="stroke-width: 2; stroke-dasharray: 0;"/></marker></defs><defs><marker id="my-svg_class-compositionStart" class="marker composition class" refX="18" refY="7" markerWidth="190" markerHeight="240" orient="auto"><path d="M 18,7 L9,13 L1,7 L9,1 Z"/></marker></defs><defs><marker id="my-svg_class-compositionEnd" class="marker composition class" refX="1" refY="7" markerWidth="20" markerHeight="28" orient="auto"><path d="M 18,7 L9,13 L1,7 L9,1 Z"/></marker></defs><defs><marker id="my-svg_class-compositionStart-margin" class="marker composition class" refX="15" refY="7" markerWidth="190" markerHeight="240" orient="auto" markerUnits="userSpaceOnUse"><path viewBox="0 0 15 15" d="M 18,7 L9,13 L1,7 L9,1 Z" style="stroke-width: 0;"/></marker></defs><defs><marker id="my-svg_class-compositionEnd-margin" class="marker composition class" refX="3.5" refY="7" markerWidth="20" markerHeight="28" orient="auto" markerUnits="userSpaceOnUse"><path d="M 18,7 L9,13 L1,7 L9,1 Z" style="stroke-width: 0;"/></marker></defs><defs><marker id="my-svg_class-dependencyStart" class="marker dependency class" refX="6" refY="7" markerWidth="190" markerHeight="240" orient="auto"><path d="M 5,7 L9,13 L1,7 L9,1 Z"/></marker></defs><defs><marker id="my-svg_class-dependencyEnd" class="marker dependency class" refX="13" refY="7" markerWidth="20" markerHeight="28" orient="auto"><path d="M 18,7 L9,13 L14,7 L9,1 Z"/></marker></defs><defs><marker id="my-svg_class-dependencyStart-margin" class="marker dependency class" refX="4" refY="7" markerWidth="190" markerHeight="240" orient="auto" markerUnits="userSpaceOnUse"><path d="M 5,7 L9,13 L1,7 L9,1 Z" style="stroke-width: 0;"/></marker></defs><defs><marker id="my-svg_class-dependencyEnd-margin" class="marker dependency class" refX="16" refY="7" markerWidth="20" markerHeight="28" orient="auto" markerUnits="userSpaceOnUse"><path d="M 18,7 L9,13 L14,7 L9,1 Z" style="stroke-width: 0;"/></marker></defs><defs><marker id="my-svg_class-lollipopStart" class="marker lollipop class" refX="13" refY="7" markerWidth="190" markerHeight="240" orient="auto"><circle fill="transparent" cx="7" cy="7" r="6"/></marker></defs><defs><marker id="my-svg_class-lollipopEnd" class="marker lollipop class" refX="1" refY="7" markerWidth="190" markerHeight="240" orient="auto"><circle fill="transparent" cx="7" cy="7" r="6"/></marker></defs><defs><marker id="my-svg_class-lollipopStart-margin" class="marker lollipop class" refX="13" refY="7" markerWidth="190" markerHeight="240" orient="auto" markerUnits="userSpaceOnUse"><circle fill="transparent" cx="7" cy="7" r="6" stroke-width="2"/></marker></defs><defs><marker id="my-svg_class-lollipopEnd-margin" class="marker lollipop class" refX="1" refY="7" markerWidth="190" markerHeight="240" orient="auto" markerUnits="userSpaceOnUse"><circle fill="transparent" cx="7" cy="7" r="6" stroke-width="2"/></marker></defs><g class="root"><g class="clusters"/><g class="edgePaths"><path d="M177.628,103.355L182.591,99.462C187.554,95.57,197.48,87.785,206.61,83.892C215.74,80,224.073,80,228.24,80L232.406,80" id="my-svg-id_VerifiableCredential_ElectronicAttestationOfAttributes_1" class="edge-thickness-normal edge-pattern-solid relation" style=";;;" data-edge="true" data-et="edge" data-id="id_VerifiableCredential_ElectronicAttestationOfAttributes_1" data-points="W3sieCI6MTY0LjA1NTA0MjYxMzYzNjM3LCJ5IjoxMTR9LHsieCI6MjA3LjQwNjI1LCJ5Ijo4MH0seyJ4IjoyMzIuNDA2MjUsInkiOjgwfV0=" data-look="classic" marker-start="url(#my-svg_class-extensionStart)"/><path d="M177.628,232.645L182.591,236.538C187.554,240.43,197.48,248.215,237.667,252.108C277.853,256,348.299,256,383.523,256L418.746,256" id="my-svg-id_VerifiableCredential_CredentialSubject_2" class="edge-thickness-normal edge-pattern-solid relation" style=";;;" data-edge="true" data-et="edge" data-id="id_VerifiableCredential_CredentialSubject_2" data-points="W3sieCI6MTY0LjA1NTA0MjYxMzYzNjM3LCJ5IjoyMjJ9LHsieCI6MjA3LjQwNjI1LCJ5IjoyNTZ9LHsieCI6NDE4Ljc0NjA5Mzc1LCJ5IjoyNTZ9XQ==" data-look="classic" marker-start="url(#my-svg_class-compositionStart)"/></g><g class="edgeLabels"><g class="edgeLabel"><g class="label" data-id="id_VerifiableCredential_ElectronicAttestationOfAttributes_1" transform="translate(0, 0)"><foreignObject width="0" height="0"><div xmlns="http://www.w3.org/1999/xhtml" class="labelBkg" style="display: table-cell; white-space: nowrap; line-height: 1.5; max-width: 200px; text-align: center;"><span class="edgeLabel"></span></div></foreignObject></g></g><g class="edgeLabel"><g class="label" data-id="id_VerifiableCredential_CredentialSubject_2" transform="translate(0, 0)"><foreignObject width="0" height="0"><div xmlns="http://www.w3.org/1999/xhtml" class="labelBkg" style="display: table-cell; white-space: nowrap; line-height: 1.5; max-width: 200px; text-align: center;"><span class="edgeLabel"></span></div></foreignObject></g></g></g><g class="nodes"><g class="node default" id="my-svg-classId-ElectronicAttestationOfAttributes-0" data-look="classic" transform="translate(498.06640625, 80)"><g class="basic label-container outer-path"><path d="M-265.66015625 -72 L265.66015625 -72 L265.66015625 72 L-265.66015625 72" stroke="none" stroke-width="0" fill="#ECECFF" style=""/><path d="M-265.66015625 -72 C-121.55859733626156 -72, 22.542961577476888 -72, 265.66015625 -72 M-265.66015625 -72 C-149.53950965454027 -72, -33.418863059080564 -72, 265.66015625 -72 M265.66015625 -72 C265.66015625 -25.200366572514028, 265.66015625 21.599266854971944, 265.66015625 72 M265.66015625 -72 C265.66015625 -20.17478848540315, 265.66015625 31.650423029193703, 265.66015625 72 M265.66015625 72 C71.60497586792411 72, -122.45020451415178 72, -265.66015625 72 M265.66015625 72 C121.05218264112551 72, -23.555790967748976 72, -265.66015625 72 M-265.66015625 72 C-265.66015625 42.073186878574994, -265.66015625 12.146373757149988, -265.66015625 -72 M-265.66015625 72 C-265.66015625 29.402557563014327, -265.66015625 -13.194884873971347, -265.66015625 -72" stroke="#9370DB" stroke-width="1.3" fill="none" stroke-dasharray="0 0" style=""/></g><g class="annotation-group text" transform="translate(-24.0234375, -48)"><g class="label" style="" transform="translate(0,-12)"><foreignObject width="48.046875" height="24"><div xmlns="http://www.w3.org/1999/xhtml" style="display: table-cell; white-space: nowrap; line-height: 1.5; max-width: 102px; text-align: center;"><span class="nodeLabel markdown-node-label" style=""><p>«EBW»</p></span></div></foreignObject></g></g><g class="label-group text" transform="translate(-126.0078125, -24)"><g class="label" style="font-weight: bolder" transform="translate(0,-12)"><foreignObject width="252.015625" height="24"><div xmlns="http://www.w3.org/1999/xhtml" style="display: table-cell; white-space: nowrap; line-height: 1.5; max-width: 267px; text-align: center;"><span class="nodeLabel markdown-node-label" style=""><p>ElectronicAttestationOfAttributes</p></span></div></foreignObject></g></g><g class="members-group text" transform="translate(-253.66015625, 24)"><g class="label" style="" transform="translate(0,-12)"><foreignObject width="381.3125" height="24"><div xmlns="http://www.w3.org/1999/xhtml" style="display: table-cell; white-space: nowrap; line-height: 1.5; max-width: 398px; text-align: center;"><span class="nodeLabel markdown-node-label" style=""><p>+attestationLegalCategory: AttestationLegalCategory</p></span></div></foreignObject></g></g><g class="methods-group text" transform="translate(-253.66015625, 72)"/><g class="divider" style=""><path d="M-265.66015625 0 C-87.19016106165142 0.0003358990631255954, 91.27983412669715 0.0006717981262511909, 265.66015625 0.001 M-265.66015625 0 C-94.69872927118871 0.0003217671580715471, 76.26269770762258 0.0006435343161430942, 265.66015625 0.001" stroke="#9370DB" stroke-width="1.3" fill="none" stroke-dasharray="0 0" style=""/></g><g class="divider" style=""><path d="M-265.66015625 48 C-84.10049281296469 48.000341714139594, 97.45917062407062 48.000683428279196, 265.66015625 48.001 M-265.66015625 48 C-90.15306397243427 48.00033032257218, 85.35402830513146 48.000660645144364, 265.66015625 48.001" stroke="#9370DB" stroke-width="1.3" fill="none" stroke-dasharray="0 0" style=""/></g></g><g class="node default" id="my-svg-classId-VerifiableCredential-1" data-look="classic" transform="translate(95.203125, 168)"><g class="basic label-container outer-path"><path d="M-87.203125 -54 L87.203125 -54 L87.203125 54 L-87.203125 54" stroke="none" stroke-width="0" fill="#ECECFF" style=""/><path d="M-87.203125 -54 C-28.793103282869012 -54, 29.616918434261976 -54, 87.203125 -54 M-87.203125 -54 C-25.984159610154443 -54, 35.234805779691115 -54, 87.203125 -54 M87.203125 -54 C87.203125 -12.334988623022063, 87.203125 29.330022753955873, 87.203125 54 M87.203125 -54 C87.203125 -20.101891847177697, 87.203125 13.796216305644606, 87.203125 54 M87.203125 54 C50.33315341970667 54, 13.463181839413338 54, -87.203125 54 M87.203125 54 C39.22679843888394 54, -8.749528122232121 54, -87.203125 54 M-87.203125 54 C-87.203125 13.301906115159227, -87.203125 -27.396187769681546, -87.203125 -54 M-87.203125 54 C-87.203125 24.948879183496842, -87.203125 -4.102241633006315, -87.203125 -54" stroke="#9370DB" stroke-width="1.3" fill="none" stroke-dasharray="0 0" style=""/></g><g class="annotation-group text" transform="translate(-38.34375, -30)"><g class="label" style="" transform="translate(0,-12)"><foreignObject width="76.6875" height="24"><div xmlns="http://www.w3.org/1999/xhtml" style="display: table-cell; white-space: nowrap; line-height: 1.5; max-width: 118px; text-align: center;"><span class="nodeLabel markdown-node-label" style=""><p>«external»</p></span></div></foreignObject></g></g><g class="label-group text" transform="translate(-75.203125, -6)"><g class="label" style="font-weight: bolder" transform="translate(0,-12)"><foreignObject width="150.40625" height="24"><div xmlns="http://www.w3.org/1999/xhtml" style="display: table-cell; white-space: nowrap; line-height: 1.5; max-width: 179px; text-align: center;"><span class="nodeLabel markdown-node-label" style=""><p>VerifiableCredential</p></span></div></foreignObject></g></g><g class="members-group text" transform="translate(-75.203125, 42)"/><g class="methods-group text" transform="translate(-75.203125, 72)"/><g class="divider" style=""><path d="M-87.203125 18 C-31.48576276840444 18.00031946883917, 24.231599463191117 18.000638937678342, 87.203125 18.001 M-87.203125 18 C-38.04006656383057 18.00028188816878, 11.122991872338858 18.00056377633756, 87.203125 18.001" stroke="#9370DB" stroke-width="1.3" fill="none" stroke-dasharray="0 0" style=""/></g><g class="divider" style=""><path d="M-87.203125 36 C-20.50806566169166 36.000382412094396, 46.18699367661668 36.00076482418879, 87.203125 36.001 M-87.203125 36 C-36.70675714549624 36.00028953301762, 13.789610709007519 36.00057906603524, 87.203125 36.001" stroke="#9370DB" stroke-width="1.3" fill="none" stroke-dasharray="0 0" style=""/></g></g><g class="node default" id="my-svg-classId-CredentialSubject-2" data-look="classic" transform="translate(498.06640625, 256)"><g class="basic label-container outer-path"><path d="M-79.3203125 -54 L79.3203125 -54 L79.3203125 54 L-79.3203125 54" stroke="none" stroke-width="0" fill="#ECECFF" style=""/><path d="M-79.3203125 -54 C-18.254104799520846 -54, 42.81210290095831 -54, 79.3203125 -54 M-79.3203125 -54 C-43.62824059691842 -54, -7.936168693836834 -54, 79.3203125 -54 M79.3203125 -54 C79.3203125 -12.499292571743005, 79.3203125 29.00141485651399, 79.3203125 54 M79.3203125 -54 C79.3203125 -17.39805892433982, 79.3203125 19.203882151320357, 79.3203125 54 M79.3203125 54 C20.75344312243476 54, -37.81342625513048 54, -79.3203125 54 M79.3203125 54 C36.303043916681986 54, -6.714224666636028 54, -79.3203125 54 M-79.3203125 54 C-79.3203125 28.459199439489343, -79.3203125 2.918398878978685, -79.3203125 -54 M-79.3203125 54 C-79.3203125 21.47823530873574, -79.3203125 -11.043529382528519, -79.3203125 -54" stroke="#9370DB" stroke-width="1.3" fill="none" stroke-dasharray="0 0" style=""/></g><g class="annotation-group text" transform="translate(-38.34375, -30)"><g class="label" style="" transform="translate(0,-12)"><foreignObject width="76.6875" height="24"><div xmlns="http://www.w3.org/1999/xhtml" style="display: table-cell; white-space: nowrap; line-height: 1.5; max-width: 118px; text-align: center;"><span class="nodeLabel markdown-node-label" style=""><p>«external»</p></span></div></foreignObject></g></g><g class="label-group text" transform="translate(-67.3203125, -6)"><g class="label" style="font-weight: bolder" transform="translate(0,-12)"><foreignObject width="134.640625" height="24"><div xmlns="http://www.w3.org/1999/xhtml" style="display: table-cell; white-space: nowrap; line-height: 1.5; max-width: 165px; text-align: center;"><span class="nodeLabel markdown-node-label" style=""><p>CredentialSubject</p></span></div></foreignObject></g></g><g class="members-group text" transform="translate(-67.3203125, 42)"/><g class="methods-group text" transform="translate(-67.3203125, 72)"/><g class="divider" style=""><path d="M-79.3203125 18 C-39.612991567169175 18.0002502973052, 0.0943293656616504 18.0005005946104, 79.3203125 18.001 M-79.3203125 18 C-22.730017032525247 18.000356720073864, 33.86027843494951 18.000713440147724, 79.3203125 18.001" stroke="#9370DB" stroke-width="1.3" fill="none" stroke-dasharray="0 0" style=""/></g><g class="divider" style=""><path d="M-79.3203125 36 C-30.589424075538844 36.000307177864585, 18.141464348922312 36.00061435572918, 79.3203125 36.001 M-79.3203125 36 C-28.527768976379086 36.00032017362213, 22.264774547241828 36.000640347244264, 79.3203125 36.001" stroke="#9370DB" stroke-width="1.3" fill="none" stroke-dasharray="0 0" style=""/></g></g></g></g></g><defs><filter id="my-svg-drop-shadow" height="130%" width="130%"><feDropShadow dx="4" dy="4" stdDeviation="0" flood-opacity="0.06" flood-color="#000000"/></filter></defs><defs><filter id="my-svg-drop-shadow-small" height="150%" width="150%"><feDropShadow dx="2" dy="2" stdDeviation="0" flood-opacity="0.06" flood-color="#000000"/></filter></defs></svg>