<svg id="my-svg" width="100%" xmlns="http://www.w3.org/2000/svg" xmlns:xlink="http://www.w3.org/1999/xlink" class="classDiagram" style="max-width: 1077.07px; background-color: white;" viewBox="0 0 1077.0703125 319" role="graphics-document document" aria-roledescription="class"><style>#my-svg{font-family:"trebuchet ms",verdana,arial,sans-serif;font-size:16px;fill:#333;}@keyframes edge-animation-frame{from{stroke-dashoffset:0;}}@keyframes dash{to{stroke-dashoffset:0;}}#my-svg .edge-animation-slow{stroke-dasharray:9,5!important;stroke-dashoffset:900;animation:dash 50s linear infinite;stroke-linecap:round;}#my-svg .edge-animation-fast{stroke-dasharray:9,5!important;stroke-dashoffset:900;animation:dash 20s linear infinite;stroke-linecap:round;}#my-svg .error-icon{fill:#552222;}#my-svg .error-text{fill:#552222;stroke:#552222;}#my-svg .edge-thickness-normal{stroke-width:1px;}#my-svg .edge-thickness-thick{stroke-width:3.5px;}#my-svg .edge-pattern-solid{stroke-dasharray:0;}#my-svg .edge-thickness-invisible{stroke-width:0;fill:none;}#my-svg .edge-pattern-dashed{stroke-dasharray:3;}#my-svg .edge-pattern-dotted{stroke-dasharray:2;}#my-svg .marker{fill:#333333;stroke:#333333;}#my-svg .marker.cross{stroke:#333333;}#my-svg svg{font-family:"trebuchet ms",verdana,arial,sans-serif;font-size:16px;}#my-svg p{margin:0;}#my-svg g.classGroup text{fill:#9370DB;stroke:none;font-family:"trebuchet ms",verdana,arial,sans-serif;font-size:10px;}#my-svg g.classGroup text .title{font-weight:bolder;}#my-svg .cluster-label text{fill:#333;}#my-svg .cluster-label span{color:#333;}#my-svg .cluster-label span p{background-color:transparent;}#my-svg .cluster rect{fill:#ffffde;stroke:#aaaa33;stroke-width:1px;}#my-svg .cluster text{fill:#333;}#my-svg .cluster span{color:#333;}#my-svg .nodeLabel,#my-svg .edgeLabel{color:#131300;}#my-svg .edgeLabel .label rect{fill:#ECECFF;}#my-svg .label text{fill:#131300;}#my-svg .labelBkg{background:#ECECFF;}#my-svg .edgeLabel .label span{background:#ECECFF;}#my-svg .classTitle{font-weight:bolder;}#my-svg .node rect,#my-svg .node circle,#my-svg .node ellipse,#my-svg .node polygon,#my-svg .node path{fill:#ECECFF;stroke:#9370DB;stroke-width:1px;}#my-svg .divider{stroke:#9370DB;stroke-width:1;}#my-svg g.clickable{cursor:pointer;}#my-svg g.classGroup rect{fill:#ECECFF;stroke:#9370DB;}#my-svg g.classGroup line{stroke:#9370DB;stroke-width:1;}#my-svg .classLabel .box{stroke:none;stroke-width:0;fill:#ECECFF;opacity:0.5;}#my-svg .classLabel .label{fill:#9370DB;font-size:10px;}#my-svg .relation{stroke:#333333;stroke-width:1;fill:none;}#my-svg .dashed-line{stroke-dasharray:3;}#my-svg .dotted-line{stroke-dasharray:1 2;}#my-svg #compositionStart,#my-svg .composition{fill:#333333!important;stroke:#333333!important;stroke-width:1;}#my-svg #compositionEnd,#my-svg .composition{fill:#333333!important;stroke:#333333!important;stroke-width:1;}#my-svg #dependencyStart,#my-svg .dependency{fill:#333333!important;stroke:#333333!important;stroke-width:1;}#my-svg #dependencyStart,#my-svg .dependency{fill:#333333!important;stroke:#333333!important;stroke-width:1;}#my-svg #extensionStart,#my-svg .extension{fill:transparent!important;stroke:#333333!important;stroke-width:1;}#my-svg #extensionEnd,#my-svg .extension{fill:transparent!important;stroke:#333333!important;stroke-width:1;}#my-svg #aggregationStart,#my-svg .aggregation{fill:transparent!important;stroke:#333333!important;stroke-width:1;}#my-svg #aggregationEnd,#my-svg .aggregation{fill:transparent!important;stroke:#333333!important;stroke-width:1;}#my-svg #lollipopStart,#my-svg .lollipop{fill:#ECECFF!important;stroke:#333333!important;stroke-width:1;}#my-svg #lollipopEnd,#my-svg .lollipop{fill:#ECECFF!important;stroke:#333333!important;stroke-width:1;}#my-svg .edgeTerminals{font-size:11px;line-height:initial;}#my-svg .classTitleText{text-anchor:middle;font-size:18px;fill:#333;}#my-svg .label-icon{display:inline-block;height:1em;overflow:visible;vertical-align:-0.125em;}#my-svg .node .label-icon path{fill:currentColor;stroke:revert;stroke-width:revert;}#my-svg :root{--mermaid-font-family:"trebuchet ms",verdana,arial,sans-serif;}</style><g><defs><marker id="my-svg_class-aggregationStart" class="marker aggregation class" refX="18" refY="7" markerWidth="190" markerHeight="240" orient="auto"><path d="M 18,7 L9,13 L1,7 L9,1 Z"/></marker></defs><defs><marker id="my-svg_class-aggregationEnd" class="marker aggregation class" refX="1" refY="7" markerWidth="20" markerHeight="28" orient="auto"><path d="M 18,7 L9,13 L1,7 L9,1 Z"/></marker></defs><defs><marker id="my-svg_class-extensionStart" class="marker extension class" refX="18" refY="7" markerWidth="190" markerHeight="240" orient="auto"><path d="M 1,7 L18,13 V 1 Z"/></marker></defs><defs><marker id="my-svg_class-extensionEnd" class="marker extension class" refX="1" refY="7" markerWidth="20" markerHeight="28" orient="auto"><path d="M 1,1 V 13 L18,7 Z"/></marker></defs><defs><marker id="my-svg_class-compositionStart" class="marker composition class" refX="18" refY="7" markerWidth="190" markerHeight="240" orient="auto"><path d="M 18,7 L9,13 L1,7 L9,1 Z"/></marker></defs><defs><marker id="my-svg_class-compositionEnd" class="marker composition class" refX="1" refY="7" markerWidth="20" markerHeight="28" orient="auto"><path d="M 18,7 L9,13 L1,7 L9,1 Z"/></marker></defs><defs><marker id="my-svg_class-dependencyStart" class="marker dependency class" refX="6" refY="7" markerWidth="190" markerHeight="240" orient="auto"><path d="M 5,7 L9,13 L1,7 L9,1 Z"/></marker></defs><defs><marker id="my-svg_class-dependencyEnd" class="marker dependency class" refX="13" refY="7" markerWidth="20" markerHeight="28" orient="auto"><path d="M 18,7 L9,13 L14,7 L9,1 Z"/></marker></defs><defs><marker id="my-svg_class-lollipopStart" class="marker lollipop class" refX="13" refY="7" markerWidth="190" markerHeight="240" orient="auto"><circle fill="transparent" cx="7" cy="7" r="6"/></marker></defs><defs><marker id="my-svg_class-lollipopEnd" class="marker lollipop class" refX="1" refY="7" markerWidth="190" markerHeight="240" orient="auto"><circle fill="transparent" cx="7" cy="7" r="6"/></marker></defs><g class="root"><g class="clusters"/><g class="edgePaths"><path d="M183.891,171L185.182,171C186.474,171,189.057,171,194.516,171C199.974,171,208.307,171,212.474,171L216.641,171" id="id_CredentialSubject_BankAccount_1" class="edge-thickness-normal edge-pattern-solid relation" style=";;;" data-edge="true" data-et="edge" data-id="id_CredentialSubject_BankAccount_1" data-points="W3sieCI6MTY2LjY0MDYyNSwieSI6MTcxfSx7IngiOjE5MS42NDA2MjUsInkiOjE3MX0seyJ4IjoyMTYuNjQwNjI1LCJ5IjoxNzF9XQ==" marker-start="url(#my-svg_class-extensionStart)"/><path d="M500.609,116.218L509.775,112.681C518.94,109.145,537.271,102.073,554.612,99.709C571.953,97.346,588.304,99.692,596.479,100.865L604.655,102.038" id="id_BankAccount_EconomicOperator_2" class="edge-thickness-normal edge-pattern-solid relation" style=";;;" data-edge="true" data-et="edge" data-id="id_BankAccount_EconomicOperator_2" data-points="W3sieCI6NTAwLjYwOTM3NSwieSI6MTE2LjIxNzc4NDQ3NjI2MjI0fSx7IngiOjU1NS42MDE1NjI1LCJ5Ijo5NX0seyJ4Ijo2MTAuNTkzNzUsInkiOjEwMi44OTA2NTI0Njc0NTMwN31d" marker-end="url(#my-svg_class-dependencyEnd)"/><path d="M500.609,171L509.775,171C518.94,171,537.271,171,554.658,168.104C572.046,165.208,588.49,159.417,596.712,156.521L604.934,153.625" id="id_BankAccount_EconomicOperator_3" class="edge-thickness-normal edge-pattern-solid relation" style=";;;" data-edge="true" data-et="edge" data-id="id_BankAccount_EconomicOperator_3" data-points="W3sieCI6NTAwLjYwOTM3NSwieSI6MTcxfSx7IngiOjU1NS42MDE1NjI1LCJ5IjoxNzF9LHsieCI6NjEwLjU5Mzc1LCJ5IjoxNTEuNjMyMDM0ODUyNjE1MjJ9XQ==" marker-end="url(#my-svg_class-dependencyEnd)"/><path d="M500.609,241.64L509.775,246.2C518.94,250.76,537.271,259.88,566.346,264.44C595.421,269,635.24,269,655.149,269L675.059,269" id="id_BankAccount_Iban_4" class="edge-thickness-normal edge-pattern-solid relation" style=";;;" data-edge="true" data-et="edge" data-id="id_BankAccount_Iban_4" data-points="W3sieCI6NTAwLjYwOTM3NSwieSI6MjQxLjY0MDIyNTI4MDYwOTIzfSx7IngiOjU1NS42MDE1NjI1LCJ5IjoyNjl9LHsieCI6NjgxLjA1ODU5Mzc1LCJ5IjoyNjl9XQ==" marker-end="url(#my-svg_class-dependencyEnd)"/><path d="M807.258,75.029L817.031,70.858C826.805,66.686,846.352,58.343,864.898,54.172C883.445,50,900.992,50,909.766,50L918.539,50" id="id_EconomicOperator_ClearingNumber_5" class="edge-thickness-normal edge-pattern-solid relation" style=";;;" data-edge="true" data-et="edge" data-id="id_EconomicOperator_ClearingNumber_5" data-points="W3sieCI6ODA3LjI1NzgxMjUsInkiOjc1LjAyOTMzOTMwNTcxMTA5fSx7IngiOjg2NS44OTg0Mzc1LCJ5Ijo1MH0seyJ4Ijo5MjQuNTM5MDYyNSwieSI6NTB9XQ==" marker-end="url(#my-svg_class-dependencyEnd)"/><path d="M807.258,158.971L817.031,163.142C826.805,167.314,846.352,175.657,873.069,179.828C899.786,184,933.674,184,950.618,184L967.563,184" id="id_EconomicOperator_Bic_6" class="edge-thickness-normal edge-pattern-solid relation" style=";;;" data-edge="true" data-et="edge" data-id="id_EconomicOperator_Bic_6" data-points="W3sieCI6ODA3LjI1NzgxMjUsInkiOjE1OC45NzA2NjA2OTQyODg5fSx7IngiOjg2NS44OTg0Mzc1LCJ5IjoxODR9LHsieCI6OTczLjU2MjUsInkiOjE4NH1d" marker-end="url(#my-svg_class-dependencyEnd)"/></g><g class="edgeLabels"><g class="edgeLabel"><g class="label" data-id="id_CredentialSubject_BankAccount_1" transform="translate(0, 0)"><foreignObject width="0" height="0"><div xmlns="http://www.w3.org/1999/xhtml" class="labelBkg" style="display: table-cell; white-space: nowrap; line-height: 1.5; max-width: 200px; text-align: center;"><span class="edgeLabel"></span></div></foreignObject></g></g><g class="edgeLabel" transform="translate(554.02108, 95.6098)"><g class="label" data-id="id_BankAccount_EconomicOperator_2" transform="translate(-22.09375, -12)"><foreignObject width="44.1875" height="24"><div xmlns="http://www.w3.org/1999/xhtml" class="labelBkg" style="display: table-cell; white-space: nowrap; line-height: 1.5; max-width: 200px; text-align: center;"><span class="edgeLabel"><p>owner</p></span></div></foreignObject></g></g><g class="edgeLabel" transform="translate(555.6015625, 171)"><g class="label" data-id="id_BankAccount_EconomicOperator_3" transform="translate(-29.9921875, -12)"><foreignObject width="59.984375" height="24"><div xmlns="http://www.w3.org/1999/xhtml" class="labelBkg" style="display: table-cell; white-space: nowrap; line-height: 1.5; max-width: 200px; text-align: center;"><span class="edgeLabel"><p>provider</p></span></div></foreignObject></g></g><g class="edgeLabel" transform="translate(555.6015625, 269)"><g class="label" data-id="id_BankAccount_Iban_4" transform="translate(-15.3125, -12)"><foreignObject width="30.625" height="24"><div xmlns="http://www.w3.org/1999/xhtml" class="labelBkg" style="display: table-cell; white-space: nowrap; line-height: 1.5; max-width: 200px; text-align: center;"><span class="edgeLabel"><p>iban</p></span></div></foreignObject></g></g><g class="edgeLabel" transform="translate(865.8984375, 50)"><g class="label" data-id="id_EconomicOperator_ClearingNumber_5" transform="translate(-33.640625, -12)"><foreignObject width="67.28125" height="24"><div xmlns="http://www.w3.org/1999/xhtml" class="labelBkg" style="display: table-cell; white-space: nowrap; line-height: 1.5; max-width: 200px; text-align: center;"><span class="edgeLabel"><p>identifier</p></span></div></foreignObject></g></g><g class="edgeLabel" transform="translate(865.8984375, 184)"><g class="label" data-id="id_EconomicOperator_Bic_6" transform="translate(-33.640625, -12)"><foreignObject width="67.28125" height="24"><div xmlns="http://www.w3.org/1999/xhtml" class="labelBkg" style="display: table-cell; white-space: nowrap; line-height: 1.5; max-width: 200px; text-align: center;"><span class="edgeLabel"><p>identifier</p></span></div></foreignObject></g></g></g><g class="nodes"><g class="node default" id="classId-BankAccount-0" transform="translate(358.625, 171)"><g class="basic label-container"><path d="M-141.984375 -120 L141.984375 -120 L141.984375 120 L-141.984375 120" stroke="none" stroke-width="0" fill="#ECECFF" style=""/><path d="M-141.984375 -120 C-53.591909466871115 -120, 34.80055606625777 -120, 141.984375 -120 M-141.984375 -120 C-34.29113448524812 -120, 73.40210602950376 -120, 141.984375 -120 M141.984375 -120 C141.984375 -63.35049103970124, 141.984375 -6.700982079402479, 141.984375 120 M141.984375 -120 C141.984375 -48.26923140874749, 141.984375 23.461537182505026, 141.984375 120 M141.984375 120 C57.47045517744782 120, -27.043464645104365 120, -141.984375 120 M141.984375 120 C46.463758555461254 120, -49.05685788907749 120, -141.984375 120 M-141.984375 120 C-141.984375 59.84653030031454, -141.984375 -0.3069393993709184, -141.984375 -120 M-141.984375 120 C-141.984375 30.574607842777738, -141.984375 -58.850784314444525, -141.984375 -120" stroke="#9370DB" stroke-width="1.3" fill="none" stroke-dasharray="0 0" style=""/></g><g class="annotation-group text" transform="translate(-24.0234375, -96)"><g class="label" style="" transform="translate(0,-12)"><foreignObject width="48.046875" height="24"><div xmlns="http://www.w3.org/1999/xhtml" style="display: table-cell; white-space: nowrap; line-height: 1.5; max-width: 102px; text-align: center;"><span class="nodeLabel markdown-node-label" style=""><p>«EBW»</p></span></div></foreignObject></g></g><g class="label-group text" transform="translate(-48.53125, -72)"><g class="label" style="font-weight: bolder" transform="translate(0,-12)"><foreignObject width="97.0625" height="24"><div xmlns="http://www.w3.org/1999/xhtml" style="display: table-cell; white-space: nowrap; line-height: 1.5; max-width: 138px; text-align: center;"><span class="nodeLabel markdown-node-label" style=""><p>BankAccount</p></span></div></foreignObject></g></g><g class="members-group text" transform="translate(-129.984375, -24)"><g class="label" style="" transform="translate(0,-12)"><foreignObject width="156.75" height="24"><div xmlns="http://www.w3.org/1999/xhtml" style="display: table-cell; white-space: nowrap; line-height: 1.5; max-width: 196px; text-align: center;"><span class="nodeLabel markdown-node-label" style=""><p>+accountName: string</p></span></div></foreignObject></g><g class="label" style="" transform="translate(0,12)"><foreignObject width="149.109375" height="24"><div xmlns="http://www.w3.org/1999/xhtml" style="display: table-cell; white-space: nowrap; line-height: 1.5; max-width: 190px; text-align: center;"><span class="nodeLabel markdown-node-label" style=""><p>+accountType: string</p></span></div></foreignObject></g><g class="label" style="" transform="translate(0,36)"><foreignObject width="80.234375" height="24"><div xmlns="http://www.w3.org/1999/xhtml" style="display: table-cell; white-space: nowrap; line-height: 1.5; max-width: 128px; text-align: center;"><span class="nodeLabel markdown-node-label" style=""><p>+iban: Iban</p></span></div></foreignObject></g><g class="label" style="" transform="translate(0,60)"><foreignObject width="195.640625" height="24"><div xmlns="http://www.w3.org/1999/xhtml" style="display: table-cell; white-space: nowrap; line-height: 1.5; max-width: 234px; text-align: center;"><span class="nodeLabel markdown-node-label" style=""><p>+owner: EconomicOperator</p></span></div></foreignObject></g><g class="label" style="" transform="translate(0,84)"><foreignObject width="211.4375" height="24"><div xmlns="http://www.w3.org/1999/xhtml" style="display: table-cell; white-space: nowrap; line-height: 1.5; max-width: 248px; text-align: center;"><span class="nodeLabel markdown-node-label" style=""><p>+provider: EconomicOperator</p></span></div></foreignObject></g></g><g class="methods-group text" transform="translate(-129.984375, 120)"/><g class="divider" style=""><path d="M-141.984375 -48 C-47.43569393858016 -48, 47.112987122839684 -48, 141.984375 -48 M-141.984375 -48 C-35.15494786268005 -48, 71.6744792746399 -48, 141.984375 -48" stroke="#9370DB" stroke-width="1.3" fill="none" stroke-dasharray="0 0" style=""/></g><g class="divider" style=""><path d="M-141.984375 96 C-73.25819118966716 96, -4.532007379334317 96, 141.984375 96 M-141.984375 96 C-83.62845054588549 96, -25.27252609177097 96, 141.984375 96" stroke="#9370DB" stroke-width="1.3" fill="none" stroke-dasharray="0 0" style=""/></g></g><g class="node default" id="classId-EconomicOperator-1" transform="translate(708.92578125, 117)"><g class="basic label-container"><path d="M-98.33203125 -60 L98.33203125 -60 L98.33203125 60 L-98.33203125 60" stroke="none" stroke-width="0" fill="#ECECFF" style=""/><path d="M-98.33203125 -60 C-45.11409311360802 -60, 8.103845022783958 -60, 98.33203125 -60 M-98.33203125 -60 C-48.49324812008075 -60, 1.3455350098384997 -60, 98.33203125 -60 M98.33203125 -60 C98.33203125 -12.009860880609011, 98.33203125 35.98027823878198, 98.33203125 60 M98.33203125 -60 C98.33203125 -29.538319543730314, 98.33203125 0.9233609125393727, 98.33203125 60 M98.33203125 60 C27.5550201075674 60, -43.2219910348652 60, -98.33203125 60 M98.33203125 60 C41.42663591540582 60, -15.478759419188364 60, -98.33203125 60 M-98.33203125 60 C-98.33203125 26.922954220313258, -98.33203125 -6.154091559373484, -98.33203125 -60 M-98.33203125 60 C-98.33203125 22.580799266498644, -98.33203125 -14.838401467002711, -98.33203125 -60" stroke="#9370DB" stroke-width="1.3" fill="none" stroke-dasharray="0 0" style=""/></g><g class="annotation-group text" transform="translate(0, -36)"/><g class="label-group text" transform="translate(-69.2109375, -36)"><g class="label" style="font-weight: bolder" transform="translate(0,-12)"><foreignObject width="138.421875" height="24"><div xmlns="http://www.w3.org/1999/xhtml" style="display: table-cell; white-space: nowrap; line-height: 1.5; max-width: 172px; text-align: center;"><span class="nodeLabel markdown-node-label" style=""><p>EconomicOperator</p></span></div></foreignObject></g></g><g class="members-group text" transform="translate(-86.33203125, 12)"><g class="label" style="" transform="translate(0,-12)"><foreignObject width="103.453125" height="24"><div xmlns="http://www.w3.org/1999/xhtml" style="display: table-cell; white-space: nowrap; line-height: 1.5; max-width: 142px; text-align: center;"><span class="nodeLabel markdown-node-label" style=""><p>identifier: List</p></span></div></foreignObject></g></g><g class="methods-group text" transform="translate(-86.33203125, 60)"/><g class="divider" style=""><path d="M-98.33203125 -12 C-25.399775786870435 -12, 47.53247967625913 -12, 98.33203125 -12 M-98.33203125 -12 C-45.71380149954944 -12, 6.90442825090112 -12, 98.33203125 -12" stroke="#9370DB" stroke-width="1.3" fill="none" stroke-dasharray="0 0" style=""/></g><g class="divider" style=""><path d="M-98.33203125 36 C-23.22720053348057 36, 51.87763018303886 36, 98.33203125 36 M-98.33203125 36 C-39.94420677221764 36, 18.44361770556472 36, 98.33203125 36" stroke="#9370DB" stroke-width="1.3" fill="none" stroke-dasharray="0 0" style=""/></g></g><g class="node default" id="classId-Bic-2" transform="translate(996.8046875, 184)"><g class="basic label-container"><path d="M-23.2421875 -42 L23.2421875 -42 L23.2421875 42 L-23.2421875 42" stroke="none" stroke-width="0" fill="#ECECFF" style=""/><path d="M-23.2421875 -42 C-13.545837700199476 -42, -3.8494879003989517 -42, 23.2421875 -42 M-23.2421875 -42 C-9.549570176611672 -42, 4.143047146776656 -42, 23.2421875 -42 M23.2421875 -42 C23.2421875 -17.66628006812873, 23.2421875 6.667439863742537, 23.2421875 42 M23.2421875 -42 C23.2421875 -19.036886494557482, 23.2421875 3.926227010885036, 23.2421875 42 M23.2421875 42 C12.86372866746077 42, 2.4852698349215387 42, -23.2421875 42 M23.2421875 42 C9.609674783546469 42, -4.022837932907063 42, -23.2421875 42 M-23.2421875 42 C-23.2421875 22.872396602288163, -23.2421875 3.7447932045763253, -23.2421875 -42 M-23.2421875 42 C-23.2421875 9.325299365484376, -23.2421875 -23.349401269031247, -23.2421875 -42" stroke="#9370DB" stroke-width="1.3" fill="none" stroke-dasharray="0 0" style=""/></g><g class="annotation-group text" transform="translate(0, -18)"/><g class="label-group text" transform="translate(-11.2421875, -18)"><g class="label" style="font-weight: bolder" transform="translate(0,-12)"><foreignObject width="22.484375" height="24"><div xmlns="http://www.w3.org/1999/xhtml" style="display: table-cell; white-space: nowrap; line-height: 1.5; max-width: 72px; text-align: center;"><span class="nodeLabel markdown-node-label" style=""><p>Bic</p></span></div></foreignObject></g></g><g class="members-group text" transform="translate(-11.2421875, 30)"/><g class="methods-group text" transform="translate(-11.2421875, 60)"/><g class="divider" style=""><path d="M-23.2421875 6 C-11.984717586664578 6, -0.7272476733291562 6, 23.2421875 6 M-23.2421875 6 C-7.02431117494751 6, 9.19356515010498 6, 23.2421875 6" stroke="#9370DB" stroke-width="1.3" fill="none" stroke-dasharray="0 0" style=""/></g><g class="divider" style=""><path d="M-23.2421875 24 C-9.904204145849478 24, 3.4337792083010434 24, 23.2421875 24 M-23.2421875 24 C-9.196147277200675 24, 4.849892945598651 24, 23.2421875 24" stroke="#9370DB" stroke-width="1.3" fill="none" stroke-dasharray="0 0" style=""/></g></g><g class="node default" id="classId-Iban-3" transform="translate(708.92578125, 269)"><g class="basic label-container"><path d="M-27.8671875 -42 L27.8671875 -42 L27.8671875 42 L-27.8671875 42" stroke="none" stroke-width="0" fill="#ECECFF" style=""/><path d="M-27.8671875 -42 C-8.08011009628347 -42, 11.706967307433061 -42, 27.8671875 -42 M-27.8671875 -42 C-15.803753743186013 -42, -3.7403199863720253 -42, 27.8671875 -42 M27.8671875 -42 C27.8671875 -19.337106471116204, 27.8671875 3.3257870577675916, 27.8671875 42 M27.8671875 -42 C27.8671875 -9.40611022831991, 27.8671875 23.18777954336018, 27.8671875 42 M27.8671875 42 C10.147908643494588 42, -7.571370213010823 42, -27.8671875 42 M27.8671875 42 C16.522603487904718 42, 5.178019475809432 42, -27.8671875 42 M-27.8671875 42 C-27.8671875 22.8199714528821, -27.8671875 3.639942905764201, -27.8671875 -42 M-27.8671875 42 C-27.8671875 21.451148540782093, -27.8671875 0.9022970815641855, -27.8671875 -42" stroke="#9370DB" stroke-width="1.3" fill="none" stroke-dasharray="0 0" style=""/></g><g class="annotation-group text" transform="translate(0, -18)"/><g class="label-group text" transform="translate(-15.8671875, -18)"><g class="label" style="font-weight: bolder" transform="translate(0,-12)"><foreignObject width="31.734375" height="24"><div xmlns="http://www.w3.org/1999/xhtml" style="display: table-cell; white-space: nowrap; line-height: 1.5; max-width: 78px; text-align: center;"><span class="nodeLabel markdown-node-label" style=""><p>Iban</p></span></div></foreignObject></g></g><g class="members-group text" transform="translate(-15.8671875, 30)"/><g class="methods-group text" transform="translate(-15.8671875, 60)"/><g class="divider" style=""><path d="M-27.8671875 6 C-15.26593513794062 6, -2.6646827758812393 6, 27.8671875 6 M-27.8671875 6 C-14.094490307109504 6, -0.3217931142190089 6, 27.8671875 6" stroke="#9370DB" stroke-width="1.3" fill="none" stroke-dasharray="0 0" style=""/></g><g class="divider" style=""><path d="M-27.8671875 24 C-9.233201572568618 24, 9.400784354862765 24, 27.8671875 24 M-27.8671875 24 C-8.757908592919549 24, 10.351370314160903 24, 27.8671875 24" stroke="#9370DB" stroke-width="1.3" fill="none" stroke-dasharray="0 0" style=""/></g></g><g class="node default" id="classId-ClearingNumber-4" transform="translate(996.8046875, 50)"><g class="basic label-container"><path d="M-72.265625 -42 L72.265625 -42 L72.265625 42 L-72.265625 42" stroke="none" stroke-width="0" fill="#ECECFF" style=""/><path d="M-72.265625 -42 C-15.589680044089945 -42, 41.08626491182011 -42, 72.265625 -42 M-72.265625 -42 C-25.870183373720195 -42, 20.52525825255961 -42, 72.265625 -42 M72.265625 -42 C72.265625 -12.338662121040894, 72.265625 17.322675757918212, 72.265625 42 M72.265625 -42 C72.265625 -23.44528021321493, 72.265625 -4.890560426429857, 72.265625 42 M72.265625 42 C19.969109750163803 42, -32.327405499672395 42, -72.265625 42 M72.265625 42 C39.345288058052724 42, 6.424951116105447 42, -72.265625 42 M-72.265625 42 C-72.265625 10.939349408092099, -72.265625 -20.121301183815802, -72.265625 -42 M-72.265625 42 C-72.265625 20.762664469187474, -72.265625 -0.47467106162505246, -72.265625 -42" stroke="#9370DB" stroke-width="1.3" fill="none" stroke-dasharray="0 0" style=""/></g><g class="annotation-group text" transform="translate(0, -18)"/><g class="label-group text" transform="translate(-60.265625, -18)"><g class="label" style="font-weight: bolder" transform="translate(0,-12)"><foreignObject width="120.53125" height="24"><div xmlns="http://www.w3.org/1999/xhtml" style="display: table-cell; white-space: nowrap; line-height: 1.5; max-width: 158px; text-align: center;"><span class="nodeLabel markdown-node-label" style=""><p>ClearingNumber</p></span></div></foreignObject></g></g><g class="members-group text" transform="translate(-60.265625, 30)"/><g class="methods-group text" transform="translate(-60.265625, 60)"/><g class="divider" style=""><path d="M-72.265625 6 C-37.805142206348094 6, -3.3446594126961884 6, 72.265625 6 M-72.265625 6 C-20.036537548604826 6, 32.19254990279035 6, 72.265625 6" stroke="#9370DB" stroke-width="1.3" fill="none" stroke-dasharray="0 0" style=""/></g><g class="divider" style=""><path d="M-72.265625 24 C-22.21555459188057 24, 27.834515816238863 24, 72.265625 24 M-72.265625 24 C-24.618892262536434 24, 23.02784047492713 24, 72.265625 24" stroke="#9370DB" stroke-width="1.3" fill="none" stroke-dasharray="0 0" style=""/></g></g><g class="node default" id="classId-CredentialSubject-5" transform="translate(87.3203125, 171)"><g class="basic label-container"><path d="M-79.3203125 -54 L79.3203125 -54 L79.3203125 54 L-79.3203125 54" stroke="none" stroke-width="0" fill="#ECECFF" style=""/><path d="M-79.3203125 -54 C-44.89662243982384 -54, -10.472932379647673 -54, 79.3203125 -54 M-79.3203125 -54 C-43.50195030811888 -54, -7.6835881162377575 -54, 79.3203125 -54 M79.3203125 -54 C79.3203125 -20.183768140486222, 79.3203125 13.632463719027555, 79.3203125 54 M79.3203125 -54 C79.3203125 -32.2160133393337, 79.3203125 -10.432026678667405, 79.3203125 54 M79.3203125 54 C44.12068758360756 54, 8.921062667215125 54, -79.3203125 54 M79.3203125 54 C29.363215403844066 54, -20.593881692311868 54, -79.3203125 54 M-79.3203125 54 C-79.3203125 19.36370946563205, -79.3203125 -15.272581068735903, -79.3203125 -54 M-79.3203125 54 C-79.3203125 26.118666130849444, -79.3203125 -1.7626677383011113, -79.3203125 -54" stroke="#9370DB" stroke-width="1.3" fill="none" stroke-dasharray="0 0" style=""/></g><g class="annotation-group text" transform="translate(-38.34375, -30)"><g class="label" style="" transform="translate(0,-12)"><foreignObject width="76.6875" height="24"><div xmlns="http://www.w3.org/1999/xhtml" style="display: table-cell; white-space: nowrap; line-height: 1.5; max-width: 118px; text-align: center;"><span class="nodeLabel markdown-node-label" style=""><p>«external»</p></span></div></foreignObject></g></g><g class="label-group text" transform="translate(-67.3203125, -6)"><g class="label" style="font-weight: bolder" transform="translate(0,-12)"><foreignObject width="134.640625" height="24"><div xmlns="http://www.w3.org/1999/xhtml" style="display: table-cell; white-space: nowrap; line-height: 1.5; max-width: 165px; text-align: center;"><span class="nodeLabel markdown-node-label" style=""><p>CredentialSubject</p></span></div></foreignObject></g></g><g class="members-group text" transform="translate(-67.3203125, 42)"/><g class="methods-group text" transform="translate(-67.3203125, 72)"/><g class="divider" style=""><path d="M-79.3203125 18 C-21.587968053534134 18, 36.14437639293173 18, 79.3203125 18 M-79.3203125 18 C-44.56747308024951 18, -9.814633660499027 18, 79.3203125 18" stroke="#9370DB" stroke-width="1.3" fill="none" stroke-dasharray="0 0" style=""/></g><g class="divider" style=""><path d="M-79.3203125 36 C-47.27953582751301 36, -15.238759155026017 36, 79.3203125 36 M-79.3203125 36 C-19.80560470421443 36, 39.70910309157114 36, 79.3203125 36" stroke="#9370DB" stroke-width="1.3" fill="none" stroke-dasharray="0 0" style=""/></g></g></g></g></g></svg>